<?xml version="1.0" encoding="UTF-8"?>
<svg id="Calque_2" data-name="Calque 2" xmlns="http://www.w3.org/2000/svg" viewBox="0 0 183.81 183.82">
  <g id="Calque_1-2" data-name="Calque 1">
    <path id="_8" data-name="8" d="M51.04,74.75c2.07-1,1.05-.71,4.04-1.34.28.09.19.08.33,0-.11.03-.22.05-.33.08.04-.29-1.1-.75.07-.88,11.01-1.23,11.57-1.54,12.54.14,1.67,2.91,1.82,3.02,2.13,3.03.06,0,.2-.23.19-.34-.2-1.89-.39-3.78-.66-5.65-.03-.19-.62-.46-.92-.43-4.2.44-8.54,1.26-10.55,1.78-6.38,1.66-10.31-2.43-17.15-2.8-6.15-.34-11.71-6.81-15.74-11.48-1.94-2.25-3.09-7.34-2.05-11.57,1.1-4.45,4.01-4.42,1.74-5.16-2.83-.93-4.67-2.94-6-5.46-4.27-8.08-5.71-14.48-4.66-26.96.58-6.85,7.61-10.51,16.68-5.13,14.27,8.46,17.33,15.6,31,31.46,11.1,12.89,11.19,12.74,17.07,17.85.87.76.96.61,1.71-.43,3.78-5.14,4.87-4.87,5.93-8.35,1.76-5.78,1-8.16,1.38-9.58,2.59.88,1.97,2.36,4.79-.03.1-.09.27-.1.4-.15.39,2.01-1.35.52-3.09,5.54-1.19,3.43-2.57,6.82-2.99,10.49-.45,3.93-2.53,5.78-.34,6,.95.1,1.87.41,2.82-.57.79-.82,7.17-2.11,8.3-2.29,3.97-.64,5.45.44,5.17-1.38-.67-4.37,1.1-4.96-.25-8.17-1.17-2.78-.84-5.19,1.12-7.52,3.41-4.06.71-4.99,1.61-5.31.41-.14.6.49.79.72.12.14.29.24.44.36.66-1.35.32-2.56-.7-3.41-.22-.18-.31-.51-.45-.78.33.14.72.21.97.44,1.55,1.4,1.69,2.3.71,4.18-1.98,3.81-2.36,3.4-.33,5.76,2.41,2.81,1.01,4.36,2.82,6.11,1.16,1.12.99,2.78,1.18,4.26.06.46-.07.95-.07,1.42,0,.18.12.36.19.55.11-.1.26-.19.31-.31,1.29-3.32,4.49-4.81,6.84-7.12,1.1-1.08,6.07-1.58,8.64.87.17.16.57.07.86.1-.07-.26-.05-.63-.21-.76-1.49-1.17-2.97-2.35-4.54-3.41-1.61-1.1-2.75-1.81.31-6.98,1.47-2.48,3.27-4.68,5.85-6.11.16-.09.43,0,.65.02-.04.2-.01.47-.13.6-.77.81-3.56,3.13-5.25,6.68-2.09,4.4,3.78,4.17,6.27,8.61.75,1.34,2.06-.55,6.69,1.82.3.15.47.56.7.85-.28.12-.55.33-.83.35-.7.05-.83.43-.5.91.91,1.35,2.35,2.35,2.33.82,0-.25.27-.5.42-.75.24.18.58.31.71.55.88,1.63,1.47,3.35,1.35,5.23-.15,2.25,1.24.72,4.56,5.99,2.6,4.13,5.08,2.17,9.09-1.23.72-.61,1.34-1.36,2.04-2,.17-.15.51-.12.77-.18-.02.22.05.5-.07.65-.76,1.01-1.44,2.12-2.36,2.96-2.05,1.88-4.25,3.58-6.96,4.43-3.06.96-2.26.24-7.14-5.84-.13-.17-.51-.14-.77-.21.03.29-.05.69.11.85,1.59,1.62,1.73,3.66,1.75,5.75.03,3.2-1.83,3.43-2.9,5.2-1.76,2.9-4.29,4-5.4,4.83.26.07.52.17.79.19,1.85.12,4.36.02,5.07.81,1.94,2.19,4.34.57,7.16,3.78,1.31,1.49,2.32.35,5.29-1.13,1.81-.91,3.5-.36,4.41,1.41.06.11.01.27.01.4-.15-.04-.35-.03-.43-.13-1.51-1.66-2.39-1.56-3.75-1.03.67.63.4.31,1.1,1.24-.29.02-.62.14-.87.05-1.87-.68-2.65.36-5.24,2.13-3.35,2.29-4.97.93-7.9.2-.53-.13-1.13-.33-1.62-.2-4.59,1.27-6.51-.73-6.52,1.07-.03,3.62-.83,7.11-1.85,10.55-.28.94-.11,2.02-1.16,2.73-.53.35-.24,2.69.25,3.1.56.48,3.4-1.01,4.72-1.09,3.38-.2,6.47-1.51,9.65-2.47,5.09-1.54,5.58-3.44,6.71-3.86.16-.06.4.08.61.13-.06.13-.08.29-.17.39-2.24,2.55-1.32,2.21.13,4.68-.2.09-.4.25-.6.27-1.9.17-1.89-.85-10.28,1.51-2.13.6-4.08,4.27-7.41,5.77-.88.4-.84.83-.36,1.4,3.38,4.03,4.86,6.5,19.5,18.41,23.29,18.95,24.7,21.18,30.29,30.48,4.92,8.19,1.03,15.32-4.77,16.01-13.02,1.54-21.09-.8-28.86-5.4-5.19-3.08-3.68-7.47-5.51-5.58-3.09,3.21-7.57,2.57-11.68,1.86-1.76-.3-3.19-1.25-4.55-2.43-2.59-2.24-5-4.62-7.19-7.24-2.09-2.49-3.48-5.32-3.62-8.61-.09-2.1-.65-4.04-1.33-6-2.83-8.19-1.53-9.25-.98-12.53,1.53-9.12,2-9.42.24-9.54-1.58-.1-3.14-.36-4.72-.52-.19-.02-.4.13-.6.21.34.48-.16.33,3.05,2.14,1.57.88,1.31,1.87.68,8.3-.15,1.49-.36,2.97-.54,4.46-.29-.05-.58-.11-.86-.16.15-.26.12-.17.07-.33.02.6-.33,2.24-.51,2.8-.17.56-.55,1.05-.84,1.57,0,0-.05,0-.05,0-.1-.57-.2-1.15-.3-1.72v.07c0-.24,0-.49,0-.73v.03c.11-1.25.22-2.51.32-3.76.15.04.3.08.45.11l-.14-.42c.81-2.69.69-2.92,1.41-2.7-.14.27-.12.18-.02.33-.12-.79.02-1.26-.09-2.11-.14-1.03-.18-1.02-1.05-.4-2.34,1.68-3.81,3.98-4.85,6.62-1.34,3.4-2.91,6.68-5,9.69-3.36,4.84-5.76,7.55-4.39,10.98.4,1,.88,1.3.93,2.54-.03-.12-.06-.23-.1-.35.35-.78.7-1.57,1.05-2.35h-.01c1.06.32.57,1.48,2.02-3.42l.38.38c0,.22.03,1.63.04,1.77-.15-.62-.08-.09-.13-1.77.04-.13.08-.26.12-.39-.14.03-.28.07-.41.1q-.21-1.29,1.07-1.72h-.06c.35.35.69.7,1.04,1.05v-.1c-.12.59-.24,1.17-.35,1.76v-.04c-.76,1.53-1.23,3.29-3.05,4.03-.24.1-.7,2.27-2.57,3.19-.3.15-.46.57-.68.87.18-1.33.15-.92.12-1.69-.65.41-.33.13-1.27,1.02h.07c1.06-3.08.85-2.25.72-3.07-.19.11-.43.19-.57.34-.16.17-.2.43-.35.61-.13.16-.33.25-.5.37.16-.79.08-.38.3-1.61-1.43.87,2.17-1.97-19.42,16.96-3.74,3.28-6.23,7.32-7.71,12.06-.44,1.4-1.35,2.66-2.09,3.96-.14.24-.5.35-.75.52-.04-.28-.11-.56-.11-.84,0-.15.13-.3.15-.45.19-2.05-1.59-1.26-2.25-1.32-.28-.03-.55-.18-.83-.27.19-.21.33-.49.57-.62,2.58-1.4,3.76-4.01,5.4-6.21.13-.18-.04-.86-.1-.86-.95-.09-.61-.5-.23-.87,5.83-5.61,6.27-5.48,4.82-6-.05-.02-.02-.62.13-.72.52-.35,1.11-.6,1.67-.88,5.26-2.61,2.75-3.63,5.91-7.3,10.94-12.7,9.29-10.3,13.14-12.92,1.33-.91.84-.4,2.06-1.46-1.98-.3-1.12.23-2.06-.45.15-.15.29-.41.44-.42,2.71-.13,4.24-1.78,5.46-4,4.5-8.2,5.13-8.7,8.1-14.8.4-.82.3-1.42-.47-2.05-.65-.54-1.12-1.32-1.59-2.04-.45-.69-.91-.34-1.05.08-.76,2.3-2.06,4.42-2.35,6.87-.03.23,0,.56-.13.68-1.17,1.06-1.99,2.19-2.41,3.84-.34,1.36-1.48,2.54-2.39,3.71-.4.51-1.15.74-1.7,1.15-1.88,1.43-3.42,3.3-5.66,4.3-.6.27-1,1-1.51,1.5-.1.1-.29.09-.44.14.25-.95.41-.54.89-1.7-.42.26-1.44.92-1.6,1.38-.47,1.35-1.97,1.52-2.67,2.57-.05.07-.5,0-.5-.03-.07-2.04-.66-.71-.87-.1-.51,1.49-1.98.57-2.8,1.23-.82-.88-1.32.67-2.25.26-.68-.3-1.73-.09-2.49.2-.94.36-1.73,1.31-2.68.03-.11-.14-1.49.64-1.67.62-.46-.06-.88-.35-1.34-.45-.07-.02-.25.45-.38.7-.31-.24-.61-.49-.92-.73.19-.21.15-.13.09-.32,0,.11,0,.21-.01.32-.34.17-.7.31-1.02.5-1.82,1.08.05-1.81-1.71-1.07-.38.16-.85.08-1.29.09-1.89.07-2.03.09-2.22-1.41-.13-1.03-.24-1.06-.97-.43-.11.1-.62-.25-.94-.39.14-.24.28-.48.42-.71-.12,0-.24,0-.37,0,0,.24,0,.48.01.73-.56-.32-1.39-.5-1.61-.98-.46-.96-.88-1.64-2.08-1.33-.05.01-.16-.29-.27-.43-.42-.5-.79-1.07-1.3-1.45-.67-.49-1.43-.93-2.22-1.19-1.01-.33-.37-1.85-1.56-1.95.27-1.52-1.53-1.04-1.88-1.96-1.27.27-.86-1.37-1.75-1.53-.24-1.8-2.34-2.38-2.69-4.22-.13-.68-1.29-1.14-1.93-1.75-.18-.17-.19-.52-.28-.79.24,0,.49,0,.73.01,0-.12-.01-.24-.02-.37-.76.32-.55.21-.71.43-1.21-.53.4-1.4-.16-1.8-1.01-.72-2.45.64-2.21-2.99.05-.73.95-1.72-.78-1.48-.06,0-.28-.33-.24-.43.19-.49.45-.96.68-1.44.26.06.18.06.3-.02-.1.03-.2.07-.3.1-.24-.37-.48-.74-.72-1.1.91.1.72-.26.45-.86-.17-.37-.07-.89,0-1.32.05-.29.48-.62.41-.81-.34-.9-1.19-1.55-.09-2.73.57-.61.17-2.07.31-3.14.06-.43.38-.83.59-1.23.2-.39-.86-.64-.1-1.08,1.5-2.41,1.45-2.2,1.83-2.98-.48-.14-.12-.12-1.29-.13,2.57-3.4,3.37-3.23,4.22-4.84-1.53.98-.84.71-1.61.94.03-.14.01-.36.1-.42,2.04-1.3,2.27-4.1,4.46-5.32.6-.33,1.03-1.16,1.29-1.85.69-1.84,2.5-2.46,3.8-3.62.67-.6,2.53-.74,2.83-.96,1.22-.86,2.04-2.13,3.89-2.21,1.48-.07,2.92-1.05,4.37-1.64.51-.2,1.04-.38,1.52-.65,1.29-.73-.89-1.19-1.3-1.83-1.21-1.9-2.62-1.51-4.22-.59-20.03,11.47-15.01,7.53-17.92,13.38-.35-2.15-.06-1.34-.44-2.04-1.92,1.99-2.12,4.4-5.51,7.3-2.71,2.32-5.25,4.82-7.96,7.14-4.87,4.17-5.37,1.5-8.06,6.5-.34.62-.62,1.28-1,1.87-.08.12-.69.1-.71.04-.39-1.32-.39-1.09-5.84,4.73-.44.47-.77.9-.99-.14-.02-.08-.69-.17-.9-.02-2.3,1.64-4.9,2.97-6.31,5.62-.08.15-.35.19-.53.28-.41-1.02-.18-.48-.17-1.32.04-1.78,0-1.8-1.87-1.57-.26.03-.53-.1-.8-.15.12-.2.18-.49.35-.59,1.37-.78,2.68-1.75,4.16-2.22,4.73-1.5,8.77-3.98,12.04-7.72,10.55-12.08,15.47-17.04,16.96-19.4-1.24.21-.81.14-1.61.3,1.27-1.53.91-.34,1.31-1.41-.53-.18.19-.35-3.07.71v.08c.56-.6.3-.26,1.03-1.27-1.07.05-.63.02-1.67.11.22-.2.52-.35.66-.6,1.06-1.78,3.22-2.26,4.45-3.93.63-.86,1.96-1.2,2.98-1.77h-.05c.59-.1,1.18-.22,1.76-.33h-.1c.35.33.7.68,1.05,1.02v-.06c-.18.99-.66,1.52-1.73,1.07.04-.14.07-.27.11-.41-.13.04-.26.07-.39.11-.82-.03-.53-.02-1.35-.02-.13.04-.25.07-.38.11l.38-.2c.84,0,.54,0,1.35.02.12.13.25.26.37.39-4.98,1.47-3.69.95-3.42,2.03v-.03c-2.64,1.18-2.24,1.02-2.68,1.14.11-.06.21-.11.32-.17.45.08,1.03.02,1.33.28,4.62,4.01,9.69-4.21,21.45-8.74,3.61-1.39,5.03-2.67,6.75-4.97.25-.33.38-.77-.23-.86-.66-.1-1.33-.08-1.99-.11-.25-.15-.16-.13-.33-.04.11-.01.22-.02.33-.03.22.75,0,.6-2.69,1.42-.11-.05-.22-.1-.33-.15,0,.15.02.31.03.46-1.26.11-2.51.21-3.77.32h.05c-.25,0-.49,0-.74,0h.07c-.57-.1-1.14-.2-1.72-.29v-.07ZM84.09,123.28c.23.15.15.12.3.05-.1.01-.2.02-.3.03-.24-.09-.16-.08-.29-.01.1-.02.19-.05.29-.07ZM60.53,99.72c-.12.21-.1.13-.07.29,0-.1,0-.2-.01-.29.13-.24.1-.16.03-.29.02.1.03.2.05.29ZM61.51,137.77c.22.09.15.07.28.03-.09.02-.19.03-.28.05-.23-.02-.16-.03-.29.01.1-.03.19-.06.29-.09ZM138.23,52.48c-.07.04-.14.08-.2.11-.14,0-.28,0-.42,0,.5-.11.37-.08.62-.11ZM131.43,46.17c-.07-.13-.14-.25-.21-.38,0-.08.02-.15.02-.23.08.28.04.15.19.61ZM46.71,116.25c-1.82,2.76-2.73,5.83-3.05,9.09-.12.25-.1.17-.01.3-.02-.1-.04-.2-.06-.3.35-.35.69-.7,1.04-1.06.13.13.25.25.38.38,0,.23.01.46.02.7-.12.33-.24.67-.35,1,.03.12.06.23.1.35-.06-.12-.11-.23-.17-.35.11-.33.23-.67.34-1,0-.23-.01-.46-.02-.69.12-.18.24-.35.37-.53-.22.08-.43.16-.65.23.17-1.49-.18-1.41,2.34-9.15.13-.18.27-.36.4-.54-.09-.02-.18-.04-.27-.06-.07.76.01.4-.38,1.62ZM97.54,119.29c-.02-.12-.04-.24-.06-.37.05.12.1.24.14.36-.39,1.2-.22.83-.73,1.66.34-.08.02.26.65-1.65ZM64.91,86.13c-2.31.85-1.95.39-2.03.79.21-.14.84-.61,2.03-.79ZM139.72,96.68c.33-.11.66-.22,1-.34,2.82-.15,3.68-.6,6.48-.88,1.71-.17,1.65-.06,1.08-1.66-.23-.64-.51-.45-.85-.31-3.63,1.5-6.45,2.77-7.72,3.26,0-.03,0-.05,0-.08ZM87.12,44.09c.02.07.03.13.05.2-.04-.06-.09-.13-.13-.19,4.39-11.12,3.97-7.43,2.05-8.85-1.04-.77-.46-.38-1.62,7.85-.12.33-.23.66-.35,1ZM58.45,138.78c.23,0,.46.02.7.03.12.13.24.25.36.38-.35.35-.69.69-1.04,1.04-.22-.15-.15-.12-.3-.05,6.53-.42,8.04-3.07,11.02-3.46-.03-.09-.05-.18-.08-.26-.18.14-.35.28-.53.42-8.91,2.7-6.92,2.07-9.16,2.32.08-.21.17-.43.25-.64-.18.12-.35.24-.53.35-.23-.01-.46-.02-.69-.03-.33.12-.67.24-1,.36-.13,0-.25.02-.38.03.48-.12.18-.02,1.38-.47ZM46.71,129.47c1.16-1.78-.43.13,2.33-7.49.34-.79,2.05-4.55,1.63-4.12-1.08,1.08-1.48,2.47-1.76,3.92-.01.06.07.13.11.2-2.19,7.39-2.53,5.8-2.3,7.49ZM61.83,134.81c1.51.24,2.61-.79,3.89-1.28.11-.04.16-.24.23-.36-.18-.01-.4-.1-.55-.03-4.04,1.8-3.69,2.01-11.05,3.88-.02,0,0,.14,0,.21,1.24-.07,2.44-.24,3.43-1.09,4.06-1.34,2.17-.76,4.05-1.32ZM45.97,122.48c0-.06-.02-.12-.02-.18,1.66-5.15,1.25-3.6,3.41-7.46.08-.14-.09-.43-.15-.65-.91.41-.46-.6-1.89,4.07-.62,2.34-1.39,4.17-1.35,4.21ZM69.27,135.31c.18-.06.23-.47.35-.72-.82-.2.11-.62-4.08,1.89-2.86,1-1.81.59-2.61.81-.03,0-.03.12-.05.18,1.38-.85,2.64-.86,6.39-2.17ZM95.22,124.32c0,.07.01.13.02.2-.03-.07-.07-.13-.1-.2.63-.64.44-.42.69-.86-.55.26-.43.02-.61.86ZM127.89,54.6c-.69-.65-.45-.46-.94-.69.16.48-.12.34.94.61.24.11.16.09.3.03l-.3.05ZM129.22,55.92c.11-.24.09-.16.04-.3.16,1.38.3,1.13.64,1.25-.23-.5-.03-.26-.68-.94ZM82.1,82.87c-.15.22-.11.15-.1.3,0-.1,0-.2.01-.3.9-.8.65-.54.81-1-.61.22-.47-.1-.73,1ZM54.03,123c.12-.23.09-.16.08-.31,0,.1,0,.2,0,.31-.66.66-.46.43-.69.9.67-.35.51-.11.61-.9ZM59.9,130.39c.48-.23.24-.03.9-.69.25.08.17.07.3,0-.1.03-.76-.16-1.2.68ZM60.35,87.97c-.46.27-.2.04-.87.69-.2-.12-.13-.1-.28-.07.09,0,.94-.21,1.15-.62ZM97.86,121.65l.44-.69c-.27.01-.18-.15-.36.7-1.84,3.53-1.43,2.41-1.55,3.38.99-.42.83.17.78-2.04.13-.5,1.67-.27.69-1.34ZM132.45,107.23s-.09.03-.13.04c1.09,1.37.83,1.06,1.06,1.23-.31.93.51,1.2.97,1.68.24,1.2-.33.07,1.99,4.09-6.09-8-4.99-8.38-6.11-8.39-.05,0-.17.29-.15.42.38,1.98.98,2.03,2.18,4.35,4.94,9.53,4.07,9.89,6.51,7.61.42-.39.56-.36.88-.1,7.31,5.86,6.01,4.75,6.49,5.56-.22-.07-.48-.08-.65-.21-6.17-4.64-6.03-5.15-7.24-3.84-1.52,1.64.09,2.35,1.12,4.58.46,1,1.1,1.28,2.23,1.3,5.15.07,7.83,2.01,9.3,2.05-.27-.49.11.04-1.41-1.96.57.41,1.15.8,1.7,1.24.03.02,4.48,5.46,10.71,6.53-.93-1.14-11.17-9.37-11.2-9.39-.72-.58-1.61-1.35-2.41-1.33-1.64.03-2.57-1.04-3.73-1.77-.19-.12-.29-.36-.43-.55,1.04.36,2.22,1.01,3.56,1.59-.26-.85.67.1-7.19-6.1-.12-.1-.27-.17-.4-.25.42.64.06.12,1.28,1.89-.48-.33-1.04-.58-1.41-1.01-.33-.38-.41-.98-.68-1.44-.17-.3-.48-.53-.72-.79-.5.86-.95.84.04,2.65-.19-.11-.46-.17-.57-.33-.54-.81-1.78-1.14-1.7-2.39.73.89,1.27.34,1.59-.32.13-.27-.16-1.08-.35-1.11-1.58-.27-2.13-1.79-3.28-2.56-.98-1.64-.99-1.69-1.84-2.96ZM129.54,65.01c1.83-1.78-.78-2.87.07-5.56.34-1.06-.35-1.66-1.27-2.24-.09.19-.23.37-.26.57-.56,4.53,1.39,2.67,1.55,7.91-.7,2.14-.59,1.62-.39,2.07.34-.26.41.22.3-2.74ZM116.54,54.21c-.17,0-.32.23-.48.35.71.21.13.35,2.07-.38.65.36,1.21.24,1.69-.32,3.43,1.85,3.43,2.15,6.34,1.87.38-.04.62-.2.32-.56-1.93-2.35-1.4.2-5.63-1.45-.28-.11-.68.11-1.02.17-3.06.63-1.15.19-3.28.31ZM108.64,85.24c0-.07,0-.14.01-.22.02.07.04.14.06.22-.91,1.73-.83,1.36-.38,1.69.3-.53,1.33-.93.3-1.69ZM98.57,75.18c-.76-1.05-1.16,0-1.69.29.32.47-.05.54,1.68-.36.07-.01.13-.03.2-.04-.07.04-.13.08-.2.12ZM99.58,53.95c-1.89-.83-1.33-.68-2.01-.4.51.53-.06.48,2.01.32.47,0,1.07.61,1.35-.28.02-.06,0-.18-.05-.22-.75-.51-.85.43-1.3.58ZM107.33,120.35c-2.31-1.33-1.66-.97-2.31-1.31.15.4,1,1.3,1.35,1.55.16.12.63-.2.96-.32,1.95-.68,1.92-.47,2.36-.75,3.46-2.23.8-2.6-4.73-5.45-.14-.07-.21-.26-.32-.4.96-.21,1.08-.77.64-1.55.69-.33.14-.22,1.06.49.69.53.87.44,1.19-.51.07-.19.15-.38.22-.57.14.16.33.3.39.49.17.53.56.9,1.04.68.77-.34.94-2.21,1.09-2.91.02-.1.15-.17.23-.26.43.47.28-.3.08,2.9,0,.13.11.37.19.38.86.06.64-.46,1.01-.97.12-.17.37-.24.56-.36-.02.22-.07.44-.06.65.01.39-.57.89.13,1.15.56.2,1.07.15,1.34-.55.11-.28.36-.51.58-.74.03-.03.37.14.37.17-.05.31-.15.61-.25.91-.33.94.99.56,1.13.21.25-.65.03-1.49-.21-5.42-.02-.25.1-.51.16-.77.78,1.17.21-.72,1.02,6.13.03.29.35.55.54.83.27-.23.62-.4.78-.69.14-.25.05-.62.12-.93.04-.19.19-.36.3-.53.39.66.19.24.73,1.51,1.22-.78.87-.49,1.17-1.21h-.05c.43.38.96.77,1.45.32.23-.21.22-.91.05-1.27-.01-.03-3.12-6.58-3.55-6.66-.42-.08-.86-.03-1.3-.03.02,1.72.17.98.58,2.26.06.19-.06.43-.09.65-.83-.27-.35.15-1.21-1.23-.27-.42-.56-.75-1.15-.46-.55.26-.93.52-.74,1.25.17.65.16,1.35.23,2.03-.9-.26-.84-1.16-1.13-1.79-.24-.52-.55-.54-.9-.29-1,.74-.33,1.35-.13,2.19.05.21-.06.45-.1.68-.95-.54-.26,0-1.28-1.82-.46-.83-2.23-.33-2.3,1.21-.04.85.04,1.79-.3,1.68-.46-.14-.37-.72-.6-1.18-.22-.43.29-1.27-.59-1.28-.6,0-1.25.18-1.81.42-.33.14-.51.6-.8.85-.1.08-.5.02-.51-.02-.37-2.25-.71-.38-2.2,1.28-.13.15-.8.39-.82-.2-.03-.62-.02-1.23-.02-1.85-2.39,1.98-1.71,1.49-1.9,1.61-.13.08-.39.19-.42.15-.13-.17-.27-.38-.27-.58,0-.48.15-.33.18-1.63-2.06,1.04-.09.69-2.51,1.49-.18-1.28-.13-.88-.2-1.7-1.11.57-.96.74-1.83,1.3-.09.05-.55-.22-.56-.37-.04-.45.23-.31.21-1.59-.84.3-.2.13-2.26.65,0-.45-.03-.9-.02-1.35,0-.4-.2-.68-.52-.39-1.28,1.16-2.2.02-7.04-3.07-.15-.1-.43,0-.64,0,.06.18.08.41.2.53,6.54,6.58,8.27,7.08,16.28,9.88.97.34,1.86.9,2.92.22.29-.19.65,0,.43.43-.51.97.83,1.11,2.63,3.35.71.89,1.41,1.46,2.6.95.2-.09.54.15.82.24-.21.31-.42.62-.64.93-.35.12-.69.24-1.04.36ZM63.47,76.48c.16-.25.12-.17.08-.33,0,.11,0,.22,0,.33-1.05.92-.07,1.44,1.21,2.3-.5-.82-.16-.21-1.29-2.3ZM132.62,49.79c.88.05,1.33.53,1.39,1.39-1,.79-.21,1.34.88,2-.22-.69.06-.13-.96-2,.14-.27.35-.53.42-.82.23-1,.08-1.14-.9-.91-.29.07-.55.27-.83.42-1.97-1.12-1.54-.96-1.94-.76.39.37.75.79,1.19,1.08.11.07.49-.25.75-.39ZM130.3,79.83c-.65,2.15-.59,1.57-.13,2.17.17-.18.43-.34.5-.56.18-.61.23-1.22-.45-1.61,1.03-.26,1.04-.96.69-1.73-.07-.15-.58-.27-.71-.18-.95.72-.33,1.31.11,1.91ZM62.16,85.95c-.61-.4-.07-.69-2.83.61-.49.23-.55.88-.56.91.42.09-.27.39,3.38-1.6.74.03.53.08.7-.36-.48.17-.3.05-.69.43ZM126.87,47.48c.05-.11.1-.23.15-.34-.08.01-.17.02-.25.04.05.1.1.2.15.31-2.13,2.73-2.05,2.14.48,3.29-.15-2.29-.04-1.47-.53-3.29ZM54.76,135.77c8.03-2.45,6.59-1.91,7.16-2.54-.71-.17-.06-.6-4.46,1.3-.92.4-1.8.87-2.7,1.32-.1-.05-.21-.11-.31-.16-.01.08-.02.16-.03.24.12-.05.23-.11.35-.16ZM48.03,129.05c.02.13.05.25.07.38-.05-.13-.1-.25-.16-.38,1.5-1.98,1.77-4.48,2.83-6.65.05-.11-.13-.34-.2-.51-.66.59-.09-.87-2.55,7.16ZM49.41,129.06c-.13.17-.26.35-.4.52.08.02.16.04.25.06.02-.2.05-.39.07-.59,3.82-7.77,3.36-6.67,3.24-7.13-1.06.32-.4-1.07-3.16,7.13ZM128.89,50.19c.07-.23.07-.16,0-.3.03.1.05.2.08.3-.71,2.77-.35,2.32-3.69.85.88,1.01,2.2,3.1,3.94,1.52.7-.63.63-1.15-.32-2.38ZM54.75,134.4c6.22-2.05,7.47-2.19,7.12-3.16-.11-.29-.25-.14-7.11,3.24-.2.02-.4.05-.6.07.02.08.04.17.06.25.18-.14.35-.27.53-.41ZM40.66,112.2c-1.16,1.41-.88.95-.81,1.73.6-.43.45.07.73-1.73,3.17-7.04,2.6-5.66,2.7-6.5-.21.11-.48.16-.61.32-1.27,1.67-2,3.58-2.37,5.62-.03.16.24.37.36.56ZM41.29,117.59c-.14.43-.28.85-.43,1.28.42,0,.34.25.35-1.28,1.61-2.21,1.96-4.89,2.8-7.39.04-.13.01-.28.01-.43-.16.15-.38.28-.46.46-1.05,2.36-2.14,4.71-2.28,7.36ZM66.21,142.52c2.64-.14,4.99-1.22,7.35-2.28.18-.08.31-.3.46-.45-1.05.06-6.11,1.82-7.14,2.17-.27.09-.45.42-.67.64-1.4-.12-1.01-.16-1.37.21.11.05.24.17.32.14.36-.12.7-.28,1.05-.43ZM71.61,143.15c.51.7,1.17.38,1.71.14,5.32-2.36,4.52-2.2,4.79-2.74-.83.1.53-.46-6.5,2.68-1.8.28-1.29.12-1.73.73.77.07.31.35,1.72-.81ZM75.3,50.52c-1.5-1.43-3.61-2.21-4.41-4.44-.31-.87-1.05-.15-1.54.19-.89.62.06.83.27,1.2-.9.21-1.42-.67-2.44-1.95,1.22.41.63.56,2.32-.21-.18-.31-.3-.69-.56-.93-2.94-2.72-3.73-5.17-6.94-8.33,1.15,3.06.93,2.17,1.47,3.63-.19-.14-.44-.24-.55-.42-.74-1.16-1.9-2.08-1.77-3.73.08-1.05-1.28-2.38-4.8-6.62-6.22-7.5-4.93-6.05-5.77-6.68,0,.23-.05.49.02.7,2.04,6.91,6.73,9.5,7.57,11.47-1.44-.7-.56-.66-2.04-1.5.17.99,2.17,5.74,2.09,8.44-.06,1.94.63,2.93,2.19,3.66,1.37.65,2.52,2.16,4.09.12.7-.91.45-.59-4.24-6.91-.13-.17-.12-.44-.17-.66.61.38-.13-.66,5.59,6.66.36.46-.55,1.28-1.53,2.41,3.31,2.38,1.66,1.19,3.97,2.42,10.05,5.31,8.79,4.84,9.91,4.48-.41-.72.57.03-4.45-3.37,1.31.25.86.17,1.73.26,1.08,1.12.75.81,1.23,1.06-.07-.18-.09-.43-.22-.51-.31-.19-.68-.31-1.02-.45ZM76.03,117.92c-.11.25-.08.17-.05.31-.01-.1-.02-.21-.04-.31,2.56-2.03,4.22-4.83,6.21-7.35.16-.2.16-.54.23-.82-.25.17-.55.29-.74.51-1.32,1.55-2.71,3.06-3.89,4.72-.65.91-1.72,1.64-1.73,2.95ZM66.75,107.59c8.06-6.32,7.12-5.6,7.33-6.16-.92-.09-.28-.5-8.19,6.43-.26-.09-.17-.08-.31-.02.75-.15.96-.08,1.17-.24ZM52.06,133.74c2.92-1.17,5.69-2.56,7.74-5.06.26.17.17.14.34.02-.11.02-.23.04-.34.05-.22-.03-.47-.15-.64-.07-2.73,1.2-4.94,3.13-7.09,5.13-.46-.07-.3-.21-.7.39.48-.23.3-.1.7-.47ZM95.18,115.58c.15-.22.12-.14.03-.29,0,.1.02.19.02.29-1.66,2.26-2.06,5.09-3.41,7.5-.07.13.07.5.22.58.14.08.55-.02.59-.14,1.06-2.57,2.74-4.95,2.54-7.93ZM97.21,115.94c.03.11.05.21.08.32-1.5,1.66-.79-.22-3.78,7.72-.04.11.1.36.22.45.94.65,3.49-8.45,3.47-8.49ZM65.88,105.1c.32.1.78.38.95.26,7.13-5.15,6.09-4.57,6.53-5.3-1.14.09.42-.95-7.48,5.09-.22-.14-.15-.12-.3-.02.1-.01.2-.02.3-.04ZM55.06,124.01c.14-.27.12-.18.05-.35.01.11.02.23.03.34-2.6,2.02-3.75,5.03-5.28,7.78-.11.2-.14.45-.21.67.17-.12.39-.21.51-.37,3.93-5.2,4.91-6.24,4.9-8.08ZM78.71,117.93c-.14.22-.12.15-.04.29,0-.1,0-.2-.01-.29,5.91-7.59,5.09-6.6,5.09-7.48-.62.3.11-.85-5.39,6.75-.08.1.23.48.36.73ZM93.49,115.24c.12-.19.23-.37.35-.56-.11,0-.22,0-.33,0,.01.19.03.38.04.56-.46.47-.92.94-1.38,1.41.2-1.31.04-.5.52-2.79-1.98,2.11-1.49,1.21-4.35,7.88-.09.21.02.5.04.75.27-.12.67-.17.78-.37,1.68-3.26.47-1.7,3.02-5.57-.08.44-.07.92-.24,1.32-1.16,2.78-2.08,4.49-2.23,5.22-.01.06.34.29.41.25.76-.47.62.26,3.55-7.01.12-.29-.11-.72-.18-1.09ZM68.57,90.32c-1.23-.22.2-.84-7.41,2.51-.38.17-.87.94-.72,1.06.53.43.7,0,2.25-.59,1.52-.57,3.05-1.12,4.57-1.67-6.27,3.66-5.97,2.96-5.92,3.8,0,.07.4.22.51.15,2.88-1.62,5.73-1.97,8.1-4.46-.75-.16,0-.32-2.79.52.47-.46.94-.92,1.41-1.38.19.01.37.03.56.04,0-.11,0-.22,0-.33-.19.12-.37.23-.56.35ZM92.43,77.73c-2.99.69-2.46,2.17-2.48,3.46.26-.35.46-.77.79-1.04,2.5-2.01,2.83-1.34,4.88-2.18.7-.29,1.3-.82,1.94-1.24.13-.02.26-.03.39-.05-.93.32-3.07.48-5.52,1.04ZM94.53,85.18c3.3-.29,4.93-1.66,5.9-4.98.06-.21.04-.44.06-.66-1.62,1.31-5.35,5.37-6.51,6.03.18-.13.37-.26.55-.39ZM98.63,89.28c-.08.2-.15.39-.23.59.05-.2.1-.39.15-.59,6.34-6.51,5.16-5.27,5.72-5.95-.22.01-.45-.01-.66.05-3.23.88-4.68,2.6-4.98,5.91ZM132.29,43.44c2.64,1.25,2.21,3.92,5.1,5.42,1.27.66,2.35,1.37,2.99,2.67-.1.56-.19,1.13-.29,1.69-.36.15-.72.3-1.08.45,1.56,1.37,2.97,1.76,4.23,3.54,3.17,4.51,2.72,5.37,5.59,3.93-3.82-1.74-1.46-1.09-7.33-6.85-.43-.42-.99-.72-1.49-1.07.57-.46.93-.97.38-1.69-.05-1.76.23-3.14-1.41-3.13-2.08.02-3.54-1.32-3.55-3.33,0-1.84-1.3-1.7-3.14-1.63-.71-.55-1.22-.2-1.69.37-.99-.77-.33-1.78-5.07-5.12-.94-.66-1.63-1.68-2.38-2.58-.25-.3-.33-.73-.49-1.1-.17.43-.38.85-.52,1.29-.81,2.58,4.88,2.57,7.45,7.93.11.23.37.39.56.59.15-.36.29-.72.44-1.09.56-.09,1.13-.19,1.69-.28ZM130.97,65.67c-.1.24-.08.16-.02.3-.02-.1-.04-.2-.06-.3.21.06.61.1.61.17.09,1.4.81.81,1.46.49.67.83,1.02,1.96,2.27,2.25.31.07.56.41.84.62-.4.44-.84,1.11-1.42,1.03-1.33-.19-1.38,1-1.88,1.7-.08.11-.08.27-.12.41,2.74-.4,5.63-3.65,5.99-4.57-.15-.04-.31-.14-.44-.11-2.46.45-3.59-.37-5.26-1.26-.77-1.74-1.39-3.43-.43-5.39.49-1-.19-1.94-1.39-2.66-.38-.23-.52-.18-.52.29-.01,1.3-.59,2.61.3,3.88.26.37.12,1.05.12,1.58,0,.52-.04,1.04-.07,1.57ZM117.43,50.86c-1.88-4.25-1.27-1.86-1.42-5.73-3.01,2.16-3.89,3.85-4.38,5.43-.05.16.09.37.14.55.48-.64,1.8-.33,1.76-1.61-.01-.43.23-1.58,1.11-1.84.1-.03.42.27.45.45.22,1.44,1.33,2.06,2.4,2.73-.32.63-.97,1.36.46,1.45.07,0,.12.4.18.61-.23-.12-.15-.1-.3-.05.41-.04,3.07-.24,3.45.03,1.27.91,2.59.3,3.88.32.47,0,.54-.14.35-.51-.62-1.22-1.62-1.85-2.88-1.33-1.9.78-3.53.25-5.2-.52ZM77.31,103.1c.49-.55.48-.28.51-1.33,0,0-.18-.05-.22-.02-.49.5-.44.3-.22,1.35-1.14,1.1-1.58,2.53-1.89,4.01-.25,1.16.11,1.54,1.22,1.25,1.45-.38,2.91-.77,4-1.92.98.64,1.54-.3,1.34-.44-.68-.47-.93.23-1.34.5-1.13-1.13-2.26-2.26-3.39-3.4ZM54.07,89.34c-.15-.03-.34-.13-.44-.07-2.09,1.21-3.92,2.73-5.38,4.65-1.84,2.42-1.21,3.27-1.12,4.18,1.66-1.39,8-7.38,8.93-8.56-2.57.53.26.03-3.07.94.35-.41.71-.82,1.06-1.23,1.21-.18.86-.05,1.11-.72-.14.05-.31.07-.42.16-.24.2-.46.43-.68.65ZM94.48,129.74c.87-.91.63-.61.8-1.11-.68.25-.55-.08-.71,1.11-.37.11-.74.21-1.11.32h.09c.98-2.2.75-1.55.71-2.37-1.28.7,1.59-1.57-8.19,8.39-.16.16-.25.4-.37.6,3.04.46,3.09-.11,7.27-4.32.74-.74,1.46-1.49,1.5-2.64ZM78.01,55.25v-.05c-2.65.16-1.91.06-2.6.42,1.12.93,2.79.93,5.78,3.94.27.27.69.73.9.66,1.1-.33,1.11.57,1.42,1.13.38.69.4,1.28.87,1.28.12,0,.36-.13.36-.2.01-1.02.38-2.3-.1-3.01-1.51-2.25-3.42-4.17-6.23-4.8-.08-.02-.26.41-.4.63ZM128.56,105.8c.22-.13.66-.35.64-.39-.37-.95-.6-2.05-1.24-2.79-1.49-1.74-2.75-4-5.62-3.61-.4.05-.78.28-1.17.43,1.8,1.35,2.39,1.45,2.39,1.83,0,.7.34.99.7,1.36,3.1,3.11,2.96,4.64,3.94,5.78.35-.69.25.06.41-2.61h-.05ZM141.39,130.79c-1.66-4.16-1.34-4.98-4.21-3.54-.97.49-1,.61-.4,1.58,2.62,4.23,4.2,5.8,6.06,7.48-.03-.52-.07-1.05-.1-1.57,3.83,6.64,2.33,5.19,5.76,2.7.73-.53.61-.34-6.17-7.18-.94-.95-.59.42-.94.53ZM49.07,41.08c-1.21-.16-.8-.12-1.59-.1.34.76-.91-.08,7.5,6.05.7.51,1.25,1.04,2-1.5.49-1.67.56-1.34-3.97-3.1.35-.12.7-.25,1.06-.37.2.07.39.14.59.2-.2-.05-.4-.09-.59-.14-7.22-7.02-5.1-4.95-7.21-7.07-2.97,3-3.17,2.9-1.64,3.81,1.28.76,2.57,1.49,3.85,2.23ZM56.1,91.94v.06c.11-.21.22-.41.32-.62-.73-.25-.49-.22-.96.04-3.69,2.09-9.4,8.53-8.66,8.92.93.49.44,1.19.32,1.85-.05.28-.02.57-.02.85.2-.16.45-.29.6-.5,5.18-7.21,8.44-8.01,9.27-10.6-.29,0-.58,0-.87-.01ZM91.87,127.71c0-.35-.02-.71-.02-1.06-2.29,1.23-5.31,5.84-9.7,8.74-.52.34-.9.89-1.35,1.35,4.85-.48,3.55.33,5.21-1.18,5.16-4.67,5.45-5.83,6.59-7.65.06-.1-.12-.34-.18-.52-.2.11-.41.22-.61.32h.06ZM61.55,106.81c.67-2.28.61-1.59-.14-2.51-.45.95-1.38-.11-1.99.52-8.24,8.54-6.21,5.64-7.73,9.27,0,.02.4.29.61.3.47.01.81-.01.39.59-.15.22-.19.52-.28.78.29,0,.63.09.87-.02,1.92-.94,2.94-2.35,6.42-5.09,1.78-1.4,5.09-2.33,3.07-3.75-.31-.21-.86-.08-1.3-.1h.08ZM63.9,111.87c.31-1.5.34-.73.07-3.03-.35.37-.82.69-1.04,1.13-.47.94-.6-.5-1.22-.06-10.62,7.55-7.77,7.75-6.75,8.93.77.89,1.32,1.97,2.06,1.06,4.52-5.57,8.78-6.46,7.95-8.05-.33-.65-.77-.24-1.15.02h.07ZM71.94,119.91v.07c.28-.39.66-.82.02-1.15-1.58-.81-2.49,3.51-8.04,7.97-.2.16-.29.82-.15.97.29.31,2.39,2.43,2.8,2.23,2.67-1.29,5.68-5.47,7.29-7.92.37-.56-.42-.64-.29-.8.28-.34.74-.53,1.09-.83.16-.14.2-.4.3-.6-.19-.08-.38-.24-.57-.23-.82.07-1.64.19-2.46.29ZM77,122.26v.08c.46-.96.02-1.53-.85-1.82-.7-.24-.95.33-1.23.82-4.55,7.92-6.9,7.19-6.86,10.08.26-.1.57-.15.78-.31.34-.25.64-.23.58.19-.17,1.21.14.66.9.52,3.25-.57,5.8-4.71,8.36-7.04.82-.75.06-1.77.82-2.37-.26-.22-.54-.63-.78-.61-.59.05-1.15.3-1.73.47ZM53.73,35.64c-.05.5.03,1.06-.17,1.5-.3.67-1.25,1.42-1.1,1.85.35,1.04,2.96,2.65,4.06,3.48.63.47.83.09.9-.44.17-1.31.54-.68-2.42-9.01-.07-.2-.62-.23-.95-.34-.21-.58-.49-1.15-.61-1.75-.2-1.02-.67-1.71-1.7-2.04-.82-.26-1.59-.7-2.42-.9-1.22-.29-2.5-.35-3.71-.66-1.23-.32-1.06.53-.34,2.6.96,2.74,2.66,4.97,4.7,6.99,1.6,1.58,2.17,1.55,3.32-.46.16-.27.29-.56.43-.84ZM151.13,129.75c.31-.6-.09-.93-.53-1.09-7.79-2.68-7.1-2.44-9.05-2.2-.14.02-.39.52-.33.61,3.47,4.66,3.52,4.97,4.56,3.94.65-.65,1.27-1.45,2.39-.93-1.9,1.05-3.31,1.66-1.82,3.28,4.95,5.39,10.39,6.26,10.2,5.31-1.11-5.55-1.22-8.29-4.37-8.47-.36-.02-.7-.29-1.05-.45ZM60.81,102.8c-.29-1.25-.19-.85-.45-1.49-.18.13-.42.23-.54.4-.12.18-.07.48-.19.66-.1.16-.33.23-.51.33-.05-.22-.18-.46-.12-.65.16-.51.45-.99.58-1.51.07-.26-.1-.59-.17-.89-1.06.61-.72.42-1.36.77,0-.23-.07-.52.04-.66.28-.37.68-.65.95-1.02.11-.14.01-.44,0-.66-.79.2-6.26,4.45-9.11,8.75-.4.61-.39.58.2,1.66.18.32.32.81.2,1.12-.26.67-.9,1.37.56,1.16.05.58.23.21-.5,1.37.38-.1.81-.11,1.12-.32,1.07-.71,3.03-3.35,5.19-5.5,1.28-1.28,2.71-2.41,4.08-3.61.23.14.16.12.31.02-.1.01-.2.03-.31.04ZM81.01,123c.16-.23.13-.15.04-.31,0,.1.01.21.02.31-2.93,2.91-4.1,5.42-8.34,8.38-.47.33-.7,1.01-.99,1.56-.07.12.05.33.08.51.13-.07.31-.12.4-.23.81-1.02.88-.54.76.36.26.03.61.18.77.07.63-.44,1.59-.14,1.6.14.04,1.05.41,1.02,1.05.52,6.53-5.01,5.96-5.83,7.6-6.68-.06.24-.03.55-.18.69-8.39,7.91-7.22,6.41-7.44,7.13.15.02.33.1.46.05.85-.37,1.73-.49,2.65-.39.53,1.57,1.39.57,1.99.17,3.27-2.17,5.87-5.03,8.14-8.21.09-.13,0-.4,0-.6-.77.13-.19-.24-2.13,1.25,1.49-2.05,1.13-1.51,1.36-2.03-.22-.08-.45-.26-.64-.22-2.43.54-1.98,1.31-3.52,1.55-.01-.8-.3-.16.92-2.33-2.02,1.33-1.42,1.02-2.23,1.04.36-.63.16-.28.77-1.36-1.68-.28-.61-.28-2.62.44-.1.04-.34-.07-.39-.17-.05-.1.02-.36.11-.4.2-.1.48-.05.66-.17.24-.16.41-.43.61-.65-.26-.09-.53-.19-.79-.27-.23-.07-.46-.12-.69-.17ZM129.63,143.21c-.14.23-.11.15-.05.3,0-.1-.02-.2-.02-.3,3.16-6.91,1.82-3.7,3.42-10.26.39-1.59.47-.9-6.25-16.5-1.6-3.71-1.94-4.29-3.1-3.74-.67.32-1.26.53-1.08,1.52,1.52,8.04-.73.33,5.41,23.36.5,1.89,1.11,3.75,1.67,5.62ZM40.6,54.18c1.95.58,3.89,1.21,5.85,1.75,24.05,6.6,24,5.75,24.66,4.26.55-1.23-.08-1.54-4.19-3.28-3.5-1.48-7.15-2.68-10.48-4.48-3.12-1.7-6.04-1.71-9.29-.77-2.29.66-4.58,1.17-6.55,2.59-.25-.11-.17-.09-.31-.02.1-.02.2-.03.31-.05ZM71.6,63.68v-.05c-.4.31-1.02.56-1.15.96-.23.75.54.5.92.64.19.07.35.22.53.33-1.38.72-2.24.19-2.13,1.2.02.18.22.47.36.48,1.73.16-.74-.45,6.33.75.1.02.17.23.25.36-.61.21.52.13-4.4-.18-2.17-.14-1.69.04-2.18.88,1.02.45.3.28,1.8.1-.12.2-.2.42-.35.58-.58.59-1.55.38-.99,1.76.05.13.3.04,1.72.12-.52.59-.14.23-1.38,1.36,2.95.3,1.02-.3,3.34.26-.3.13-.58.3-.89.39-.04.01-1.97.3-2.26.95-.28.65.22.99.83,1.14.12.03.22.19.32.28-.17.09-.33.26-.5.27-.51.03-1.08.09-.84.75.17.48.66.85,1.01,1.27-.51.07-1.01.13-1.52.21-.17.03-.19,1.5-.76.21-.83-1.87-1.84-3.66-2.83-5.46-.33-.61-1.05-1.01-1.58-.48-.59.58-.89,1.44-1.32,2.18.1,0,.22.06.29.02.68-.39.97.03.78.55-.84,2.31,1.4,2.5,2.86,4.66.5.74,1.73.57,1.78.81.14.77-.6,1.59-.02,2.45.25.37.67,1.73,1.28,3.57,2.69,8.24,6.23,10.26,8.99,13.55.08.09.35.02.53.03-.03-.22,0-.47-.11-.64-3.36-5.57-3.8-5.57-3.3-6.41,1.47-2.44-2.17.41-1.48-1.88.09-.29.16-.26.81-1.4-.78-.15-.19-.15-2.15-.07,1.18-2.12.74-1.26,1.14-1.69.1-.11.16-.24.23-.37-.62-.27-.12-.17-1.75-.42,1.34-2.63,1.02-1.04,1.45-2.44-.57.02.04,0-2.06.07,1.65-2.33,1.36-1.67,1.63-2.1.05-.08-.12-.44-.22-.45-.3-.05-.63.05-.94.02-.36-.03-.72-.13-1.09-.2,1.15-1.7.59-.75,2.02-1.86.74-.57.53-.83-.32-.87-.11,0-.33-.37-.3-.4.8-.99,1.61-.77,1.37-2.77-.04-.33-1.91-.73-2.18-.85-.12-.06-.23-.2-.27-.33-.1-.35,1.57-.31,1.93-.26,1.12.15,1.02-.77,1.28-1.36.32-.73-.23-.9-.74-1.18-.51-.27-.93-.7-1.39-1.07,2.41.34,1.99.36,2.03.34.29-.18.64-.32.83-.58.25-.34.23-.65-.29-.89-.63-.3-1.54-.22-1.8-1.13,2.54.26,2.23.27,2.26.25.66-.48,1.47-.73.74-1.76-.16-.23-.58-.27-.8-.48-.25-.24-.41-.58-.6-.88,1.7.17.85.06,2.17.58.47.18,1.14-.3.97-.75-.15-.41-.43-.91-.79-1.1-5.66-3.05-6.89-3.57-7.4-3.04-.46.48-.06,1.01.32,1.44ZM87.14,61.62c-.05.23-.05.16,0,.3-.03-.1-.05-.2-.08-.3.12-.1.33-.19.35-.3.33-2.51,2.4-3.3,4.25-4.31.17-.09.4-.1.6-.14-.1.2-.15.48-.31.6-2.37,1.79-3.58,2.15-3.23,3.4,2.42-.57,2.24-.34,2.96-1.41,1.1-1.64.49-1.21,1.59-2.15,0,.3.06.61-.02.89-.33,1.24-1.44,2.03-.02,2.18,1.14.12.77.31,2.06.23-.34-.78-.06-.12-1-2.37.51.48,1.04.94,1.52,1.46.4.44-.14.58,1.47,1.77.07.05.44-.13.44-.19-.01-.39-.11-.77-.15-1.16-.02-.19.03-.38.05-.57.18.14.44.25.52.43.51,1.22.62,3.36,2.81,2.68h-.06c.06.28.18.56.18.84-.03.87.32,1.31,1.23,1.19h-.05q.62,1.38,1.61.51c.3-.26.55-.57.86-.82.16-.13.38-.18.57-.26-.1.21-.17.45-.31.61-.42.47-.97.86-1.26,1.4-.16.3,0,.89.22,1.22.62.97,3.19-2.26,7.08-4.9-1.43,1.79.43-.04-5.5,5.12-.15.13-.21.38-.3.57.81.16-.22.43,4.14-1.05,0,0,0-.08,0-.08-2.2,1.25-3.79,2.08-3.63,2.27.19.23.41.57.65.58.29.02.07.05,3.96-1.28-3.4,1.99-2.5,1.38-3.14,2.23.26.08.55.26.79.21.7-.13,1.37-.38,2.06-.53.18-.04.4.08.6.12-.82.71-.62.34-2.28.96-.18.07-.28.32-.42.48.66.27.27.19,1.48.37-.15.23-.29.46-.44.69.26-.05.18.13.35-.7.35-.12.7-.24,1.06-.36-.01.28-.1.59-.02.84.07.22.31.47.53.54.25.08.57-.01.86-.03-.12.35-.23.71-.35,1.06-.83.19-.65.1-.69.37.23-.15.46-.3.69-.45.17,1.19.09.8.35,1.49.17-.13.43-.23.5-.4.53-1.39.26-1.4.93-2.31.06.19.22.39.18.56-.18.76-.48,1.5-.61,2.27-.13.78.4.92,1.04.82h-.05c.23.69.31,1.53,1.4,1.35h-.04c.27.16.7.53.77.47.48-.4.89-.88,1.31-1.35,4.35-4.99,3.09-3.76,4.32-4.45-.56.91.49-.32-4.94,5.95-.34.39-.6.86-.04,1.17.34.19.94.26,1.26.08.53-.3.93-.85,1.4-1.26.15-.13.39-.16.59-.24-.11.2-.2.43-.35.6-.42.47-.88.91-1.27,1.4-.1.12-.03.43.05.61.04.09.28.18.41.15.97-.23,1.94-.49,2.91-.74v-.07c-2.28,1.46-1.63,1.01-2.32,1.66.77.67.23.51,1.99.77v-.06c-.26.89-1.15.99,3.08,3.22-.58.07-1.15.13-1.73.2-.24-.15-.16-.13-.31-.02.1-.01.2-.02.31-.03.07,1.74,2.23,1.79,3.06,3.32-.77-.08-.03.18-2.41-1.03.22,2.53.28,3.07,1.17,2.62.55-.29,1.15-.49,1.75-.69.12-.04.29.07.44.12-.05.13-.06.31-.15.39-.18.14-.42.22-.62.34-1.19.73-2.6,1.27-2.73,2.97-.02.28-.04.56-.07.84.36-.08.83-.05,1.07-.27.53-.46.98-1.03,1.42-1.58.39-.49.7-1.04,1.07-1.54.07-.1.28-.1.43-.15,0,.14.04.32-.02.42-1.16,1.68-1.56,4.12-4.26,4.27-.17,0-.32.33-.48.5-.23-.09-.16-.07-.3-.07.1,0,.2,0,.3-.01,1.14.43,1.58-.22,4.1-.9-.25.29-.44.72-.76.84-2.8,1.09-3.74,1.01-4.7,1.1.41.14.82.42,1.22.4,2.44-.11,4.21,1.11,5.77,2.78.16.17.31.37.48.52.17.15.38.27.57.41-.06-.2-.1-.41-.19-.59-.48-.99-.99-1.97-1.46-2.96-.13-.26-.32-.72-.22-.84.93-1,.37-2.08.23-3.13v.07c1.13-.32.78-.18,1.28-.58-.41-.28-.16-.16-.94-.48v.06c.22-.24.45-.49.67-.73.24.17.16.14.32.04-.11,0-.21.02-.32.02.02-.23-.04-.53.09-.66,1.3-1.39,1.31-1.39.08-2.66-.55-.57-1.13-1.1-1.68-1.67-.1-.1-.12-.28-.17-.42.14.02.31,0,.41.07.25.19.51.38.7.63.91,1.2,1.16.07,1.59-.44.25,1.42.13,1.02.55,1.41.07-.2.21-.41.21-.61-.01-.46-.06-.96-.76-.71-.21-1.12-.94-1.75-1.97-2.12-.16-.06-.23-.35-.34-.54.15.02.32,0,.46.05.37.13.73.31,1.11.41.15.04.38-.02.49-.12.08-.07.03-.3,0-.45-.2-.97-1.05-.77-1.7-.95-.13-.04-.24-.15-.37-.23.16-.09.31-.24.47-.26.31-.04.64.05.94,0,.19-.03.36-.2.54-.31-.75-.69-.51-.48-.96-.87v-.06q1.34-.62.67-2.03v.06q.6-1.83-1.28-1.62c-.13.01-.27-.08-.41-.12v.06c1.34-.89,2.1-1.14,1.73-1.97-.26-.58-1.43-.26-2.4-.13,0,0,0,.07,0,.07,2.09-1.29,1.5-.82,2.04-1.9-.28-.05-.57-.2-.82-.15-.53.12-1.04.37-1.56.54-.21.07-.45.07-.67.1.13-.19.21-.44.39-.55.61-.36,1.27-.64,1.87-1,.16-.09.32-.45.26-.58-.11-.24-.36-.5-.6-.59-.27-.09-.6,0-.9.01v.07c.59-.62,1.05-1.36.3-2.05-.63-.58-1.11.27-1.65.5-.07.03-.14.07-.22.1-.51.23-1.03.47-1.54.7.43-.45.84-.91,1.29-1.34.17-.16.38-.29.59-.39.52-.25.72-.58.36-1.11-.56-.82-1.09-1-1.72-.49-1.99,1.61-1.5,1.56-2.46,1.9.4-.77,1.01-1.17,2.12-2.53.15-.18.18-.74.08-.79-.29-.16-.78-.31-.99-.17-.58.39-1.06.94-1.6,1.41-.07.06-.23.01-.36.02.02-.15-.02-.34.06-.43.54-.65,1.14-1.25,1.63-1.92.11-.15-.1-.55-.17-.84-.21.07-.48.07-.63.21-4.12,3.92-2.53,2.65-3.83,3.5,1.03-2.34,5.05-5.24,3.53-6.05-1.06-.57-1.17.05-5.31,3.45-.17.14-.42.17-.63.25.66-1.34-.09.02,3.48-3.84.15-.16.2-.69.09-.77-.22-.16-.64-.25-.86-.14-.39.2-.69.58-1.04.87-.11.09-.29.1-.43.15.04-.16.04-.34.13-.46.23-.32.58-.58.71-.93.08-.21-.09-.59-.27-.8-.1-.13-.45-.15-.63-.08-.21.07-.35.3-.54.46-.72.61-1.45,1.21-2.17,1.81.58-.76,1.09-1.58,1.75-2.27.7-.73.45-1.21-.17-1.77-.74-.66-1.09-.24-1.41.43-.1.21-.26.4-.43.56-.39.38-.79.73-1.19,1.1.21-.44.4-.89.63-1.32.22-.42.5-.81.7-1.23.31-.63.05-1.17-.64-1.15-.49.02-.97.38-1.45.58h.07c-.12-.48-.08-1.2-.38-1.4-.72-.48-.83.38-1.12.78-.4.55-.8,1.09-1.21,1.63.79-2.69.72-1.96.49-3.06-.96.32-.46-.29-1.9,2.05h.07c.09-.58.22-1.16.24-1.74.02-.54-.49-.94-1.25-.53-.12.07-.02-.05-1.09,2.25.04-.61.02-1.23.13-1.82.17-.87-.33-.93-.94-.86-.29.04-.57.23-.86.35h.06q-1.42-.67-2.02.68h-.07c-.28-.33-.57-.65-.85-.98-.4,1.29-.25.77-.56,1.97-.16-.4-.19-.8-1.2-2.06-.06-.08-.36-.08-.44,0-.36.36.04.85.13,1.14.09.3.13.61.2.91-.26-.26-.65-.47-.75-.77-.3-.98-1.12-1.24-1.92-1.54.03-.23.07-.46.1-.7-1.26-.11-.87-.14-1.44.31.64.23.28.14,1.43.38q-1.1.78-.42,1.58c.55.64.38.1.69,1.12-.2-.11-.45-.17-.6-.32-2.79-2.72-2.53-3.1-3.98-1.61-.18.18-.55.17-.83.24.15-.26.13-.17.02-.33.01.11.03.22.04.33-.25.22-.49.45-.74.67h.06c-.18-.2-.05.06-.48-.94-.48.89-.33.57-.58,1.28h.07c-.77-.1-1.85-.56-2.25-.22-1.07.91-1.69.17-2.49-.23-.71-.36-.96-.41-2.78-1.22,1.13,1.56,3.9,3.21,3.74,6.97-.01.25.28.51.44.77,0,.13,0,.25,0,.38-.03-.13-.05-.26-.08-.38.13-1.93.3-4.2,2.02-5.12-.04.2-.06.4-.12.59-.39,1.14-1.24,2.18-.84,3.51ZM63.52,66.3v.07c1.29-.23,2.57-.49,3.76.33-1.28.06-2.64-.08-1.86.86.82.99,1.67,1.27,2.9.83.2-.07.41-.65.32-.88-.12-.33-.52-.55-.8-.82.13-.08.25-.23.38-.24.6-.06.88-.47.74-.96-.26-.92-7.74-2.02-12.78-.87-1.14.26-1.14.23-.6,1.19.36.65.46,1.63.99,1.94.54.32,1.46.01,2.21-.02v-.05c-1.47.97-3.06,1.08-4.72.68,0,0,0,.04,0,.04.77-.7,1.38-.67,1.4-.99.04-.48-.18-1.07-.48-1.48-1.06-1.47-2.46-.61-8.18.48-.38.07-.8-.09-1.21-.15,2.94-1.4,10.49-2.53,14.07-2.89,1.09-.11,1.72-.55,2.15-1.46.52.35-.4,1.33.68,1.47,2.11.27,4.22.61,6.34.89.61.08,1.18-.68,1.28-1.62.07-.64-.33-.79-.85-.87-8.31-1.2-6.51-1.38-7.45.22-1.72-2.38,1.32-.69-11.5-4.32-1.98-.56-2.4.02-9.42,1.62-.42.1-.89-.03-1.33-.05.31-.6,6.52-1.73,7.39-2.16-.13-.14-.24-.36-.39-.41-9.05-2.57-9.28-1.99-17.11-2.81v-.02c4.03-1.49,6.84,1.36,12.05-1.07,5-2.34,10.59-2.26,8.94-3.15-6.66-3.55-12.81-7.31-21.38-8.89-1.71-.32-3.11.42-4.11,1.78-.4.54-.51,1.28-.75,1.94,2.31.13,1.72.05,2.21.32v-.04c-.72.26-2.77.78-2.83,1.57-.5,6.5.08,8.72,8.13,16.37,6.51,6.18,10.98,3.96,14.72,5.66,6.89,3.12,11.48,2.36,18.83.09-.59-.71-1.17-1.43-1.76-2.14ZM115.44,129.73c-.39-1.66-.28-3.25.68-4.72h-.05c-.03.75-.34,1.67-.02,2.21.31.53,1.28.67,1.95.99.13.06.88,1.1,1.1-.13.85-4.95,1-6.21-.36-12.83-.16-.76-.73-.5-1.07-.26-.28.19-.37.64-.55.97-.27-.28-.5-.63-.82-.8-.21-.11-.8.04-.81.11-.28,2.97,0,2.36,1.16,3.35.5-1.84.37-1.27.46-2.09.79,1.19.6,2.47.33,3.76h.07c-3.34-3.32-1.99-2-3.71,4.62-1.96,7.54,2.39,11.83,2.53,16.37.23,7.56,5.65,11.53,8.62,14.71,2.95,3.16,6.62,4.48,10.88,4.36,2.23-.06,2.22-.04,2.77-2.19.07-.28.3-.52.46-.78.15,1.05.1-.75.28,2.21,1.44-.5,1.69-.27,3.02-1.93,1.12-1.41.84-3,.42-4.54-2.44-9.04-7.39-18.5-8.87-20-.14.15-.37.28-.41.45-2.34,12.02-4.15,9.4-3.51,13.85.2,1.38.06,2.82.06,4.23-.09,0-.18,0-.27,0-2.62-15.09-.87-8.39-3.06-14.8-.37,1.36-.7,2.73-1.12,4.08-.34,1.11-.08,2.41-1.07,3.31h0c-.02-.44-.15-.91-.06-1.33,2.76-12.16,2.36-4.37-.89-19.01-.25-1.14-.98-1.49-1.8-1.92.33-.43,1.36-.03,1.17-1.12-.82-4.71-.9-7.18-1.34-7.11-1.59.24-2.17.34-2.03,1.44.23,1.8.73,3.6.71,5.39-.01,1.4.9,1.12,1.59,1.39-2.21,1.02-.6,1.25-3.98,15.69-.05.19-.24.35-.37.53-.31-.96-.41.22.5-4.23.61-3,1.2-4.34-.5-5.48-.77-.52-1.25-.31-1.74.68-.1.2-.25.38-.38.57h.03ZM172.41,149.59s0,.08,0,.08c.29.08.61.1.86.25,8.42,5.06,6.35,3.95,7.51,4.45-.47-1.52-2.48-4.72-4.55-6.44-1.73-1.44.19-1.09-2.57-3.84-9.69-9.67-7.96-7.77-11.14-9.41-.12-.06-.42-.02-.44.05-.06.17-.07.4,0,.57,2.22,5.42,2.05,4.52,7.96,9.3v-.07c-3.06-1.15-1.38-.49-3.97-2.19-.17-.11-.44-.07-.66-.1,1.35,3.83,3.74,2.25,3.59,8.07h.05c-.28-.79-.69-1.56-.81-2.37-.12-.8-.39-1.41-.89-2.07-4.35-5.66-4.19-6.76-5.21-8.82-.13-.25-.57-.35-.87-.52-.15-1.75-.93-2.91-2.78-3.27-.78-.15-1.09-.59-2.56-1.17.38,1.75.77,2.34.84,3.39.2,2.82,1.76,5.58,3.44,7.04.37-.63.2.31.72-3.72.24,1.4-.49,3.86,1.78,6.94,1.6,2.17,2.5,5.47,2.22,7.54-1.27-1.77-1.21-8.18-6.42-10.05.18-.24.57-.6.52-.69-2.42-3.98-2.51-2.23-6.96-3.95-2.48-.96-2.48-1.08-4.56.95-1.42,1.38-.82,1.06,2.67,4.12,1.48,1.29,1.44,1.28,3.09.1,1.66-1.19,3.45-1.43,5.34-.53-2.14.06-4.11-.13-5.55,1.41-2.29,2.45,5.57,1.18,4.6,16.35,0,.15-.24.29-.36.43-.84-1.54,1.4-9.51-5-14.96-17.79-15.15-17.6-19.84-22.27-29.58-.14-.29-.7-.67-.82-.6-.81.5-1.18,1.04-.41,2.8,1.87,4.28,3.6,8.63,5.71,12.79,1.41,2.78,9.47,16.95,9.43,24.15-.02,2.92,1.25,5.35,3.65,7.14.78.58,1.12.08,1.55-.39h-.05c.39,1.64.39,1.65,1.82,2.31,5.51,2.52,9.48,4.16,19.49,4.21,1.08,0,1.65-.29,1.75-1.39.01-.15.25-.28.39-.42.06.21.17.43.16.63-.03.53.03,1.03.69.95,4.81-.57,8.11-.6,7.04-4.16-.16-.53-.02-.59.08-.81,1.09.82,1.16,1.62,1.69.26,2.6-6.68-2.17-9.2-6.17-12.17-1.19-.89-2.42-1.73-3.63-2.59ZM33.51,14.75v.05c5.81-.11,4.39,2.34,8.07,3.59-.26-1.9-2.34-2.78-2.3-4.63h-.07c.32.36.68.68.95,1.06,3.72,5.49,4.91,5.56,8.94,6.92-.31-1.23-.15-2.01-1.91-3.94-7.3-8.03-8.55-8.99-10.44-9.46-1.01-.25-.66-1.9-6.73-5.13-.17-.09-.39-.12-.58-.18.64,1.45,4.71,7.55,5.93,10.01-2.65-2.09-3.46-6.5-7.59-10.19-2.38-2.13-5.85-2.57-8.67-1.13-1.02.52-.27.88.59,1.67-.23,0-.47.02-.7,0-2.33-.28-2.85-.09-3.56,2.03-.44,1.33-.39,2.82-.72,4.2-.28,1.19.44,1.48,1.25,1.81v-.02c-1.01.42-1.6,1.03-1.48,2.27.18,1.73.12,3.47.27,5.2.7,7.9,1.4,6.95,2.11,9.68.43,1.65,1.5,3.13,2.02,4.77.39,1.21,1.36,1.03,2.13,1.38v-.05c-.47.43-.95.78-.38,1.56,1.79,2.42,4.22,3.65,7.14,3.65,4.9,0,15.1,4.49,18.27,6.33,3.74,2.17,18.17,9.34,20.49,9.23.35-.02.76-.48.97-.83.07-.12-.33-.68-.62-.81-3.37-1.55-12.05-4.51-18.78-10.89-3.33-3.16-6.7-6.3-9.5-9.99-4.8-6.34-10.07-6-16.25-6.39,1.41-.95,3-.19,4.48-.45.15-.03.32.01.47.02,10,.59,10.39,7.43,12.27,4.12,1.09-1.92.97-4.78.98-5,.88,1.79.66,3.53-.39,5.14-1.24,1.91-1.29,1.88.14,3.45,3.15,3.45,2.62,4.2,5.28,1.14,1.48-1.7-1.85-3.9-1.58-7.75.05-.67-2.18-2.06-2.75-2.41-.09-.06-.45.34-.69.52-.47-.77-1.34-3.98-6.96-5.36-3.32-.82-2.33-.47-3.08-.94.25-.08.5-.25.74-.23,7.25.66,6.62,4.46,13.73,4.12-4.04.53-3.1.35-3.72.72,1.39,1.64,4.21,3.29,7.05,3.43.74.04,2.62.64,3.4.87-.01-.03-1.18-2.47-1.2-2.56-.31-1.86-1.51-2.63-3.26-2.79.19-1.11-.85-.97-1.37-1.26-2.03-1.15-4.26-2.01-6.14-3.36-1.78-1.28-3.43-2.61-5.73-2.73-.18,0-.35-.28-.53-.43ZM56.99,48.26c1.49.98,9.54,4.92,16.01,6.81.45.13,1.04-.04,1.52-.2.33-.11.6-.43.89-.66-1.63-1.87-2.69-1.55-14.84-8.08-2.6-1.39-2.56-1.48-3.51,1.33-.09.27-.05.58-.07.81ZM129.1,108.92c-.57.79-.55,1.53-.25,2.44,1.5,4.59,3.39,9.01,5.56,13.32,1.16,2.31,1.14,2.32,3.51,1.36,1.63-.66,1.32.26-3.21-8.51-4.47-8.65-4.58-10.01-5.61-8.61ZM76.69,162.7c-.1.15-.03.43-.04.64,1.57-.66,7.66-7.33,15.71-13.53,1.44-1.11,1.51-1.13,1.1-2.95-.13-.57-.25-.84-.91-.47-8.82,4.93-13.42,12.73-15.86,16.3ZM37.43,91.21c.24-.4.29-.66-.3-.82-2.96-.83-1.88.22-6.84,5.75-6.13,6.84-8.97,9.59-9.89,10.91.3-.04.65.02.88-.12,6.72-4.31,10.95-7.14,16.15-15.72ZM53.44,101.81c.08.06.15.13.23.19,5.55-6.45,4.25-4.58,4.49-6.96-1.96,1.4-1.18.96-2.06,1.36.09-.21.16-.43.27-.63.3-.55,1.33-.73.86-1.68-4.51,2.85-5.63,4.21-8.77,8.37-.3.4-.56,1.37-.42,1.46,1.21.81.68,1.77.42,2.75-.06.25.01.53.03.8.19-.14.42-.24.56-.42,1.48-1.74,2.94-3.49,4.4-5.24ZM123.15,102.27c-1.81-1.26-2.19-1.68-2.6-1.16-.37.47.12.85,1.29,2.26-.68-.29-1.35-.64-2.05-.82-.58-.15-1.48.39-1.02,1.31.06.11,3.59,7.21,4.21,8,.13-.17.33-.32.38-.51.08-.3.04-.63.11-.94.02-.1.23-.16.35-.23.17.45,0,.15.57,1.1,1.09-.82.77-.08,1-2.31.01-.14.1-.27.16-.4.13.16.29.3.38.48.06.13-.02.35.06.46.15.2.47.51.55.47.24-.13.59-.45.56-.63-.44-2.34-.24-1.69-3.94-7.07ZM81.9,61.1c-3.54-2.78-3.19-2.96-7.19-4.32-.19-.07-.56.39-.85.6.75.57.39.36,1.39.84-2.41.71-1.41-.37-2.71,1.14.81.58.54.44,1.09.58-.14.14-.26.35-.43.41-.21.08-.48,0-.7.07-.2.06-.37.23-.55.36.7.63,7.1,3.79,7.97,4.22.28.14.87.18.97.04.67-1.02.07-1.79-.47-3.09,1.66,1.41,1.56,1.34,1.63,1.34.22.01.5.08.65-.03.15-.11.29-.46.22-.59-.33-.6-.74-1.16-1.01-1.58ZM62.39,119.35s.02.02.03.03c3.85-3.85,2.91-2.87,3.54-3.78-1.44-.83.57-2.06-.28-2.33-.46-.15-.76.57-1.26.86-2.76,1.63-4.85,4.03-7.09,6.24-.46.45-.36,1.96.19,2.33.67.45,1.28.33,1.86-.32.95-1.06,2-2.03,3.01-3.04ZM65.71,124.21s.09.07.14.11c4.91-6.31,3.59-4.54,4.64-6.3-.79.21-1.79.55-1.91.29-.47-.97-.62-.43-4.21,3.19-3.34,3.37-3.87,3.52-3.42,4.47.36.75,1.82,1.14,2.4.58.8-.76,1.57-1.56,2.36-2.35ZM138.97,74.56c-1.32-.28-5.87-.89-6.99-.14-1.09.73.35,1.98-.06,3.07-.29.77.4,1.14,1.12,1.12,4.59-.15,8.3-3.54,5.94-4.05ZM108.92,44.11c-.36.08-.8.04-1,.24-1.81,1.82-2.62,4.09-2.7,6.62-.03,1.13.89.94,3.38,1.21.54.06.98-.06.97-.7-.03-2.04-.07-4.09-.16-6.13-.02-.37-.28-.72-.49-1.24ZM117.06,55.36c.34.64.57,1.38,2.01,1.39,2.94.03,3.52,1.72,5.89,1.08.91-.24,1.25.1,1.02.99-.65,2.44,1.03,2.92,1.09,5.89.01.71.15,1.22.68,1.65.22.18.48.5.59-.07.24-1.31.68-2.61-.3-3.86-1.54-1.97-.81-4.66-.95-5-.66-1.63-2.02.52-6.59-2.01-.82-.46-2.12-.07-3.44-.06ZM63.88,121.37s-.05-.05-.07-.07c2.48-2.48,2.71-2.5,3.4-4.13.47-1.11-1.32-.46-1.65-.15-1.95,1.84-3.87,3.71-5.78,5.58-1.03,1,.43,2.41,1.42,1.44.9-.88,1.79-1.78,2.68-2.67ZM143.91,76.61c-1.86-.74-2.02-.63-2.93,1.25-.14.28-.45.5-.5.78-.05.23.12.69.28.73,1.82.5,3.65,1.01,5.52.13.56-.26.75-.52.29-1.01-.71-.76-1.45-1.41-2.66-1.89ZM106.1,37.89c-.54-.38-.91-.65-1.29-.92-.88,1.5-1.48,1.72-.45,5.97.27,1.11,1.31,0,1.68-.17,1.4-.67,2.86.15.06-4.88ZM87.36,111.42c-.48.48-3.75,6.97-4.04,7.57-.12.25.2.86.48,1.13,1.05,1.01,1.36-1.88,3.08-4.42.82-1.22.51-2.67,1.14-3.89.08-.15-.07-.42-.12-.63-.21.1-.42.19-.54.25ZM72.11,96.78c.15-.2.61-.78.51-.84-.12-.08-.36-.2-.38-.17-.67.84-1.63.06-2.39.43-5.66,2.78-6.95,2.97-6.14,3.82.95.99.73.67,8.41-3.23ZM82.47,52.63c-.25.82.14,1.14.77,1.44,1.86.89,1.7-.51,2.92-6.33,0-.04-.35-.24-.41-.2-.87.62-2.55,2.68-3.28,5.09ZM135.44,99.14c.44-.69.66-1.05.89-1.42-.72.03-1.09-.02-2.32.24-3.12.66-4.99.74-4.39,2.34.71,1.9,1.17,1.26,5.81-1.16ZM123.99,62.87c2.17,1.3,1.55.98,2.24,1.1-.19-1.42-1.76-2.73-1.31-4.68.02-.1-.3-.43-.41-.4-1.97.39-2.9-.99-4.69-1.3.05.2.06.4.14.58,1.66,3.79,3.93.38,3.9,2.61-.01.74.09,1.47.13,2.09ZM125.88,111.67c-.17.65-.72,0,1.63,4.27.08.15.58.24.74.14.67-.42,1.29-.86.85-1.88-1.06-2.45-.85-4.14-1.86-3.51-.4.25-.76.55-1.36.98ZM72.01,58.1c1.06-1.43,1.9-2.11.48-2.44-1.07-.25-2.08-.69-3.14-1-.65-.19-1.71.45-1.7,1.1.01.59,3.05,1.99,3.59,2.24.26.12.6.08.76.09ZM97.57,81.39s-.08-.1-.12-.15c2.07-1.82,1.5-1.27,2.05-2.05-3.31,1.67-4.52,1.33-6.91,4.11-.21.24,0,.85.03,1.29.36-.06.81-.01,1.08-.21,1.32-.96,2.59-1.99,3.87-2.99ZM101.85,90.3c3.08-6.54,2.72-5.64,2.64-6.01-.74.58-4.27,4.76-4.86,5.49-.28.35-.23.97-.33,1.47,2.1-.24,1.38-.05,2.56-.95ZM74.29,137.1c.03-.07.1-.17.08-.2-.07-.1-.2-.27-.25-.25-3.93,1.17-4.09,1.57-7.29,2.72-6.02,2.16-4.25.97-5.36,2.14,3.21.29,9.94-3,12.65-4.26.07-.03.12-.1.18-.15ZM47.09,109.38c-.2.13-.46.19-.53.34-2.95,6.11-2.31,4.16-4.31,11.99-.05.19.04.42.07.64.69-.51.54-.33.69-.86,2.76-9.57,3.29-8.49,4.14-11.57.04-.14-.03-.31-.05-.54ZM76.37,115.53s-.03-.03-.05-.05c5.38-6.27,4.42-5,4.59-5.98-1.44-.12-1.2-.36-5.99,6.38-.1.14,0,.43.02.65.7-.2.32.1,1.43-1ZM101.1,92.22c-.62.71,2.1,1.04,2.82-.78.2-.51.39-1.05.49-1.59.88-4.56,3.18-5.93,3.87-7.19-2.08,1.19-3.49,3.67-4.37,5.89-1.38,3.46-1.97,2.7-2.81,3.67ZM101.13,75.52c-1.45.98-2.98,3-6.5,3.68-2.54.49-4.13,1.19-3.43,3.63.19-.1.48-.15.56-.3.76-1.58,2.26-2.15,3.73-2.75,3.73-1.52,4.75-2.86,5.64-4.26ZM73.78,104.75c.42-.89.85-1.5.42-1.89-.09-.08-.44,0-.58.11-6.42,5.41-6.43,5.34-6.22,5.96.02.06.33.1.42.03,1.93-1.35,3.85-2.72,5.96-4.21ZM72.66,97.42c-.84.25.31-.46-7.45,3.93-1.14.64-.91,1.08-.77,1.42.3.76,3.97-1.98,5.62-3.06,2.2-1.44,1.75-.91,2.6-2.28ZM86.34,111.17c-1.07.46-1.6,1.37-4.75,6.32-.25.4-.47.82-.63,1.26-.07.18,0,.6.09.62.86.21,1.02-.07,1.42-.77,4.49-8.05,3.9-6.88,3.87-7.43ZM103.25,93.35c.14-.08.29-.22-.63.5.37.08.75.27,1.09.22,2.37-.35,2.44-2.89,3.31-7.56.04-.19-.01-.39-.02-.59-.14.17-.35.32-.42.52-.5,1.41-1.01,2.82-1.46,4.25-.31,1.01-.69,1.94-1.88,2.67ZM50.13,115.86c-.18.09-.38.12-.44.22-.87,1.75-4.58,9.36-3.94,11.65.14-.16.36-.3.42-.49,4.74-13.5,3.91-10.12,3.95-11.39ZM67.75,134.12l.18-.41c-1.84.01-2.16,1.37-11.39,3.93-.18.05-.31.29-.47.44,2.43.56,9.92-3.07,11.68-3.95ZM60.27,92.04c1.29-.3-.54.41,7.36-2.83.88-.36.62-.21.88-.65-1.59-.51-6.61,1.85-8.13,2.54-.12.05-.23.23-.25.36-.02.13.07.28.15.58ZM85.7,121.77c.45-.8.79-1.34,1.05-1.91,2.98-6.64,2.47-5.6,2.52-6.41-.98.4-.23-1.08-4.15,7.67-.2.46.42.58.58.64ZM70.23,95.15c.06-.2.18-.41.13-.49-.09-.12-.34-.26-.45-.21-4.4,1.83-5.23,2.23-7.49,3.51-.15.09-.18.39-.27.59.84.14-.62.72,7.54-3.02.21-.09.38-.26.54-.37ZM66.66,87.48c.15-.23.24-.36.32-.49-.97.04-7.21,2.45-7.25,2.47-.18.07-.23.51-.33.77.67.04-.38.47,6.35-2.21.36-.14.67-.39.91-.54ZM63.37,180.7c1.07,1.07.88,1.3,2.77-4.28.06-.17,0-.38,0-.57-1.03.79-1.47,1.82-2.87,3.39-.55.62-.61,1.05.11,1.46ZM3.34,120.66c.94.21-.03.93,4.35-2.59.12-.09.18-.25.26-.38-.19,0-.4-.08-.57-.02-5.8,1.96-5.33,1.72-4.05,2.99ZM95.42,70.15c-.07.34-.39.97-.19,1.25.36.54,1.01.69,1.63.14.41-.37.94-.61,1.31-1.01.21-.23.37-.83.23-.98-1-1.09-1.64-.25-2.97.59ZM113.59,88.42c.89-1.38,1.77-2.23.79-2.92-.84-.59-1.64.74-2.3,1.73-.38.57-.21,1.14.37,1.38.32.13.81-.12,1.15-.19ZM62.28,96.7c.73-.03-.28.24,3.05-1.18,5.61-2.4,4.44-1.7,4.98-2.5-.22.01-.46-.04-.64.04-8.38,3.6-7.38,3.11-7.39,3.65ZM87.24,121.61c.11-.08.27-.13.32-.23,3.74-8.44,3.24-7.29,3.28-7.85-.72.38-.09-.92-3.75,7.71-.04.09.1.24.15.37ZM115.43,50.54c-.22-.17,0,.04-.8-.74-.1.26-.3.53-.29.78.04.97.06,2.96.97,2.92.3-.01.82-.34.83-.56.05-.86.56-1.92-.71-2.41ZM130.86,67.67c-.28.12-.56.56-.57.86-.02.89,1.94.88,3.19.94.17,0,.35-.2.53-.3-.08-.11-.14-.25-.23-.34-.83-.78-1.83-1.64-2.92-1.16ZM131.76,57.71c.63.63.35.41,1.1.86-.22-.94.1-.15-.9-1.83-.86-1.45-.19-1.18,1.41-2.1-.33-.18-.67-.53-.98-.51-.42.04-.93.26-1.21.58-.86.95-.67,1.75.59,3ZM74.61,114.49c4.14-4.91,3.36-3.84,3.54-4.75-.96.13-.32-.78-3.92,4.29-.09.13.03.42.06.64.2-.11.4-.23.32-.18ZM74.01,105.56c-.6.18.11-.49-4.58,3.47-.13.11-.14.36-.21.55.22,0,.51.07.66-.04,4.9-3.46,4.16-2.82,4.13-3.98ZM113.13,84.53c.11-.18-.05-.58-.19-.82-.06-.1-.5-.13-.59-.03-.63.66-1.25,1.35-1.8,2.09-.09.13.13.56.3.78.06.08.42,0,.6-.1.21-.12,1.25-1.19,1.68-1.92ZM98.11,71.57c-.43.43-.22,0-.79,1.51,1.05-.03,1.41.11,1.78-.51.35-.59,1.72-.93.88-1.77-.74-.74-1.29.43-1.87.77ZM136.55,57.09s.08-.12.16-.24c-.42-.13.13-.06-3.54-.55.93,2.71.31,2.57,3.38.79ZM73.64,113.41c2.89-3.62,2.21-2.7,2.59-3.55-1.04.17-.41-.64-3.16,3.17-.06.09,0,.41.04.41.2.02.4-.02.53-.03ZM96.92,98.4c.03-.16.31-.66.16-.92-.36-.65-.9-.4-1.36.01-.81.73-1.28,1.12-.78,1.65.42.44.83.29,1.22-.08.17-.16.35-.31.76-.66ZM85.91,88.83c.29-.66.56-1.19.74-1.75.03-.11-.39-.5-.43-.48-1.93,1.21-1.44,1.08-1.58,2.25.39,0,.78-.01,1.27-.02ZM73.48,109.23c.16-.61.31-1.18.46-1.75-1.42,1-.56.3-3.68,3.13,1.41.34,1.81-1.36,3.22-1.38ZM86.54,89.26h0c-.22.23-.5.41-.64.68-.52.99.54,1.1.71.98.5-.35.98-.77,1.33-1.26.14-.2-.02-.67-.15-.98-.03-.07-.52,0-.76.1-.2.09-.33.31-.5.48ZM94.73,97.06c-.11.1.15-.02.22-.22.11-.3.09-.64.12-.97-.35,0-.76-.11-1.02.04-1.29.74-1.04,1.56-1.08,2.01.34-.03.69-.02,1-.12.2-.07.33-.31.77-.74ZM84.6,73.31c.71-.63,1.14-1.84.85-2.32-.07-.11-.32-.25-.33-.24-1.53,1.81-1.52,1.82-1.38,2.17.05.13.18.28.31.32.19.07.41.05.55.07ZM112.98,99.19c0-.27.07-.63,0-.66-1.04-.41-.9-.47-2.52,1.04-.02.02.41.73.87.5.55-.27,1.08-.58,1.64-.89ZM100.32,72.7c-.52.52-.79.72-.95.98-.09.15-.08.5.03.59.15.12.44.14.64.09.21-.06.4-.25.57-.41.48-.45,1.45-.67.89-1.59-.07-.11-1,.29-1.18.35ZM127.74,68.47c-.34-.77-.48-1.37-.85-1.77-.35-.38-2.52.22-.69,1.62.28.21.81.09,1.54.15ZM84.67,92.49c.03-.23.09-.65.15-1.06-1.79.26-1.57.29-1.89,1.56,1.36.14.88.2,1.74-.5ZM115.47,57.66c2,1.75,1.83-.61,1.51-.84-.42-.29-.99-1.05-1.53-.29-.21.3.01.91.02,1.12ZM13.19,115.22s.02.02.03.03c.46-.53.91-1.06,1.37-1.59-1.81.97-2.39,1.23-2.67,1.62-.2.29-.5.83-.39.96.52.62.67-.19.99-.37.26-.15.45-.43.67-.65ZM100.27,68.93c.09-.66.27-1.07.15-1.32-.27-.54-.79-.81-1.29-.25-.22.24-.41.88-.34.93.37.26.84.39,1.49.64ZM110.94,83.6c.72-.72.5-.44.59-1.35-.58.01-.88-.41-1.95,1.3-.14.22-.05.57-.06.87.27-.03.56-.01.79-.12.2-.09.32-.34.63-.7ZM114.99,85.23c.7-.21,1.08-.22,1.33-.41.54-.4.59-.94.02-1.33-.23-.15-.87-.12-.96.04-.22.39-.23.9-.39,1.69ZM91.27,99.2c-.23.29-.49.51-.59.78-.38,1.05.72.99.87.84.37-.38.64-.86.89-1.33.07-.14-.12-.78-.62-.61-.21.07-.39.22-.55.32ZM88.92,101.99c-.07.63-.13,1.1-.18,1.58.5-.07,1.14.03,1.46-.25.32-.28.72-.98.09-1.39-.27-.18-.78.02-1.37.06ZM81.95,94.74c-.05-.54-.09-.93-.13-1.33-.49.07-1.18-.02-1.42.27-.25.31-.07.96-.08,1.47.49-.12.98-.25,1.63-.41ZM67.59,171.82c-.05.07,0,.31.09.38.09.08.36.11.41.05.63-.82,1.65-2.12,2.12-3.04-.19.12-.39.22-.56.36-.9.8-1.55,1.57-2.06,2.24ZM92.38,96.16c.2-.58,1.29-.67.89-1.6-2.23,1.51-1.94,1.17-2,2.09.71.02.44.18,1.12-.49ZM97.13,99.47c-.09.2-.21.47-.33.73.92.22,1.4.72,2.11-1.12-1.03-.16-.57-.28-1.78.38ZM86.58,72.7c-.14.02-.34,0-.42.08-1.4,1.64-1.01,1.34-.82,2.2.63-.3.62.11,1.37-1.85.04-.11-.08-.28-.13-.43ZM112.71,55.53c-.03-.67.11-1.23-.11-1.48-.35-.4-.96-.59-1.33.1-.71,1.31.08,1.19,1.44,1.38ZM110.96,97.72c.06-.17.07-.38.02-.55-.02-.06-.29-.11-.41-.06-1.28.49-1.15.63-1.74,1.36.43,0,.86.05,1.27-.01.18-.03.82-.65.85-.74ZM82.42,88.97c.05-.54.09-1,.14-1.46-.27,0-.64-.13-.8,0-.48.38-.93.88-.54,1.54.08.13.63-.03,1.21-.08ZM88.88,91.46c.13-.33.2-.67.3-1.01-.7.31-.74.09-2.1,1.58-.08.08-.07.39-.02.41.19.09.47.2.61.12.35-.21,1.19-1.03,1.22-1.1ZM84.82,84.98c-.73-.51-1.75,1.09-1.42,1.76.07.13.51.24.53.21.35-.57.66-1.17.97-1.77.02-.04-.05-.13-.08-.2ZM119.21,59.75c-.2-.63-.22-1.09-.46-1.33-.19-.18-.87-.22-.96-.08-.27.41-.75,1-.06,1.4.3.17.79.02,1.48,0ZM86.83,99.38c-.21-.03-.45-.12-.51-.06-.45.53-.88,1.07-1.26,1.65-.12.19.5,1.71,1.82-.97.08-.16-.04-.42-.06-.62ZM117.35,100.77c.58-.8.57-.32.3-1.73-1.37.62-1.18.65-1.18,1.91.33-.07.66-.13.88-.18ZM84.42,97.74c0-.2.1-.47,0-.63-.09-.14-.44-.27-.57-.21-.56.28-1.1.61-1.6.98-.1.07-.1.42,0,.56.41.6.68.25,2.18-.7ZM84.47,67.08c.07-.37.13-.69.19-1.01-.93-.14-.62-.56-1.9,1.1-.01.01.22.3.31.29.44-.08.86-.22,1.4-.37ZM99.98,96.27c-1.6-1.46-2.56-.19-1.97.47.51.56,1.4.49,1.8-.1.12-.17.17-.39.16-.37ZM78.36,77.74c.85-2.69.72-1.98.42-2.68-.46.35-.43-.14-1.06,2.37-.02.08.14.23.24.31.04.04.15,0,.39,0ZM83.18,71.62c.28-.55.61-1.16.91-1.79.04-.09-.1-.38-.16-.38-.59-.02-.61-.08-1.46,1.81-.04.1.05.33.15.39.1.06.28,0,.57-.03ZM112.09,101.17c.13.06.3.21.4.17,2.17-.91,1.72-.85,1.92-1.42-.58-.19-.27-.54-2.19.82-.1.07-.09.28-.12.43ZM91.57,74.77c-.11.25-.32.77-.53,1.28,1.66-1.03,1.97-1.11,1.72-1.86-.02-.05-.29-.08-.39-.02-.2.1-.36.27-.79.61ZM108.65,91.32c-1.02,1.33-.99,1.16-.77,1.54.1.17.56-.28,1.79-1.57.03-.03-.12-.51-.35-.38-.26.14-.5.3-.67.4ZM87.75,86.01c1.05-.9-.01-2.43-.57-2-.56.43-.6,1.36-.08,1.81.18.16.5.15.65.19ZM93.69,101.65c.67-.8.53-.41.71-1.46-.82-.08-1.47-.58-1.56,1.49.33-.01.66-.02.85-.03ZM106.09,105.95c.06.04.14.14.18.13,2.86-1.06,2.47-.89,2.43-1.15-3.05.71-2.57.5-2.6,1.02ZM88.59,100.49c-.96.4-1.01.04-1.78,1.83-.02.05.46.41.49.38,1.37-1.28,1.07-1.22,1.29-2.22ZM82.93,96.29c.06-.19.15-.46.25-.73-.6-.04-1-.32-1.95.54-.11.1-.14.49-.05.59.68.69,1,.15,1.75-.39ZM125.55,66.17c-.09-.54-.05-.93-.21-1.19-.66-1.02-2.11.63-1.2,1.16.3.18.8.03,1.41.03ZM115.38,55.18c-2.28-.13-1.77-.38-1.89,1.1,1.65-.03,1.11.15,1.89-1.1ZM127.68,70.49c.2-.03.56-.02.84-.16.54-.28.38-2.2-.8-1.38-.52.36-.67.83-.05,1.54ZM129.83,72.6c0-.53,0-.95,0-1.36-.42,0-.88-.09-1.26.05-.39.14-.36,1.15.05,1.34.28.13.68,0,1.21-.03ZM108.19,54.34c.04-1.46.47-1.15-1.25-1.53-.04.43-.25.96-.08,1.27.13.23.76.17,1.33.27ZM131.07,77.09c-.11-.59-.07-1.07-.29-1.36-.13-.18-.88-.2-.95-.07-.19.34-.17.81-.23,1.22.41.06.83.12,1.48.21ZM91.06,104.13c.77,0,1.28,0,1.78.01-.08-.41-.03-.97-.28-1.19-.22-.19-.82-.11-1.16.06-.2.1-.19.59-.34,1.12ZM81.16,92.51c-.59-1.98-.27-1.48-1.51-1.5.26,1.95-.1,1.51,1.51,1.5ZM103.72,76.28c.22-.26.37-.42.51-.59-.79,0-.21-.46-3.07,1.65-.12.08-.16.27-.24.4.55-.1-.15.27,2.8-1.46ZM57.02,128.75s0,0,0,0c.41-.37.19-.07.86-1.04-.81.15-.56-.26-2.26,1.42-.09.08-.07.27-.1.42.73,0,.33.26,1.51-.79ZM93.14,67.22c.05-.32.15-.8.2-1.29,0-.05-.35-.21-.39-.17-.41.4-1.14,1.12-1.07,1.65.02.13.3.34.44.32.21-.03.39-.23.82-.51ZM106.52,82.63c.49-.49.08.21,1.72-2.99-.25-.07.05-.42-1.74,2.19-.21.31-.32.64-.48,1.03.19-.09.38-.17.5-.22ZM82.3,89.79c-.05.44-.1.82-.15,1.21.95-.17.97.15,1.67-1.22.04-.07-.16-.37-.2-.36-.4.08-.78.21-1.32.37ZM81.98,70.25c.66-2,.72-2.02.42-2-1.03.08-.93,1.07-1.31,1.68-.05.08.15.36.29.48.06.05.26-.07.59-.16ZM115.41,102.1c.09-.39.16-.55.14-.68-.02-.12-.19-.32-.21-.31-2.34,1.26-1.97,1.04-1.86,1.52.68-.19,1.37-.37,1.93-.53ZM130.86,74.79c-.1-.62-.06-1.21-.24-1.28-.37-.15-.89-.13-1.25.04-.17.08-.21.94-.14.96.45.16.95.18,1.63.28ZM105.88,54.13c.05-1.33.44-1.06-1.52-1.31-.03,1.08-.48.77,1.52,1.31ZM117.97,90.49c-.37-.09-.67-.45-1.58.52-.18.19-.22.5-.32.76.44.03.84.31,1.78-.6.12-.12.08-.41.13-.69ZM89.71,99.54c1.04-1.41.79-.95.84-1.73-.19.01-.44-.04-.56.06-1.34,1.11-.98,1.17-.96,1.82.27-.06.54-.11.69-.14ZM81.03,78.62c-.13-.04-.37-.15-.39-.12-.34.57-.67,1.14-.96,1.73-.01.03.33.34.43.3.62-.25,1.16-1.44.92-1.91ZM86.81,95.7c.05-.18.15-.56.26-.94-.6.24-1.17.3-1.65,1.09-.1.17-.06.43-.08.64.69,0,.31.24,1.48-.79ZM88.02,97.07c-1,1.17-.76.81-.83,1.33.22.02.48.13.64.05.82-.41.85-.98,1.15-1.8-.39.17-.77.34-.96.42ZM119.97,88.03c-.59.3-1.75.76-1.28,1.99.04.11.26.26.29.23,1.22-.8.89-.57.98-2.23ZM95.38,64.61c0-.12.1-.36.03-.52-.22-.46-1.02-.37-1.56.21-.15.16-.25.67-.17.72.62.4,1.16.19,1.71-.41ZM110.57,53c-.6.06-1.17-.02-1.27.17-.23.41-.7,1.02,0,1.41.24.13.85.04.99-.16.22-.32.18-.81.28-1.41ZM103.24,104.37c2.37-1.07,1.78-.7,2.11-1.42-.45-.19-.37-.57-1.99.57-.11.07-.06.36-.12.85ZM85.99,93.79c.08-.12.11-.28.16-.43-.21-.05-.48-.19-.63-.12-1.46.77-1.21,1.08-1.34,1.58.28-.02.58.02.83-.06.24-.08.84-.76.98-.97ZM95,73.45c-.09-.51-.05-.96-.25-1.15-.18-.17-.64-.05-.97-.06,0,.41-.01.83-.02,1.24.35,0,.7-.02,1.24-.03ZM89.48,83.52c-.52-1.64-.57-2.14-1.01-1.93-.67.3.02,2.09.39,2.18.11.03.26-.09.62-.25ZM75.96,103.27c.1-.61.23-1.35.34-2.08,0-.02-.14-.08-.15-.08-.84,1.42-1.26,1.86-.69,2.31.03.03.14-.04.49-.15ZM95.02,101.27c-.04.51-.07.9-.11,1.29.36-.06.87,0,1.04-.21.22-.27.17-.76.24-1.16-.34.02-.67.04-1.17.08ZM131.76,71.74c.02-.35.18-.81.01-1.08-.14-.23-.65-.23-.99-.33.07.56.13,1.12.2,1.68.2-.07.4-.13.78-.26ZM113.72,53.26c-.19-.45-.67-2.4-1.65-1.02-.11.16-.11.64-.05.65.47.14.95.22,1.7.36ZM102.25,95.47c-.1-.59.31-.52-1.8-.98-.06-.01-.26.27-.25.29.82,1.04.47.85,2.05.69ZM89.01,72.99c.25-.45.52-.9.76-1.38.05-.1-.04-.39-.09-.39-.51-.06-.57-.17-1.31,1.46-.03.07.09.29.2.34.11.05.27-.01.45-.03ZM97.74,63c-.05-.16-.07-.39-.15-.42-1.41-.47-1.22-.22-2.03.29,1.12.59.55.59,2.18.12ZM110.72,95.64c2.25-1.09,1.7-.72,1.96-1.45-.38-.07-.49-.4-1.79.59-.12.09-.09.37-.18.86ZM98.87,101.3c.61.35,1.75-.54,1.71-1.05,0-.1-.25-.29-.29-.27-1.85.98-1.53.85-1.43,1.32ZM89.61,86.68c-.42.03-.87,0-.89.08-.37,1.6.07,1.23.89,1.3,0-.4,0-.81,0-1.38ZM89.96,69.04c.11-.57.2-1.06.3-1.54-.26-.05-.72-.17-.74-.13-.17.47-.28.97-.38,1.46,0,.01.38.1.81.21ZM55.57,127.51c.69-1.44.52-1.01.54-1.53-.36.09-.2-.23-1.64,1.5-.08.09-.04.27-.06.41.85,0,.53.07,1.16-.38ZM110.14,90.33c1.56-.36,1.21,0,1.39-1.29-1.33-.03-.95-.35-1.39,1.29ZM95.61,95.3c.58-.05.99-.04,1.37-.15.09-.03.16-.57.04-.7-.37-.4-.85-.75-1.32-.14-.14.18-.06.52-.09.99ZM114.55,94.98c.91-.28,1.38-.39,1.82-.6.13-.06.26-.49.18-.58-.45-.55-.97-.4-1.42.01-.18.17-.24.47-.58,1.17ZM121.52,87.93c-.1-.57-.2-1.22-.32-1.86,0-.03-.16-.06-.17-.05-.68,1.11-.68.61-.18,2.23.13-.06.27-.13.67-.32ZM80.4,108.49c.07.03.16.1.22.08,2.39-.75,1.96-.58,2.08-1.06-1.81.13-1.32,0-2.29.77-.03.03,0,.14,0,.21ZM83.27,83.33c-.68.68-.54.21-.73,1.64.71-.32,1.11-.32,1.27-1.05.04-.2.02-.46-.09-.61-.05-.08-.36.02-.45.02ZM115.85,88.03c.09-.15,0-.42,0-.64-.52.13-.37-.27-1.63,1.66-.12.18-.16.42-.23.63.2-.1.42-.18.6-.31.14-.1,1.05-1,1.26-1.35ZM113.76,97.94c1.27-.42.92-.08,1.62-1.21-.66-.08-1.1-.39-1.69.46-.09.13.03.39.07.75ZM70.82,114.78c.38-.63.74-1.23,1.11-1.84-2.18,1.7-1.66,1.16-1.77,2.03.22-.06.44-.13.66-.19ZM115.19,81.91c-1.68.25-1.26.04-1.39,1.01,1.39.05.97.23,1.39-1.01ZM100.66,70.29c1.22-.45,1.05-.02,1.02-1.42-.99.12-.77-.29-1.02,1.42ZM69.89,113.23s-.02-.02-.03-.03c1.11-1.11.79-.77,1.09-1.24-.38.09-.31-.13-2,1.24-.09.08-.07.29-.11.45.6.07.34.23,1.05-.42ZM94.12,69.76c.13,0,.3.05.39-.02,1.56-1.08,2.15-1.5,1.93-1.75-.08-.1-.32-.18-.41-.13-.69.39-1.56,1.09-1.91,1.89ZM120.28,60.24c-.32-.04-.72-.1-1.12-.15-.05,1.04-.48.77,1.67,1.22-.16-.3-.31-.61-.55-1.07ZM87.61,68.04c-1.46.84-1.11.25-1.56,1.97.98-.09.58.44,1.56-1.97ZM97.46,93.59c.49.12,1.07.27,1.65.39.02,0,.15-.36.13-.38-1.34-.78-1.55-.87-1.85-.61-.05.05.03.25.08.6ZM90.58,84.75c-.32-.1-.48-.21-.59-.18-.11.04-.27.27-.23.33.27.54.58,1.06.89,1.57.01.02.18-.03.18-.03-.08-.6-.17-1.19-.24-1.7ZM123.58,63.41c-.54-.16-.82-.24-1.1-.32.16.55.31,1.11.51,1.64.02.06.6,0,.6-.04.02-.43,0-.87-.02-1.28ZM110.03,88.61c0-.5,0-.91-.05-1.3,0-.04-.54-.09-.55-.05-.11.39-.17.79-.2,1.2,0,.03.39.08.79.16ZM81.41,86.99c.06-.39.11-.73.16-1.06-.32.1-.74.1-.92.32-.17.2-.09.62-.12.94.26-.06.53-.12.89-.2ZM96.54,74.69c.02-.4.03-.6.04-.8-.4,0-.81-.03-1.21.01-.05,0-.1.56-.07.57.37.1.76.14,1.24.22ZM96.79,102.43c-.06.35-.1.62-.14.88.32-.05.74.01.94-.17.2-.18.19-.6.27-.92-.33.06-.66.13-1.08.21ZM81.22,75.58c-.08-.48-.16-.96-.24-1.45-.14.05-.33.05-.42.15-.4.41-.38,1.25.03,1.42.11.05.28-.05.63-.13ZM79.3,81.3c-1.15-.06-.71-.38-1.63,1.04.65.31.27.58,1.63-1.04ZM102.86,104.68c-1.32.36-.93-.03-1.7,1.25,1.31-.02.85.27,1.7-1.25ZM103.57,52.92c-.69.19-1.23.34-1.75.51-.02,0,.05.41.09.41.51.02,1.02.02,1.52-.04.06,0,.07-.41.14-.88ZM79.62,84.22c.15-.49.25-.84.36-1.18-.93.05-.68-.31-1.19,1.05.25.04.5.08.83.13ZM100.87,103.57c-1.6,1.09-1.28.72-1.16,1.44,1.48-.73,1.12-.35,1.16-1.44ZM104.96,104.86c.09.02.18.08.24.06,1.55-.63,1.88-.75,1.75-.93-.25-.34-.12-.44-1.94.51-.06.03-.03.24-.05.36ZM79.54,78.74c.56-2.09.54-1.75.3-1.89-1.05,1.94-1.05,1.76-.73,2.04.03.02.14-.04.43-.14ZM87.05,75.92c.93-1.65.7-1.14.7-1.87-.53.35-.41-.03-1.19,1.63-.06.14-.08.3-.11.45.2-.07.39-.13.6-.2ZM91.81,65.01c-1.03.16-.68-.19-1.37,1.12.71.28.41.57,1.37-1.12ZM118.58,92.12c-1.41.82-1.19.54-.88,1.25,1.34-.91,1.12-.63.88-1.25ZM62.2,144.68c-.02-.51.08-.89-.07-1.06-.14-.15-.64-.17-.8-.04-.15.13-.18.6-.06.8.1.17.49.17.92.3ZM120.64,90.39c-1.21,1.21-.95.8-.83,1.6,1.22-.88.93-.47.83-1.6ZM92.88,62.9c-1.24,1.04-1.04.76-.86,1.19,1.34-.77,1.14-.52.86-1.19ZM104.43,101.34c2.12-.53,1.71-.3,1.73-.98-1.68.21-1.17,0-1.73.98ZM83.34,79.06c.16-1.72.22-1.34-.27-1.55-.13.55-.25,1.11-.38,1.66.14-.02.27-.04.65-.11ZM108.01,102.67c.26.72,0,.95,1.34.68.05-.01.06-.53.04-.53-.4-.07-.81-.1-1.38-.14ZM90.21,91.93c-.41.06-.13-.31-2.04,1.73-.06.06.03.52.28.35.6-.42,1.51-1.28,1.76-2.08ZM85.05,67.36c-.12.52-.2.92-.29,1.31.75-.01.45.35,1.17-1.22-.24-.03-.49-.05-.88-.09ZM98.4,66.88c.06-.39.1-.66.14-.92-1.4.29-1.01.1-1.26,1.02.34-.03.69-.06,1.12-.09ZM117.05,85.28c-.12.48-.2.83-.29,1.18.9-.08.67.3,1.15-1.1-.26-.02-.51-.05-.87-.08ZM116.17,98.92c.15-.39.25-.67.36-.94-1.65.4-1.23.17-1.37,1.1.34-.05.67-.1,1.01-.16ZM93.16,75.82c-.07.12-.22.37-.38.62,1.68-.7,1.32-.48,1.63-1.14-.74-.03-.42-.19-1.25.52ZM85.22,98.71c-1.1.3-.69-.05-1.54,1.16.72.31.37.6,1.54-1.16ZM108.05,90.66c.7-1.31.61-1.05.44-1.27-1.26,1.43-.92.99-1.12,1.65.19-.11.39-.21.67-.37ZM90.56,95.28c1.55-1.55,1.19-1.11,1.35-1.66-.4.07-.13-.29-2.09,1.68-.05.05.04.55.29.35.3-.24.59-.49.45-.37ZM108,96.64c-.09.2-.21.46-.32.72.23-.08.68-.14,1.89-.91.11-.07.13-.26.19-.4-.48-.1-.02-.27-1.76.59ZM39.14,122.66c1.2-.12,1,.2,1.14-.97-1.19-.05-.84-.19-1.14.97ZM113.39,81.48c-.13-.94.15-.77-.93-.73.01.27.02.53.03.8.27-.02.54-.04.9-.07ZM92.64,61.12c-1.97.14-1.52.02-1.76.5,1.89.02,1.44.15,1.76-.5ZM122.77,91.25c-.63.1-.47-.26-.63,1.58.45-.02.3.32.63-1.58ZM91.04,63.3c-.02-.34-.03-.53-.03-.72-1.35.3-1.03.11-1.07.81.35-.03.69-.06,1.1-.09ZM121.59,92.28c-1.44,1-1.21.52-1.11,1.71,1.01-.54.7-.1,1.11-1.71ZM115.88,90.11c.77-.66.55-.33.93-1.17-.26.11-.92.16-1.76,1.68.2-.1.43-.17.61-.3.19-.13.33-.32.22-.21ZM93.79,67.8c-.05.09-.27.51-.49.93,1.7-1.38,1.61-1.32,1.46-1.71,0-.02-.17-.01-.22.03-.17.15-.33.32-.76.75ZM130.31,84.79c-.17-.07-.27-.14-.3-.12-.1.09-.23.2-.23.3-.05,1.17.15.99.55,1.29.05-.14.16-.28.15-.42-.03-.37-.12-.74-.17-1.06ZM91.12,69.82c.05-.28.13-.67.2-1.06-.5.12-.31-.23-.78,1.32.14-.06.27-.12.58-.26ZM114.88,92.97c.06-.14.12-.27.18-.4-.32-.11-.67-.53-1.32.62.6.06.31.15,1.14-.22ZM87.27,71.23c.31.1.54.2.56.18.28-.46.53-.93.77-1.4,0-.01-.32-.21-.33-.2-.33.45-.65.92-1,1.42ZM113.97,95.36c-.18-.18.06-.32-1.55.6-.2.12.21.47.29.43,1.52-.71,1.21-.67,1.25-1.03ZM89.17,78.54c.62-.72.39-.34.96-1.41-1.35.79-1.21.76-1.44,1.66.2-.1.39-.2.49-.25ZM106.67,93.8c-.29-.03-.15-.31-1.55,1.03-.09.08-.07.28-.1.42.14-.03.31-.03.43-.11.32-.19,1.12-.93,1.23-1.35ZM84.3,80.59c.05-.33.12-.75.19-1.17-.51.2-.32-.18-.76,1.4.14-.06.27-.11.57-.23ZM102.84,100.33c1.63-.59,1.21-.34,1.51-1.02-1.42.31-.97.08-1.51,1.02ZM81.47,81.68c.18-.42.38-.87.56-1.33,0-.02-.14-.13-.15-.13-1.32,1.39-.99,1.03-1.15,1.71.21-.07.41-.14.73-.24ZM103.6,101.91c-.34-.34-.17-.37-1.7,1.06.16.12-.1.28,1.71-.83.03-.02-.01-.15-.02-.23ZM101.98,100.89c-1.54.97-1.09.65-1.62,1.2.37.03.24.28,1.53-.72.07-.06.05-.24.09-.48ZM19.97,108.17c-.28.07.07-.25-1.66,1.54.08.06.2.18.22.16.33-.22,1.15-1.06,1.44-1.7ZM75.66,163.86c-.22.05.04-.24-1.73,1.42-.04.04-.02.15-.04.22.14-.03.31-.02.42-.1.24-.16.98-.86,1.35-1.55ZM117.36,83.23c.36.02.7.04,1.03.06-.21-.66.14-.49-1.16-.79.03.2.07.4.13.73ZM93.58,62.52c1.54-.65,1.23-.43,1.26-.9-1.51.45-1.2.23-1.26.9ZM122.36,88.94c-.7.09-.47-.24-.89,1.27.46-.05.25.27.89-1.27ZM102.29,70.46c-.02,1.16-.12.86.6,1.01.06-.32.12-.65.18-.97-.21,0-.42-.02-.78-.04ZM106.81,99.75c.49,0,.83,0,1.17,0-.03-.19,0-.49-.09-.54-.23-.12-.53-.16-.78-.13-.09,0-.15.32-.3.67ZM81.68,141.42c-.07-.34-.09-.65-.14-.66-.81-.08-.69.31-.77.68.26,0,.52-.01.91-.02ZM43.03,102.93c0-.27.01-.48.02-.69-.93.3-.7.13-.65.83.2-.04.4-.09.63-.14ZM78.19,79.97c-.62-.07-.47-.25-.73.71.48.11.31.29.73-.71ZM78.9,73.77c.45-.07,1.1.06.97-.78-.01-.09-.46-.22-.5-.16-.17.21-.25.48-.46.94ZM94.37,93.82c.94-.6.78-.35.51-.96-.91.55-.77.34-.51.96ZM111.19,103.86c-1.29.27-.98.12-1.14.63,1.06.21.73.3,1.14-.63ZM83.76,75.09c-.23-.5-.37-.79-.51-1.09-.18.09-.52.19-.52.26.02.26.12.54.27.75.07.09.34.04.75.08ZM82.11,77.34c.06-.41.12-.84.17-1.26-.51.2-.35-.16-.66,1.25.12,0,.25,0,.49,0ZM107.62,102.07c.02-.28.03-.46.04-.65-1.35.38-1.03.19-1.12.78.35-.04.7-.08,1.09-.13ZM99.97,98.3c1.82-.66,1.41-.4,1.55-1.03-1.46.33-.99.1-1.55,1.03ZM91.1,88.62c-.85.16-.64-.12-.96.89.69.08.45.34.96-.89ZM112.7,91.42c-.01-.32-.02-.51-.03-.69-.82.11-.58-.05-.91.64.28.02.56.03.94.05ZM86.21,83.51c.48-1.03.36-.68.22-1.33-.48.37-.44.11-.76,1.23-.02.06.02.15.04.22.13-.03.27-.07.5-.12ZM108.73,100.99c1.15.1.84.18,1.04-.48-.32-.07-.65-.13-.97-.2-.02.18-.04.37-.07.68ZM84.79,75.87c-.34-.02-.55-.03-.75-.05.08,1.16-.06.87.64.96.03-.28.07-.56.11-.91ZM101.51,66.47c-.59-1.15-.35-.87-1-.99.18,1.11-.03.79,1,.99ZM87.99,79.93c-.85.48-.72.12-.76,1.23.64-.26.48.11.76-1.23ZM103.65,95.75c-1.29.59-1.06.4-.93.89,1.22-.4.99-.21.93-.89ZM103.74,106.43c.11-.28.17-.41.22-.55-1.01-.08-.76-.15-.93.34.24.07.48.14.7.21ZM85.52,65.51c1-.09.79,0,.84-.44-.27-.03-.54-.05-.81-.08,0,.12-.02.24-.04.52ZM104.6,68.53c-.68.24-.88.28-1.04.39-.04.03.02.35.11.39.64.34.64-.13.93-.78ZM91.28,73.83c.05-.23.11-.49.16-.74-.49.22-.27-.07-.89.98.21-.07.41-.14.73-.24ZM115.43,79.35c-.74.21-.94.27-1.14.32.04.14.05.36.14.4.69.32.7-.15,1-.73ZM82.19,73.34c-.11-.31-.16-.52-.27-.69-.02-.04-.36.03-.39.11-.07.18-.03.4-.04.6.2,0,.4-.01.69-.03ZM116.33,81.6c.21-.52.32-.33-.35-.73-.08.17-.16.34-.24.51.2.07.39.15.59.22ZM111.69,103.5c.6.24.41.36.74-.33-.47-.21-.28-.34-.74.33ZM111.22,101.69c-.67.1-.93-.07-.68.7.01.04.34.05.4-.02.12-.14.15-.36.28-.68ZM78.86,88.37c.23.1.36.16.5.21.18-1.11.23-.8-.43-1.08-.03.3-.05.6-.07.87ZM97.31,64.81c-1.11.34-.74-.05-1.48,1.21.72-.18.34.16,1.48-1.21ZM104.14,72.92c-.01-.25-.02-.53-.03-.81-.64.21-.56-.08-.47.99.13-.05.26-.09.5-.18ZM111.53,80.32c.12-.25.18-.37.24-.5-1.04-.15-.75-.2-1.03.42.28.03.56.06.79.08ZM88.37,67.19c.12-.23.27-.5.42-.77-.62.18-.41-.1-.91.92.14-.04.28-.09.49-.15ZM118.12,87.06c-.12.28-.22.55-.33.82,1.14-.46.83-.24.95-1.04-.19.07-.39.14-.62.22ZM117.37,94.82c-.37.37-.63.63-.88.89,0,0,.18.21.19.2.93-.65.72-.5.69-1.1ZM129.86,83.75c.32-.13.53-.16.66-.28.08-.07.07-.39.04-.4-.77-.24-.59-.02-.7.68ZM96.24,104.34c-.27-.01-.56-.02-.84-.04,0,.65-.23.55.9.58-.01-.14-.03-.28-.05-.54ZM89.64,64.26c-.65.44-.51.26-.35.75.68-.34.55-.15.35-.75ZM119.36,93.97c-.2.07-.41.11-.58.21-.04.02.05.37.09.37.2,0,.41-.05.61-.08-.04-.14-.07-.28-.13-.5ZM102.95,68.15c-.16-.92.02-.74-.68-.7.03.5-.18.34.68.7ZM92.94,71.93c.02-.24.05-.52.08-.79-.62.1-.49-.18-.6.92.13-.03.26-.06.52-.12ZM110.7,92.22c-.79.42-.57.25-.75.72.9-.36.66-.18.75-.72ZM105.35,70.97c-.05-.19-.1-.39-.15-.58-.44.12-.38-.08-.31.74.13-.04.26-.09.46-.16ZM132.05,48.22c.02-.6.07-.42-.31-.66-.08.72-.11.52.31.66ZM80.81,71.43c-.24-.03-.38-.05-.52-.07,0,.21-.01.42-.02.63.48,0,.36.18.53-.57ZM113.3,78.46c-.19.05-.39.1-.58.15.12.45-.08.38.74.31-.05-.13-.09-.26-.16-.46ZM120.59,44.82c.08-.19.14-.31.19-.43-.57-.13-.39-.13-.67.16.16.09.31.18.48.27ZM139.51,63.62c-.04-.21-.08-.41-.13-.6-.16.1-.56.16-.26.62.03.05.22,0,.38-.01ZM58.78,131.42c-.1-.22-.13-.62-.56-.23-.06.06-.04.2-.06.31.2-.03.4-.05.62-.08ZM52.73,125.56c-.03-.16-.06-.34-.11-.5,0-.02-.19-.02-.2-.01-.05.2-.08.41-.11.61.11-.03.22-.06.42-.1ZM109.57,81.13c.03.22.06.43.1.63,0,.01.2.01.2,0,.17-.71.1-.56-.3-.63ZM102.63,74.28c.03-.16.1-.34.06-.38-.43-.35-.54.05-.65.18.19.06.38.13.59.2ZM41.66,104.13c-.18.55-.18.39.14.59.27-.51.27-.35-.14-.59ZM110.24,78.87c-.37.19-.37.02-.2.6.45-.25.42-.09.2-.6ZM104.94,73.56c-.52-.24-.36-.27-.62.2.59.18.42.19.62-.2ZM86.77,79.43c-.03-.18-.06-.36-.11-.53,0-.03-.2-.03-.2-.02-.05.21-.09.42-.13.63.12-.02.23-.04.44-.08ZM93.3,92.45c.06-.14.12-.27.18-.41-.49.24-.34.08-.59.59.14-.06.27-.12.41-.19ZM66.12,103.11c-.56.51-.49.38-.34.58.51-.55.44-.42.34-.58ZM80.44,85c.08-.12.16-.25.24-.37-.5.22-.34.07-.63.55.13-.06.26-.12.39-.18ZM99,103.54c.08-.13.16-.26.24-.38-.51.25-.34.1-.64.58.13-.07.27-.13.4-.2ZM91.57,90.72c.07-.13.14-.27.21-.4-.53.21-.37.06-.62.58.14-.06.27-.12.41-.18ZM80.46,118.01c.07-.13.14-.27.21-.4-.5.26-.34.1-.6.62.13-.07.26-.15.39-.22ZM85.87,77.55c-.49.05-.36-.1-.61.43.13.06.26.11.38.17.07-.19.14-.37.23-.6ZM118.89,97.94c-.07-.17-.15-.35-.22-.52-.4.2-.38,0-.21.74.12-.06.24-.12.43-.21ZM92.12,88c-.02-.48.12-.35-.42-.59-.01.19-.02.38-.04.57.15,0,.3.01.46.02ZM85.6,81.19c-.65.04-.42-.18-.87.76.28-.01.07.18.87-.76ZM79.68,141.95c-.46-.13-.32-.24-.65.26.58.08.41.11.65-.26ZM102.39,99.02c.1-.24.19-.43.27-.63-.81.31-.58.17-.8.61.17,0,.33.01.53.02ZM104.76,97.48c.05-.16.09-.26.12-.37-.48-.1-.32-.18-.64.26.17.04.35.08.52.11ZM133.93,46.72c-.1-.09-.2-.17-.3-.26.03.16-.02.21.21.32.02,0,.06-.04.09-.06ZM137.15,50.62c.15-.73.19-.57-.03-.74,0,.08,0,.16.03.74ZM57.09,125.41c-.12-.02-.25-.04-.37-.05,0,.27-.12.17.36.41,0-.12,0-.23.01-.35ZM58.05,126.94c.13.05.26.11.4.16.06-.23.15-.11-.24-.45-.05.1-.1.19-.15.29ZM135.92,51.79c-.11,0-.22,0-.33,0,.22.48.12.36.49.34-.05-.12-.1-.24-.16-.35ZM39.81,115.3c-.08.09-.15.18-.23.27.14-.02.2.02.29-.19,0-.02-.04-.06-.06-.09ZM68.45,143.94c-.22.11-.15.04-.24.26.1-.06.2-.12.31-.18-.02-.03-.04-.05-.06-.08ZM110.06,74.15c.05-.38.17-.29-.31-.48-.05.38-.17.29.31.48ZM48.48,131.09l.15-.15c-.07-.04-.14-.07-.21-.11-.03.06-.06.13-.1.19.05.02.1.05.15.07ZM52.97,135.39c.02-.07.05-.13.07-.2-.21-.01-.14-.09-.26.28.06-.03.13-.06.19-.09ZM9.14,116.94c-.09.1-.18.21-.28.31.18-.04.22,0,.34-.22,0-.01-.04-.06-.06-.09ZM66.88,174.66c-.14-.05-.07-.09-.29.09.2.11.14.15.29-.09ZM95.93,91.65c-.03.38-.14.28.32.48.07-.38.19-.28-.32-.48ZM94.06,89.73c-.06-.02-.13-.04-.19-.06-.03.2-.1.15.27.24-.03-.06-.05-.12-.08-.18ZM106.16,98.42c.03-.13.06-.26.08-.39-.27.03-.16-.09-.43.36.11,0,.23.02.34.02ZM80.02,89.82c-.03-.07-.06-.13-.1-.2-.07.06-.14.12-.2.17.25.16.17.13.3.02ZM94.15,104.13c.1-.18.13-.1-.06-.32-.04.08-.09.15-.13.23.06.03.13.06.19.09ZM114.99,103.47l-.27.27c.16-.03.19,0,.31-.2,0-.01-.03-.05-.05-.07ZM107.35,95.69c-.23.05-.13-.07-.42.38.24-.04.14.08.42-.38ZM88.13,76.48c-.22.05-.12-.07-.41.38.24-.04.14.08.41-.38ZM66.24,79.49c-.04.16-.08.08.1.29.08-.2.13-.14-.1-.29ZM104.21,117.4c-.06-.03-.13-.06-.19-.08,0,.18-.08.12.29.27-.03-.06-.07-.12-.1-.18ZM63.8,85.33c.53-.25.39-.14.39-.5-.49.22-.36.11-.39.5ZM98.86,119.96c.04-.13.09-.26.13-.38-.49.13-.35,0-.52.48.13-.03.26-.07.39-.1ZM74.74,99.41c.06-.05.12-.1.18-.15-.24-.12-.16-.16-.32.09.05.02.09.04.14.05ZM78.53,103.1c.05-.11.11-.24.17-.37-.28-.02-.18-.14-.41.38.08,0,.15,0,.24-.02ZM81.08,105.37c0-.08.01-.15.02-.23-.53.19-.4.1-.42.37.14-.05.27-.09.41-.14ZM84.75,108.85c-.22.03-.12-.08-.4.35.23-.03.13.08.4-.35ZM129.25,102.75c.21.48.12.36.36.41-.02-.24.09-.14-.36-.41ZM81.02,54.37c-.12-.06-.23-.12-.35-.18.03.24-.09.15.39.38-.01-.07-.03-.14-.04-.2ZM66.56,114.49c0-.07.02-.14.03-.21-.49.18-.37.09-.39.34.12-.04.24-.09.37-.13ZM69.39,117.61c.05-.13.1-.25.16-.37-.25,0-.16-.11-.36.37.07,0,.14,0,.21,0ZM44.18,104.36c.03-.06.05-.11.08-.17-.17,0-.11-.08-.24.26.05-.03.11-.06.16-.09ZM40.53,105.12c-.08.09-.16.19-.25.28.14-.02.21.02.31-.18,0-.02-.04-.06-.07-.1ZM78.63,143.41c.03-.08.06-.15.08-.21-.25.04-.17,0-.32.19.08,0,.16.01.24.01ZM111.6,77.87c-.06.03-.12.06-.18.08.04.05.09.1.13.16.15-.2.13-.13.04-.24ZM121.09,45.37l.02.17.15-.12-.16-.05ZM138.46,62.58l-.19.06.09.11.1-.17ZM122.45,47.43v.14s.13-.09.13-.09l-.13-.04ZM136.26,61.24v.14s.14-.1.14-.1l-.14-.04ZM119.23,45.58c0-.07.01-.14.02-.22-.27-.02-.21-.07-.23.2.07,0,.14,0,.22.01ZM138.23,64.78c.07,0,.15.01.22.02.02-.28.07-.22-.21-.24,0,.07,0,.15-.01.22ZM118.25,46.57c-.09-.08-.15-.14-.21-.19,0,.06-.02.12-.03.18.06,0,.12,0,.24,0ZM137.41,65.78c.01-.05.02-.12.03-.18-.24,0-.18-.05-.22.18.06,0,.12,0,.19,0ZM45.04,95.31l-.14.03.06.09.08-.12ZM88.49,138.91v-.13s-.12.08-.12.08l.12.05ZM43.39,101l-.15.05.07.09.08-.14ZM82.8,140.58v-.14s-.14.1-.14.1l.14.04ZM44.22,108.89l.14-.04-.05-.07-.08.12ZM47.63,113.51v.12s.11-.08.11-.08l-.11-.03ZM70.3,136.19v-.13s-.12.09-.12.09l.12.04ZM119.73,85.93l.16-.03-.08-.11-.08.14ZM54.62,122.07l.17-.05-.09-.1-.08.16ZM61.86,129.17v-.15s-.14.09-.14.09l.14.05ZM98.01,64.08l-.04-.15-.1.09.15.06ZM119.26,84.65c-.1-.09-.18-.14-.25-.2,0,.07-.02.14-.02.21.07,0,.14,0,.27-.01ZM99.38,64.58c-.27.01-.21-.05-.24.23.27-.01.21.05.24-.23ZM98.16,116.18l.03.17.13-.11-.17-.06ZM67.62,85.66l-.03-.17-.13.1.16.07ZM46.43,131.22c0-.08.01-.16.02-.23-.29-.02-.23-.08-.25.22.08,0,.16.01.23.02ZM52.63,137.6c.24.01.19.06.2-.18-.08.01-.16.02-.24.03.01.05.03.1.04.15ZM107.72,134.12c.3,1.13.1,2.05-.77,2.95-.48.5-.55,1.4-.78,2.12-.14.45-.19.99-.89.67.1-.26.08-.17.06-.33,0,.11.02.22.02.33-.23.45-.47.89-.7,1.34h-.05c0-.6-.09-1.22,0-1.8.11-.71-.09-1.22-.66-1.62v.1c1.04-.51.47-1.69,1.02-2.41h0c.83-.71.61-.04,1.04-2.36h-.06c.37.78.73,1.57,1.1,2.35,0,.13,0,.26,0,.4-.02-.13-.04-.26-.06-.4.22-.45.45-.9.67-1.35h.07ZM105.71,138.15c-.15.25-.12.17-.1.33.02-.68.01-1.42-.03-2.09.11.45.12.33.13,1.75ZM43.95,78.54c.07-.26.07-.7.21-.75,1.14-.38,2.34-.49,3.31-1.44.42-.41,1.46-.2,2.21-.28v.1c-1.55.76-1.25.62-1.69.79.12-.07.23-.14.35-.2.79.37,1.57.74,2.35,1.11v-.07c-2.32.42-1.65.2-2.36,1.03h0c-.72.53-1.9-.02-2.41,1.01h.1c-.4-.57-.91-.76-1.62-.65-.59.09-1.2,0-1.8-.01.97-.54-1.33.67,1.33-.73.27.09.18.08.34.01-.11.02-.22.05-.34.07ZM45.33,78.2c.11-.03.22-.07.33-.1,1.53.05,1.27.03,1.69.15-.02-.08-.04-.16-.06-.25-.1.07-.2.14-.29.21-1.99-.02-1.44-.14-1.67-.01ZM37.53,82.88c.51-.52,1.01-1.08,1.76-.34h-.1c4.05-1.38,5.72-2.08,7.69-1.96.25.02.52-.29.78-.45v.08c-.58-.12-1.15-.24-1.73-.36h.1c-1.38,0-2.77,0-4.15,0,0,0,.09.01.09.01-1.97,1.03-2.34,1-4.73,2.08-.18.08-.22.46-.33.71.22.08.44.15.66.23h-.05ZM103.96,141.92c0-1.38,0-2.77,0-4.15v.1c-.12-.58-.24-1.15-.36-1.73h.08c-.18.41-.52.84-.5,1.24.13,2.62-1.27,4.82-1.9,7.22v-.1c.72.75.19,1.25-.35,1.76v-.04c.08.22.16.44.24.66.9-.4.29.7,2.78-5.06,0,0,.01.08.01.08ZM49.7,76.17c1.22.39,2.41.28,3.51-.37.14-.08.12-.45.17-.69h.05c-.25,0-.49,0-.74,0h.07c-.74.62-1.56.73-2.44.34h.1c-.24.2-.49.4-.73.61v.1ZM108.35,133.49c-.39-.89-.28-1.7.35-2.44v.07c0-.24,0-.49,0-.73v.03c-.23.05-.6.03-.68.17-.66,1.11-.75,2.29-.35,3.52h.07c.21-.24.43-.48.64-.73v.1ZM50.32,75.46c.24-.21.48-.42.73-.64v-.07c-.53-.22-1.04-.37-1.33.32-.01.03.46.25.7.39h-.1ZM109,132.77c-.22.24-.43.48-.65.72v-.1c.14.25.27.49.41.74.6-.95.47-.62.29-1.36h-.05ZM42.62,79.18v-.03c-.82-.31-.77.16-.64.7.74-.84-1,.83.64-.68ZM104.62,141.19c-.22.24-.44.48-.66.73v-.08c.52.12,1,.17.7-.64h-.05ZM30.15,90.33c-.76-.02-.55-.08-.71.38.51-.16.33-.04.71-.45v.08ZM93.56,153.67c-.16.24-.31.48-.47.72.28,0,.19.16.39-.72h.07ZM30.14,13.4c.61.76,1.42,1.01,2.36.99v.08c-.63-.71-1.33-1.24-2.36-1.01v-.06ZM21.04,34.65c.85.31,1.64.22,2.36-.35v.07c-.85-.34-1.65-.32-2.36.33v-.05ZM41.25,40.77c-.61-.54-.96-1.47-2.01-1.33v-.08c.67.46.96,1.47,2.02,1.33v.08ZM41.26,40.69c.58.56.21.32,1.39,1.01-.98-1.14-.63-.85-1.39-.93v-.08ZM37.87,10.39c-.08-.8.08-.54-.61-1,.18.64-.02.41.69.99h-.08ZM24.74,12.14c-.44-.5-.89-.52-1.33,0v-.08c.45,0,.89,0,1.33,0v.08ZM38.6,12.42c.23.45.46.9.69,1.35h-.07c.3-.71-.34-.95-.68-1.34h.07ZM31.82,35.36c-.7-.5-.46-.39-.92-.27.4.42.15.42.92.2v.07ZM25.09,6.32c.64.64.41.45.98.64-.46-.66-.21-.51-.98-.56v-.08ZM39.24,39.43c-.61-.73-.38-.53-1.01-.67.24.49-.06.35,1.02.6v.08ZM25.08,6.4c-.54-.69-.33-.5-.93-.64.42.67.18.52.94.56v.08ZM32.84,35.64c.17.14.34.27.52.41.03-.09.05-.19.08-.28-.2-.02-.4-.03-.6-.05v-.08ZM31.82,35.36c.34.12.68.24,1.02.36,0,0,0-.08,0-.08-.34-.12-.68-.23-1.02-.35v.07ZM29.13,13.11c-.2-.19.01-.14-.75-.22.25.05.5.1.76.15v.07ZM29.13,13.11c.34.12.68.23,1.02.35,0,0,0-.06,0-.06-.34-.12-.68-.24-1.01-.36v.07ZM33.51,14.75c-.34-.12-.68-.24-1.02-.36,1.14.5-1.27-.34,1.01.41v-.05ZM46.71,22.52c-.37.12-.74.24-1.11.36.37-.12.74-.24,1.11-.36ZM38.21,11.41c.11.34.21.67.32,1.01h.07c-.1-.34-.21-.68-.31-1.02h-.07ZM38.21,11.41c-.11-.34-.23-.68-.34-1.02h.08c-.41.51-.02.76.33,1.01h-.07ZM23.4,12.06c-.13.04-.26.08-.4.12.13-.01.26-.02.39-.04v-.08ZM23.4,34.37c.13-.06.26-.12.39-.17-.13.04-.26.07-.39.11v.07ZM46.61,22.53c.26,0,.52,0,.78,0-.26,0-.52,0-.78,0ZM15.98,11.4c.11.04.23.08.34.11,0-.09-.02-.18-.02-.26-.11.06-.21.11-.32.17v-.02ZM24.74,12.14c.1-.02.19-.04.29-.07-.13.04-.05.05-.29-.01v.08ZM45.69,22.87c-.26,0-.51,0-.77,0,.26,0,.51,0,.77,0ZM172.41,149.67c-2.18-1.83-1.63-1.46-2.19-1.45.08.41-.37.12,2.2,1.37v.08ZM170.35,153.67c.22-1.03-.29-1.73-1.02-2.35h.08c.02.91.21,1.76,1,2.35h-.06ZM149.11,162.77c.67-.71.66-1.51.33-2.36h.07c-.56.72-.66,1.51-.35,2.36h-.05ZM143.13,142.55c-.15,1.06.88,1.34,1.32,2.01h-.08c.14-1.04-.8-1.39-1.32-2h.08ZM143.05,142.56c-.49-1.4-.28-1-.95-1.4.21.63-.1.26,1.03,1.39h-.08ZM144.45,144.56c.4,1.19.23.91.7,1.01-.15-.48.08-.21-.77-1h.08ZM173.42,145.87c.6.7.36.5.99.67-.46-.69-.2-.53-1-.59v-.08ZM177.41,158.73c-.06-.76.09-.51-.56-.98.2.56.01.33.64.97h-.08ZM148.51,151.98c-.22.77-.22.52.21.92.12-.46.23-.22-.28-.91h.07ZM171.39,145.27c-.45-.23-.9-.46-1.35-.68v-.07c.35.44.66.93,1.35.68v.07ZM177.48,158.72c.06.77-.09.52.58.95-.15-.61.05-.39-.65-.94,0,0,.08,0,.08,0ZM148.1,150.97c-.02-.2-.04-.4-.06-.6-.09.03-.18.06-.28.09.14.17.28.34.41.51h-.08ZM148.1,150.97c.12.34.23.68.35,1.02h.07c-.11-.35-.23-.69-.34-1.03h-.08ZM170.76,154.68c-.12.47-.28.29.38.76-.18-.52-.06-.32-.46-.75,0,0,.07,0,.07,0ZM170.35,153.67c.11.34.23.68.34,1.02h.07c-.12-.34-.24-.68-.35-1.02h-.06ZM169.41,151.31c-.12-.34-.24-.68-.35-1.02h-.05c.11.34.22.68.33,1.02h.08ZM161.29,137.1c-.12.37-.24.74-.36,1.11.12-.37.24-.74.36-1.11ZM172.4,145.53c-.34-.11-.68-.22-1.01-.33v.07c.33.11.67.22,1.01.33v-.07ZM172.4,145.53c.26.35.5.74,1.02.34-1.17-.27,1.28.52-1.02-.28v-.07ZM171.68,159.07v.66s.07,0,.07,0c0-.22,0-.44,0-.66h-.08ZM171.75,160.4v-.67s-.07,0-.07,0c0,.22,0,.45-.01.67h.08ZM160.94,138.89c0-.26,0-.51,0-.77,0,.26,0,.51,0,.77ZM161.28,137.2c0-.26,0-.52,0-.78,0,.26,0,.52,0,.78ZM171.67,160.41c.06.12.12.24.18.35-.03-.12-.07-.24-.1-.36,0,0-.08,0-.08,0ZM149.51,160.42c-.04-.13-.08-.27-.11-.4.02.13.03.27.05.4,0,0,.07,0,.07,0ZM171.76,159.07c0-.1-.01-.2-.02-.3.04.16.06.08-.06.3h.08ZM124.54,144.23c-1.07,1.04-.71,2.5-1.1,3.75-.03.1.08.24.12.36.44-.31.23.51.97-4.11,0,0,0,0,0,0ZM129.93,154.34c.42-.88.61-1.78.12-2.7-.09,0-.18,0-.27,0-.11.91-.54,1.83.13,2.7h.02ZM115.44,130.41c-.11.65-.23,1.3-.34,1.96.29,0,.22.33.32-1.96,0,0,.02,0,.02,0ZM116.08,125.01c.16-.4.32-.81.48-1.21-.11-.02-.22-.04-.34-.05-.03.42-.06.85-.09,1.27h-.05ZM129.91,154.34c-.42.65-.4.29-.28,1.37.61-.96.47-.62.3-1.37h-.02ZM136.6,145.58c.02-.19.04-.38.06-.58-.11,0-.21-.01-.32-.02l.33.59h-.08ZM136.68,145.57c-.08.47-.22.32.39.69-.17-.51-.05-.33-.46-.68h.08ZM115.41,129.73c0,.22,0,.45,0,.67,0,0,.02,0,.02,0,0-.22,0-.45,0-.67,0,0-.03,0-.03,0ZM117.44,120.29c.02.12.04.25.06.37,0-.12,0-.25,0-.37h-.07ZM139.01,157.38c.05-.13.09-.25.14-.38-.1,0-.19.01-.29.02.06.12.13.24.19.36h-.04ZM117.11,116.63c0-.26,0-.52,0-.78,0,.26,0,.52,0,.78ZM39.58,59.28c-4.61.74-3.8.54-4.11.98.12.04.26.15.36.12,1.24-.4,2.71-.04,3.75-1.1h0ZM53.4,68.39c-2.02-.15-1.49-.16-1.96.09.56.35.02.41,1.96-.12,0,0,0,.03,0,.03ZM58.79,67.68c1.4.04,1.02.1,1.34-.3-.43-.2-.08-.31-1.34.35v-.05ZM29.47,53.87c-.74-.16-.4-.3-1.36.3,1.07.13.72.15,1.36-.28,0,0,0-.02,0-.02ZM38.24,47.13c.2.11.39.22.59.33,0-.11-.01-.21-.02-.32-.19.02-.38.04-.58.06v-.08ZM38.23,47.2c-.23-.15-.45-.3-.68-.46-.04.25-.18.17.69.38v.08ZM26.43,44.76c.12.06.24.12.36.18,0-.09.01-.19.02-.28-.13.05-.25.09-.38.14v-.04ZM54.08,68.36c-.23,0-.45,0-.67,0,0,0,0,.03,0,.03.22,0,.45,0,.67,0,0,0,0-.04,0-.04ZM63.52,66.3c-.11.06-.21.12-.32.18.11-.04.22-.07.32-.11v-.07ZM67.18,66.7c.26,0,.52,0,.77,0-.26,0-.52,0-.77,0ZM113.66,67.61c-.52-.44-2.09.72-1.21,2.12.11.17.72.02.89.01.56-.51.69-1.83.32-2.14ZM113.94,71.17c.42.68,1.55.55,2.22-.24.14-.17.17-.7.06-.77-1.31-.83-1.51-.25-2.05.09-.08.29-.35.72-.23.92ZM103.32,60.29c-.48,2.37-.21,1.27-1.02,4.38h-.05c2.12-4.13,1.8-2.97,1.01-4.39h.06ZM115.07,78.15c.9-1.08,1.67-2.21,1.65-3.71h.08c-.89,1.09-1.67,2.22-1.68,3.71h-.04ZM113.72,76.81c1.76-2.83,1.28-1.94,1.6-3.35-1,1.25-.61.3-1.54,3.35h-.05ZM107.71,59.71c-.47.26-.7.07-1.31,1.6-.06.16.04.39.07.58.12-.07.23-.13.32-.18,1.23-1.76.94-1.22.93-2ZM120.8,76.45c2.33-2.01,1.07-.35,2.31-2.13-2.34,1.27-1.68.77-2.23,2.13h-.09ZM107.35,62.92c1.31.14,1.55-1.04,2.13-1.77.08-.1-.06-.38-.1-.58-.49.26,0-.34-2.02,2.44v-.09ZM122.14,77.44c.33-.12.94-.26,1.83-.85.1-.07.13-.26.19-.4-.71-.18-.26-.38-1.66.55-.09.17-.22.43-.36.69ZM126.23,72.45c-2.13.89-1.49.56-2.27,1.36,1.26-.34.7.08,2.27-1.43v.07ZM111.43,57.59c-1.79,2.25-1.43,1.69-1.43,2.26.45-.08.16.38,1.36-2.27h.07ZM128.58,80.2c-2.76.58-2.38.43-2.37.71.79-.26,1.58-.51,2.37-.77v.06ZM103.67,55.23c-.26.79-.51,1.58-.77,2.38.29,0,.13.39.71-2.38h.06ZM123.52,82.49c.59.51.03.59,2.28.06.01,0,0-.21,0-.21-2.02.07-1.69.09-2.27.22v-.07ZM101.25,60.29c.06-.38.17-.76.15-1.14-.01-.38.61-.87-.15-1.1-.03,0-.39.66-.37,1,.02.42.28.82.44,1.23h-.07ZM124.86,78.28c-.44-.19-.15-.42-1.99.34-.06.02-.04.24-.08.49,2.27-.64,1.73-.43,2.07-.83ZM105.73,59.05c-.42-.07-.18-.45-1.1,1.87.3.05.41.5,1.1-1.87ZM110.02,66.35c1.91-1.83,1.47-1.35,1.68-1.85-.11,0-.28-.05-.33,0-.52.55-1.59.73-1.27,1.85h-.08ZM117.46,73.71c1.13.33,1.3-.75,1.85-1.27.06-.05,0-.21.01-.32-1.83,1.55-1.3,1.09-1.85,1.68v-.08ZM117.42,71.42c-1.2.86-.85.55-1.29,1.23.3-.15.6-.3.91-.45.13-.28.26-.52.38-.77ZM112.37,66.38c-.94.61-.61.29-1.27,1.22.24-.08.47-.17.66-.24.24-.38.42-.68.61-.98ZM96.09,57.91s-.31.1-.31.11c.36,1.36.25,1.05.81,1.22-.18-.49-.33-.91-.5-1.33ZM124.6,87.31c.66.84.23.6,1.66.8-.43-.37-.41-.58-1.66-.8ZM103.26,60.29c.63-1.25.48-.87.46-1.39-.56.41-.5.01-.4,1.39h-.06ZM123.52,80.49c1.44.08,1.06.14,1.38-.29-.43-.17-.06-.28-1.38.35v-.06ZM100.9,62.65c.12-.56.23-1.12.35-1.68h.07c-.62.45-.65,1.04-.36,1.69h-.06ZM121.16,82.91v-.06c.65.31,1.22.24,1.69-.35-1.26.33,1.7-.29-1.69.42ZM121.49,80.48c1.04-.09.75,0,1-.44-.57.04-.33-.14-.99.51v-.07ZM120.88,76.46c-.32.42-.16.21-.68.87.08.03.22.11.23.09.5-.63.37-.6.36-.97h.09ZM107.36,63c-.37,0-.34-.14-.96.37-.02.01.06.15.1.23.63-.49.43-.33.86-.68v.09ZM126.32,78.45c0,.12,0,.23-.01.35.19-.11.39-.22.58-.33-.62,0,.69.15-.57-.02ZM110.1,66.35c-.25.24-.49.48-.74.72v-.08c.6.17.82-.04.66-.65h.08ZM117.46,73.79c-.62-.18-.79.1-.67.67h-.08c.25-.25.49-.5.74-.75v.08ZM99.53,58.98c.26.04.17.14.37-.34-.07,0-.16-.13-.37.34ZM125.18,83.93c-.47.16-.37.08-.35.33.12-.04.24-.09.35-.13,0-.07,0-.14,0-.21ZM107.37,57.59c-.14.25-.11.16-.05.31,0-.1-.01-.21-.02-.31h.07ZM126.22,76.5c-.25-.12-.17-.1-.31,0,.1-.02.21-.04.31-.06v.07ZM101.59,56.58c.02-.22.04-.45.06-.67h-.07c.02.22.04.45.06.67h-.05ZM127.23,82.17c.22.02.45.04.67.06v-.06c-.22.02-.45.03-.67.05v-.05ZM101.59,56.58c.04.13.08.27.11.4-.02-.13-.04-.27-.07-.4h-.05ZM127.23,82.23c-.11-.05-.23-.09-.34-.14,0,.09,0,.17,0,.26.11-.06.22-.11.34-.17v.05ZM123.52,80.55c-.12-.07-.24-.13-.35-.2,0,.09-.01.18-.02.27.12-.04.25-.09.37-.13v.06ZM101.25,60.29c0,.23,0,.45,0,.68h.07c0-.23,0-.45,0-.68h-.07ZM123.52,82.49h-.68s0,.06,0,.06c.23,0,.45,0,.68,0v-.07ZM127.23,94.29c-.13.06-.25.13-.38.19.13-.04.25-.08.38-.12v-.07ZM89.45,56.58c.03.14.06.27.1.4,0-.13-.02-.27-.03-.4h-.07ZM127.57,93.3c-.13.05-.26.1-.38.14.13-.03.26-.06.38-.09v-.06ZM90.46,56.24c.05.13.09.25.14.38-.03-.13-.06-.25-.08-.38h-.06ZM71.61,63.63l.55.32c0-.11,0-.22.01-.32-.19.02-.38.03-.57.05v-.05ZM120.12,112.21c.02-.19.04-.38.05-.57-.11,0-.22,0-.32.01.11.18.22.37.32.55h-.05ZM56.43,55.92c-2.17-1.04-1.5-.79-2.42-.72.8.56.1.42,2.42.66v.06ZM68.23,59.64c-1.14-.58-.51-.45-2.43-.69,1.83.89,1.2.67,2.43.62v.07ZM58.46,56.54l-1-.31v.06c.33.11.67.21,1,.32v-.07ZM59.47,56.87c-.34-.11-.67-.22-1.01-.34v.07c.33.11.67.23,1.01.34v-.08ZM57.45,56.22c-.34-.12-.68-.24-1.02-.36v.06c.33.12.67.24,1.01.36v-.06ZM60.48,57.2c-.34-.11-.67-.22-1.01-.33v.08c.33.11.67.22,1.01.33v-.08ZM61.48,57.57c-.33-.12-.67-.24-1-.37v.08c.33.12.67.25,1,.37,0,0,0-.08,0-.08ZM68.23,59.57c.23.18.15.14.32.06-.11,0-.22,0-.32,0v-.07ZM61.48,57.65c.09-.02.19-.05.28-.07-.12.03-.05.04-.28-.01v.08ZM127.94,127.38c.42,2.71.26,2.11.68,2.42.18-.43.34.1-.74-2.42h.06ZM124.6,116.59c.14,1.68.06,1.39.34,1.42l-.42-1.42h.08ZM126.91,124.33c-.1-.33-.21-.67-.31-1h-.08c.1.34.21.67.31,1.01h.08ZM127.19,125.36c.11.33.22.67.33,1h.07c-.11-.34-.21-.67-.32-1.01h-.07ZM127.52,126.36c.12.34.24.68.36,1.02h.06c-.12-.34-.23-.68-.35-1.02h-.07ZM124.6,116.59c-.12-.34-.24-.67-.36-1.01h-.07c.12.34.23.68.35,1.01h.08ZM126.6,123.33c-.12-.33-.23-.67-.35-1,0,0-.09,0-.09,0,.12.34.24.67.36,1.01,0,0,.08,0,.08,0ZM126.83,124.34c.12.34.24.68.36,1.02h.07c-.12-.35-.24-.69-.36-1.03h-.08ZM124.17,115.58c.11-.26.1-.17,0-.31.02.1.05.21.07.31h-.07ZM126.25,122.33c0-.1-.01-.19-.02-.29.03.14.06.07-.07.29h.09ZM54.67,27.92c-1.5-1.5-1.07-1.13-1.59-1.33.04.14.03.31.11.41,3.36,4.05,2.81,3.38,3.25,3.59-.18-.53.22.17-1.61-2.78-.06.04-.11.07-.17.11ZM73.68,50.19c-1.38-.91-2.76-1.82-4.14-2.72,1.21,1.17,2.35,2.44,4.14,2.72ZM68.2,44.39c-.96-1.45-.99-1.72-1.88-1.96.19.73-.06.35,1.01,1.43-.01,0,.43.26.87.53ZM59.37,33.65c-.37-.97-.19-.67-.86-1.06.05.25.1.5.15.71.3.15.51.24.71.34ZM156.18,129.18c-2.97-1.95-2.19-1.46-2.93-1.81.1.18.16.4.3.53,3.74,3.21,3.2,2.7,3.65,2.85-.16-.52.17-.13-1.13-1.42.03-.05.07-.1.1-.15ZM150.19,124.33c.3.79-.02.44,1.21,1.31-.23-.47-.14-.69-1.21-1.31ZM100.24,142.88c.1-.26.09-.18,0-.31.03.1.05.21.08.31h-.08ZM100.3,143.56c0-.23.01-.45.02-.68h-.08c0,.23,0,.45,0,.68h.06ZM108.91,126.41c.04.12.07.23.11.35.13-.13.25-.26.38-.4-.16.02-.32.03-.49.05ZM97.16,147.94c.03-.11.07-.22.1-.34-.11.14-.11.04-.02.33h-.08ZM97.16,147.94c.02.22.04.45.06.67h.01c0-.23,0-.45.01-.68h-.08ZM104.98,135.46c.05-.12.09-.24.14-.36-.09,0-.19,0-.28,0,.05.12.1.24.14.36h0ZM103.6,136.15c.14-.26.11-.18,0-.32.02.11.04.21.07.32,0,0-.08,0-.08,0ZM106.02,133.11c-.03-.14-.07-.28-.1-.42.01.14.02.28.03.41h.06ZM50.7,77.8c.47.17.24.23.9-.1-.76-.16-.52-.16-.9.16,0,0,0-.07,0-.07ZM40.93,83.5c.22.17.14.13.31.07-.1,0-.2,0-.31.01v-.08ZM40.93,83.5c-.23,0-.45,0-.68,0v.06c.23,0,.45,0,.68,0v-.08ZM57.4,74.89c.02-.16.03-.32.05-.48-.13.13-.26.25-.4.38.12.03.23.07.35.1ZM35.88,86.58c.29.07.2.08.33-.04-.11.04-.22.08-.33.12v-.08ZM35.2,86.6c.22.02.45.04.67.06v-.08c-.22,0-.45,0-.68,0v.03ZM48.71,78.97c0-.09,0-.19,0-.28-.12.05-.24.09-.36.14.09.03.24.09.36.14ZM47.67,80.13c.23.2.15.16.33.07-.11,0-.22,0-.34,0v-.08ZM151.22,129.74c-.71-.56-1.41-.48-2.12,0,.71,0,1.41,0,2.12,0ZM148.08,130.08c.37-.12.74-.24,1.11-.36-.37.12-.74.24-1.11.36ZM54.07,34.72c.49-.71.56-1.41,0-2.12,0,.71,0,1.41,0,2.12ZM54.08,34.62c-.12.37-.24.74-.36,1.11.12-.37.24-.74.36-1.11ZM77.01,122.34c-.21.03-.41.07-.62.1.03.09.07.18.1.26.17-.15.34-.3.51-.44v.08ZM71.95,119.98c-.46-.09-.3-.25-.7.4.52-.18.34-.06.7-.48v.07ZM63.9,111.87c-.22.16-.09-.04-.47.71.27.01.17.17.4-.71h.07ZM61.55,106.81c-.15.17-.3.34-.45.51.09.03.17.07.26.1.03-.21.07-.42.1-.63h.08ZM91.87,127.71c-.17.15.01-.1-1.34,1.57,0,.01.04.07.06.11,1.54-1.74,1.33-1.42,1.21-1.68h.06ZM56.11,92c-.53-.09-.12-.4-1.68,1.23,1.78-1.22,1.31-.87,1.68-1.29v.06ZM48.97,41.06c1.2,1,2.57,1.49,4.14,1.37-1.38-.46-2.76-.91-4.14-1.37ZM141.38,130.69c-.11,1.57.36,2.94,1.37,4.14-.46-1.38-.91-2.76-1.37-4.14ZM128.56,105.8c-.01-.18-.03-.37-.04-.55-.09.01-.17.03-.26.04.12.17.23.34.35.51h-.05ZM78.01,55.25c.2.04.4.07.61.11-.2-.05-.4-.11-.6-.16v.05ZM93.54,130.07c-.14.24-.28.48-.41.73.43-.05.38.12.33-.73h.09Z"/>
  </g>
</svg>