<?xml version="1.0" encoding="UTF-8"?>
<svg id="Calque_2" data-name="Calque 2" xmlns="http://www.w3.org/2000/svg" viewBox="0 0 186.32 503.42">
  <defs>
    <style>
      .cls-1 {
        opacity: .79;
      }
    </style>
  </defs>
  <g id="Calque_1-2" data-name="Calque 1">
    <g class="cls-1">
      <polygon points="74.8 86.29 74.8 86.29 74.8 86.29 74.8 86.29"/>
      <path d="M115.64,98.29c.89-1.39,2.15-2.58,2.72-4.16-.37-.17-.56.02-.78.07-.77.18-.48.96-.88,1.33-1.4,1.3-2.16,2.96-3.07,4.55-.17.3-.46.61-.24,1.04,1.12-.76,1.52-1.91,2.25-2.83,0,0,0,0,.01,0,0,0,0,0,0-.01h-.01Z"/>
      <polygon points="93.37 82.73 93.37 82.73 93.37 82.73 93.37 82.73"/>
      <path d="M158.25,59.31c-.17-1.77-.41-3.54-.8-5.28-.24-1.1-.43-2.18-.35-3.3.09-1.19,0-2.36-.15-3.6-.64.33-.32,1.07-1.16,1.35.5-2.04.17-3.91-.41-6.05-.43,1.23-.78,2.22-1.14,3.24-.63-.3-.72-.72-.72-1.19,0-.43.34-1.03-.1-1.26-.76-.41-.53-.91-.33-1.43.27-.69,0-1.09-.56-1.55-1.13-.92-1.14-1.04-.11-2.16.45-.5.94-1.37.79-1.56-.7-.92,0-1.13.6-1.56,1.95-1.41,2.06-2.33.61-4.21-.14-.18-.24-.38-.33-.59-.35-.79-.88-.5-1.58-.41-.85.11-1.17,1.94-2.37.67,0,0-.22.1-.24.18-.28,1.03-.9.6-1.52.36-.26-.1-.64-.18-.86-.08-1.62.75-3.3,1.39-3.56,3.47-.31,2.45-1.31,4.74-2.45,6.97-1.36,2.67-2.75,5.33-4.09,8.02-.79,1.58-1.44,3.21-1.74,4.99.16-.14.32-.29.49-.43.16,1.02-.15,1.97-.54,2.92-.55,1.35-1.51,2.69-1.64,4.01-.23,2.15-1.08,4.09-1.55,6.15-.23.99-.69,2-1.5,2.58-1.43,1.03-2.42,2.27-3.1,3.8-.16.35-.37.73-.66.98-1.84,1.56-2.86,3.76-4.78,5.26-.4.31-.65.79-.94,1.21-1.87,2.72-3.28,5.71-5.59,8.16-.16.17-.28.36-.39.56-1.27,2.36-3.02,4.41-4.54,6.6-.86,1.24-1.93,2.44-2.46,3.85-.46,1.22-1.32,2.06-2.25,2.91-.49-.4.27-.9-.22-1.23-.59.04-.43.89-1.15.94-.07-1.02.42-1.89.47-2.84-.22.07-.38.07-.41.14-1.51,2.85-3.6,5.38-5.03,8.28-.39.79-.82,1.67-2,1.68-.54,0-.71.33-.7.78.03,1.21-1.31,2.15-.84,3.46.04.11-.11.32-.22.44-.89.99-1.51,2.14-2.31,3.18-.38.5-.79,1.07-1.51,1.29-.28-.56.07-.94.18-1.36.43-1.68.99-3.34,1.26-5.03.15-.91.45-1.51,1.25-2.02.96-.61,1.99-1.25,1.53-2.64-.07-.21.12-.54.26-.77.32-.55.2-.97-.37-1.26-.83-.42-1-.9-.54-1.76.27-.5.19-1.19.44-1.76.11-.26.12-.62-.21-.73-1.11-.38-.75-1.31-.5-1.82.32-.65-.02-1.18.12-1.76.1-.43-.07-.86-.57-.84-.62.01-.78.5-.59.97.46,1.13-.31,1.86-.99,2.69-.28-1.08-.5-2.16-.47-3.24.03-.89.04-1.97,1.56-1.95.51,0,.64-.5.57-.89-.13-.81-.33-1.61-.54-2.59-.52.77.07,1.54-.6,2.03-.5-.25-.52-.65-.63-1.02-.51-1.69-.14-3.46-.69-5.2-.54-1.7-.51-3.63.59-5.33,0,0,0,0,.01,0,0,0,0-.01,0-.02h0c.24-1.04-.03-2.34,1.29-2.91.83-.36.85-.78.55-1.44-.6-1.29-.22-2.37.93-3.24.25-.19.38-.42.49-.68.2-.52.57-.48.99-.28.28.13.47.56.98.22.33-.76.66-1.58.84-2.46q.35-1.72,1.42-2.35c-.44,1.69-.17,3.31-.76,4.88-.36.97-.13,1.27,1.08,1.92,0-3.68.48-7.27.98-10.87.39,1.38.47,2.75.18,4.14-.2.94-.16,1.88-.07,2.83.02.23.11.46.38.49.37.05.55-.22.58-.5.1-.88.11-1.77.23-2.65.07-.48-.26-1.35.64-1.28.68.05.64.82.6,1.39-.04.5-.12,1-.14,1.5-.08,1.88-.43,3.75-.4,5.64.01.72.27,1.41.04,2.15-.45,1.46-.42,1.46.97,2.01.3.12.49.52,1.09.22-.25-1.57,1.31-3.07.39-4.82-.1-.19.08-.54.19-.79.23-.53.19-1.09.29-1.62.29-1.58-.32-3.08-.24-4.63.09-1.82-.33-3.66.3-5.47.12-.35.02-.78-.04-1.16-.31-2.07-1.05-4.08-.88-6.22.02-.28-.1-.58-.45-.62-.43-.06-.7.21-.72.57-.06.73-.19,1.43-.58,2.07-.28-.42-.59-.82-.83-1.26-1.21-2.21-2.46-4.25-5.04-5.48-1.53-.73-3.03-2.14-2.33-4.34.24-.76-.06-1.52-.71-2.12-1.01-.93-1.63-1.96-.55-3.27q-2.14-.31-2.51-2.31c-.04-.22-.15-.42-.2-.64-.12-.54-.58-1.1.32-1.52.2-.09.38-.93-.03-1.01-1.02-.2-.75-.86-.69-1.41.08-.79.06-1.55-.2-2.31-.11-.34-.33-.74.14-1.08.71.58.38,1.59.98,2.37.56-2.53-.68-4.61-1.02-6.82-.04-.23-.36-.42-.56-.62-1.09-1.15-2.19-2.3-3.28-3.45-.47-.5-.91-1.03-1.53-1.36-.5-.27-1.05-.65-1.53.06-.14.2-.29.4-.52.14-.17-.19-.06-.41.08-.61.81-1.17.8-1.17-.02-2.2-1.09-1.38-2.19-2.74-3.46-3.97-.44-.44-.85-1-1.53-1.06-.8-.06-1.25-.55-1.75-1-.38-.34-.73-.73-1.17-.99-1.71-1.03-3.66-1.71-5.17-3.04-.32-.28-.85-.5-1.28-.5-1.55.01-2.91-.35-4.06-1.33-.11-.1-.35-.17-.49-.12-.93.29-1.23-.36-1.64-.9-.38-.5-.91-1.1-1.58-.78-.82.4-1.13.19-1.48-.48-.18-.35-.7-.35-1.09-.47-.34-.33-.75-.49-1.24-.55-1.88-.2-3.71-.56-5.54-1-1.17-.28-2.23-.59-3.03-1.51-.73-.83-1.78-1.25-2.81-1.67-.77-.32-1.54-.03-2.2.32-.66.34-.18.88-.02,1.32.2.53-.03.92-.52,1.09-2.38.83-4.74,1.77-7.18,2.39-3.01.77-5.76,1.75-7.23,4.61-.18.35-.43.67-.64,1.01-.19.3-.41.57-.83.51-.77-.1-1.04.4-1.28.93-.3.67-.68,1.3-.87,2.01-.29,1.09-.82,1.81-1.76,2.56.66-1.34.34-2.73.81-4.01.46-1.23,1.49-2.25,1.66-3.99-1.68,1.7-2.58,3.46-3.68,5.24-.2-.89.41-1.5.27-2.33-1,.57-1.2,1.64-2.13,2.13-.26-.87.36-1.5.33-2.21h0c-.55.37-.88.9-1.16,1.46-.39.75-.69,1.58-1.22,2.23-.96,1.18-1.31,2.5-1.34,3.92-.04,1.5.01,3-.27,4.5-.04.21.02.44.43.56.17-.49.32-1,.53-1.5.13-.32.38-.63.8-.4.31.16.27.51.09.74-.96,1.21-.87,2.57-.69,3.93-.64.08-.84-.73-1.53-.48-.08.17-.16.38-.27.57-.83,1.46-1.34,1.63-2.76.66-1.16-.79-2.41-.95-3.7-.6-1.28.35-2.57.12-3.78.03-1.08-.08-1.61.02-2.14.85-.31.49-.78.9-.98,1.73-.38-1.14-.87-1.83-1.93-1.75-.58.04-.97,1.16-.63,2.23.45,1.43.15,2.88.35,4.31.09.68-.14,1.35-.56,1.9-.4.52-.72,1.01-.54,1.69.09.33-.07.65-.21.97-.57,1.26-.56,1.78.56,2.46.74.45.86.96.87,1.65,0,.06.15.12.22.16.3-.08.26-.52.68-.5.37.43.18.93.12,1.4-.08.67-.05,1.2-.87,1.75-.65.44,1.28.56,1.06,1.48-.05.21.02.48-.3.51-.32.03-.15-.53-.62-.45-.15,1.21-.38,2.41.05,3.62.13.37.16.91-.38.96-1.33.12-1.29,1.03-1.24,1.84.2,3.39.56,6.76,1.17,10.1.5,2.72,1.09,5.43,1.45,8.18.06.49.21.98.26,1.47.29,2.9,1.36,5.61,2.04,8.41.73,3.04,2.01,5.75,3.99,8.24,1.45,1.82,3.15,3.42,4.67,5.17.48.56,1.21,1.02,1.32,1.73.24,1.58,1.36,2.5,2.53,3.43.45.36.88.73,1.29,1.12,2.14,2.05,4.16,4.21,6.4,6.17,1.24,1.09,2.22,2.53,3.62,3.37,2.58,1.54,4.65,3.53,6.69,5.59,1.04,1.05,2.02,2.17,3.21,3.04,2.02,1.48,3.49,3.42,5.14,5.2,1.1,1.2,1.76,2.77,3.4,3.51.19.09.32.32.43.51.93,1.5,2.85,2.38,3.04,4.35.02.18.26.37.43.51,1.65,1.37,2.84,3.09,4.12,4.74.94,1.21,2.11,2.36,3.69,2.7,1.41.3,2.3.97,3.01,2.05.56.86.61.93-.45,1.24-2.1.62-4.16,1.3-6.08,2.33-.63.34-1.35.4-2.06.47-1.3.13-2.59.25-3.88.44-.88.13-1.64.37-2.05,1.34-.4.95-1.28,1.36-2.47,1.18-1.25-.18-2.49-.61-3.81-.22-.43.13-.98-.02-1.19.51-.23.59-.05,1.08.44,1.5,2.25,1.97,4.79,2.73,7.79,1.57.89-.34,1.81-.55,2.76-.64.9-.08,1.75-.33,2.52-.77.93-.53,1.97-.84,3-1.02,2.21-.39,4.23-.02,5.86,1.54.83.79,1.61,1.65,2.55,2.28,1.24.83,2.11,1.88,2.86,3.1,1.58,2.57,3.82,4.42,6.79,5.55,1.46.56,2.75.39,4.1-.17.45-.19.7-.47.88-.96.57-1.62,1.69-2.9,3.51-3.23,1.77-.32,3.4-.86,4.92-1.76.06-.04.21.05.33.09-.12,1.4-.68,2.7-1.26,3.98-.26.58-.63,1.13-1.4,1.13-1.58,0-2.62.92-3.67,1.84-.39.34-.69.78-1.11,1.08-1.19.86-1.2.84-.6,2.13.21.46.39.93.57,1.4,1.02,2.6,2.16,5.16,3.67,7.55,2.17,3.43,3.79,7.12,5.7,10.67,1.07,1.99,2.42,3.83,4.52,4.96,1.83.99,3.04,2.52,3.86,4.19,1.52,3.09,3.69,5.78,5.52,8.68,3.51,5.57,6.95,11.19,10.3,16.84,3.5,5.9,6.49,12.06,9.38,18.25,3.65,7.81,7.21,15.67,10.75,23.53,1.47,3.27,2.75,6.61,3.87,10,1.24,3.76,2.51,7.51,3.83,11.25,1.02,2.9,1.95,5.82,2.75,8.77,1.16,4.3,2.56,8.53,3.66,12.85.62,2.42,1.35,4.83,1.83,7.27.88,4.54,2.08,9,3.1,13.51,1.11,4.89,2.16,9.78,3.09,14.7.6,3.17,1.23,6.33,1.75,9.52.76,4.72,1.78,9.41,2.32,14.15,1.24,10.84,2.26,21.71,3.36,32.56.46,4.54,1.11,9.08,1.26,13.63.15,4.51.82,8.97.85,13.49.02,3.28.53,6.53.64,9.82.19,6,.61,12,1.04,18,.32,4.39.18,8.79.05,13.18-.14,5.06-.2,10.13-.79,15.18-.2,1.68-.36,3.35-.53,5.03-.84-3.26-2.01-6.32-3.26-9.38-.54-1.34-.97-2.73-1.24-4.16-.55-2.95-1.18-5.89-1.75-8.84-.5-2.61-1.84-5.03-1.81-7.75,0-.44-.13-.94-.53-1.2-.68-.45-.64-1.11-.77-1.77-.28-1.44,0-2.89-.07-4.33-.11-2-.69-3.96-.88-5.94-.51-5.43-1.68-10.78-2.09-16.22-.35-4.72-1.07-9.4-1.84-14.07-.75-4.56-1.45-9.12-1.99-13.71-.3-2.54-.63-5.07-1.08-7.6-1.17-6.57-2.63-13.09-3.86-19.65-.16-.87-.48-1.67-1.45-2.3-.38,1.26.22,2.22.36,3.23.79,5.45,1.9,10.85,2.54,16.32.16,1.37.19,2.75.51,4.12.42,1.78.89,3.56,1.3,5.34.54,2.38.99,4.79,1.22,7.24.12,1.38.39,2.75.59,4.12.36,2.48.89,4.94,1.04,7.43.34,5.56,1.04,11.08,1.54,16.61.53,5.81,1.26,11.61.92,17.55-.38-.45-.49-.94-.56-1.4-.28-1.93-.89-3.79-1.01-5.75-.21-3.56-1.03-7.05-1.53-10.57-.23-1.65-.59-3.28-.82-4.94-.08-.54-.08-1.22-.88-1.34-.29.31-.27.59-.28.87-.03,2.11-.02,4.23-.1,6.34-.05,1.24.17,2.49-.5,3.7-.19.34-.7,1.08-.05,1.51.55.36.44.86.54,1.33.3,1.42.31,2.95.93,4.23,1.04,2.15.36,4.37.69,6.53-.26-.61,0-1.44-.47-1.85-1.38-1.17-1.64-2.5-1.64-4.24,0-1.34-.51-2.7-.08-4.08.13-.41-.06-.66-.48-.72-.49-.07-.62.29-.61.63,0,.72.09,1.44.12,2.17.02.44.09,1.1-.43,1.16-1.56.17-1.05,1.2-1.07,1.99-.01.5.15.99.17,1.49.03.49.15,1.15-.45,1.32-.72.2-.74-.51-.92-.95-.06-.14-.18-.27-.28-.42-.44.15-1.01,1.19-1.26.18-.4-1.65-1.29-3.19-1.23-4.95.05-1.51-.56-2.95-.65-4.45-.02-.34-.22-.67-.68-.58-.43.08-.5.43-.48.78,0,.17.04.33.07.5.13.76-.03,1.48-.35,2.22-.51-2.61-.66-5.27-1.36-7.97-1.02.78-.92,2-1.73,2.95-.45-.76-.36-1.39-.18-2.03h0s0,0,0,0c0,0,0,0,0,0-.62-.95-.19-1.95-.06-2.92.13-1.03,1.13-2.07-.08-3.06-.05-.04-.03-.25.03-.31.56-.51.01-.83-.14-1.27-.34-1-.66-2.25-.04-3.06.75-.98.56-1.81.51-2.8-.09-1.6-.17-3.22.06-4.82.04-.25-.13-.65.25-.71,1.26-.21.77-1.18.51-1.52-.96-1.26-.89-2.7-1.08-4.1-.06-.41-.14-.86-.56-.96-1.24-.3-1.39-1.19-1.48-2.17-.03-.3.01-.7-.78-.87-.09,1.76-.99,3.33-.9,5.13.11,2.26.81,4.56-.54,6.76-.33.54-.03,1.21-.11,1.81-.12.92.36,1.2,1.24,1.09,0-.69.45-.9,1.03-.68.72.29.32.8.1,1.24-.01.81-.88,1.13-1.18,1.81-.44,1-1.5.99-2.13.07-.17-.24-.04-.7-.66-.69-.24,1.14-.31,2.3.14,3.39.58,1.39.65,1.36.54,2.04-.04.27-.12.55.2.8.87.09,1.36-.99,2.41-.88-.03,1.28.08,2.49.26,3.69.46,2.99,1.1,5.97.68,9.04-.04.26,0,.6.17.8.99,1.19.39,3.23,2.33,3.9-.11,1.18,1.36,1.73,1.22,2.99-.08.73.27,1.49.43,2.23.71-.02.75-.75,1.28-.87-.14.6-.27,1.2-.44,1.78-.15.52-.22,1.21.19,1.4.8.37.77,1.02.98,1.62.13.37.24.78.75.82.78.06.87.62,1,1.17.16.7.31,1.42.56,2.1.48,1.31.94,2.65,2.52,3.2.47.16.71.52.94.94.54.98,1.08,1.97,1.76,2.87,1.48,1.95,2.88,3.9,3.9,6.13.79,1.72,1.98,3.27,3.83,4.22.42.21.74.54.94.97,1.07,2.28,2.19,4.54,3.2,6.85,1.41,3.22,2.66,6.51,4.14,9.7.83,1.79.71,3.43-.16,5.12-.24.46-.39.93-.41,1.44-.06,1.84.83,2.43,2.67,1.84.83-.27,1.46-.7,1.95-1.38,1.21-1.66,1.87-3.51,2.04-5.47.22-2.66.24-5.34.54-8,.19-1.72.32-3.44.31-5.17-.01-3.34.07-6.68.09-10.01.02-2.17.04-4.34-.01-6.51-.06-2.39-.32-4.78-.3-7.17.05-5.46-.39-10.9-.74-16.33-.44-6.94-.96-13.87-1.39-20.81-.39-6.33-1-12.65-1.55-18.96-.9-10.48-1.91-20.95-3.38-31.37-.63-4.46-1.23-8.93-1.87-13.39-.64-4.4-1.49-8.77-2.28-13.15-.58-3.23-1.15-6.46-1.85-9.67-1.12-5.11-2.3-10.21-3.55-15.29-1.66-6.76-3.28-13.53-5.16-20.23-2.11-7.57-4.74-15-7.33-22.43-1.67-4.8-3.6-9.52-5.75-14.13-4.79-10.25-9.23-20.64-14.51-30.69-5.06-9.64-10.39-19.13-16.14-28.42-2.04-3.3-4.04-6.62-5.92-10.02-.99-1.81-1.52-3.83-2.91-5.46-.8-.94-1.67-1.88-2.16-3.02-.62-1.44-1.41-2.8-2.27-4.13-1.22-1.88-1.75-4.04-1.99-6.16-.16-1.43-.27-2.84-.76-4.21-.22-.6-.07-1.08.5-1.46,1.45-.98,2.05-2.59,3.16-3.82.44-.48.48-1.12.5-1.75.06-2.13.55-4.17,1.46-6.16,1.19-2.6,2.71-4.74,5.68-5.87,2.4-.91,4.51-2.43,6.92-3.4.87-.35,1.87-.08,2.55-.53,1.58-1.05,3.48-1.28,5.13-2.14.93-.48,1.93-1.25,2.93-1.11,1.51.21,2.76-.32,3.97-.84,2.26-.97,4.47-1.96,6.89-2.65,3.25-.93,6.4-2.28,9.26-4.11.89-.57,2.04-.71,2.81-1.44.83-.79,1.84-1.22,2.9-1.57,2.09-.7,3.9-1.9,5.83-2.89.25-.13.59-.21.6-.55.03-.86.46-.76,1.17-.62.77.15.98-.28.55-.98-.11-.19-.33-.32-.14-.67.91.1,1.44-.45,2.15-1.49-1.73.17-3.07.33-4.41.44-5.91.5-11.72,1.58-17.49,2.84-6.52,1.43-13,3.08-19.34,5.14-1.2.39-2.4.43-3.61.58-.49.06-.65-.25-.5-.63.21-.52.38-1.13.79-1.48.65-.55.95-1.22,1.27-1.94.23-.51.44-1.14,1.17-1.26.73,1.08-.46,2-.19,3.26.74-.89,1.76-1.6,1.28-2.43-.97-1.7.11-2.61,1.11-3.77.22.54,0,.89-.11,1.26-.08.27-.19.58.18.71.25.09.45-.1.6-.28.18-.22.34-.46.48-.71.66-1.2,1.56-2.3,2.55-3.18,1.46-1.29,2.92-2.52,4.26-3.95,1.12-1.2,2.04-2.6,3.34-3.67.26-.21.55-.53.05-.79-.43-.22-.22-.42-.03-.64.41-.48.73-1.05,1.31-1.36.98-.51,1.44-1.47,2.06-2.24,1.06-1.31.69-3.63-.6-4.66-.59-.47-.46-.85-.06-1.23.47-.45,1.44-.39,1.69-.73.31-.42-.07-1.25.45-1.8.2-.21.37-.44.56-.65.93-1.09,1.78-2.22,2.6-3.39,1.2-1.72,2.42-3.45,3.69-5.13.83-1.09,2.03-2.17,1.77-3.8-.05-.34.54-.97.95-.67.69.5.86-.03,1.08-.33,1.76-2.45,3.65-4.82,5.66-7.08,1.62-1.82,2.79-3.95,4.6-5.64.78-.72.97-1.91,1.9-2.58-.3-1.41,1.34-2.38,1.01-3.79-.05-.22.03-.47.29-.55.38-.11.5.18.61.44.04.1.07.21.12.31.18.45.5.77,1.04.76.5-.01.66-.43.85-.77.17-.29.32-.61.4-.93.69-2.81,1.83-5.62.33-8.48.43-1.19-.16-2.3-.27-3.44ZM105.63,59.8c.02.49.09.97.18,1.86-.84-1.08-1.02-1.99-1.29-2.87.63.08,1.07.33,1.11,1.01ZM105.5,79.08c-.28-.53.09-.93.15-1.57q.35.86-.15,1.57ZM103.66,63.12c.6.92.33,1.55.04,2.18-.42-.63-.4-1.26-.04-2.18ZM91.32,29.57c.06.07.14.14.16.23.01.06-.07.14-.11.21-.06-.08-.13-.14-.17-.23-.05-.12,0-.19.12-.21ZM133.76,428.4c-.2.21-.47.38-.78.25-.27-.11-.23-.35-.16-.57.02-.05.03-.11.05-.16.23-.49-.63-.94-.1-1.38.31-.26.88,0,1.28-.47.07.88.37,1.65-.29,2.33ZM135.16,411.4c.5.83.19,1.64-.03,2.83-.75-1.19-.05-2.01.03-2.83ZM135.31,415.1c.17.68.36,1.35.51,2.03.05.22-.04.45-.31.51-.25.06-.46-.08-.57-.27-.45-.77-.41-1.52.37-2.27ZM140.63,449.09c0,.64.28,1.3-.07,1.93-.28-.59-.57-1.18-.82-1.78-.09-.23-.19-.6.19-.69.4-.09.7.17.7.54ZM140.58,445.36c-.09-.02-.19-.1-.22-.18-.02-.06.04-.22.09-.23.18-.03.29.07.33.24-.07.06-.15.18-.19.17ZM142.62,452.12c-.22-.59-.38-1.19,0-1.81.3.59.09,1.2,0,1.81ZM144.52,454.63c-.54-.18-.69-.56-.87-.88-.16-.29-.02-.54.3-.66.32-.12.59-.01.67.31.09.37.17.76-.1,1.23ZM144.11,452.02c-.25-.05-.39-.25-.39-.48,0-.27.18-.4.45-.36.25.04.39.21.38.48-.04.22-.17.41-.45.36ZM145.75,452.97c-.23.1-.25-.12-.25-.27,0-.16.04-.33.24-.36.05,0,.12.13.21.23-.06.13-.09.35-.2.4ZM147.6,449.69c-.53-.77-.53-1.47-.55-2.16,0-.23.11-.45.39-.43.14.01.35.16.37.27.11.72.31,1.46-.22,2.32ZM149.49,454.06c-.21.06-.31-.06-.36-.22-.07-.21-.09-.44.13-.57.18-.11.31.05.35.21.05.2.09.41-.12.58ZM91.55,94.75c-.6-.93-.41-2.08-1.25-2.86.04,2.19-.27,4.38.39,6.66-1.11-.56-1.26-1.5-1.22-2.41.13-2.91-.64-5.7-1.07-8.53-.2-1.32-.3-1.31.96-2.1.84,1.37,1.62,2.76,1.67,4.41.01.38.09.78.23,1.13.44,1.17.5,2.37.29,3.71ZM84.21,20.53c.07,0,.14.11.21.18,0,.18-.08.3-.27.3-.07,0-.19-.1-.2-.17-.03-.17.07-.3.26-.3ZM84.58,25.55c.52-.22.8.18,1.08.59.83,1.22,1.38,2.55,1.95,3.88.2.47.23,1.35,1,1.07.7-.26.25-.94.05-1.45-.43-1.09-.84-2.18-1.25-3.28-.07-.2-.1-.43.21-.7.78.36,1.52,1.03,1.6,1.76.17,1.39,1.12,2.56,1.05,3.98-.04.7.38,1.27.5,1.92.12.63.31,1.28.05,1.97-.72-.37-.38-1.79-1.38-1.39-.62.25.1,1.19.14,1.82.03.38.21.75.09,1.15-1.27-.02-1.65-.38-1.67-1.6,0-.27-.14-.46-.4-.39-.87.24-.81-.28-.84-.81-.03-.61-.13-1.21-.21-1.82-.04-.27-.05-.7-.38-.65-1.23.19-.95-.68-1.03-1.25-.12-.87-.54-1.7-.21-2.62.15-.42-.28-.69-.47-1.03-.22-.4-.48-.89.11-1.14ZM90.53,81.19c.06.01.14.23.1.29-.78,1.21-.12,2.76-1.13,3.91-.03.04-.09.06-.14.09-.09-.52-.39-.91-.91-1.1-.91-.34-.98-.96-.7-1.75.39-1.13.5-2.36,1.41-3.49.48.78.34,1.8,1.38,2.06ZM82.71,19.38c.09.05.21.08.28.15.1.11.06.23-.09.23-.09,0-.21-.07-.27-.14-.1-.11-.05-.2.09-.24ZM83.08,22.7c.07,0,.11.15.17.23-.01.16-.08.31-.27.29-.06,0-.15-.14-.16-.23-.02-.16.06-.31.26-.28ZM81.38,28.14c0-.26.18-.44.46-.35.31.1.4.36.39.64-.07.25-.18.48-.47.39-.31-.1-.39-.39-.38-.68ZM79.97,24.68c.14-.08.32-.16.48-.16.15,0,.17.12.02.28-.11.03-.28.1-.44.1-.16,0-.2-.13-.05-.22ZM77.19,41.73c0-.17.09-.32.32-.34.4.12.49.42.46.77-.01.17-.12.38-.3.34-.42-.08-.47-.44-.48-.78ZM62.64,21.72c1.35,1.57,3.27,2.59,3.11,4.88-.38-.95-.69-1.68-2.09-1.78-1.34-.09-1.64-1.13-1.03-3.1ZM59.4,5.39c.12-.17.26-.34.39-.51,0,.21.01.42-.01.62-.03.22-.12.46-.42.31-.18-.09-.05-.29.04-.42ZM60.94,22.13c.25.03.41.18.46.42,0,.19-.12.31-.31.32-.3.02-.62-.03-.62-.39,0-.25.22-.38.48-.35ZM57.77,5.07c.09,0,.18.1.25.15-.06.07-.13.21-.18.21-.09,0-.17-.1-.26-.16.06-.07.13-.2.19-.2ZM47.52,51.16c-.03.8-.57.94-1.15,1.06.25-.4.41-.88,1.15-1.06ZM45.51,52.14c.03-.18.26-.15.41-.09.15.05.29.12.43.18-.14.08-.27.18-.42.21-.24.05-.47-.03-.43-.3ZM45.78,53.37s.07.07.11.11c.02.13-.04.2-.18.19-.04,0-.09-.07-.1-.11-.04-.13.03-.2.17-.19ZM42.55,53.97c.58.12,1.36-.21,1.76.31.64.82,1.61,1.48,1.7,2.62.02.28-.05.57.13.8.64.83.72,1.49-.55,1.84-.22.06-.37.32-.25.55.18.32.48.29.71.04.63-.68,1.03-.21,1.42.22.19.21.38.44.46.7.44,1.48.86,2.97,1.27,4.46.19.69-.41.94-.95,1.24.31.41.57.77.84,1.13.73.97,1.3,1.98.9,3.24-.13.42,0,.8.38,1.02.5.31.61-.41,1.05-.45.95,1.22,1.22,2.75,2.02,4.03.26.41.35.92.67,1.33.55.7.34,1.23-.44,1.63-.76-.51-1-1.34-1.43-2.06-.27-.45-.73-.63-1.2-.38-.53.28-.04.67-.02,1.02-.63-.23-.95-.92-1.84-1.15.09,1.19.82,1.95,1.26,2.81.63,1.23,1.28,2.49,2.98,2.69.05,0,.07.19.1.27-.07.45-.84.17-.82.83,1.11.73,2.46,1.31,3.07,2.67.11-.06.21-.12.32-.17-.45-1.09-.91-2.18-1.36-3.27-.35-1.08-.71-2.17-1.06-3.25,0,0,0,0,0,0,1.79.13,2.25,1.62,3.12,2.69h0c-.62-.24-1.03.09-1.41.49.51.3.98.12,1.44-.13,0-.05,0-.1-.01-.14,0,.05,0,.1.01.14.39.47.9.88.98,1.53.07.59.37,1.02.87,1.37.4.28.61.66.39,1.3-.93-.77-1.75-1.54-2.36-2.79-.62,1.33-.01,2.21.55,2.92.78.98,1.38,2.09,2.58,2.82.87.53,1.34,1.62,2.1,2.37.41.41.87.33.82-.4.35.09.66.24.86.53,1.45,2.08,2.79,4.22,3.91,6.48.1.19.12.42.2.73-1.37.13-2.29-.62-3.13-1.3-.77-.63.37-.97.61-1.6-1.27-.12-2.28-1.12-3.71-.63-.5.17-.76-.23-.73-.68.02-.38.14-.76.26-1.37-1.52,1.01-2.54.34-3.36-.67-1.92-2.35-3.84-4.69-5.48-7.25-1.83-2.85-3.22-5.88-4.7-8.89-.51-1.03-.57-2.13-.82-3.2-.75.13-.87-.43-1.02-.88-1.18-3.48-2.27-7-2.86-10.62-.4-2.44-.72-4.93-.24-7.55ZM51.84,78.09c-.19.14-.44-.03-.56-.23-.1-.18-.16-.38-.24-.58.21.06.44.09.62.19.24.14.52.36.17.62ZM61.22,87.55c0,.26-.09.52-.15.78-.17-.22-.36-.42-.49-.65-.15-.26-.5-.51-.18-.86.05-.06.23-.09.31-.05.36.14.5.45.5.78ZM62.76,90.85c-.74-.72-1.17-1.63-1.67-2.49,1.29.39,1.82,1.23,1.67,2.49ZM63.2,128.76c-.25.07-.44-.09-.6-.26-.19-.21-.35-.45-.58-.61-.38-.28-.88-.65-.7-1.04.2-.44.75-.76,1.19-1.08.21-.15.57.02.54.22-.1.76.34,1.38.45,2.08.03.28.06.58-.31.69ZM64.1,135.36c-.02.25-.1.48-.38.43-.39-.07-.46-.42-.51-.74-.03-.22.02-.51.28-.5.52.02.5.48.61.81ZM55.26,126.02c.79.29,1.52.63,2.05,1.23.63.72,1.18,1.49,1.76,2.25.31.41.54.85.21,1.37-.3.48-.89.57-1.1.09-.72-1.6-2.02-2.77-3.17-4.06-.15-.17-.3-.37-.16-.6.07-.12.26-.18.42-.28ZM54.09,117.82c.67.22.94.58,1.06,1.22-.73-.18-.96-.57-1.06-1.22ZM56.7,118.52c-.01-.22.07-.46.35-.5.26-.03.43.15.5.37.25.71.05,1.38-.24,2.34-.61-.9-.57-1.57-.61-2.21ZM57.9,115.85c-.17.04-.32.13-.38.09-.5-.32-1.39.04-1.58-.35-.64-1.29-2.3-2.05-2.19-3.71.04-.58-.17-.92-.73-1.17-.52-.22-.7-.65-.67-1.23.05-.95,0-.95-.93-.48-.09.05-.22.04-.34.06-.86-1.17-1.12-2.65-2.2-3.71-.28-.28-.43-.71-.35-1.09.25-1.21-.48-1.85-1.42-2.41,1.48-.85-.21-1.63-.1-2.64,1.05.89,1.62,1.9,2.24,2.92.97-1.07,1.21-2.24,1-3.57.95.66,1.6,1.36,1.02,2.41-.62,1.12-.15,2.01.72,2.62.94.66,1.51,1.67,2.6,2.2.28.14,1.06.62.63,1.33-.21.35.11.35.32.39.88.16,1.33.9,1.94,1.38.59.46.98,1.24,1.05,2.03.08.9-.69,1.82-.48,2.57.25.9.05,1.59-.14,2.36ZM53.68,116.9c-.64-.11-.81-.49-.95-1.18.69.27.97.56.95,1.18ZM48.93,90s.05-.11.09-.12c.13-.04.21.02.2.15,0,.04-.05.11-.08.12-.13.04-.2-.03-.2-.16ZM51.16,89.2c-.21-.08-.27-.36-.08-.57.18-.18.43-.16.66-.1.49.14.66.6.92.94.4.52.88,1.01,1.07,1.87-.77-.36-1.37-.46-1.42.55-.02.36-.38.67-.96.69-.32-.62,0-1.08.19-1.52.3-.73.78-1.41-.37-1.86ZM54.27,94.95c.05.21.24.37.33.58.21.48.74.97.1,1.47-.26.2-2.01-.67-2.01-1.02,0-.8-.18-1.51-.75-2.12-.07-.07.01-.32.1-.44.11-.15.36-.17.46-.02.41.62.56.47.81-.13.19-.45.62-.44.98-.07.32.33.54.7.61,1.16-.33.09-.73.15-.62.61ZM55.01,103.66c-.19.03-.32-.1-.37-.26-.05-.16-.03-.31.22-.37.16,0,.28.1.34.26.05.17,0,.33-.19.37ZM53.63,102.07c.02.25-.24.34-.46.42-.3-.02-.36-.23-.37-.45,0-.19.13-.3.32-.31.25,0,.48.1.5.34ZM57.36,97.47c.37.34.83.63.87,1.17,0,.13-.11.32-.23.4-.16.1-.33,0-.43-.15-.32-.44-.24-.94-.2-1.43ZM57.81,102.7c.02.08-.05.18-.08.27-.08-.06-.16-.11-.25-.17.03-.09.07-.18.1-.27.08.06.21.1.23.17ZM57.36,97.45c-.47-.19-.94-.38-1.54-.61.38-.34.68-.79,1.26-.54.52.23.41.71.28,1.15ZM54.91,94.36c.35.13.71.25,1.41.5-.95.2-1.21-.1-1.41-.5ZM60.08,131.05c1.66,1.46,1.7,2.16.24,3.98-.37-1.34-.55-2.56-.24-3.98ZM59.4,116.15s.09-.09.14-.09c.63.01.7.45.79,1.05-.21-.08-.29-.09-.31-.12-.2-.29-.84-.29-.62-.84ZM61.32,119.06c.07.37.08.76.11,1.13-.46-.62-.5-1.31-.42-2.07.59.22.25.63.3.93ZM61.78,120.25c.27.01.63-.16.67.28.01.15-.05.37-.16.44-.36.22-.51-.08-.65-.31-.09-.14-.13-.3-.2-.45.11.01.22.03.34.04ZM59.95,114.97c-.1-.97-.19-1.73-.24-2.49-.01-.22.15-.44.42-.43.15,0,.32.13.42.24.65.84.49,1.75-.6,2.68ZM62.13,123.46c.59.36,1.08.63,1.53.95.1.07.16.31.12.43-.05.18-.28.18-.45.15-.79-.17-1.13-.67-1.2-1.53ZM60.92,107.15c-.92-.82-1.88-2.38-2.16-3.41-.12-.42-.35-.82-.5-1.24-.15-.42-.31-.87-.04-1.29.23-.35.36-.98.96-.77.48.17.84.62.67,1.21-.08.27-.23.51-.33.78-.18.49-.33.86.4,1.2.79.37.95,1.57,2.23,1.49.34-.02.35.73.3,1.47-1.31-1.29-1.19.08-1.52.56ZM60.65,102.64c-.02-.06.07-.16.11-.25.1.03.24.03.28.09.11.15.04.3-.16.32-.07,0-.2-.09-.23-.17ZM42.81,68.9c.78,2.35,1.77,4.49,2.54,6.7,1.03,2.96,2.47,5.72,3.93,8.49.2.38.55.55.77.87.5.72.78,1.48.57,2.36-.12.5-.45.89-.96.81-.71-.11-.47-.61-.27-1.04.04-.09.02-.21.03-.33-.41-.3-.73.35-1.14.1-.45-.27-.28-.67-.29-1.05-.04-1.03-1.18-1.29-1.66-2.02h.01s0,0,0-.01c0,0,0,0,0,.01-.36-.43-.76-.8-1.3-1.07-.62-.3-.86-.95-.36-1.39.74-.66.35-1.22.09-1.79-.34-.77-.85-1.42-1.55-1.98-.81-.64-.77-1.32,0-2.17.2-.22.1-.33.1-.53.05-1.35-.28-2.64-.75-3.88-.27-.7-.21-1.29.24-2.08ZM45.62,114.2c.85,1.06,1.96,1.99,2.26,3.52-1.34-.76-1.81-2.08-2.88-2.88-.2-.15-.21-.4-.01-.59.19-.19.49-.23.63-.06ZM44.17,98c.34.62.29,1.04-.31,1.29-.07.03-.26-.05-.28-.12-.16-.48.13-.8.59-1.17ZM45.03,99.83c-.03-.13.26-.15.43-.14-.06-.35-.34-.7.06-1.15.47.37.43.93.6,1.39.14.72.16,1.5.96,1.92-.08.21-.23.48-.47.35-.94-.53-1.33-1.43-1.58-2.37ZM41.56,67.5c.06-.06.13-.12.19-.18.07.07.17.14.19.22.02.08-.05.24-.09.25-.19.02-.27-.12-.29-.28ZM42.11,72.58c-.02.13-.1.19-.22.15-.04-.01-.08-.08-.08-.12,0-.13.1-.19.22-.15.04.01.06.08.09.12ZM41.36,64.74c.09,0,.18.1.26.15-.07.24-.26.37-.5.39-.07,0-.23-.11-.23-.17.01-.26.2-.39.46-.38ZM42.69,73.42c-.19.5-.34.89-.49,1.28-.23.07-.33-.07-.39-.22-.32-.72-.02-1.01.89-1.06ZM43.29,88.61c.1,0,.2.2.28.29-.03.14-.05.3-.08.31-.2.03-.25-.14-.31-.28-.05-.13-.12-.33.12-.33ZM43.52,96.15c-.33-.82.49-1.51.07-2.36,1.33.7,1.29,1.14-.07,2.36ZM40.28,67.84c.15.07.22.08.25.12.22.23.55.4.48.78-.01.06-.19.16-.25.14-.37-.12-.46-.43-.51-.76,0-.05.01-.1.03-.28ZM41.4,87.85c.07.12.17.25.23.39.06.13-.05.26-.15.2-.13-.08-.22-.24-.28-.38-.06-.13.02-.21.21-.21ZM40.6,91.85s.1-.01.14-.02c.12.08.14.17.04.26-.03.03-.11.03-.15.01-.12-.07-.14-.17-.03-.26ZM38.11,89.51q-.85-.47-1-1.92c.45.58.99,1.11,1,1.92ZM35.46,84.58c.07.02.14.13.18.21.05.12,0,.2-.13.21-.06-.07-.14-.14-.17-.22-.06-.12,0-.23.13-.2ZM37.16,100.55c.76.45,1.14,1.01,1.25,1.91-.66-.1-1.05-.51-1.57-.63-.23-.05.04-.78.31-1.28ZM33.81,81.64c.37-.11.29.33.26.58-.01.09-.12.16-.19.25-.26-.28-.37-.74-.07-.83ZM23.03,26.48c.02-.09.09-.17.13-.26.12,0,.19.07.17.19-.02.09-.07.22-.14.24-.11.05-.19-.05-.16-.18ZM23.24,27.59c.18-.03.35.03.43.23,0,.41-.19.73-.64.86-.19.05-.35-.07-.39-.25-.08-.45.09-.76.6-.84ZM21.58,21.03c.03-.11.2-.09.37.08-.14.93-.28,1.93-.42,2.92-.57-1.04-.25-2.02.05-3ZM22.14,26.58c-.42.09-.19-.37-.21-.59,0-.08.11-.17.17-.27.23.29.3.8.03.86ZM20.6,20.71s.09-.08.14-.08c.13.02.18.11.12.23-.02.04-.09.05-.14.08-.13-.03-.18-.11-.12-.23ZM20.1,25.76c.2.14.32.19.37.27.25.36.56.74.2,1.18-.11.14-.34.11-.45-.02-.4-.44-.47-.9-.12-1.44ZM10.79,53.49c.33.28.62.58.57,1.1-.78-.15-.41-.74-.57-1.1ZM10.06,48.26c.43-.24-.06-.76.38-1,.21.3.11.63.1.94-.01.33-.05.71-.53.69-.4-.02-.59-.33-.61-.68-.02-.32.06-.64.11-1.14.43.46.14.95.55,1.19ZM7.82,37.45c0-.21,0-.46.23-.57.2-.1.26.1.31.26,0,.25.07.56-.29.64-.18.04-.24-.18-.25-.34ZM6.52,37.3c.02-.07.17-.16.25-.15.25.02.4.15.41.41-.05.18-.18.27-.36.22-.24-.06-.37-.24-.3-.48ZM8.7,47.84c.04.32.11.7-.31.85-.37.13-.66-.08-.92-.32-.39-.36-.65-.9-.89-1.89,1.44-.09,1.98.25,2.12,1.36ZM7.37,50.52c1.24-.75,1.59-.6,1.93.85.64.18.86-.46,1.43-.64.4.91,0,1.84.04,2.74-.67.35-.65,1.02-.83,1.59-.12.4-.46.91.11,1.19.41.2.77-.17,1.11-.38.73-.45,1-1.06.82-1.87-.12-.52-.36-1.05-.19-1.67.23.22,0,0,.23.01.05,0,.13.02.16.06.44.56.45,1.27.54,1.9.59,3.97,1.11,7.95,1.5,11.96-.87-3.11-.83-6.4-1.91-9.77-.68.86-.53,1.57-.47,2.24.16,1.67.72,3.25,1.16,4.86.12.43.31.87.28,1.3-.13,2.66,1.02,5.11,1.23,7.71.04.43.22.86.86,1.26.15-2.15-.87-4.02-.89-6.1,1.11,1.08,1.59,2.23,1.46,3.69-.13,1.51.54,2.93.79,4.41.08.49.31.95.28,1.47-.02.38-.16.76.6.57.34-.09.23.53.14.81-.21.64-.11,1.21.25,1.76.13.19.32.34.58.31.27-.03.38-.24.44-.46.24-.84.07-1.66-.18-2.47-.58-1.8-.15-3.6-.14-5.44,1.66.15,2.2,1.18,2.26,2.31.14,2.34.91,4.48,2.04,6.49.99,1.76,2.05,3.49,2.98,5.37.67-.58.25-1.34.84-1.84.62.43.63,1.04.73,1.64.12.72.21,1.52,1.39,1.21.38-.1.49.2.59.47.78,2.13,2.01,4.07,2.86,6.19.62,1.56,1.91,2.89,2.94,4.3.49.67,1.02,1.31.71,2.37-1.73-2.28-3.64-4.19-5.42-6.2-.08-.09-.33-.06-.72-.11.68,1.29,1.29,2.44,2.05,3.87-1.07-.53-1.36-1.5-2.49-1.67.81,1.51,1.64,2.85,2.85,3.96.34.31.7.61.94.98.29.42.53,1,.09,1.39-.47.42-.84-.17-1.2-.38-1.01-.59-1.94-1.32-2.32-2.4-.32-.91-1.45-1.06-1.78-1.98-.22-.61-.78-1.04-.14-1.77.4-.45.24-1.08-.24-1.52-.58-.53-1-1.19-1.75-1.61-.82-.47-1.5-1.12-2.03-1.95-.6-.94-1.35-1.8-2.35-2.44-.74-.47-1.37-1.05-1.6-1.92-.07-.26-.09-.24-.83-.41-.15-.04-.3-.16-.41-.29-.44-.52-.85-1.06-1.3-1.57-.43-.48-.75-1.03-.84-1.63-.12-.77-1.08-.44-1.36-1.07-.34-.76-.91-1.43-.63-2.34.08-.26.14-.55-.15-.78-.58.04-.39.81-.95.87-.27-1.09-1.93-1.39-1.74-2.75-.74-.59-1.12-1.35-1.33-2.25-.63-2.71-1.33-5.4-1.99-8.1-.09-.37-.16-.77-.14-1.15.08-1.35-.3-2.63-.56-3.94-.4-2.07-1.18-4.09-1.03-6.26.03-.4-.16-.72-.37-1.07-.79-1.29-.27-3.11,1.06-3.92ZM26.12,95.94c-.06.06-.23.08-.32.05-.46-.16-.79-1.14-.53-1.53.05-.08.18-.1.29-.16.48.13.43.59.6.9.13.24.21.52-.04.74ZM26.4,97.88c-.53-.14-.78-.4-.84-.96.49.17.74.42.84.96ZM23.91,95.38c-1.24-.56-1.86-1.56-2.45-2.72,2.08-.01,2.11,1.48,2.45,2.72ZM15.11,87.04c-1.23-1.07-2.69-2.15-3.16-3.86-.07-.26-.24-.51-.43-.71-2-2.16-2.75-4.79-3.2-7.54.54,1.51,1.96,2.54,2.4,4.15.25.91.91,1.82,1.8,2.38,1.08.69,1.68,1.67,2.19,2.73.22.47.45.91.88,1.21,1.82,1.3,2.81,3.36,4.76,4.55.42.26.66.76.78,1.26-1.32.6-1.2.48-2.18-.36-1.37-1.19-2.44-2.61-3.82-3.81ZM18.98,92.29c-1.21-.22-1.49-1.25-2.06-1.99.92.48,1.63,1.13,2.06,1.99ZM15.05,88.12c.04.12-.11.18-.24.09-.13-.09-.23-.22-.32-.31.04-.18.14-.23.26-.14.12.1.25.22.3.36ZM12.08,86.33c.05.35-.23.28-.45.29.03-.19-.08-.45.23-.51.06-.01.2.14.21.22ZM7.94,73.67c.54.31.2.8.34,1.17-.28-.33-.45-.69-.34-1.17ZM4,51.48c.21.3.23.61.06,1.15-.16-.5-.31-.79-.06-1.15ZM2.98,53.96c.46.41.33.84.13,1.28l-.13-1.28ZM33.24,111.48c-4.57-2.48-7.92-6.25-11.55-9.72-2.79-2.68-5.5-5.44-8.26-8.15-4.02-3.94-6.36-8.66-7.53-14.02-.97-4.45-1.61-8.96-2.48-13.43-.35-1.8-.54-3.63-.9-5.42-.29-1.45-.98-2.81-1.07-4.33-.05-.98-.06-1.94.3-3.17.55.82.94,1.41,1.34,1.99,0,0,0,0,0,0-.47,1.5-.24,2.85.9,3.96-.29.56-.68-.15-.95.2-.2.24-.13.55,0,.76.87,1.47.39,3.17.81,4.68.69,2.47.23,5.11,1.31,7.48.31.69-.34,1.31,0,1.95.16.31.07,1,.84.31.47-.42.91.3.81.66-.54,1.95,1.15,3.4,1.18,5.23.01.69.56,1.32,1.09,1.86.44.44,1.22.79.4,1.56-.06.06.12.4.24.58.51.8.99,1.63,1.88,2.14,1.37,2.5,3.56,4.38,5.49,6.44.84.9,1.7,1.83,2.74,2.56.58.4.92,1.02,1.02,1.7.23,1.53,1.14,2.72,2.39,3.56,1.64,1.11,3,2.51,4.3,3.89,1.82,1.93,4.21,3.36,5.63,5.64.26.42.91.54.96,1.13-.35.4-.63.1-.92-.06ZM38.42,115.45c-.42.37-.84.31-1.28.04-.71-.44-1.2-1.04-1.51-1.78-.17-.42-.39-.94.08-1.22.64-.37.7.38.96.66.5.53.91,1.14,1.37,1.71.37-.15.81-.42.95.19.09.39-.27.41-.58.39ZM38.41,111.72c-1.45-1.44-2.92-2.86-4.57-4.11-.52-.39-.8-1.15-1.23-1.54-.89-.82-2.05-1.37-2.62-2.5-1.31.03-1.87-.67-2.07-1.79-.08-.46-.58-.46-.94-.63-1.71-.81-3.14-1.89-3.65-3.75-.22-.79-.84-1.32-1.46-1.82-.77-.62-1.43-1.29-1.85-2.16.31-.29.47-.04.6.1,2.3,2.52,4.86,4.78,7.56,6.91,1.52,1.21,2.98,2.49,4.46,3.75.35.3.66.63,1.17.69.06-.19.12-.38.18-.57.08.04.22.08.22.13.02.25-.2.33-.38.44.49,1.11,1.48,1.83,2.36,2.64,1.31,1.2,2.45,2.5,3.02,4.13-.29.38-.6.28-.8.08ZM39.61,116.95c-.15-.18-.18-.42,0-.61.26-.25.55-.17.78.03.8.71.86,1.75,1.29,2.63-.98-.49-1.47-1.32-2.08-2.05ZM38.74,91.57c0-.22.06-.44.36-.43.24,0,.4.16.48.38,0,.26-.19.37-.42.41-.29.05-.41-.11-.41-.36ZM39.9,93.13c.36-.19.67.09.92.31.75.65,1.27,1.51,1.49,2.37.19.73.45,1.38,1.15,2.12-1-.1-1.6-.41-1.85-.93-.5-1.05-1.14-2.02-1.75-3-.16-.25-.38-.65.04-.87ZM51.23,127.95c-.29.18-.61.06-.78-.18-.88-1.22-2.17-2.08-3.17-3.2-.23-.26-.42-.43-.47-.81-.14-1.13-.18-1.13-1.77-.87.82-2.05-1.74-2.35-1.91-3.83.53-.19.78.19,1.04.44,2.52,2.4,4.92,4.89,7.07,7.6.21.27.41.6,0,.86ZM52.01,129.63c-.3-.14-.31-.64-.02-.89.4-.33.59.09.83.3.9.81,1.2,1.85,1.24,2.98-.83-.68-.98-1.87-2.05-2.39ZM58.22,137.11c-1.5-1.49-2.95-3.03-4.14-4.75-.05-.07,0-.21,0-.31,2.14,1.3,4.02,2.8,4.81,5.21-.22-.04-.53-.02-.66-.15ZM58.88,137.26c.25-.36.44-.87,1.04-.38.57.47,1.08.98,1.38,2.11-.87-.89-2.04-.73-2.42-1.73ZM62.4,136.93c-.41.39-.6-.05-.76-.29-.19-.27-.28-.6-.03-.92.4-.12.67.14.91.34.35.3.12.65-.11.87ZM63.19,142.74c-.25-.3-.07-.52.21-.68.32-.18.7-.24,1.02-.1.6.26,1.21.39,1.88.33.24-.02.46.07.5.35-.01.25-.18.4-.38.54-.75.53-2.67.28-3.25-.44ZM82.94,152.46c-.02.55-.58.81-1.04,1.07-.83.47-1.74.69-2.7.77-1.05.08-2.01-.3-2.4-1.11-.8-1.67-2.16-2.8-3.44-4.09-1.2-1.21-2.53-2.12-4.04-2.86-.78-.38-1.61-.68-2.4-1.04-.3-.14-.68-.24-.75-.74.53-.38,1.16-.71,1.86-.78,1.66-.17,3.26-.5,4.71-1.35.27-.16.56-.25.82-.04.31.25.02.48-.05.74-.23.82.04,1.13.81.8,1.1-.47,2.3-.5,3.4-.93.68-.27,1.45-.49,2.17.08,1.32,1.05,1.35,1.61.07,3.06-1.22,1.38-1.39,2.6-.28,3.7.62.61,1.24,1.29,2.16,1.59.59.19,1.12.51,1.1,1.14ZM68.23,78.86c-.66-.81-.09-1.83-.28-2.82,1.63,0,2,1.26,2.76,2.06-.88.82.68,2-.49,2.8-.19.13-.27.43-.11.61,1.08,1.21.33,2.7.67,4.02.16.61-.21,1.59,1.1,1.47.28-.03.35.28.32.51-.28,1.87.78,3.57.64,5.44-.06.77.51,1.49-.3,2.3-.58.59.63,1.07.66,1.85-.61.03-1.05-.54-1.64-.4-.29-1.02-1.12-1.79-1.37-2.85-.36-1.53-.58-3.04-.32-4.62.16-1.01.07-2-.69-2.82-.64-.68-.65-1.54-.66-2.36-.01-.99.05-1.99.16-2.98.09-.79.11-1.48-.46-2.19ZM72.08,77.71c-2.06-1.42-2.24-1.81-1.82-3.33.08-.29.16-.57.54-.5.3.05.65.31.57.54-.39,1.09.29,1.98.71,3.29ZM71.45,81.17c1.58.97,1.58,1.4.07,2.54.07-.96.41-1.64-.07-2.54ZM69.99,73.1c-.24-.85-1.26-1.13-1.44-1.97-.13-.61-.62-1.4.09-1.83.73-.44,1.28.28,1.76.74.98.94.91,1.49-.41,3.06ZM72.06,98.87c-.11.51.84,1.21,1.42,1.97-.74.14-1.6-.35-1.89.61-1.11-1.76-1.51-3.52-1.11-5.5.42.05.62.62,1.08.74,0,.74.7,1.27.5,2.18ZM73.34,89.48c.52.91.52,1.94.65,2.93-1.11-.79-.8-1.88-.65-2.93ZM75.78,98.3q-1.38-.24-1.52-1.79c1.03.26,1.1,1.08,1.52,1.79ZM74.94,94.68c.18.11.38.19.51.33.07.08.04.37-.04.4-.3.15-.34-.11-.4-.29-.04-.14-.05-.3-.07-.44ZM74.82,101.13c.11-.3.36-.56.32-.92-.03-.32-.57-.82.13-.93.6-.09.62.46.66.93.07.8-.14,1.47-.86,1.97-.32-.3-.4-.65-.25-1.05ZM84.05,150.88c-.4.04-.61-.11-.63-.44-.03-.57.28-.94.85-1.09.36-.09.78-.03.8.38.02.64-.54.91-1.02,1.15ZM79.33,88.93c-1.08.22-1.33.55-.88,1.43.56,1.1.45,2.15.11,3.24-.39,1.2-.82,2.39-1.45,3.61-.16-.95-.33-1.91-.47-2.86-.06-.38.05-.68.55-.63.31.03.69.08.56-.35-.13-.42-.2-1.18-.92-.89-.46.19-.57.28-.65-.2-.08-.49-.15-.99-.25-1.48-.04-.22-.17-.47-.44-.43-.36.04-.45.35-.4.64.08.49.22.98.31,1.47.15.79.14,1.55-.47,2.21-.25.2-.34.65-.75.55-.31-.07-.32-.43-.31-.69.02-.7.08-1.41.12-2.11,1.01-.6.38-1.63.73-2.41.17-.38,0-.82-.37-1-.44-.22-.68.3-1.02.45-.31-1.17-.62-2.34-.94-3.5-.25-.91-.19-1.73.93-2.52-.22,1.62-.17,3.03.28,4.47.72-.44-.33-1.85,1.19-1.62.11-.26.2-.73.32-.73,1.43-.07.99-.92.7-1.56-.33-.73-.24-1.52-.52-2.24-.15-.38-.05-.97-.84-.61-.23.1-.35-.24-.4-.44-.19-.67-.29-1.36-1.09-1.71-.25-.11-.2-.47-.18-.76.12-1.74.22-3.47.32-5.21-.23.02-.46.05-.69.07-1.1-1.44-.66-3-.04-4.4.41-.93.53-1.59,0-2.47-.52-.87-.4-1.92-.55-2.94-.52.66-.54,1.44-.57,2.21-.02.5.04,1,.03,1.5,0,.3-.23.69-.47.61-.95-.29-1.66.04-2.21,1-.06-.12-.12-.25-.18-.37,0-1.4-.05-2.81,0-4.21.03-.78.08-1.55-.15-2.31-.14-.47-.29-.92.38-1.29.68-.37.11-1-.05-1.33-.55-1.15-.65-2.33-.6-3.54.02-.51.02-1-.34-1.42-.11-.13-.27-.37-.22-.42,1.04-1.31-.37-2.59.03-3.92.4-1.35.1-2.77.21-4.16.04-.49.12-.99-.18-1.41-.3,0-.4.14-.41.31-.26,4.99-.51,9.99-.77,14.98-.02.44-.07.89-.14,1.33-.19,1.1-.41,1.23-1.52.94-1.6-.41-1.63-.38-1.57,1.46.87-.28,1.83-1,2.61-.19.74.76.34,1.81.21,2.73-.1.7-.32-.04-.5-.01-.57.1-.34.52-.29.78.25,1.36.75,2.67.82,4.08.05,1.05-.13,2.09,0,3.15.17,1.36-.37,1.66-1.87,1.23-.08-.02-.2.07-.31.12q.44,1.65,2.02,1.15c.37,1.41.42,2.88.34,4.26-.13,2.26.51,4.41.61,6.62.04.85.48,1.63-.82,1.92-.06.01-.05.31-.07.48,1.55.96,1.91,2.47,2.25,4.41-1.36-1.36-2-2.68-2.57-4.05-.79-.87-1.61-1.72-2.07-2.81-1.12-.53-1.52-1.66-2.35-2.43,0,0,0,0,0,0,.09-.2.24-.46.03-.61-.28-.2-.38.08-.48.27-.85-.24-1.35-.83-1.73-1.53-.61-1.12-1.18-2.27-1.6-3.47h0s0,0,0,0c0,0,0,0,0,0-1.2-1.23-1.49-2.87-2.04-4.36-1.97-5.29-3.23-10.78-4.36-16.28-.47-2.28-.86-4.58-1.31-6.87-.13-.69-.16-1.41.72-1.67,1.46-.44,2.17-1.27,1.91-2.74-.04-.25.03-.55.3-.76.69.07.02,1.03.99,1.06-.59-2.66-.41-5.28.43-7.97.48.28.63.77.77,1.19.57,1.69,1.08,3.39,1.63,5.09.14.42.31.83.49,1.24.13.31.49.68.4.9-.64,1.56,1.05,2.26,1.31,3.48.6-1-.24-1.92-.18-3.13,1.15.98,1.33,2.16,1.79,3.2.21.48.2,1.46.83,1.23.83-.29.11-1.05-.11-1.52-.97-2.15-.96-4.43-.97-6.71,0-.52.17-1-.62-1.13-.48-.08-.52-.55-.64-.92-.3-.9-.65-1.79-.88-2.7-.25-.98-.65-1.87-1.2-2.74-1-1.57-1.09-3.44-1-5.18.14-2.7.51-5.41,1.34-8.04.44-1.39.93-1.62,2.24-.9.47.26.79.65,1.17.99.98.88,1.89,1.85,2.97,2.59,1.84,1.26,2.52,3.14,3.37,4.96.38.82-.94-.08-.65.64.23.56.26,1.21.79,1.64.75.6.54,1.43.55,2.18,0,.44-.37.58-.74.36-.55-.33-.93-.81-1.26-1.36-.77-1.31-1.61-2.57-2.43-3.85-.15-.23-.29-.55-.65-.36-.29.15-.27.47-.2.75.04.16.05.38.17.47,1.46,1.16,1.61,3.16,3.13,4.31,1.42,1.08,1.58,2.65,1.53,4.25-.02.72-.14,1.45.55,2.04,1.29-.73,1.6-1.9,1.48-3.13-.11-1.15-.6-2.2-.01-3.44.35-.73,0-1.74-.06-2.88,1.42,1.43,2.84,2.58,3.89,3.99.98,1.32.71,2.97.42,4.52-.1.51-.49.59-.95.37-.89-.42-1.6-1.09-2.46-1.69-.35.59,0,.9.28,1.22.77.85,1.93,1.24,2.75,2.06.43.43.82-.22,1.25-.33-.54-.96-.19-1.95-.04-2.93.04-.28.25-.54.59-.54.34,0,.47.28.55.55.2.69.4,1.39.61,2.08-.38.62-.91.95-1.69.85,0,.41.26.68.52.98.94,1.09,2.51,1.54,3.21,2.88.18.34.61.18.94.02,0-1.05-.58-1.78-1.48-2.29-.99-.56-1.47-1.36-1.49-2.44.47.41.92.83,1.41,1.21.42.33.73.76,1.49.28.6-.38,1.29.26,1.61.68,1.28,1.72,2.33,3.56,1.61,5.81-.03.09-.13.16-.21.25-.69-.21-.66-.84-.86-1.33-.25-.61-.48-1.24-.76-1.84-.27-.57-.74-.65-1.3-.33.68,1.58,1.58,3.06,2.36,4.58.95,1.86.79,3.77.84,5.69,0,.39.06.75.1,1.13.03.32-.1.72.42.77.39.03.66-.22.88-.49.27-.34.24-.72.23-1.12-.02-1.21.12-2.41-.46-3.57-.28-.56-.17-1.3-.12-2,.24.86.37,1.75,1.42,2.08.09.03.17.17.18.27.42,2.5,1.9,4.93.56,7.56-.08.16-.22.31-.1.45,1.15,1.33.47,2.9.54,4.36.05,1.21-.15,2.43-.19,3.64-.04,1.01-.33,2.15-.69,3.18-.37,1.04-.4,1.95.38,2.81.31.34.56.72.31,1.21,0,0,0,0,0,0-.33-.12-.55,0-.73.27-.25.37-.3.85-.7,1.14-.65-.11-.5-.56-.48-.92.13-2.28.25-4.55.42-6.82.12-1.67-.27-3.31-.24-4.98,0-.3-.02-.68-.53-.84-.41,1.22-.66,2.41-.54,3.71.37,3.88.24,7.77-.43,11.63-.12.69.28,1.45-.36,2.2-.58-.49,0-1.25-.51-1.7-.47.33-.29.93-.72,1.43-.5-.49-.76-1.33-1.67-1.34-.5.81.19,1.38.35,2.05-.89.22-.96-.64-1.64-1.03.15.81-.07,1.45.75,2.03.95.66.17,1.48-.24,2.31.61.23,1.39.29,1.66.99.18.44.31.81-.44.97ZM57.62,46.67c-.02-.14-.02-.39.18-.33.16.05.25.31.32.41,0,.26-.02.47-.22.44-.26-.05-.25-.32-.28-.52ZM83.57,91.79c-.13.57-.6.92-.96,1.34-.17.2-.33.51-.68.26-.27-.19-.63-.36-.5-.76.18-.57.41-1.12.62-1.68,0,1.06.71,1.03,1.52.84ZM79.8,86.6c-.12-.19-.08-.4.05-.58.12-.05.22-.01.24.11.02.15.01.31-.03.45-.04.11-.19.13-.26.02ZM80.96,94.9c.13-.13.35-.03.45.11.33.49.22.9-.24,1.28-.13-.14-.25-.21-.27-.29-.07-.37-.25-.77.07-1.1ZM83.9,115.84c.22,0,.27.16.26.3-.02.2-.03.44-.16.58-.14.15-.3,0-.32-.17-.04-.26-.03-.52.22-.7ZM88.22,147.38c-.43.37-.95.64-1.3.87-.66.09-.79-.21-.79-.57.02-.77.53-1.18,1.25-1.43.67-.23,1.49-.99,1.98-.13.35.62-.7.87-1.14,1.25ZM87.82,115.27c-.53.05-1.11.13-1.17-.61-.11-1.42,1.29-.23,1.65-.91.22.73.6,1.42-.48,1.52ZM87,109.92c0,.14-.07.4-.15.41-.34.07-.26-.23-.34-.44.04-.11.07-.36.13-.37.29-.04.35.2.36.4ZM87.43,111.99c.24.09.38.26.33.51-.01.07-.18.18-.25.17-.27-.05-.38-.25-.33-.49.01-.07.16-.12.24-.18ZM88.57,109.79c-.19.05-.35-.05-.32-.26.03-.18.18-.28.36-.3.19-.02.35.03.32.33-.09.06-.21.19-.36.23ZM90.24,118.99c.03.46-.05.91-.21,1.34-.44-.52-.45-.97.21-1.34ZM90.49,120.79c-.43.14-.39-.21-.46-.44.25-.02.54-.25.71.08.04.07-.13.32-.25.36ZM90.25,118.98c-.33-.8-.05-1.51.45-2.44.17.72.34,1.25.42,1.8.1.65-.32.75-.87.63ZM90.26,101.9c.01.5.05.99.07,1.41-.14.2-.23.2-.34.11-.31-.28-.01-1.07-.73-.93-.61.12-.64.71-.69,1.23-.1,1.09.27,2.23-.41,3.27-.19.3-.09.82-.76.71-.47-.08-.59-.33-.82-.69-.83-1.31-.66-2.9-1.4-4.22-.13-.24-.19-.51-.49-.61-.48.37-.2.75-.12,1.11.5,2.3.6,4.61.27,6.95-.04.29-.13.57-.48.62-.37.06-.5-.22-.61-.48-.02-.05-.05-.1-.05-.16-.18-2.16-1.31-4.16-1.12-6.4.07-.88.14-1.8-.22-2.64-.24-.57.39-1.17.28-1.33-.75-1.11.08-1.79.6-2.61.73-1.16-.12-2.75.89-3.73,1.08-1.04.87-2.38,1.42-3.51.14-.28.21-.64-.05-1.06-.69.1-.89.53-.84,1.13.07.82-.27,1.41-1.1,1.72-.45-.37-.89-.76-1.51-.85.28-1.19.56-2.39.84-3.58.29-1.19.29-1.19-1.11-1.15.29-.75.56-1.47.89-2.31.41.3.04.79.49,1.08.54-1.38,1.56-2.62.6-4.16-.13-.21-.11-.48.12-.58,1.09-.47.92-1.61,1.47-2.37.28,1.55.29,1.55,1.74,1.63.21.43-.17.58-.41.81-.59.55-.84,1.18-.64,1.97.22.86-.02,1.78.4,2.62.29.58-.18,1.05-.39,1.56-.18.45-.64.96.39,1.26.53.15.55,1.04.65,1.63.49,2.86.61,5.75.49,8.65-.08,1.87-.14,1.91,1.6,2.58.7.27,1.05.65,1.07,1.34ZM98.74,141.46s-.1-.07-.1-.1c0-.13.08-.19.21-.17.04,0,.1.06.1.1,0,.13-.07.19-.21.17ZM99.07,137.44c-.21.32-.36.74-.85.76-.19,0-.27-.2-.24-.37.1-.57.43-.87,1.08-.77,0,.17.06.3,0,.38ZM151.06,37.37c-.19-.02-.25-.19-.17-.35.11-.21.33-.28.56-.24.16.02.31.09.31.29-.17.24-.42.34-.7.3ZM151.23,32.75c.51,1.34.36,1.98-.72,3.15q-.53-1.09.72-3.15ZM147.3,64.99c.03-.18.18-.26.35-.19.07.03.1.16.14.25-.06.18-.19.26-.36.19-.07-.03-.15-.17-.13-.25ZM142.81,57.88c.05-.01.14.12.21.18-.03.27-.13.52-.46.56-.06,0-.2-.11-.21-.18,0-.29.15-.5.46-.56ZM143.28,71.5c.14.1.22.24.15.4-.02.04-.21.06-.26.02-.07-.06-.11-.18-.11-.27,0-.13.09-.18.22-.15ZM140.61,70.82c.02-.07.15-.12.23-.17.06.08.15.16.16.25.01.19-.11.29-.3.19-.07-.04-.11-.19-.08-.27ZM133.93,72.23c.82-1.12.79-2.42.94-3.67.09-.71.55-1.22.9-1.79.16-.25.46-.37.77-.23.32.15.36.45.17.7-.34.45-.39.91-.22,1.42.05.14,0,.46-.03.46-1.61.14-.61,1.15-.8,1.8-.23.76-.94,1.4-1.52,2.21-.36-.36-.35-.69-.2-.9ZM132.7,76.84c-.03-.3.07-.58.47-.52.25.04.35.27.37.5-.04.29-.16.6-.48.62-.43.03-.34-.36-.37-.61ZM100.06,109.71c.82-1.32,1.13-2.99,2.8-3.75-.06-.8.29-1.51.63-2.22.16-.33.38-.64.79-.42.42.22.14.57,0,.87-.04.1-.1.2-.15.3-.59.48-.61,1.11-.54,1.76.43-.52.57-1.11.55-1.74.9,1.11.93,1.97.03,2.86-.25.25-.55.43-.56.8-.02.73-.59.88-1.26,1.05-.11-.66.74-1.06.41-1.9-.93.75-1.32,1.71-1.75,2.65-.12.25-.24.56-.63.42-.31-.11-.48-.43-.33-.68ZM98.82,120.39c.6-1.14,1.15-2.31,2-3.31.24-.29.6-.33.95-.13.26.14.49.32.44.64-.06.39-.23.6-.72.42-.31-.11-.41.17-.43.38-.06,1.05-.82,1.98-.83,3.12-.11-.41-.22-.81-.35-1.3-.2.18-.32.29-.43.4-.13.12-.27.24-.45.17-.19-.06-.27-.26-.19-.4ZM108.98,134.98c-.82.95-1.4,2.04-2.4,2.88-1.33,1.12-1.25,1.2-2.57.03-.62.3-.87.84-1.15,1.41-.32.65-1.11.73-1.51.15-.38-.55-.67-1.15-.97-1.75-.16-.31-.15-.59.2-.88.75-.59,1.34-1.28,2.25-1.78.9-.49,1.28-.74,2.05.06.81.84.82-.66,1.42-.6.5.31-.27.88.3,1.19.72-.42.22-1.48,1.02-1.8.53-.21,1.1-.41,1.75-.25.31.54-.11.98-.4,1.32ZM105.09,117.49c.11.02.22.02.32.05.15.05.36.14.25.3-.11.16-.3.03-.4-.09-.07-.08-.11-.18-.17-.27ZM111.47,110.27s-.08.21-.28.21c-.21,0-.27-.16-.26-.33.02-.17.12-.32.31-.33.2,0,.28.14.22.44ZM112.41,108.27c-.04-.09-.13-.18-.12-.26.01-.07.14-.13.21-.2.04.09.09.18.13.27-.07.06-.15.13-.22.19ZM113.42,106.91c-.18-.01-.29-.15-.29-.31,0-.17.07-.32.28-.3.18.01.27.15.3.32,0,.17-.08.31-.28.3ZM116.83,125.88s-.07.09-.11.1c-.14,0-.21-.07-.18-.2,0-.04.07-.07.11-.1.14,0,.21.07.18.2ZM118.12,125.21c.49-.82,1.01-1.26,2.07-1.59-.55.9-.84,1.62-2.07,1.59ZM118.23,119.77c.02-.09.11-.19.2-.23.12-.05.2.02.2.15-.07.08-.12.19-.21.23-.12.06-.23-.02-.19-.15ZM117.65,106.45c.08-.11.17-.13.27-.04.03.03.03.1,0,.13-.07.11-.17.13-.26.04-.03-.02,0-.09,0-.14ZM121.82,121.2c.04-.61.4-.79,1.05-.91-.22.6-.48.88-1.05.91ZM122.13,113.09c-.16.4-.32.8-.48,1.19-.29-.59-.02-.94.48-1.19ZM122.15,113.07c.05-.42.26-.77.6-1.05.15.53.13.96-.6,1.05ZM123.45,115.48c-.07.01-.24-.08-.25-.14-.03-.25.14-.4.38-.46.07-.02.17.09.25.14,0,.25-.14.4-.39.45ZM122.76,112c.16-.78.54-1.37,1.65-1.75-.31,1.05-.77,1.58-1.65,1.75ZM126.6,112.96c-.11-.06-.21-.12-.32-.18.58-.9.63-2.08,2.1-2.41-.59.87-1.19,1.73-1.78,2.6ZM128.58,112c-.12.05-.21.02-.24-.11-.01-.04.02-.11.06-.13.11-.06.21-.02.24.11,0,.04-.04.09-.06.14ZM127.76,104.53c-.06-.73.83-.89.85-1.53q.35,1.16-.85,1.53ZM126.43,86.17c.23.47.07.87-.35,1.44-.26-.74.19-1.04.35-1.44ZM129.3,101.41c.36-.45.77-.59,1.37-.56q-.53.63-1.37.56ZM128.86,77.12c-.52.82-.84,1.73-1.08,2.65-.18.67-.6,1.19-.93,1.78-1.16,2.07-2.92,3.76-4.18,5.76-.12.19-.26.38-.31.59-.06.23.07.44.3.55.28.13.45-.05.55-.27.31-.74.61-1.48,1.63-1.56.22.43.12.86,0,1.3-.06.22-.13.57.06.62,1.53.42.49,1.04.17,1.64-.37.69-.65,1.43-1.04,2.12-.4.71-.68,1.52-1.49,2-.31-.46.04-.79.13-1.14.11-.41.19-.81-.32-.98-.4-.13-.83-.1-1.14.23-.64.68-.75,1.38.05,2.16-.9.1-1.76-.7-2.35.16-.43.61-.33,1.28.22,1.81.15.07.25.05.31-.08.1-.23-.02-.65.4-.63.38.02.34.39.34.66-.02.89-.49,1.56-1.1,2.17-.71-.23-.15-.71-.33-1.01q-1.65.04-1.63,1.03c-.55.11-.92-.43-1.44-.37.16,1.4.16,1.41-1.57,3.36.37.38,1.01.47,1.22.99.63-.31.44-1.11,1.1-1.32.36.95.26,1.21-1.59,3.94.11-.5.22-1,.39-1.74-.75.4-1.37.72-2.03.51-.2.57.53.69.35,1.14-.24.22-.57.26-.82.13-.61-.3-.72.06-.79.48-.07.44-.07.89-.16,1.33-.12.64-.48,1.17-1.16,1.37-.44.13-.97.02-1.06.64-.13.84-.82,1.63-.28,2.52.42.7.43,1.26-.51,1.58-.22.08-.5.18-.59.34-.77,1.49-2.07,2.61-3.08,3.92,0,0,0,0,0,0-.21.27-.47.56-.2.89.26.32.18.52-.18.61-.72.16-1.25.61-1.82,1.09-.05-.88.67-3.06,1.31-3.82,1.23-1.43,2.22-2.97,2.74-5-1.04.34-1.35,1.05-1.7,1.71-.48.89-.86,1.81-1.73,2.5-.51.4-.96.59-1.58.52-.3-.41-.04-.74.15-1.08,1.54-2.72,3.33-5.34,4.54-8.17,1.1-2.6,3.3-4.61,4.06-7.38.17-.64.86-1.24.92-2.04.03-.42.38-.69.83-.77.48-.08,1.02-.19,1.18-.64.45-1.3,1.57-2.24,2.02-3.51.34-.97.79-1.9,1.4-2.7,2.21-2.89,3.93-6.1,6.43-8.82.62-.67,1-1.52,1.53-2.26,1.29-1.81,3.2-3.14,4.36-5.06.21-.34.61-.59,1.06-.41.51.21.33.66.23,1.02-.28,1.07-.59,2.14-.87,3.14-.44.14-.41-.97-.92-.18ZM125.51,85.59c.1.61-.28.83-.68,1.02.07-.41.14-.81.68-1.02ZM132.84,95.81c-.23-.62.12-.94.54-1.26q-.03.63-.54,1.26ZM130.8,72.25c-.07.02-.26-.06-.27-.12-.1-.5.37-.57.8-1.07-.02.79-.17,1.06-.53,1.19ZM133.79,93.1c.49-1.11.84-2.27,1.89-3.52.03,1.77-.4,2.9-1.89,3.52ZM136.1,89c-.13-.03-.26-.06-.38-.1-.18-.76.33-1.26,1.08-1.67-.23.59-.46,1.18-.7,1.76ZM137.75,89.69c-.05,0-.12.03-.15.01-.12-.07-.12-.18,0-.26.03-.03.12-.04.15-.02.12.07.12.17.01.27ZM138.09,80.37c-.4.53-.05,1.15-.36,1.74-.56,1.07-1.52,1.79-2.43,3.05-.2-1.22-.41-2,.76-2.28.24-.06.49-.3.19-.44-.95-.45-.28-.92-.03-1.33.26-.43.63-.8.96-1.19.26-.31.59-.71,1.01-.49.59.3.1.66-.12.95ZM138.09,78.52c-.19.09-.34-.04-.36-.23-.03-.28.06-.56.34-.7.19-.09.31.05.36.23.01.28-.05.56-.34.69ZM137.18,65.05c-.21.02-.28-.13-.22-.29.03-.07.17-.15.25-.14.07.01.11.14.17.21-.07.08-.13.21-.2.21ZM136.18,53.89c.38-1.59,1.05-3.07,2.05-4.42-.8,1.42-.77,3.18-2.05,4.42ZM140.26,72.11s-.05.12-.1.13c-.14.04-.22-.03-.2-.16,0-.05.05-.12.09-.13.14-.04.21.03.21.16ZM153.25,70.98c.14-.2.12-.55.52-.52.03,0,.08.09.07.13,0,.38-.29.4-.59.39ZM153.53,63.03c-.4.97-.37,1.94-.14,2.95.31,1.38.32,2.76-.39,4.08-.19.35-.38.75.24.92-.71.92-.94,2.04-1.38,3.07-.37.88-.71,1.71-1.33,2.5-.54.7-.95,1.53-1.45,2.3-1.74,2.66-4.08,4.9-5.79,7.56-.64.99-1.45,1.91-1.51,3.17-.02.51-.14.5-1.57.56-.33-.45.12-.7.32-1.01.28-.41.79-.75.26-1.31-.24-.25-.07-.52.08-.77.7-1.22.98-2.62,1.87-3.77.54-.7.76-1.39-.23-1.97-.63-.37-.24-.68.17-1.02,1.37-1.14,1.44-2.7,1.23-4.2-.07-.49-.18-.8.21-1.13,1.1-.95,1.42-2.16,1.37-3.49-.05-1.12.48-2.21-.05-3.39-.25-.56.44-1.33.4-2.18.87.27,1.38.73.85,1.34-.94,1.09.14,1.39.69,2.26.4-1.35,1.4-1.94,2.14-2.73.96-1.02,1.86-2.3,1.87-3.83,0-.33-.03-.67-.02-1,.03-.59.54-.67.99-.79.46-.12.8.04,1.03.43.28.46.34.93.13,1.44ZM152.65,59.36c-.03-1.12-.12-2.25.57-3.54.67,1.49-.15,2.49-.57,3.54ZM155.24,67.67c-.07.15-.18.13-.2-.03-.01-.09.04-.2.07-.3.05,0,.13,0,.13.02.01.1.04.22,0,.31ZM153.69,51.48c-.5-1.26-.41-2.52.22-3.76.08,1.25-.21,2.49-.22,3.76ZM156.35,71.81c-.33-.85-.27-1.7-.28-2.67q1.28,1.98.28,2.67ZM158.56,65.74s-.11.07-.15.05c-.12-.06-.14-.16-.06-.26.03-.03.1-.04.15-.06.11.07.14.16.06.26Z"/>
      <polygon points="133.71 422.17 133.71 422.18 133.71 422.18 133.72 422.18 133.71 422.17 133.71 422.17"/>
      <polygon points="121.3 292.14 121.29 292.14 121.29 292.14 121.3 292.14"/>
      <path d="M126.19,387.38c.35-.13.38-.39.44-.66.04-.17.1-.33.43-.23.14.34.29.72.49,1.22.24-.86.3-1.62.65-2.24.79-1.39.87-2.86.9-4.36.03-1.39.07-2.78.17-4.17.1-1.4.13-2.81-.18-4.16-.3-1.35.18-2.65-.07-4.03-.28-1.51-.87-2.9-1.04-4.4-.7.14-.43,1.05-1.23.96-.06-.36.01-.97-.19-1.06-.89-.42-.66-1.08-.53-1.72.12-.62,0-1.21-.1-1.81-.17-.93-.31-1.87-.37-2.81-.04-.7.51-.99,1.18-.7.47.21.77.57.75,1.04-.03,1,.67,1.43,1.7,2.07.23-3.22,1.43-6.12.93-9.2-.16-1.01-.43-2.07-.27-3.06.14-.9.22-1.78.08-2.64-.39-2.47-.86-4.93-1.31-7.38-.11-.6-.43-1.27.01-1.78,1-1.15.56-2.35.24-3.5-.42-1.5-.44-3.03-.77-4.59.17.07.26.08.27.11.86,3.68,2.29,7.21,2.95,10.94.02.11.02.23.07.33.15.33.44.42.69.16.29-.3.74-.53.51-1.12-.33-.86-.58-1.75-.75-2.65-.16-.85-.7-1.64-.5-2.64,1.2,1.39,2.86,5.45,2.85,7.22,0,.86.15,1.65.52,2.42.38.77.41,1.61.51,2.44.02.2.07.4-.18.58-.61.41-.61.44-.11.74.34.2.99.28.94.66-.15,1.12.97,2.15.08,3.35-.43.58.03,1.42.6,1.59.99.28,1.04.37.28,1.08-.52.49-.29,1.25-.03,1.22,1.09-.1.68.58.72,1,.12,1.32.12,2.65.38,3.98.99,4.99,1.84,10,2.86,14.98.63,3.11,1.28,6.21,1.62,9.36.03.24.02.58.68.58-.18-4.64-1.04-9.2-1.26-13.96.28.29.41.55.57.57.42.04.45-.34.4-.58-.27-1.31-.08-2.67-.53-3.96-.41-1.17-.58-2.38-.56-3.61h0s0,0,0,0c.63.71.56,1.64.77,2.58,1.13-.46,1.3-1.24,1.07-2.09-.5-1.82-.56-3.73-1.23-5.52-.12-.33,0-.81-.64-.95-.52.76-.54,1.6-.26,2.37.44,1.2.38,2.39.3,3.61-.86-1.41-1.28-2.99-1.47-4.56-.27-2.21-.76-4.38-1.18-6.56-.66-3.48-1.7-6.89-2.56-10.34-.38-1.53-1.01-3.03-.62-4.8.67.84.11,2.09,1.26,2.55h.02s-.02,0-.02,0c-.19.5-.09,1,.06,1.47.9,2.67,1.57,5.4,2.1,8.16.03.16.15.3.44.24.23-.32.1-.7.09-1.07-.06-1.96-1.07-3.69-1.5-5.57-.25-1.1-.42-2.29-1.16-3.26.02-.17.05-.33.05-.5,0-1.27.18-2.55-1.62-3.05-.7-.2-.78-1.05-.42-1.74.17-.33.66-.52.5-1-1.14.05-1.18.07-1.45-.8-.57-1.86-1.1-3.76-1.42-5.63-.32-1.92-.73-3.85-1.43-5.58-1.31-3.23-1.49-6.89-3.9-9.71-.1-.12-.1-.31-.16-.47-.44-1.26-1.01-2.46-1.61-3.66-.64-1.29-1.19-2.64-1.49-4.06-.06-.27-.15-.59.22-.72.34-.12.54.15.7.38.28.42.62.83.78,1.3.95,2.74,2.53,5.22,3.55,7.93.57,1.51,1.62,2.89,1.75,4.51.16,2.05,1.04,3.85,1.73,5.73.24.65.65,1.13,1.33,1.43.34-.61.03-1.06-.1-1.53-.92-3.39-2.2-6.66-3.46-9.94-1.26-3.28-2.8-6.45-4.46-9.56-1.08-2.02-1.92-4.14-2.73-6.27,1.35,1.68,2.06,3.66,3.02,5.53.7,1.36.97,2.94,2.23,4.02,0-.67-.17-1.31-.47-1.92-1.37-2.74-2.74-5.48-4.11-8.22-.28-.55-.62-1.05-1.22-1.35.18.65.37,1.3.55,1.95-1.04-1.23-1.94-2.54-2.21-4.15-.7-.39-.87-.93-.52-1.62,0,0,0,0,.01,0,0,0,0-.01,0-.02h0c-.06-.66-.13-1.64-.77-1.73-1.29-.18-1.49-1.13-1.95-1.89-.91-1.49-1.95-2.89-2.93-4.34-1.23-1.81-2.69-3.51-3.32-5.64-.1-.35-.27-.75-.75-.76-.52.14-.25.88-.89.93-.17-.81.57-1.65-.02-2.31-.73-.82-1.1-1.82-1.78-2.66-1.65-2.02-3.27-4.05-4.88-6.09-1.33-1.68-2.56-3.44-4.01-5.02-1.27-1.4-2.19-3-3.33-4.47-.16-.21-.52-.5-.29-.72.67-.65.05-1-.27-1.4-2.86-3.58-5.73-7.16-8.59-10.74-.28-.35-.65-.71-.74-1.11-.21-.93-.83-1.57-1.49-2.21-.57-.55-1.39-.98-1.71-1.64-.6-1.25-1.59-2.19-2.46-3.21-1.49-1.76-3.45-3.16-4.46-5.29-.11-.22-.42-.39-.67-.51-.65-.32-1.09-.83-1.57-1.32-.76-.77-1.55-1.51-2.34-2.26-3.11-2.92-6.74-5.33-9.68-8.42-.19-.2-.48-.32-.73-.46-1.81-1.04-3.55-2.15-5.27-3.32-2.73-1.85-5.75-3.25-8.93-4.35-1.56-.54-3.13-.92-4.82-1.05,2.47,1.58,5.23,2.73,7.55,4.58-1.45.29-2.5-.11-3.51-.91-.7-.56-1.6-.92-2.43-1.35-.46-.24-.94-.37-1.5.03.25.24.39.43.58.54,3.21,1.95,6.2,4.16,8.91,6.69.33.3.76.72,1.15.71.76-.01,1.07.47,1.58.79,1.38.88,2.38,2.14,3.68,3.07.76.55.54,1.61,1.09,1.95.63.38,1.55.4,2.12,1.01.14.15.42.4.13.53-1.25.56-.26.95.1,1.3.49.47,1,.92,1.85.69.39-.1.57.31.78.57-.43.91-.42.92.78.88-.26.85-.03,1.56.77,2.02.58.33,1,.73,1.26,1.33.13.28.41.59.71.7,1.06.4,1.7,1.13,2.06,2.12.32.89.91.81,1.68.08-.09,1.17.18,2.04.7,2.76,1.29,1.78,2.57,3.57,4.04,5.21,1.02,1.15,2.02,2.27,2.56,3.7.08.2.08.54.33.54,1.05,0,1.09.85,1.45,1.43.64,1.05,1.16,2.17,2.29,2.87.41.25.66.66.77,1.09.39,1.51,1.39,2.62,2.48,3.73.79.8,1.41,1.68,1.48,3.01.12,2.2,1.83,3.76,3.34,5.65.28-.89.7-1.46-.29-1.77-.66-.21-1.07-.68-1.28-1.28-.28-.77,1.21-.95.76-1.84-.04-.08.28-.02.39.09.87.89.51-.53.91-.46.35.09.44.39.64.58.81.75.96,1.93,1.8,2.61.83.67,1.48,1.43,1.9,2.35.6,1.33,1.22,2.62,2.58,3.43.21.12.29.47.36.73.63,2.23,2.54,3.8,3.39,5.93.28.69.78,1.3,1.6,1.68.72.34,1.2,1.05,1.51,1.78.15.36.26.78.62.98.96.55,1.07,1.42,1.33,2.36.27.99-.37,1.68-.36,2.55-.44.09-.73-.81-1.24-.06.57.35.43,1.78,1.79.86-.07,1.23-.22,2.4.52,3.43,0,0,0,0,0,0,.3.98,1.53,1.37,1.67,2.48.12.94.55,1.82,1.17,2.57.58.71.67,1.67.17,2.17-.99.99-.09,1.31.4,1.83.06.71,0,1.43.71,1.96.37.27.43.76.5,1.21.38,2.41,1.49,4.67,1.67,7.13.03.38.18.77.37,1.11,1.36,2.51,1.66,5.42,3.3,7.83.24.35.29.84.37,1.27.22,1.24-.05,2.55.67,3.72.14.24,0,.65-.06.98-.05.33-.32.65-.17.97.73,1.5.57,3.16.9,4.73.57,2.74,1.54,5.35,2.51,7.97.24.64.5,1.28.4,1.94-.15,1.02.16,1.99.17,2.98,0,.46.07,1.03.49,1.19.94.35.86,1.06.98,1.76.16.93.38,1.85.61,2.77.34,1.41.39,3.15.07,3.98-.71-1.07-.59-2.42-1.13-3.53-.9.3-.6,1.13-1.26,1.8-1.19-3.35-.57-6.85-1.86-10.3-.93,1.69-.79,3.17-1.08,4.58-.17.81-.47,1.63-.32,2.48.47,2.68.27,5.4.51,8.1.21,2.45.92,4.79,1.09,7.23.02.3.13.66.7.82.46-1.16.82-2.33.89-3.6.41,1.82.38,3.67.85,5.46.2.76.38,1.47,1.09,2.02.89.69.81,1.32-.16,1.93-.23.14-.6.09-.62.56,1.45.35,1.47,1.57,1.55,2.64.2,2.54,0,5.09.27,7.63.05.46-.17.87-.35,1.29-.27.62-.54,1.24-.83,1.85-.12.25-.37.54-.11.77.61.53.35,1.08.19,1.68-.25.94-.02,1.89.06,2.82.05.59.44.82,1.1.69-.55-1.37-.56-1.38.87-1.91ZM141.23,367.86c.35.54.59.93.33,1.57-.39-.5-.45-.93-.33-1.57ZM126.32,329.02c.21-.07.26.09.29.24-.02.1-.02.26-.08.28-.22.08-.26-.09-.28-.24,0-.09.02-.26.07-.28ZM127.05,339.33c-.74-.94-.7-2.03-.9-3.28,1.29,1,1.13,2.13.9,3.28ZM124.33,331.78c.31.49.42.83.08,1.28-.39-.37-.36-.73-.08-1.28ZM50.47,214.93c-.2-.09-.46-.18-.54-.34-.11-.21.14-.22.29-.18.22.06.42.15.48.39-.02.13-.11.2-.24.14ZM75.52,241.31c-.09-.15-.33-.34.02-.47.02,0,.17.23.22.36.05.14.05.29.07.44-.11-.11-.25-.21-.32-.33ZM76.36,241.77c-.23.25-.38.07-.5-.12.17-.1.28-.37.54-.17.05.04.03.23-.03.29ZM79.87,246.08c-.18-.12-.33-.28-.47-.44-.09-.11-.03-.25.09-.24.32.03.47.25.56.5,0,.15-.09.24-.19.17ZM81.77,248.52c-.08.01-.22-.08-.27-.16-.09-.15-.09-.34.09-.42.19-.09.3.07.38.22.04.17.01.33-.2.36ZM84.15,251.29c-.09,0-.23-.09-.26-.18-.08-.21.07-.31.27-.25.09.02.14.15.21.23-.07.07-.15.2-.22.19ZM85.21,252.6c1.1.53,1.42,1.39,1.76,2.35-1.19-.29-1.27-.4-1.76-2.35ZM87.88,257.42c-.41.02-.49-.4-.59-.71-.09-.29-.01-.54.35-.65.44-.02.63.23.66.59.03.33.02.74-.43.76ZM101.24,265.89c-.41.28-.74.24-1.06-.11-.77-.83-.85-1.82-.83-3.03,1.06.62,1.47,1.55,2.07,2.31.25.32.16.6-.18.83ZM104.89,270.73c.52.46.95.95,1.06,1.83-.89-.5-1.03-1.15-1.06-1.83ZM108.18,289.71c-.1.04-.22.06-.33.08.06-.09.11-.19.19-.27.11-.12.3-.28.41-.12.12.17-.11.25-.27.31ZM108.39,285.36c-.39.02-.64-.22-.66-.6-.01-.22.1-.48.33-.53.49-.09.52.3.6.61.02.22.02.5-.27.51ZM107.51,275.17c-.05-.09-.12-.18-.13-.27-.02-.13.08-.21.19-.15.08.04.12.17.14.26.02.13-.06.19-.19.16ZM111.87,299.17c-.33.16-.39-.21-.6-.31.16-.2.33-.48.58-.11.07.11.08.4.02.42ZM112.53,281.06c.13-.01.25-.03.38-.04.16.55.33,1.09.49,1.64-.61-.43-.87-.97-.87-1.6ZM115.6,286.91c-.53-.84-1.06-1.67-1.57-2.52-.15-.25-.18-.55.22-.66.3-.08.63-.03.74.28.31.92.57,1.86.85,2.79-.08.04-.16.07-.24.11ZM119.08,292.65c-.07-.12-.01-.2.13-.22.07.07.17.13.21.21.07.12,0,.23-.12.21-.09-.02-.17-.12-.22-.2ZM126.73,375.8c.19.62.32,1.11-.05,1.83-.38-.74-.23-1.22.05-1.83ZM126.69,379.33c.01-.13.17-.33.3-.36.29-.08.43.15.47.37.11.72-.25,1.37-.41,2.06-.41-.66-.42-1.37-.36-2.07Z"/>
      <polygon points="123.5 296.27 123.5 296.28 123.5 296.27 123.5 296.27"/>
      <path d="M155.15,254.24c-.23.88-.57,1.75,0,2.58.95,1.42,1.52,2.99,2.1,4.56.3.81.49,1.75,1.52,2.12.25-1.73-.4-3.26-1.1-4.78-.11-.24-.12-.53-.18-.8.49-.31.7-.94,1.34-1.1-.11-.97.57-2.07-.62-2.87-.22-.15-.21-.73.19-1.13.7.15,1.06.67,1.12,1.27.14,1.22.75,2.49-.27,3.66.29.26.7.48.68.9-.08,1.19.69.66,1.25.58.1-.98-.48-1.87-.37-2.87.47.72.81,1.47,1.21,2.19,1.39,2.48,2.98,4.87,4.07,7.5.21.52.52.98.9,1.42.96,1.09,1.35,2.4,1.5,3.79.86.17,1.22.93,1.89,1.56.26-.83-.09-1.34-.46-1.8-.98-1.21-1.55-2.62-2.06-4.03-.35-.96-.78-1.85-1.32-2.7-1.43-2.22-2.42-4.65-3.79-6.9-1.6-2.61-2.62-5.53-4.75-7.86-.35-.38-.69-.77-.08-1.28.52-.44.14-.9-.25-1.09-1.23-.6-2.2-1.3-1.9-2.81.02-.12-.13-.31-.24-.42-.63-.57-.78-1.36-1.08-2.07-.33-.77-1.38-1.21-1.25-2.11.16-1.15-1.36-.75-1.46-1.59-.02-.16-.12-.32-.22-.45-.57-.73-.14-2.1-1.61-2.26-.04,0-.1-.2-.08-.3.17-.78-.45-1.23-.82-1.77-.63-.94-1.34-1.82-1.96-2.76-1.13-1.7-2.43-3.26-4.07-4.55-.78-.61-1.52-1.2-1.49-2.31.01-.51-.46-.88-.76-1.28-2.84-3.74-6.21-7.07-9.28-10.63-.15-.17-.32-.45-.48-.45-1.52.04-2.03-1.13-2.44-2.07-.78-1.8-1.94-3.39-2.76-5.16-2.6-5.65-4.96-11.38-7-17.23-1.19-3.42-2.63-6.78-2.7-10.47,0-.27-.07-.56-.2-.81-.65-1.28-.91-2.62-.84-4.04.03-.69-.19-1.3-.96-1.73-.79,1.17-1.09,2.4-1.1,3.68-.03,1.89.03,3.78.04,5.67.03,3.97.55,7.84,1.83,11.65,2.64,7.85,6.38,15.26,9.66,22.85.28.66.73,1.27,1.2,1.83.76.9,1.6,1.67,2.02,2.87.66,1.89,1.86,3.56,3.15,5.16.67.83,1.23,1.75,1.56,2.78.61,1.91,1.84,3.55,2.49,5.46.41,1.19,2.13,1.79,2.25,3.3,1.32.7,1.72,1.89,1.97,3.19.15.75.82,1.56.63,2.18-.49,1.63,1.05,2.05,1.45,3.06.71-.28.08-.82.7-1.18.97,1.76,1.4,3.84,3.17,5.2.18-.11.42-.26.67-.41.37-.21.75-.42.44-.91-.21-.33-.37-.76-.92-.36-.15.11-.4.15-.47,0-.27-.61-.52-1.23-.7-1.87-.11-.39-.28-.87.31-1.15,1.19.53,1.39,1.74,2.08,2.6.86,1.07,1.11,2.16.49,3.41h0c.27.19.61.76.76.55.86-1.1,1.03-.19,1.34.33.29.49.81.75,1.22,1.11,1.25,1.07,2.93,1.89,3.09,3.78,0,.06.18.11.28.17.55-.02.77-.68,1.52-.62ZM157.75,255.96c-.63-.38-.87-.98-.98-1.65,1.3,0,.8,1.02.98,1.65ZM156.75,254.3c-.88-.45-1.1-1.27-1.3-2.1.74.53,1.13,1.25,1.3,2.1ZM156.02,256.14c.38-.25.68-.08.82.28.19.51.3,1.05.64,1.5-.66-.15-1.07-.61-1.49-1.07-.2-.22-.28-.52.03-.72ZM131.09,220.94c-.59-.45-.91-.85-.59-1.47.08-.16.3-.21.44-.11.58.42.41.92.15,1.57ZM127.88,214.08c-.6-1-1.41-1.88-1.72-3.06,1.67,1.75,3.56,3.29,4.97,5.24-1.55-.12-2.51-.94-3.26-2.18ZM131.14,216.27c.22.23.5.42.53.91-.46-.23-.46-.59-.53-.91ZM133.23,225.69c-.66-1.14-1.25-2.3-1.25-3.65,1.06.88,2.93,4.7,3.29,7.04-.68-1.13-1.37-2.26-2.03-3.39ZM132.6,218.35c1.21.73,1.91,1.77,2.25,3.06-.75-1.02-1.5-2.04-2.25-3.06ZM137.12,231.93c-.33,0-.51-.19-.56-.48-.03-.17.08-.32.28-.32.32,0,.49.2.57.45,0,.21-.1.34-.29.35ZM141.01,241.22c0,.17-.1.3-.3.32-.19-.02-.3-.13-.3-.3,0-.23.09-.43.38-.39.19.03.23.21.22.37ZM137.44,226.58c-.58-.85-1.12-1.82-1.13-2.99.59,0,.68.46.83.75,1.14,2.17,2.87,4.02,3.65,6.37-1.13-1.37-2.35-2.68-3.35-4.13ZM141.35,231.56c-.53-.09-.43-.51-.53-.82.28.2.7.32.53.82ZM142.87,234.29c-.18-.14-.36-.39-.1-.55.23-.15.44.08.53.29.06.14.03.31.03.48-.16-.07-.33-.11-.46-.21ZM143.66,236.18c-.68-.55-.5-1.11-.33-1.66.4.45.74.91.33,1.66ZM146.93,241.1c-.37-.05-.44-.27-.51-.47-.09-.29-.36-.68.16-.8.33-.07.42.29.49.56.05.21.06.43-.15.71ZM148.44,238.66s-.2.06-.26.03c-.07-.05-.13-.16-.14-.25,0-.12.1-.16.23-.13.15.08.27.18.17.35ZM147.52,236.18c.26-.24.4.21.51.43.03.07-.05.18-.08.28-.36-.14-.67-.49-.43-.71ZM148.07,242.61c-.22.05-.29-.13-.3-.3-.01-.17.04-.36.23-.4.22-.05.27.13.3.3,0,.17-.04.36-.23.4ZM149.13,244.41c-.24.06-.49.06-.58-.21-.08-.24.03-.46.32-.48.25-.02.43.13.54.35.04.21-.1.3-.28.34ZM149.47,240.41c-.2.05-.32-.1-.34-.28-.02-.23.06-.46.31-.54.21-.06.28.11.32.28,0,.22,0,.47-.29.53ZM151.81,249.29c-.37-.8-.74-1.6-1.11-2.4.94.56,1.34,1.35,1.11,2.4ZM151.38,245.57c.53.26.66.59.8,1.11-.55-.21-.72-.52-.8-1.11ZM153.27,245.41c.02-.09.13-.18.22-.21.05-.01.14.11.22.17-.08.07-.14.18-.23.21-.12.04-.24-.05-.2-.17ZM153.37,251.52c0-.07.17-.21.24-.2.65.07.73.56.88,1.22-.65-.27-1.18-.4-1.12-1.02ZM154.31,250.34c-.03-.06.05-.18.08-.27.11.12.22.23.26.28.09.22.02.37-.05.33-.13-.07-.23-.21-.29-.35Z"/>
      <polygon points="161.19 259.23 161.18 259.23 161.18 259.24 161.19 259.23"/>
      <path d="M185.98,361.5c-.85-.24-.52-.88-.64-1.38-.21-.85.37-1.71.07-2.76-1.13,1.36-1.48,2.85-2.14,4.2.15-1.23.49-2.41.68-3.61.3-1.92.7-3.85.55-5.81-.01-.16-.06-.34-.33-.29-.14.28-.29.58-.43.87-.25-.09-.21-.27-.24-.42-.06-.3.08-.76-.44-.76-.4,0-.57.37-.66.7-.31,1.08-.68,2.17-.53,3.29.2,1.47-.65,2.61-1.18,4.19-.56-1.11-.12-1.93-.15-2.72-.02-.51.1-1-.62-1.19-.67-.18-1.14-.08-1.48.53-.59,1.05-1.76,1.74-2.76,1.5-1.1-.26-1.41.29-1.98.97-.36-1.22-.01-2.11.51-3.02.79-1.37.7-1.49-.95-1.74h.01s0-.02-.01-.02c0,0,0,0,0,.01-1.4.83-1.8,2.18-2.14,3.57-.41-.33-.79-.71-.69-1.26.33-1.88.21-3.76.24-5.65,0-.45.23-1.01-.44-1.03-.65-.02-.74.62-.81,1.11-.02.14.1.31.2.45.36.49.17.83-.32,1.09-.33.17-.59.38-.55.78.02.22.04.48.32.53.3.05.25-.52.67-.38.01.83-.05,1.63-.38,2.44-.54,1.3-.42,2.61.35,3.82.48.75.56,1.55.47,2.4-.07.66-.13,1.33-.15,1.99-.02.87.27,1.79.96,2.21.86.53.93,1.26,1.03,1.98.24,1.7.41,3.42.51,5.14.11,2.05.35,4.02,1.05,6,1.42,3.98,1.5,8.18,1.35,12.36-.08,2.44-.41,4.88-.6,7.32-.3,3.88-.87,7.75-1,11.65-.18,5.62-.33,11.24.13,16.84.08,1,.12,1.99.11,3-.03,3,.08,6.01,0,9.01-.05,1.75.54,3.41.5,5.13-.08,3.48.74,6.84,1.33,10.23.42,2.41,1.19,4.76,1.22,7.23,0,.49.16.98.29,1.46.03.12.26.26.39.26.13,0,.32-.16.37-.29.22-.54.1-1.1.01-1.65-.15-.88-.41-1.74-.5-2.62-.68-6.42-1.35-12.84-1.97-19.27-.17-1.78-.05-3.56.54-5.29.31-.91.37-1.86.4-2.81.15-3.84.2-7.68.51-11.51.52-6.33,1.45-12.63,3-18.84.8-3.21,1.4-6.45,1.55-9.75.17-3.72.03-7.45.41-11.18.45-4.43,1.8-8.64,3.29-12.82.61-1.71,1-3.44,1.33-5.19.06-.35.28-.88-.24-1.03ZM170.6,358.93c-.39-.68.11-.97.51-1.3-.05.44.09.94-.51,1.3Z"/>
      <path d="M103.69,280.48c-.28-.1-.51-.25-.68-.49-.49-.7-.81-1.42-.9-2.29-.09-.83-.79-1.1-1.65-1.2-1.03-.12-.07.92-.91.98-.67-1.39-1.06-3.06-2.73-4.12-.17.82.15,1.41.42,1.99.79,1.73,1.34,3.53,1.79,5.36.14.58.03,1.07.85,1.13.4.03.68.37.53.72-.4.93.37,1.58.53,2.36.09.46.41.67.9.55.53-.12.79-.46.78-.97-.02-.52-.3-.94-.55-1.38-.78-1.4-1.39-2.87-1.85-4.42.82.84,1.81,1.55,2.02,2.79.09.53.36.93.95,1.08.25.44.59,1.04,1.11.83.65-.27.07-.85,0-1.29-.02-.1-.07-.2-.11-.3-.3.29-.58.6-.99.76.05-.51.34-.94.57-1.38.14.2.28.4.42.61,1-.83-.08-.94-.49-1.29ZM101.44,284.2c.08.06.2.1.24.18.03.07-.03.17-.06.26-.08-.06-.17-.11-.25-.17.02-.09.05-.18.07-.27Z"/>
      <path d="M107.62,80.87c.09,1.01-.34,1.87-.6,2.8-.29,1.06.08,2.29-.15,3.27.02.6.17.98.64,1.07.53.11.73-.3.88-.67.72-1.79.96-3.68,1.24-5.55.12-.79-.42-1.23-1.21-1.38-.41-.08-.82.08-.79.45Z"/>
      <path d="M131.55,362.34c-1.62-1.06.1-3.08-1.56-4.21-.22,1.62.28,3.14.62,4.7.34,1.56.36,3.18.54,4.77.25,2.22.69,3.85,1.34,4.59.03-1.79-.39-3.33-.59-4.9-.21-1.64-.05-3.32-.34-4.96Z"/>
      <path d="M165.48,331.46s.16-.31.12-.44c-.24-.85-.36-1.71-.39-2.59-.01-.36-.34-.57-.75-.53-.32.03-.53.25-.59.54-.04.21,0,.44-.03.66-.32,2.13.28,4.16.57,6.23.07.66.13,1.32.2,1.97.03.23.12.45.4.44.27-.01.47-.25.43-.45-.34-1.51.02-3.08-.47-4.58-.13-.41-1.02-1.31.5-1.25Z"/>
      <path d="M102.24,293.28c-1.02-2.94-.83-6.25-3.08-8.82,1.13,2.91.21,6.41,3.08,8.82Z"/>
      <path d="M144.15,442.02c.65-.21.77.38,1.43.49.1-.82.38-1.57-.82-1.7-.26-.03-.39-.21-.5-.41-.69-1.32-1.42-2.63-1.18-4.2.05-.35.1-.75-.45-1.03-.03,2.04-.57,3.93.1,5.82.26.72.52,1.31,1.41,1.02Z"/>
      <path d="M104.09,291.74c-.05-.62-.39-1.11-1.3-1.6.12,1.15.18,1.97.29,2.78.19,1.42.38,2.84.96,4.18.11.25.28.51.65.38.26-.09.3-.33.3-.55,0-.33.01-.67-.08-.99-.38-1.38-.69-2.78-.82-4.21Z"/>
      <path d="M122.94,294.32s0,0,.01,0c0,0,0,0,0-.01h0Z"/>
      <path d="M133.52,391.99c-.22,1.61-.75,3.22-.3,4.85.43,1.55.07,3.23.8,5.12.78-1.42.55-2.47.18-3.51-.47-1.34-.69-2.67-.31-4.08.22-.82.22-1.65-.37-2.37Z"/>
      <path d="M145.32,432.92c-1.06-.22-.56-1.37-1.56-2.14.67,3.16.24,5.99.21,8.9.79-.65,1.35-1.27.83-2.22-.14-.25-.16-.57.02-.8.88-1.11-.54-2.5.55-3.59.02-.02-.01-.14-.03-.15Z"/>
      <path d="M116.25,320.9c.25-.08.36-.34.29-.54-.38-1.24-.07-2.53-.29-3.77-.14-.79-.38-1.56-.79-2.23-.35.09-.44.26-.42.41.19,1.48.23,2.96.26,4.45,0,.43.18.86.32,1.28.09.26.24.53.62.41Z"/>
      <path d="M93.52,264.62c-.04.61-.01,1.1-.1,1.57-.2,1.04-1-.41-1.36.35.38,1.2.72,2.47,2.06,3.65.04-1.61-.04-2.94.24-4.24.14-.63-.16-1.03-.84-1.33Z"/>
      <path d="M127.76,400.26c-.23,3.36.04,6.09.89,7.77.35-2.81.45-5.25-.89-7.77Z"/>
      <path d="M130.61,414.62c.18-.46-.21-.58-.52-.69-.47-.17-.64.12-.68.5-.23,1.93.45,3.87-.12,5.68.04.46.07.88.51.87.52,0,.38-.44.39-.76.08-1.87-.3-3.76.43-5.59Z"/>
      <path d="M181.19,312.71c.19-.25,1.05-.21.48-.73-.31-.28-.45-.41-.43-.85.01-.3-.46-.55-.83-.42-.42,1.3.21,2.45.19,3.66-.01,1.26.03,1.26,1.83,1.55-.59-.83-.99-1.6-1.24-2.43-.08-.26-.2-.53,0-.78Z"/>
      <path d="M133.63,436.5c.15-2,.25-3.9-.11-6.11-1.04,1.95-.95,4.99.11,6.11Z"/>
      <path d="M137.48,362.37c-.6.12-.27.63-.17.97.38,1.33.84,2.64.72,4.06-.03.33.04.79.67.92-.03-.85-.01-1.67-.09-2.48-.09-.88-.25-1.74-.26-2.63,0-.45-.33-.95-.87-.84Z"/>
      <path d="M.87,50.3c.5-.01.46-.45.37-.75-.23-.82-.11-1.65-.11-2.48-.01-1.42-.13-2.83-.21-4.25-.11,0-.22,0-.32-.01-.05,1.06-.11,2.12-.16,3.19-.06,1.22.24,2.43.05,3.66-.04.26.03.65.38.64Z"/>
      <path d="M146.69,416.24c-.5,1.58-.39,3.15,0,4.75,1-2.73.97-3.89,0-4.75Z"/>
      <path d="M93.33,85.19c-.13.81-.32,1.63.44,2.4.45-.59.38-1.22.48-1.8.09-.49-.13-.96.04-1.48.35-1.09.3-1.11-.91-1.57.32.82.09,1.63-.05,2.44Z"/>
      <path d="M163.98,263.6c-.63-1.33-1.19-2.53-1.77-3.73-.19-.39-.38-.85-1.01-.64.18,1.22.95,2.24,1.27,3.42.16.57.63.99,1.51.95Z"/>
      <polygon points="161.19 259.23 161.18 259.24 161.19 259.24 161.19 259.23"/>
      <path d="M107.42,96.49c2.13-2.73,2.74-3.85,2.5-4.6-1.67,1.59-2.7,3.48-2.5,4.6Z"/>
      <path d="M145.93,414.75c.56-.6.54-1.19.78-1.69.28-.6-.13-1.08-.53-1.48-.3-.3-.68-.27-.79.18-.25.99-.23,1.96.55,2.99Z"/>
      <path d="M130.93,348.79c-.22,1.71.27,3.36.01,5.33,1.21-.99.69-1.95.62-2.79-.07-.86.05-1.8-.63-2.54Z"/>
      <path d="M97.76,287.04c.02.29.18.57.51.57.42,0,.37-.35.36-.6-.04-1.21-.12-2.41-1.03-3.41.16,1.15.06,2.3.16,3.44Z"/>
      <path d="M134.2,369.44c.18,1.73.36,3.6.55,5.47.47-.9-.22-4.84-.55-5.47Z"/>
      <path d="M149.36,252.13c.8,1.34.96,2.73,2.1,4.06-.12-1.79-.92-3.33-2.1-4.06Z"/>
      <polygon points="128.75 305.83 128.75 305.82 128.75 305.82 128.75 305.82 128.75 305.82 128.75 305.83"/>
      <path d="M128.75,305.83c.55,1.99,1.59,4.05,2.55,4.91-.66-1.83-1.18-3.56-2.55-4.91Z"/>
      <path d="M132.71,360.53c-.24,1.37-.02,2.52.35,3.65.44-1.29.29-2.6-.35-3.65Z"/>
      <polygon points="158.76 263.5 158.76 263.5 158.76 263.5 158.76 263.51 158.76 263.5"/>
      <path d="M159.42,264.41c.08.38-.13,1.14.49,1,.9-.2.17-.89.17-1.36,0-.16-.04-.33-.1-.48-.34-.87-.77-.59-1.22-.07-.55.79.57.5.66.91Z"/>
      <path d="M83.49,258.33c.68,1.22,1.41,2.28,1.55,3.56.32,0,.59-.09.6-.44.04-.83-1.13-2.59-2.15-3.12Z"/>
      <path d="M141.77,395c-.38,1.29-.6,2.58-.06,3.86.62-1.29.46-2.57.06-3.86Z"/>
      <path d="M158.74,296.96l.37,3.69c.13,0,.26,0,.39,0,.02-1.26.14-2.54-.76-3.68Z"/>
      <path d="M129.99,362.71c-.43,1.04-.78,2.07-.08,3.14.14-1.05.47-2.09.08-3.14Z"/>
      <path d="M132.59,380.44c-.21,1.18-.34,2.35.13,3.51.68-1.21.06-2.34-.13-3.51Z"/>
      <path d="M161.87,267.61c-.21,1.4.33,2.35,1.19,3.19h0c.11.18.2.4.49.27.04-.02.08-.1.06-.14-.11-.29-.34-.19-.55-.14-.15-1.09.08-2.3-1.2-3.18Z"/>
      <path d="M139.15,373.43c.2-.91.81-1.83-.15-2.68-.17.92-.55,1.84.15,2.68Z"/>
      <path d="M171.49,276.32s0,0,0,0c0,0,0,0,0,.01h0Z"/>
      <path d="M170.85,273.76c-.34.99-.08,1.82.63,2.55q.57-1.5-.63-2.55Z"/>
      <path d="M177.87,291.15c-.64-.02-.52-.65-.97-1.07-.05.75-.04,1.31.33,1.77.18.23.47.34.78.25.33-.09.45-.36.47-.65.03-.47-.34-.3-.61-.31Z"/>
      <path d="M85.19,263.21c-.06-.04-.28.01-.31.07-.41.8.39,1.15.7,1.69.02.03.1.02.36.06.04-.81-.11-1.41-.75-1.82Z"/>
      <path d="M172.4,277.79q.11,1.45.89,2.4c.06.51-.21.98-.27,1.47-.12.88,1.08.22,1.22.87.04.18.08.49.47.25.19-1.17-.18-2.15-1.09-2.97-.11-.78-.21-1.57-1.22-2.02Z"/>
      <path d="M141.21,355.67c-.1-1.25.09-2.55-.66-3.68-.31,1.32.27,2.48.66,3.68Z"/>
      <path d="M140.55,351.98s0,0,0,0c0,0,0-.01,0-.02,0,0,0-.01-.01-.02,0,0,0,.01,0,.02h0Z"/>
      <path d="M133.96,365.18c-.21.9-.24,1.78.23,2.61.6-.96-.14-1.74-.23-2.61Z"/>
      <path d="M145.76,248.14c.29.75.36,1.42.82,2.03.56-.38.33-.84.36-1.25,0,0,0,0,0,0-.33-.23-.38-.79-1.17-.77Z"/>
      <path d="M174.24,350.95c-.27.74-.68,1.44-.39,2.28.61-.69.87-1.44.39-2.28Z"/>
      <path d="M175.93,286.59c-.42.08-.36.52-.23.81.15.36.12.89.78.93.32-.39-.04-.72-.08-1.07-.03-.29.04-.77-.47-.67Z"/>
      <path d="M145.14,409.05c-.28-.8.81-1.8-.35-2.71-.17,1.05-.04,1.88.35,2.71Z"/>
      <path d="M95.48,270.36c-.05-.03-.25.04-.28.11-.3.66-.04,1.15.89,1.76-.16-.84.06-1.47-.6-1.87Z"/>
      <path d="M89,266.58c-.3-1-.68-1.61-1.53-2.34.19,1.13.48,1.79,1.53,2.34Z"/>
      <path d="M161.23,304.22c.4-.64.27-1.28.08-2.27-.5.96-.4,1.61-.08,2.27Z"/>
      <path d="M104.67,84.02c-.08-.12-.32-.28-.41-.25-.63.26-.45.77-.39,1.42.63-.34,1.21-.51.79-1.17Z"/>
      <path d="M98.08,257.9q.35,1.25,1.55,1.53c-.53-.61-.79-1.2-1.55-1.53Z"/>
      <path d="M166.44,268.5c-.5-1.02-.29-1.93-1.27-2.33l-.11.08c.1.78.19,1.57,1.38,2.25Z"/>
      <path d="M131.67,308.49q-.19-1.4-.97-2.04c.07.79.33,1.4.97,2.04Z"/>
      <path d="M105.92,98.99c.68-.17.57-.73.64-1.2,0-.04-.05-.09-.16-.25-.61.32-.83.72-.73,1.27.01.08.18.2.25.18Z"/>
      <path d="M162.32,65.2c-.3.07-.53.21-.53.53,0,.33.26.45.57.44.33-.02.51-.22.51-.52,0-.32-.21-.46-.55-.44Z"/>
      <path d="M113.73,86.43c.7.15,1.05-.23,1.37-.94-.74-.04-1.26.07-1.5.69-.03.07.06.24.13.26Z"/>
      <path d="M172.94,352.28c-.69,1.21-.69,1.21.31,1.76-.12-.55.1-1.17-.31-1.76Z"/>
      <path d="M168.46,271.26s0,0,.01,0c0,0,0,0,0,0,0,0,0,0-.01,0,0,0,0,0,0,0Z"/>
      <polygon points="168.48 271.26 168.48 271.26 168.48 271.26 168.48 271.26"/>
      <path d="M167.6,271.55c-.08.44.16.82.69.93.44-.38.16-.82.17-1.22-.32.02-.78-.13-.86.29Z"/>
      <path d="M132.83,385.27c-.27.47-.34.89.12,1.35q.22-.76-.12-1.35Z"/>
      <path d="M133.01,61.5c-.6.62-1.13,1.07-1.4,1.89,1.15-.78,1.14-.79,1.4-1.89Z"/>
      <path d="M159.97,261.26c.1.65.34,1.15.75,1.78q.04-1.25-.75-1.78Z"/>
      <path d="M129.3,66.06c-.59.64-1,1-1.02,1.62.52-.31,1-.65,1.02-1.62Z"/>
      <path d="M132.97,344.94c-.06-.03-.26.08-.28.14-.09.45.26.69.66,1.15.16-.65.15-1.06-.38-1.29Z"/>
      <path d="M96.94,269.92c-.33-.51-.42-1.17-1.05-1.46.19.6.23,1.27,1.05,1.46Z"/>
      <path d="M90.58,21.62c-.06.8.27,1.28.63,1.75,0-.58.05-1.18-.63-1.75Z"/>
      <path d="M179.7,303.61c.23-.54.14-.94-.39-1.45-.19.64-.21,1.07.39,1.45Z"/>
      <path d="M161.94,315.75c-.27.08-.29.3-.29.51,0,.21.02.51.26.53.43.04.35-.32.35-.57,0-.2-.03-.42-.32-.47Z"/>
      <path d="M128.87,302.17c-.18-.59-.38-1.16-.93-1.51.09.65.32,1.21.93,1.51Z"/>
      <path d="M133.52,391.96s0,.01,0,.02h0s0,0,0,0c0,0,0-.01,0-.02,0,0,0,0,0,0Z"/>
      <path d="M133.31,389.9c-.37.94-.24,1.53.21,2.07.06-.61.41-1.27-.21-2.07Z"/>
      <path d="M122.94,294.32s0,0,0,0c0,0,0,0,0,0,0,0,0,0,0,.01Z"/>
      <path d="M121.97,292.48c.03.95.45,1.41.97,1.83.17-.76-.13-1.29-.97-1.83Z"/>
      <path d="M146.05,263.35c.03.42.1.84.66,1,.17-.47-.05-.82-.4-1.11-.1-.08-.27,0-.26.11Z"/>
      <path d="M142.94,373.74c-.04-.06-.26-.1-.29-.07-.32.35-.25.69.11,1.11.34-.42.38-.73.18-1.04Z"/>
      <path d="M94.71,89.42c.41-.52.37-.94.17-1.63-.29.62-.52,1.01-.17,1.63Z"/>
      <path d="M160.59,266.3c-.19.02-.33.12-.35.29-.08.51.43.4.69.51.22.08.26-.13.22-.29-.07-.27-.23-.48-.56-.51Z"/>
      <path d="M102.52,81.03c.05.04.1.09.14.09.05,0,.12-.05.13-.09.09-.45.35-.91.06-1.45-.51.49-.4.97-.33,1.44Z"/>
      <path d="M143.24,443.17c-.16.5-.45,1,.1,1.46.09-.54.23-1.02-.1-1.46Z"/>
      <path d="M125.87,296.36c-.17-.35-.27-.79-.86-1.1-.03.56.21.88.43,1.2.1.15.28.19.43-.1Z"/>
      <path d="M132.29,313.61c.15-.61.06-1.01-.53-1.58-.08.77.1,1.15.53,1.58Z"/>
      <path d="M174.66,389.35c-.07-.1-.17-.34-.25-.33-.41.03-.37.36-.35.62.01.14.16.39.23.39.42-.03.34-.36.38-.68Z"/>
      <path d="M86.06,259.19c-.05.17-.09.23-.08.27.07.34.23.63.56.79.06.03.25-.06.26-.12.06-.3-.14-.52-.35-.71-.08-.07-.19-.11-.4-.23Z"/>
      <path d="M178.96,312.06c-.01-.16-.05-.35-.24-.37-.2-.02-.28.15-.29.32,0,.21.01.46.32.43.19-.02.21-.22.21-.38Z"/>
      <path d="M137.66,434.74c-.32-.18-.52.13-.6.41-.07.26-.11.53-.16.79.22-.16.48-.3.66-.5.17-.19.44-.51.1-.7Z"/>
      <path d="M139.46,432.02c-.08.08-.21.14-.22.21-.03.27-.2.79.26.67.4-.1.28-.59-.04-.88Z"/>
      <path d="M135.41,356.02c.36-.39.45-.74.06-1.22-.39.42-.36.79-.06,1.22Z"/>
      <path d="M174.82,348.84c-.61.21-1.03.27-1.3.84.56-.08,1.01-.08,1.3-.84Z"/>
      <path d="M132.73,377.1c.33,0,.3-.27.25-.48-.04-.16-.14-.29-.36-.28-.19.08-.24.26-.18.41.05.14.19.35.29.35Z"/>
      <path d="M94.58,29.31c0-.6.07-1-.48-1.35-.18.52-.19.91.48,1.35Z"/>
      <path d="M85.02,261.88s0,0,.01,0h0s0,0,0,0h0s0,0,0,0c0,0,0,0,0-.01,0,0,0,0,0,0,0,0,0,0,0,0Z"/>
      <path d="M83.84,261.7c-.05.04-.06.24,0,.29.43.41.81.17,1.19-.1-.36-.23-.71-.58-1.18-.19Z"/>
      <path d="M169.74,286.66c-.31-.05-.35.21-.34.41.01.13.12.35.22.37.3.04.33-.2.36-.47-.06-.08-.13-.29-.24-.3Z"/>
      <path d="M100,275.06c.18-.1.17-.25.11-.41-.08-.19-.19-.43-.43-.41-.32.03-.24.29-.16.47.09.19.21.37.48.34Z"/>
      <path d="M102.35,288.73c-.18.08-.22.23-.17.37.03.08.13.19.21.2.2.02.27-.13.26-.3-.01-.16-.1-.28-.3-.28Z"/>
      <path d="M133.61,312.75c.06-.34-.03-.65-.53-.84-.07.44.03.68.25.88.1.09.26.07.28-.04Z"/>
      <path d="M182.62,321.28c.18-.55.18-.98-.18-1.51-.16.59-.1,1.01.18,1.51Z"/>
      <path d="M165.45,344.79c-.17.1-.21.25-.15.41.06.17.19.28.38.21.19-.07.21-.24.15-.4-.06-.16-.18-.26-.38-.22Z"/>
      <path d="M185.54,355.27c-.25.12-.29.33-.25.56.03.19.18.32.36.19.12-.09.17-.28.19-.44.02-.16-.07-.31-.29-.31Z"/>
      <path d="M141.13,389.82c.2,0,.24-.17.23-.29-.04-.21-.13-.33-.33-.27-.07.02-.15.15-.16.24-.01.16.06.32.25.32Z"/>
      <path d="M141.71,398.89s0,0,0-.01c0,0,0-.01,0-.02,0,0,0,0,0,0,0,0,0,.01,0,.02Z"/>
      <path d="M142,400.63c-.09-.58-.19-1.16-.28-1.74-.35.64-.36,1.23.28,1.74Z"/>
      <path d="M144.09,401.27c.01.12.17.15.28.07.29-.23.44-.49.19-.83-.35.16-.5.43-.47.76Z"/>
      <path d="M128.91,410.03c.36-.16.13-.63-.23-.88-.06.09-.17.19-.15.25.06.26-.08.83.38.62Z"/>
      <path d="M120.78,290.52c.17.54.34,1.07.51,1.61.6-.77.58-.82-.51-1.61Z"/>
      <polygon points="121.3 292.14 121.3 292.13 121.29 292.14 121.3 292.14"/>
      <path d="M98.28,271.42c-.15-.17-.29-.5-.65-.21.19.34.31.71.74.84.15-.25.05-.46-.09-.63Z"/>
      <path d="M157.43,266.19c-.07-.09-.16-.29-.27-.31-.32-.04-.31.24-.33.44-.02.17.05.35.24.36.3.02.36-.2.36-.49Z"/>
      <path d="M141.72,254.8c-.02.07.04.24.09.25.28.04.36-.17.44-.36-.04-.09-.06-.24-.11-.25-.29-.06-.36.17-.42.36Z"/>
      <path d="M108.84,294.84c-.15-.02-.27.05-.22.17.08.2.21.38.35.55.09.1.27.07.28-.04.03-.3-.15-.52-.4-.68Z"/>
      <path d="M175.57,293.93c0,.16.09.29.29.31.06-.08.17-.15.17-.23,0-.16-.08-.31-.28-.3-.07,0-.17.14-.17.22Z"/>
      <path d="M178.09,293.98c-.26.1-.18.57.16.79.05-.09.16-.19.14-.27-.04-.21.12-.69-.3-.52Z"/>
      <path d="M104.18,281.77h0s0,0,0,.01c0,0,0,0,0,0h0s0,0,0,0c0,0,0,0,0,0,0,0,0,0,0,0Z"/>
      <path d="M167.11,337.3c.19-.44.13-.77-.12-1.21-.18.49-.19.83.12,1.21Z"/>
      <path d="M148.08,266.27c0,.16.09.28.29.28.05-.08.15-.16.15-.24,0-.16-.1-.3-.29-.27-.06.01-.15.15-.14.23Z"/>
      <path d="M132.72,310.36c-.04-.22-.13-.41-.4-.41-.05,0-.14.17-.13.25.03.21.12.42.39.41.04,0,.09-.17.13-.26Z"/>
      <path d="M171.49,276.32s0,0,0,0c0,0,.01,0,.02,0,0,0,0-.01,0-.02Z"/>
      <path d="M172.25,276.98c.11-.14-.01-.31-.16-.39-.19-.1-.39-.17-.59-.26.07.19.12.4.23.57.12.19.33.33.53.07Z"/>
      <path d="M133.9,103.05c-.08.03-.2.15-.2.21.04.26.26.3.49.25.17-.04.28-.15.27-.34-.14-.23-.36-.2-.57-.13Z"/>
      <path d="M160.22,69.75c-.25-.04-.45.41-.28.76.1-.05.24-.08.27-.14.08-.21.43-.56.02-.62Z"/>
      <path d="M133.72,422.18c.22.45.63.58,1.12.55-.09-.69-.55-.72-1.12-.55Z"/>
      <polygon points="134.84 422.73 134.84 422.74 134.84 422.73 134.84 422.73 134.84 422.73"/>
      <path d="M135.47,348.38c0-.3.04-.63-.54-.81.12.36.2.64.32.9.05.1.21.05.21-.09Z"/>
      <path d="M22.59,10.71c-.57.18-.59.61-.67,1h0c.31-.26.73-.46.67-1Z"/>
      <path d="M117.43,82.41c.08,0,.15-.12.22-.19.05-.12,0-.22-.12-.21-.09,0-.22.05-.26.12-.1.15-.04.29.17.28Z"/>
      <path d="M147.39,424.51s-.07.13-.06.14c.07.07.16.11.24.17.03-.09.07-.18.1-.27-.08-.11-.18-.13-.28-.03Z"/>
      <path d="M132.25,342.63c-.08,0-.15.26-.17.4-.01.08.08.25.14.26.24.03.23-.17.26-.32-.02-.15,0-.36-.22-.34Z"/>
      <path d="M127.22,298.81c-.09-.1-.18-.3-.3-.32-.24-.04-.23.17-.16.29.07.12.22.21.33.31.04-.09.07-.17.12-.29Z"/>
      <path d="M180.63,309.66c.05-.06.15-.14.16-.22.02-.15-.02-.33-.26-.25-.07.03-.11.17-.13.27-.02.13.06.2.22.2Z"/>
      <path d="M132.67,315.14c.03.08.15.2.21.2.25-.03.17-.2.11-.33-.06-.13-.1-.29-.38-.29.01.15,0,.29.05.42Z"/>
      <path d="M179.04,315.18c-.13-.03-.22.03-.23.16-.01.13.07.19.2.19.14-.03.19-.11.14-.24-.02-.04-.06-.1-.11-.11Z"/>
      <path d="M181.49,323.89s.09.1.1.1c.08-.05.15-.11.22-.17-.07-.06-.14-.12-.2-.17-.04.08-.09.16-.11.24Z"/>
      <path d="M181.95,325.16c-.08.05-.21.07-.24.14-.07.14-.08.32.15.33.06,0,.13-.13.2-.21-.04-.09-.07-.18-.11-.27Z"/>
      <path d="M134.64,330.63s.07.1.11.11c.13.03.22-.03.24-.16,0-.13-.07-.21-.21-.19-.14.02-.2.12-.15.24Z"/>
      <path d="M101.73,80.42c0,.15.04.41.12.44.25.08.22-.16.2-.28-.02-.15-.1-.29-.16-.47-.08.14-.17.23-.16.32Z"/>
      <path d="M181.8,326.82c.03.16.11.29.3.28.04,0,.11-.17.09-.25-.02-.08-.12-.14-.19-.21-.07.06-.13.12-.2.18Z"/>
      <path d="M170.3,333.29c0,.07.08.16.12.24.07-.06.14-.12.19-.2.01-.02-.04-.1-.08-.12-.11-.07-.23-.04-.24.08Z"/>
      <path d="M144.66,260.98c.04.16.13.28.32.26.05,0,.12-.16.11-.24-.02-.15-.13-.28-.32-.26-.05,0-.08.16-.11.24Z"/>
      <path d="M165.2,265.84c0-.23-.06-.51-.36-.39-.29.11-.13.37,0,.55.06.09.15.17.23.25,0,0,.11-.08.1-.08.01-.11.03-.22.03-.33Z"/>
      <path d="M134.27,348.78c-.04-.22-.12-.37-.33-.33-.06.01-.12.18-.12.28,0,.16.02.37.23.37.2,0,.23-.2.22-.32Z"/>
      <path d="M94.43,90.42c-.08.13-.19.25-.22.39-.03.14,0,.34.23.2.11-.07.16-.25.2-.4.01-.04-.12-.11-.21-.19Z"/>
      <path d="M108.94,70.15c.07-.13.11-.29.11-.43,0-.12-.11-.16-.23-.1-.15.17-.24.36-.14.56.05.1.2.09.26-.03Z"/>
      <path d="M91.33,24.64c.01.09.06.21.13.25.11.05.21-.04.19-.17-.01-.09-.09-.17-.13-.25-.13-.02-.22.05-.19.18Z"/>
      <path d="M159.39,270.42c-.08-.05-.16-.11-.25-.16-.03.09-.11.2-.08.28.03.07.15.12.24.17.03-.1.06-.19.09-.29Z"/>
      <path d="M102.64,263.8s.12-.04.13-.07c.06-.18-.06-.3-.19-.4-.08-.06-.18-.11-.27-.16.01.1.02.2.04.3.03.16.09.31.29.33Z"/>
      <path d="M102.31,263.17s0-.01,0-.02h0s0,.01.01.02Z"/>
      <path d="M105.05,284.19c-.07.05-.12.12-.18.18.08.04.16.07.24.11.12-.06.15-.14.07-.23-.03-.03-.11-.07-.13-.06Z"/>
      <path d="M139.62,375.81c0-.13-.07-.19-.21-.18-.05.08-.14.17-.13.25.02.13.14.15.26.07.04-.03.07-.09.08-.13Z"/>
      <path d="M155.36,262.86c.12.05.19,0,.22-.11-.06-.07-.11-.13-.17-.2-.05.07-.1.13-.13.21,0,.02.05.09.09.1Z"/>
      <path d="M143.69,389.6c-.03-.07-.15-.12-.24-.17-.03.1-.1.2-.08.29.02.07.15.11.23.17.03-.09.11-.2.08-.28Z"/>
      <path d="M127.77,398.32c-.03-.1-.02-.22-.08-.28-.1-.09-.23-.03-.24.11,0,.09.01.23.08.28.1.09.2.02.24-.11Z"/>
      <path d="M164.46,269.59c0-.07-.08-.15-.13-.22-.06.06-.13.12-.18.19-.01.02.04.09.08.11.11.07.22.04.23-.08Z"/>
      <path d="M136.09,359.43c-.06.04-.07.18-.07.28,0,.14.09.22.19.16.06-.04.05-.18.08-.28,0-.14-.1-.23-.19-.16Z"/>
      <path d="M139.34,418.52c.14-.03.2-.11.15-.24-.02-.04-.09-.08-.13-.08-.14.02-.2.11-.15.23.02.04.08.06.13.08Z"/>
      <path d="M153.09,256.66s-.1.06-.11.1c-.03.13.04.21.18.2.04,0,.08-.06.11-.1.02-.14-.04-.21-.18-.2Z"/>
      <path d="M173.58,285.14c-.06.05-.06.19-.06.29,0,.14.1.22.19.15.06-.05.05-.19.07-.28-.01-.14-.1-.22-.19-.16Z"/>
      <path d="M140.24,351.1c-.09.36.07.62.3.86-.08-.29.2-.69-.3-.86Z"/>
      <path d="M181.45,317.6s0-.1-.01-.15c-.09-.1-.18-.11-.26,0-.02.03-.01.11.02.15.07.11.18.11.26,0Z"/>
      <path d="M148.01,431.23c-.02.13.06.2.2.16.04-.01.06-.08.09-.12,0-.13-.06-.2-.2-.16-.04,0-.08.08-.09.12Z"/>
      <path d="M139.59,434.39c.07-.06.14-.12.2-.19.01-.02-.05-.12-.06-.11-.09.01-.17.05-.25.07.04.08.08.15.12.23Z"/>
      <path d="M101.81,262.62s-.1.09-.1.1c.09.12.17.25.29.34.07.06.19.07.29.1-.04-.09-.06-.2-.12-.27-.1-.11-.24-.19-.36-.27Z"/>
      <path d="M102.3,263.17s0-.01,0-.01c0,0,0,0-.01,0,0,0,0,0,0,.01Z"/>
      <path d="M143.88,446.02s.01-.11-.02-.13c-.1-.09-.2-.08-.27.04-.02.04-.02.11,0,.14.1.09.19.08.28-.04Z"/>
      <path d="M129.75,368.06c-.07.06-.09.2-.08.29,0,.13.13.19.22.11.07-.06.06-.19.09-.29-.03-.13-.14-.19-.23-.11Z"/>
      <path d="M99.23,288.73s-.12.04-.13.07c-.06.12-.01.2.12.23.05-.03.12-.04.14-.08.06-.12.01-.21-.12-.23Z"/>
      <path d="M163.89,326.04s.12-.02.15-.05c.09-.1.06-.2-.06-.27-.05.02-.12.02-.15.05-.09.1-.07.21.06.27Z"/>
      <path d="M144.8,244.44c.02.09.12.18.21.22.12.04.2-.04.2-.17-.05-.16-.12-.3-.32-.3-.03,0-.11.18-.09.25Z"/>
      <path d="M73.02,72.56c-.06-.14-.16-.35-.27-.37-.32-.05-.33.22-.35.44-.01.16,0,.32.02.48.23-.02.46-.05.69-.07-.02-.16-.02-.33-.08-.48Z"/>
      <path d="M56.21,52.69c-.23.95-.32,1.76-.03,2.58.27.73.85.66,1.44.52.66-.16.79-.64.59-1.17-.33-.87-.93-1.51-2-1.92Z"/>
      <path d="M73.01,49.33c-.27-.93.62-1.8.16-3.03-1.14,2-.89,3.84-.66,5.68.59-.83.78-1.7.51-2.65Z"/>
      <path d="M63.55,84.67c-.39-1.2-1.09-2.18-1.95-3.41-.18,2.33-.07,2.5,1.95,3.41Z"/>
      <path d="M72.27,57.77c-.6.93-.88,1.88-.52,3.16.93-1.12.82-2.14.52-3.16Z"/>
      <path d="M77.6,49.65c-.47,1.07-.33,2.09.11,3.1.5-1.05.3-2.08-.11-3.1Z"/>
      <path d="M79.5,53.83c-.6,1.44-.6,2.11-.03,3.02.1-1.09.33-2.04.03-3.02Z"/>
      <path d="M60.56,28.56c-.94-.99-1.65-1.74-2.36-2.48.18,1.27.78,1.88,2.36,2.48Z"/>
      <path d="M64.65,88.02c.19.13.45.17.65.02.27-.21.21-.49.06-.74-.53-.87-1.2-.63-1.9-.19.39.31.78.63,1.19.92Z"/>
      <polygon points="63.46 87.1 63.45 87.09 63.45 87.09 63.45 87.09 63.45 87.09 63.45 87.09 63.45 87.1 63.46 87.1 63.46 87.1"/>
      <path d="M77.47,62.24c.16,1.13-.76,2.17-.35,3.55.49-1.3,1.06-2.37.35-3.55Z"/>
      <path d="M83.76,60.81c-.27.94-.45,1.88-.03,3.14.45-1.26.29-2.2.03-3.14Z"/>
      <path d="M75.81,79.6c.44-.47.88-.93,1.59-1.68-1.24.25-1.63.75-1.59,1.68Z"/>
      <path d="M58.87,80.16c-.66-.77-.83-1.49-1.53-1.89-.27.42-.04.73-.03,1.05.46.14.66.7,1.56.84Z"/>
      <path d="M54.79,50.16c-.32.67-.12,1.05.43,1.28.07.03.27-.05.28-.11.12-.43-.3-.66-.45-1-.02-.04-.09-.06-.26-.18Z"/>
      <path d="M71.93,61.59c.27.4.8.55.97,1.15q.06-1.37-.97-1.15Z"/>
      <path d="M60.61,48.93c.24.57.48,1.14.72,1.72.17-.7-.02-1.28-.72-1.72Z"/>
      <path d="M72.09,56.88c.46-.81.37-1.35.09-1.89-.2.53-.36,1.05-.09,1.89Z"/>
      <path d="M80.44,60.41c.04-.63.08-1.26.12-1.89-.81.55-.59,1.21-.12,1.89Z"/>
      <path d="M80.56,58.51s0,0,0,.01c0,0,0,0,.01,0,0,0,0,0,0-.01,0,0,0,0,0,0h0Z"/>
      <path d="M81.5,78.41c-.27.69-.15,1.14.06,1.84.39-.75.48-1.22-.06-1.84Z"/>
      <path d="M53.38,49.31c-.09.6.1.93.59,1.39-.02-.63.04-1.06-.59-1.39Z"/>
      <path d="M61.16,29.46c-.21,0-.32.12-.31.3,0,.23.1.44.36.48.2.03.31-.13.31-.31,0-.23-.1-.41-.36-.48Z"/>
      <path d="M77.91,73.15c.22-.14.2-.39.16-.61-.03-.15-.12-.29-.18-.43-.09.03-.17.03-.2.07-.17.24-.24.51-.17.79.04.18.21.31.39.19Z"/>
      <path d="M81.76,74.31c-.11.07-.16.26-.18.41-.02.15.07.34.26.3.26-.06.27-.29.26-.51-.05-.17-.17-.31-.34-.2Z"/>
      <path d="M81.69,77.43c.46-.29.42-.62.16-1-.36.3-.47.61-.16,1Z"/>
      <path d="M72.55,70.27c-.24.1-.29.31-.23.53.02.07.15.1.23.16.24-.12.29-.32.22-.54-.02-.07-.18-.17-.23-.15Z"/>
      <path d="M78.03,80.45c.19.04.25-.14.25-.36-.07-.08-.14-.27-.26-.29-.21-.05-.26.15-.22.3.03.13.12.33.23.35Z"/>
      <path d="M82.05,71.94c-.21-.06-.27.1-.3.26.05.08.08.22.15.24.22.06.29-.1.29-.26,0-.09-.07-.23-.14-.25Z"/>
      <path d="M80.63,57.63s-.24-.03-.26.01c-.18.33.07.59.2.86.15-.28.32-.57.07-.87Z"/>
      <path d="M74.8,86.29h0s0,.01,0,.01c0,0,0,0,0-.01Z"/>
      <path d="M75.47,87.41c-.09-.52-.36-.82-.66-1.11.09.39,0,.86.66,1.11Z"/>
      <path d="M70.86,38.11c.14-.13.13-.28.06-.43-.06-.13-.18-.15-.24-.04-.05.08-.04.2-.03.31,0,.13.09.19.21.17Z"/>
      <path d="M60.07,42.82c.14-.01.19-.1.15-.23-.04-.03-.09-.08-.13-.08-.14.02-.2.11-.15.23.02.04.09.08.13.08Z"/>
      <path d="M77.51,67.49c.14,0,.17-.1.1-.22-.09-.05-.17-.13-.26-.14-.14,0-.19.11-.09.21.06.07.17.14.26.14Z"/>
      <path d="M80.32,62.3c-.01-.12-.13-.15-.23-.08-.04.03-.07.08-.07.13-.02.12.05.19.18.18.05-.08.14-.16.13-.23Z"/>
      <path d="M60.4,55.62c.11.03.18-.08.13-.21-.04-.09-.11-.15-.17-.23-.13.01-.19.09-.13.21.04.09.1.2.18.22Z"/>
      <path d="M61.96,51.72s-.1.06-.11.1c-.03.13.04.21.18.2.04,0,.1-.06.11-.1.03-.13-.04-.2-.18-.21Z"/>
      <path d="M9.3,63.34c-.22-.71.05-1.53-.78-2.11.12.73.25,1.47.37,2.2.14-.03.28-.06.41-.09Z"/>
      <path d="M10.29,58.19c.04.66-.32,1.43.49,2.05q.09-1.1-.49-2.05Z"/>
      <path d="M11.77,68.66c-.12.39-.09.73.42.87.27-.39.19-.71-.15-.98-.04-.03-.25.05-.27.11Z"/>
      <path d="M12.28,77.21c.08-.39-.14-.75-.66-1.27.06.63.1.95.13,1.27.19.07.47.31.53,0Z"/>
      <path d="M11.75,77.21s0,0-.01,0h0s0,0,0,0c0,0,0,0,.01.01h0Z"/>
      <path d="M11.51,66.89c.07.1.21.09.26-.02.14-.31.11-.6-.31-.86-.11.33-.14.61.05.88Z"/>
      <path d="M16.02,75.53s.09-.16.14-.24c-.04-.2-.05-.43-.33-.46-.04,0-.15.15-.14.23.03.2.08.42.34.47Z"/>
      <path d="M13.59,76.75c.17.04.33-.02.24-.23-.03-.07-.17-.1-.25-.15-.07.06-.19.14-.18.18.02.08.11.18.19.2Z"/>
      <path d="M109.78,107.2c.69-1.17,1.91-2.24,1.68-3.81-1.48,2.44-3.7,4.52-4.06,7.48,1.34-.94,1.65-2.43,2.38-3.67Z"/>
      <path d="M118.63,92.33c-.18.23-.09.57.15.76.31.24.52-.02.72-.23.81-.82,1.53-1.69,1.67-3.04-1.41.48-1.85,1.61-2.54,2.51Z"/>
      <path d="M122.27,90.04c-.16.58.23.86.98,1.26-.19-.68-.1-1.19-.71-1.4-.07-.02-.25.07-.27.14Z"/>
      <path d="M123.85,89.53c.19.01.29-.11.32-.28-.01-.19-.12-.29-.32-.24-.09.02-.19.12-.22.2-.06.17.03.31.22.32Z"/>
      <path d="M59.25,90.57c.15-.27.74-.22.62-.65-.1-.33-.49-.46-.83-.44-.42.02-.37.34-.29.59.07.23.07.56.51.5Z"/>
      <path d="M57.56,87.88c.06-.23-.09-.38-.27-.5-.13-.03-.24.02-.21.14.04.14.13.27.23.38.04.04.25,0,.26-.02Z"/>
      <path d="M61.9,93.71c.05-.09.14-.17.14-.26,0-.13-.12-.17-.23-.08-.07.06-.15.17-.15.25,0,.13.11.16.24.08Z"/>
      <path d="M63.17,92.83c.13.06.25-.01.23-.14-.01-.08-.11-.17-.19-.21-.12-.05-.21.02-.24.14.07.07.12.17.2.21Z"/>
      <path d="M46.68,73s0,0,0,.01h0s0,0,0,0c0,0,0,0,.01,0,0,0,0-.01,0-.02Z"/>
      <path d="M46.73,72.2c-.19,0-.22.21-.19.36.03.15.09.29.14.44.07-.14.15-.28.2-.43.04-.15.05-.37-.15-.37Z"/>
      <path d="M151.7,67.76c-.18.03-.37.22-.26.34.65.68,0,1.47.31,2.43.63-.87.68-1.63.6-2.38-.03-.29-.32-.44-.65-.39Z"/>
      <path d="M150.74,71.37c.34-.67.08-1.03-.16-1.51-.33.54-.25.92.16,1.51Z"/>
      <polygon points="148.56 74.15 148.57 74.14 148.57 74.14 148.56 74.15"/>
      <path d="M148.57,74.14c-.03.16-.11.34-.06.47.07.21.28.15.39.02.22-.23.56-.42.4-.82-.34-.08-.5.2-.74.32Z"/>
      <path d="M148.58,72.93c-.48.49-.31.85-.02,1.2,0-.37.24-.75.02-1.2Z"/>
      <path d="M148.56,74.15s0,0,0,0c0,0,0,0,0-.01,0,0,0,.01,0,.02Z"/>
      <path d="M84.81,86.48c-.16.17-.24.38-.15.59.05.11.21.09.26-.03.07-.14.12-.3.12-.45,0-.13-.11-.16-.24-.11Z"/>
      <path d="M54.23,108.61c-.38.04-.35.37-.36.62,0,.22.06.47.36.42.33-.06.41-.33.41-.62-.05-.23-.16-.45-.42-.42Z"/>
      <path d="M71.47,88.6c-.36.84-.25,1.4.35,2.25.17-.95.23-1.54-.35-2.25Z"/>
      <path d="M46.63,82.93c-.29.24-.29.54-.29.85.17-.25.6-.42.29-.85Z"/>
      <path d="M102.53,135.85c-.08.02-.16.12-.2.2-.06.12,0,.2.13.21.07-.07.16-.13.19-.21.06-.12-.01-.22-.13-.2Z"/>
      <path d="M89.17,82.54c.08-.04.15-.14.19-.23.05-.12-.01-.23-.14-.22-.19,0-.28.13-.28.31.08.05.19.16.23.14Z"/>
      <path d="M63.33,24.03c.06,0,.11-.16.17-.24-.08-.22-.19-.41-.47-.38-.07,0-.17.17-.16.24.04.23.19.4.47.38Z"/>
    </g>
  </g>
</svg>