<?xml version="1.0" encoding="UTF-8"?>
<svg id="Calque_2" data-name="Calque 2" xmlns="http://www.w3.org/2000/svg" viewBox="0 0 526.11 264.33">
  <defs>
    <style>
      .cls-1 {
        font-family: ClassicScriptMN-Regular, 'Classic Script MN';
        font-size: 32.15px;
      }

      .cls-2 {
        stroke-width: .26px;
      }

      .cls-2, .cls-3 {
        fill: none;
        stroke: #000;
        stroke-miterlimit: 10;
      }

      .cls-3 {
        stroke-width: .13px;
      }

      .cls-4 {
        letter-spacing: -.05em;
      }

      .cls-5 {
        letter-spacing: .01em;
      }

      .cls-6 {
        font-family: Amifer-Regular, Amifer;
        font-size: 16.07px;
      }
    </style>
  </defs>
  <g id="Calque_1-2" data-name="Calque 1">
    <g>
      <path d="M176.73,142.56l13.04-48.25h1.02l13.73,52.26c1.36,5.12,3.15,5.97,5.71,6.05v1.11h-15.52v-1.11h1.79c2.47,0,4.01-1.36,4.01-3.07,0-1.53-.51-4.09-1.45-7.5l-1.88-7.16h-16.88l-1.11,4.43c-.85,3.75-1.62,6.48-1.62,8.87,0,3.07,1.36,4.43,3.67,4.43h1.28v1.11h-12.36v-1.11c3.5-.26,4.86-3.5,6.56-10.06ZM196.94,133.78l-8.01-31.63-8.35,31.63h16.37Z"/>
      <path d="M237.86,149.98c-.85,0-1.53.6-2.39,1.36-2.22,1.79-4.6,3.15-7.67,3.15-9.21,0-17.31-11.68-17.31-29.92,0-19.61,8.61-30.01,16.71-30.01,4.09,0,6.73,2.13,9.29,4.43.77.6,1.36,1.19,1.96,1.19.85,0,1.28-1.62,1.96-5.8h.94l.51,22.68h-1.11c-1.96-15.09-7.59-21.74-13.47-21.74-8.18,0-12.02,10.74-12.02,28.9s3.84,29.5,12.53,29.5c6.39,0,9.38-5.97,9.38-11.68v-7.16c0-4.6-1.19-5.2-3.75-5.2h-1.45v-1.11h13.9v1.11h-.43c-3.07,0-4.35,1.02-4.35,5.2v19.69h-.68c-.85-3.41-1.62-4.6-2.56-4.6Z"/>
      <path d="M253.38,142.56l13.04-48.25h1.02l13.73,52.26c1.36,5.12,3.15,5.97,5.71,6.05v1.11h-15.52v-1.11h1.79c2.47,0,4.01-1.36,4.01-3.07,0-1.53-.51-4.09-1.45-7.5l-1.88-7.16h-16.88l-1.11,4.43c-.85,3.75-1.62,6.48-1.62,8.87,0,3.07,1.36,4.43,3.67,4.43h1.28v1.11h-12.36v-1.11c3.5-.26,4.86-3.5,6.56-10.06ZM273.58,133.78l-8.01-31.63-8.35,31.63h16.37Z"/>
      <path d="M292.25,152.62h2.39c2.81,0,4.01-.6,4.01-5.12v-50.98h-3.5c-9.12,0-9.72,6.99-10.74,21.14h-.85l.85-22.25h32.82l.68,22.25h-.85c-.77-13.98-1.62-21.14-10.74-21.14h-3.5v50.98c0,4.43,1.11,5.12,4.01,5.12h2.3v1.11h-16.88v-1.11Z"/>
      <path d="M321.07,152.62h1.71c2.9,0,3.92-.85,3.92-5.2v-45.7c0-4.43-1.02-5.2-3.92-5.2h-1.71v-1.11h30.61l.68,20.46h-.94c-.85-15.26-2.05-19.35-12.28-19.35h-4.09c-2.98,0-4.18.77-4.18,5.12v21.23h3.67c6.14,0,7.16-5.2,7.16-12.11h.94v26.09h-.94c0-7.08-.94-12.87-7.16-12.87h-3.67v23.53c0,4.26,1.19,5.12,4.18,5.12h4.86c9.8,0,11.85-6.65,12.62-21.14h.94l-1.02,22.25h-31.37v-1.11Z"/>
      <path d="M113.73,213.35h1.71c2.9,0,3.92-.85,3.92-5.2v-45.7c0-4.43-1.02-5.2-3.92-5.2h-1.71v-1.11h30.61l.68,20.46h-.94c-.85-15.26-2.05-19.35-12.28-19.35h-4.09c-2.98,0-4.18.77-4.18,5.12v21.23h3.67c6.14,0,7.16-5.2,7.16-12.11h.94v26.09h-.94c0-7.08-.94-12.87-7.16-12.87h-3.67v23.53c0,4.26,1.19,5.12,4.18,5.12h4.86c9.8,0,11.85-6.65,12.62-21.14h.94l-1.02,22.25h-31.37v-1.11Z"/>
      <path d="M156.53,213.35h2.39c2.81,0,4.01-.6,4.01-5.12v-50.98h-3.5c-9.12,0-9.72,6.99-10.74,21.14h-.85l.85-22.25h32.82l.68,22.25h-.85c-.77-13.98-1.62-21.14-10.74-21.14h-3.5v50.98c0,4.43,1.11,5.12,4.01,5.12h2.3v1.11h-16.88v-1.11Z"/>
      <path d="M185.6,213.35h1.7c2.9,0,3.92-.77,3.92-5.12v-45.87c0-4.35-1.02-5.12-3.92-5.12h-1.7v-1.11h15.43v1.11h-1.45c-2.98,0-4.18.77-4.18,5.12v45.87c0,4.35,1.19,5.12,4.18,5.12h1.45v1.11h-15.43v-1.11Z"/>
      <path d="M204.01,213.35h1.71c2.9,0,3.92-.68,3.92-5.12v-45.87c0-4.43-1.02-5.12-3.92-5.12h-1.71v-1.11h15.43v1.11h-1.53c-2.9,0-4.09.77-4.09,5.12v27.96l13.04-19.78c4.09-6.14,5.2-8.35,5.2-10.23,0-3.07-2.05-3.07-5.03-3.07h-.85v-1.11h14.83v1.11c-3.84,0-4.86,1.79-7.5,5.71l-11.77,17.56,14.58,27.54c1.71,3.24,2.9,5.29,5.97,5.29h1.02v1.11h-15.77v-1.11h1.71c1.96,0,3.07-.51,3.07-2.13,0-1.02-.43-2.13-.94-3.07l-12.36-23.7-5.2,7.67v16.11c0,4.26,1.19,5.12,4.09,5.12h1.53v1.11h-15.43v-1.11Z"/>
      <path d="M241.87,157.25v-1.11h14.24v1.11h-.85c-2.39,0-3.32.85-3.58,2.73-.17,1.11.34,4.26.77,6.05l9.04,40.24,8.27-34.78-1.53-7.42c-1.11-5.63-2.81-6.65-6.05-6.82v-1.11h15.26v1.11h-2.13c-2.64,0-3.24,1.45-3.24,3.15,0,1.53.17,2.9.77,5.54l9.04,40.5,9.12-37c.77-3.15,1.36-6.22,1.36-8.27,0-2.47-1.62-3.92-3.84-3.92h-1.36v-1.11h12.11v1.11c-3.58.85-4.43,2.73-5.97,8.61l-12.53,49.7h-1.02l-9.38-41.43-9.97,41.43h-1.02l-11.51-50.81c-1.28-5.97-1.88-7.33-5.97-7.5Z"/>
      <path d="M300.61,213.35h1.7c2.9,0,3.92-.85,3.92-5.2v-45.7c0-4.43-1.02-5.2-3.92-5.2h-1.7v-1.11h30.61l.68,20.46h-.94c-.85-15.26-2.05-19.35-12.28-19.35h-4.09c-2.98,0-4.18.77-4.18,5.12v21.23h3.67c6.14,0,7.16-5.2,7.16-12.11h.94v26.09h-.94c0-7.08-.94-12.87-7.16-12.87h-3.67v23.53c0,4.26,1.19,5.12,4.18,5.12h4.86c9.8,0,11.85-6.65,12.62-21.14h.94l-1.02,22.25h-31.37v-1.11Z"/>
      <path d="M342.04,203.29l13.04-48.25h1.02l13.73,52.26c1.36,5.12,3.15,5.97,5.71,6.05v1.11h-15.52v-1.11h1.79c2.47,0,4.01-1.36,4.01-3.07,0-1.53-.51-4.09-1.45-7.5l-1.88-7.16h-16.88l-1.11,4.43c-.85,3.75-1.62,6.48-1.62,8.87,0,3.07,1.36,4.43,3.67,4.43h1.28v1.11h-12.36v-1.11c3.5-.26,4.86-3.5,6.56-10.06ZM362.24,194.51l-8.01-31.63-8.35,31.63h16.37Z"/>
      <path d="M400.69,202.09c-1.53-15.18-3.75-15.43-9.55-15.43h-4.43v21.4c0,4.01,1.02,5.29,4.01,5.29h1.96v1.11h-15.77v-1.11h1.71c3.15,0,3.92-1.28,3.92-5.29v-45.7c0-4.01-.94-5.12-3.92-5.12h-1.71v-1.11h15.43c9.38-.17,15.77,4.94,15.77,14.49,0,7.84-3.67,13.13-11.17,15.43v.17c3.15,1.53,5.97,4.18,7.16,12.19,1.71,11.51,2.73,12.7,4.86,12.7,1.71,0,3.15-2.56,2.56-9.89h1.19c.77,9.89-1.88,13.98-4.94,13.98-3.58,0-6.05-2.9-7.08-13.13ZM403.42,170.81c0-4.94-.77-13.56-11.59-13.56h-.94c-2.98,0-4.18.85-4.18,4.94v23.36h6.74c8.27,0,9.97-8.7,9.97-14.75Z"/>
      <g>
        <g>
          <g>
            <path d="M258.29,37.14h5.78l1.39,4.87c.26.91.51,1.82.7,2.65.1-.02.19-.04.28-.06-.04-.29-.08-.61-.08-.9,0-1.13.55-2.69,1.39-4.11l-1.75-6.01c-.78.13-1.64.32-2.57.63-.05.02-.09.03-.14.05l.6,2.12h-4.69c-.33.24-.63.5-.91.75Z"/>
            <path d="M268.8,49.06s-.03-.03-.04-.05c-.28.04-.68.11-1,.18h-.04c-.8.16-1.61.42-2.42.77h4.65c-.45-.25-.84-.55-1.16-.9Z"/>
            <path d="M252.82,49.2h-.99c-1.74,0-2.72-.93-2.72-3.01,0-1.62.52-3.48,1.22-6.03l.81-3.01h2.6c.15-.25.33-.5.52-.75h-2.95l6.38-21.8,4.79,16.82c.89-.26,1.8-.48,2.71-.64l-6.16-21.23h-.75l-9.74,32.81c-1.33,4.46-2.32,6.67-4.93,6.84v.75h9.22v-.75Z"/>
          </g>
          <path d="M268.64,47.32c0-.15-.73-1.32-.78-1.32-.59,0-2.59.78-7.08.78-3.91,0-6.98-2.83-6.98-5.32s.59-4.1,2.98-6c2.93-2.34,7.86-3.91,12.11-3.91.2,0,.73.05.73.29,0,.29-.29.34-.49.34-1.37.1-3.42.1-6.05.98-5.03,1.71-8.25,5.17-8.25,8.25s3.12,4.78,6.1,4.78c4.34,0,6.74-.68,6.74-.83,0-.34-.2-1.12-.2-1.66,0-1.07.73-3.03,1.95-4.59,3.08-3.86,10.06-7.03,13.38-7.03,2.29,0,3.56.78,3.56,2.25,0,2.93-4.1,6.79-10.64,9.23-4.49,1.66-6.93,2.2-6.93,2.29,0,1.61.78,1.32.98,1.32,2.34,0,3.71.39,3.71,1.61,0,.44-.44.73-.88.73-1.12,0-2.34-.49-2.98-1.22-.2-.2-.29-.44-.54-.44-.29,0-1.12.15-1.56.24-6.49,1.22-13.43,8.69-13.43,14.16,0,1.76,2,3.51,5.42,3.51,6.1,0,14.35-4.93,14.35-9.37,0-2.1-1.37-2.69-3.51-2.69-1.42,0-4.64,1.03-7.47,3.12-3.27,2.39-5.42,4.98-5.71,5.52-.15.24-.24.49-.63.49-.1,0-.1-.1-.1-.2,0-1.56,8.54-9.52,13.91-9.52,2.64,0,4.15,1.12,4.15,3.12,0,5.57-9.18,10.11-14.3,10.11-5.47,0-7.66-2.29-7.66-7.08,0-2.15,1.76-5.71,5.52-8.15,3.27-2.1,8.25-3.61,10.15-3.71.15,0,.44.05.44-.1ZM268.93,45.12c0,.24.29,0,.54-.1,2.98-1.03,7.37-1.95,12.01-5.17,2.73-1.9,4.25-3.81,4.25-5.37,0-1.12-1.03-1.81-2.39-1.81-6.15,0-14.4,9.03-14.4,12.45ZM269.81,47.81c.83.98,3.08,1.37,3.08.78,0-.49-1.42-.83-2.54-.83-.2,0-.34,0-.54.05Z"/>
        </g>
        <ellipse class="cls-3" cx="264.05" cy="40.37" rx="26.32" ry="39.16"/>
        <ellipse class="cls-2" cx="264.05" cy="40.37" rx="27.05" ry="40.24"/>
      </g>
      <text class="cls-6" transform="translate(203.97 51.47)"><tspan x="0" y="0">20</tspan></text>
      <text class="cls-6" transform="translate(303.86 51.63)"><tspan class="cls-5" x="0" y="0">2</tspan><tspan x="9" y="0">5</tspan></text>
      <text class="cls-1" transform="translate(221.31 256.03)"><tspan class="cls-4" x="0" y="0">F</tspan><tspan x="20.06" y="0">or ladies</tspan></text>
    </g>
  </g>
</svg>