<?xml version="1.0" encoding="UTF-8"?>
<svg id="Calque_2" data-name="Calque 2" xmlns="http://www.w3.org/2000/svg" viewBox="0 0 659.65 277.45">
  <defs>
    <style>
      .cls-1 {
        fill: #fcfcfc;
      }
    </style>
  </defs>
  <g id="Calque_1-2" data-name="Calque 1">
    <g>
      <path d="M155.46,4.03h77.83v26.21h-49.01v21.77h45.29v25.8h-45.29v21.77h51.17v25.4h-79.98V4.03Z"/>
      <path d="M249.36,4.03h49.21c25.29,0,41.76,15.72,41.76,38.5,0,21.17-10.39,33.06-27.84,37.49l31.76,44.95h-36.07l-30-45.15v45.15h-28.82V4.03ZM301.31,56.44c6.47,0,10.78-6.85,10.78-13.91s-5.1-13.3-11.57-13.3h-22.35v27.21h23.13Z"/>
      <path d="M354.43,4.03h49.21c25.29,0,41.76,15.72,41.76,38.5,0,21.17-10.39,33.06-27.84,37.49l31.76,44.95h-36.07l-30-45.15v45.15h-28.82V4.03ZM406.38,56.44c6.47,0,10.78-6.85,10.78-13.91s-5.1-13.3-11.57-13.3h-22.35v27.21h23.13Z"/>
      <path d="M510.48,0h5.1l57.64,124.97h-30.97l-5.88-12.5h-46.46l-5.69,12.5h-30.97L510.48,0ZM536.35,112.48l-23.33-51.8h-.39l-13.72,30.64,37.44,21.16Z"/>
      <path d="M251.31,148.45c22.35,0,37.83,8.67,50.38,22.17l-19.8,19.35c-8.23-8.27-18.82-13.51-30.58-13.51-20.98,0-34.5,16.13-34.5,36.49s13.53,36.48,34.5,36.48c11.76,0,22.35-5.24,30.58-13.51l19.21,19.35c-11.76,12.7-28.04,22.17-49.79,22.17-37.25,0-63.71-28.42-63.71-64.5s26.47-64.5,63.71-64.5Z"/>
      <path d="M409.39,152.48l28.82,18.81v102.13h-28.82v-120.94Z"/>
      <path d="M517.92,148.45c22.35,0,37.83,8.67,50.38,22.17l-19.8,19.35c-8.23-8.27-18.82-13.51-30.58-13.51-20.98,0-34.5,16.13-34.5,36.49s13.53,36.48,34.5,36.48c11.76,0,22.35-5.24,30.58-13.51l19.21,19.35c-11.76,12.7-28.04,22.17-49.79,22.17-37.25,0-63.71-28.42-63.71-64.5s26.47-64.5,63.71-64.5Z"/>
      <path d="M607.7,237.95c0,7.05,5.49,12.7,12.15,12.7,7.25,0,11.76-4.23,11.76-10.48,0-9.07-11.57-11.69-21.17-15.12-19.8-7.26-30.78-16.73-30.78-37.49s17.84-39.1,39.99-39.1c26.07,0,38.42,17.13,39.99,39.51h-27.05c0-6.85-4.12-12.5-12.15-12.5-6.27,0-12.35,3.83-12.35,11.69,0,9.07,10.78,10.68,20.78,13.71,20.98,6.45,30.78,18.54,30.78,37.49,0,21.37-17.64,39.11-39.8,39.11-25.68,0-40.19-17.74-40.19-39.51h28.03Z"/>
      <polygon class="cls-1" points="101.36 121.7 101 121.34 116.6 106.25 116.96 106.61 101.36 121.7"/>
      <rect class="cls-1" x="92.45" y="104.69" width="1.54" height="20.7" transform="translate(-54.44 104.02) rotate(-46.71)"/>
      <rect class="cls-1" x="85.38" y="106.23" width=".52" height="1.3" transform="translate(-50.88 95.91) rotate(-46.7)"/>
      <polyline points="26.27 255.57 26.27 174.92 0 174.92 0 148.72 81.94 148.72 81.94 174.92 55.28 174.92 55.28 255.67 41.02 269.47"/>
      <polyline points="336.21 255.66 336.21 175.01 309.94 175.01 309.94 148.81 391.88 148.81 391.88 175.01 365.22 175.01 365.22 255.76 350.96 269.56"/>
      <polygon class="cls-1" points="41.29 269.72 41.27 269.74 41.01 269.48 41.02 269.47 41.1 269.54 41.29 269.72"/>
      <rect class="cls-1" x="335.32" y="254.36" width=".52" height="1.3" transform="translate(-80.16 324.35) rotate(-46.7)"/>
      <path d="M129.09,148.45h5.1l57.64,124.97h-30.97l-5.88-12.5h-46.46l-5.69,12.5h-30.97l57.24-124.97ZM154.97,260.92l-23.33-51.8h-.39l-13.72,30.64,37.44,21.16Z"/>
      <polyline points="86.46 110.98 86.46 30.33 60.19 30.33 60.19 4.13 142.13 4.13 142.13 30.33 115.47 30.33 115.47 111.08 101.21 124.88"/>
    </g>
  </g>
</svg>