<?xml version="1.0" encoding="UTF-8"?>
<svg id="Calque_2" data-name="Calque 2" xmlns="http://www.w3.org/2000/svg" viewBox="0 0 547.36 396.88">
  <defs>
    <style>
      .cls-1 {
        font-family: PaindeMie-Regular, 'Pain de Mie';
        font-size: 214.96px;
      }

      .cls-2 {
        letter-spacing: -.01em;
      }

      .cls-3 {
        letter-spacing: 0em;
      }

      .cls-4 {
        letter-spacing: .03em;
      }

      .cls-5 {
        letter-spacing: .01em;
      }
    </style>
  </defs>
  <g id="Calque_1-2" data-name="Calque 1">
    <g>
      <text class="cls-1" transform="translate(0 188.09)"><tspan class="cls-4"><tspan x="0" y="0">URBAN</tspan></tspan><tspan class="cls-2" x="0" y="152.47">P</tspan><tspan class="cls-3" x="84.27" y="152.47">A</tspan><tspan class="cls-5" x="187.45" y="152.47">W</tspan><tspan class="cls-4" x="322.23" y="152.47">S</tspan></text>
      <g>
        <path d="M414.67,315.76v-11.66c.46-.96.24-1.97.37-3.01.86-6.71,1.83-13.15,3.35-19.81,3.21-14.03,7.44-27.6,12.94-40.87,4.57-11.01,12.13-19.23,24.16-21.56,4.36-.85,8.6-.91,13.06-.91,4.48,0,8.72.04,13.12.85,7.51,1.38,14,5.26,18.62,11.32,2.34,3.07,4.21,6.2,5.72,9.82,6,14.44,10.61,29.28,13.84,44.6,2.63,12.48,5.32,32.38-.22,44.02-1.19,2.5-2.7,4.73-4.93,6.4-7.02,5.27-15.02,8.72-23.66,10.43-3.94.78-7.71,1.38-11.76,1.56-6.99.31-13.94.29-20.93,0-4.06-.16-7.83-.8-11.76-1.55-8.12-1.57-15.57-4.76-22.36-9.4-6.43-4.4-7.79-10.42-9.16-17.53-.19-.97.06-1.92-.4-2.7ZM486.12,249.84c-.41-.78-1.15-1.28-1.89-1.24-3.73.2-3.69,11.36,0,11.53,2.54.11,4.15-6.02,1.88-10.28ZM455.01,250.38c-.4-.73-1.17-1.24-1.83-1.2-3.91.24-3.64,11.91.21,11.53,2.43-.24,3.87-6.26,1.62-10.33ZM454.02,270.77c.07-.16.09-.49-.17-.71-4.96-4.42-11.68-7.26-18.46-6.55-.42.04-.68.3-.69.56,0,.31.27.63.68.59,11.87-1.11,17.93,7.78,18.63,6.12ZM502.27,264.7c.41.04.62-.43.57-.65-.05-.2-.26-.46-.61-.5-6.79-.78-13.47,2.1-18.49,6.48-.36.31-.29.79-.05.97.26.19.56.11.84-.13,4.93-4.26,11.16-6.83,17.74-6.17ZM468.75,280.37c1.64,3.46,4.72,5.83,8.57,5.86.47,0,.7-.33.64-.66-.04-.2-.24-.48-.61-.49-4.35-.12-7.88-3.46-8.03-7.85,2.69-.54,4.65-2.39,5.7-4.83.82-1.89.33-3.84-1.31-5.15-2.83-2.13-6.77-2.18-9.72-.19-1.25.97-2.2,2.39-1.89,4.02.59,3.1,3.01,5.49,6.05,6.15-.19,4.34-3.59,7.64-7.89,7.82-.4.02-.73.23-.77.51-.03.22.18.66.58.66,3.81-.01,7-2.18,8.68-5.86ZM453.46,274.79c.32.08.63-.34.59-.55-.03-.15-.14-.51-.47-.6-6.97-1.94-14.37-1.79-21.01,1.08-.49.21-.58.66-.35.98.11.16.41.24.74.1,6.64-2.86,13.65-2.82,20.51-1.01ZM504.64,275.84c.38.16.74-.14.78-.38.06-.33-.19-.61-.58-.78-6.63-2.84-14.02-2.97-20.98-1.02-.36.1-.44.55-.37.74.06.16.24.48.55.39,6.92-1.9,13.93-1.81,20.6,1.05ZM453.65,278.35c.28-.06.37-.42.4-.56s-.28-.55-.55-.5c-6.01.98-12.81,4.09-16.12,9.41-.24.38-.17.6-.02.75.23.22.66.33.86.03,3.5-5.41,9.41-7.78,15.44-9.12ZM499.31,287.44c.25.39.82.16.89-.05.05-.13.14-.39-.01-.63-3.38-5.41-9.94-8.37-16.07-9.49-.39-.07-.64.32-.64.53,0,.23.17.52.53.59,5.85,1.19,11.85,3.78,15.3,9.06Z"/>
        <path d="M441.35,205.64c.02.44.38.72.72,1.11,3.31,3.78,6.15,7.78,8.87,12.03-.77.45-1.43.74-2.24.76-1.82-2.79-3.64-5.41-5.68-8.02-.2-.26-.57-.31-.72-.2-.75.5-2.22,12.44-2.51,14.26-.92.93-1.67,1.65-2.64,2.89.71-7.56,2.04-15.22,3.69-22.83h.52Z"/>
        <path d="M496.79,205.64c-.2.64.12,1.24.3,1.98,1.63,6.96,2.49,13.89,3.43,20.95l-2.64-2.97-2.26-13.75c-.06-.34-.27-.57-.51-.58-.87-.02-5.42,7.16-6.31,8.36-.96-.23-1.66-.61-2.24-.81,3.02-4.78,6.32-8.98,9.71-13.18h.52Z"/>
        <path d="M516.81,334.61c2.55-2.49,4.01-5.44,5.17-8.74,5.07-2.28,9.24-5.78,12.44-10.37,4.14-5.95,6.12-12.92,5.95-20.21-.11-4.75-.68-9.22-2.04-13.73-1.21-4.01-3.78-9.96-7.58-12-1.88-1.01-2.48-3.27-1.47-4.97,1.17-1.96,3.51-2.14,5.38-.89,7.59,5.05,10.97,15.33,12.09,24,.14,1.07.49,2.15.5,3.2.02,3.28.29,6.47-.09,9.69-1,8.47-4.2,16.22-9.84,22.56-5.46,6.13-12.67,10.2-20.5,11.46Z"/>
        <path d="M447.82,220.22c-2.37.89-4.37,2.35-6.63,4.06.29-3.74,1.02-7.3,1.63-11.23l5.01,7.17Z"/>
        <path d="M496.41,224.24c-2.1-1.47-4.07-2.95-6.54-4.05,1.43-2.52,3.18-4.67,4.82-7.09l1.72,11.14Z"/>
      </g>
    </g>
  </g>
</svg>