<?xml version="1.0" encoding="UTF-8"?>
<svg id="Calque_2" data-name="Calque 2" xmlns="http://www.w3.org/2000/svg" viewBox="0 0 159.08 236.33">
  <defs>
    <style>
      .cls-1 {
        stroke-width: .38px;
      }

      .cls-1, .cls-2 {
        fill: none;
        stroke: #000;
        stroke-miterlimit: 10;
      }

      .cls-2 {
        stroke-width: .75px;
      }
    </style>
  </defs>
  <g id="Calque_1-2" data-name="Calque 1">
    <g>
      <g>
        <g>
          <path d="M62.67,108.72h16.91l4.07,14.25c.76,2.67,1.49,5.34,2.06,7.75.29-.06.57-.11.81-.16-.13-.86-.24-1.77-.24-2.63,0-3.31,1.6-7.88,4.08-12.02l-5.11-17.59c-2.28.37-4.8.94-7.53,1.85-.14.05-.27.1-.41.15l1.77,6.2h-13.73c-.96.72-1.85,1.45-2.67,2.21Z"/>
          <path d="M93.43,143.59s-.09-.09-.13-.13c-.83.12-1.98.32-2.92.53l-.1.02c-2.33.44-4.71,1.2-7.07,2.22h13.6c-1.31-.72-2.47-1.61-3.38-2.64Z"/>
          <path d="M46.65,144.02h-2.88c-5.09,0-7.98-2.72-7.98-8.82,0-4.75,1.53-10.18,3.56-17.65l2.38-8.82h7.61c.45-.74.95-1.47,1.52-2.21h-8.62l18.67-63.8,14.01,49.24c2.59-.77,5.26-1.4,7.93-1.88l-18.04-62.13h-2.21l-28.51,96.04c-3.9,13.07-6.79,19.51-14.42,20.02v2.21h26.98v-2.21Z"/>
        </g>
        <path d="M92.97,138.51c0-.43-2.14-3.86-2.29-3.86-1.72,0-7.57,2.29-20.72,2.29-11.43,0-20.43-8.29-20.43-15.58s1.72-12,8.72-17.58c8.57-6.86,23.01-11.43,35.44-11.43.57,0,2.14.14,2.14.86,0,.86-.86,1-1.43,1-4,.29-10,.29-17.72,2.86-14.72,5-24.15,15.15-24.15,24.15s9.14,14,17.86,14c12.72,0,19.72-2,19.72-2.43,0-1-.57-3.29-.57-4.86,0-3.14,2.14-8.86,5.72-13.43,9-11.29,29.43-20.58,39.15-20.58,6.72,0,10.43,2.29,10.43,6.57,0,8.57-12,19.86-31.15,27.01-13.15,4.86-20.29,6.43-20.29,6.72,0,4.72,2.29,3.86,2.86,3.86,6.86,0,10.86,1.14,10.86,4.72,0,1.29-1.29,2.14-2.57,2.14-3.29,0-6.86-1.43-8.72-3.57-.57-.57-.86-1.29-1.57-1.29-.86,0-3.29.43-4.57.71-19.01,3.57-39.3,25.44-39.3,41.44,0,5.14,5.86,10.29,15.86,10.29,17.86,0,42.01-14.43,42.01-27.44,0-6.14-4-7.86-10.29-7.86-4.14,0-13.57,3-21.86,9.15-9.57,7-15.86,14.58-16.72,16.15-.43.71-.71,1.43-1.86,1.43-.29,0-.29-.29-.29-.57,0-4.57,25.01-27.86,40.72-27.86,7.72,0,12.15,3.29,12.15,9.15,0,16.29-26.86,29.58-41.87,29.58-16,0-22.43-6.72-22.43-20.72,0-6.29,5.14-16.72,16.15-23.86,9.57-6.14,24.15-10.57,29.72-10.86.43,0,1.29.14,1.29-.29ZM93.83,132.08c0,.71.86,0,1.57-.29,8.72-3,21.58-5.72,35.15-15.15,8-5.57,12.43-11.15,12.43-15.72,0-3.29-3-5.29-7-5.29-18,0-42.15,26.44-42.15,36.44ZM96.4,139.94c2.43,2.86,9,4,9,2.29,0-1.43-4.14-2.43-7.43-2.43-.57,0-1,0-1.57.14Z"/>
      </g>
      <ellipse class="cls-1" cx="79.54" cy="118.17" rx="77.04" ry="114.63"/>
      <ellipse class="cls-2" cx="79.54" cy="118.17" rx="79.17" ry="117.79"/>
    </g>
  </g>
</svg>