<?xml version="1.0" encoding="UTF-8"?>
<svg id="Calque_2" data-name="Calque 2" xmlns="http://www.w3.org/2000/svg" viewBox="0 0 465.11 534.84">
  <defs>
    <style>
      .cls-1 {
        font-family: PaindeMie-Regular, 'Pain de Mie';
        font-size: 190.93px;
      }

      .cls-2 {
        letter-spacing: -.01em;
      }

      .cls-3 {
        letter-spacing: 0em;
      }

      .cls-4 {
        letter-spacing: .03em;
      }

      .cls-5 {
        letter-spacing: .01em;
      }
    </style>
  </defs>
  <g id="Calque_1-2" data-name="Calque 1">
    <g>
      <text class="cls-1" transform="translate(0 349.39)"><tspan class="cls-4"><tspan x="0" y="0">URBAN</tspan></tspan><tspan class="cls-2" x="54.8" y="135.43">P</tspan><tspan class="cls-3" x="129.64" y="135.43">A</tspan><tspan class="cls-5" x="221.29" y="135.43">W</tspan><tspan class="cls-4" x="341" y="135.43">S</tspan></text>
      <g>
        <path d="M154.61,144.3v-15.28c.61-1.26.31-2.58.48-3.95,1.13-8.79,2.4-17.24,4.39-25.95,4.2-18.38,9.74-36.17,16.96-53.55,5.98-14.42,15.89-25.2,31.66-28.26,5.72-1.11,11.27-1.19,17.11-1.19,5.87,0,11.43.05,17.19,1.11,9.84,1.81,18.35,6.89,24.4,14.83,3.06,4.02,5.52,8.12,7.49,12.87,7.87,18.92,13.9,38.36,18.13,58.45,3.45,16.35,6.97,42.44-.29,57.68-1.56,3.27-3.53,6.19-6.46,8.39-9.2,6.91-19.68,11.43-31,13.67-5.16,1.02-10.1,1.81-15.41,2.04-9.15.4-18.27.37-27.43,0-5.32-.21-10.26-1.04-15.41-2.04-10.64-2.05-20.41-6.24-29.3-12.32-8.43-5.76-10.2-13.65-12.01-22.98-.25-1.27.08-2.52-.52-3.54ZM248.24,57.92c-.54-1.02-1.51-1.68-2.47-1.63-4.88.26-4.84,14.89,0,15.1,3.33.15,5.44-7.88,2.47-13.47ZM207.48,58.63c-.53-.95-1.53-1.63-2.39-1.58-5.12.31-4.76,15.6.27,15.11,3.18-.31,5.07-8.2,2.12-13.53ZM206.18,85.35c.09-.21.12-.64-.22-.94-6.5-5.8-15.31-9.51-24.18-8.58-.55.06-.89.39-.9.73-.01.4.35.82.9.77,15.56-1.46,23.49,10.19,24.41,8.01ZM269.4,77.39c.54.05.82-.57.75-.85-.06-.27-.34-.6-.8-.65-8.89-1.02-17.65,2.76-24.23,8.49-.47.41-.38,1.04-.06,1.27.34.24.74.15,1.11-.17,6.47-5.58,14.62-8.96,23.24-8.08ZM225.48,97.92c2.16,4.54,6.19,7.64,11.22,7.67.61,0,.92-.43.84-.86-.05-.26-.32-.63-.8-.64-5.71-.16-10.33-4.54-10.52-10.28,3.53-.71,6.09-3.13,7.47-6.32,1.07-2.47.43-5.03-1.72-6.74-3.71-2.79-8.87-2.86-12.74-.24-1.64,1.27-2.88,3.13-2.47,5.27.78,4.06,3.94,7.2,7.93,8.07-.25,5.69-4.7,10.01-10.34,10.24-.52.02-.95.3-1.01.67-.04.29.23.86.76.86,4.99-.02,9.18-2.86,11.37-7.68ZM205.45,90.62c.42.11.83-.45.77-.72-.04-.2-.19-.66-.62-.78-9.14-2.54-18.83-2.35-27.54,1.41-.64.28-.76.87-.46,1.29.15.2.54.31.96.13,8.69-3.75,17.89-3.69,26.87-1.33ZM272.51,91.99c.5.21.97-.18,1.02-.49.08-.44-.25-.79-.77-1.02-8.69-3.73-18.37-3.89-27.49-1.34-.48.13-.57.73-.48.96.08.21.31.62.72.51,9.07-2.49,18.25-2.37,27,1.38ZM205.69,95.29c.37-.08.48-.55.52-.73s-.37-.72-.73-.66c-7.88,1.28-16.78,5.36-21.13,12.33-.31.5-.22.79-.02.99.3.29.87.43,1.12.03,4.59-7.08,12.33-10.2,20.23-11.96ZM265.52,107.2c.33.51,1.07.2,1.17-.07.06-.17.19-.51-.02-.83-4.42-7.09-13.03-10.97-21.05-12.44-.52-.09-.84.42-.84.7,0,.3.22.68.7.77,7.67,1.56,15.53,4.95,20.05,11.87Z"/>
        <path d="M189.58,0c.03.58.49.94.94,1.45,4.34,4.95,8.05,10.2,11.63,15.76-1.01.59-1.88.98-2.94,1-2.38-3.65-4.77-7.09-7.44-10.51-.27-.34-.74-.4-.95-.26-.98.65-2.9,16.3-3.28,18.69-1.2,1.21-2.19,2.16-3.47,3.79.93-9.91,2.68-19.94,4.84-29.92h.68Z"/>
        <path d="M262.23,0c-.27.83.16,1.63.39,2.6,2.14,9.12,3.26,18.2,4.5,27.45l-3.46-3.89-2.96-18.02c-.07-.45-.36-.75-.67-.76-1.15-.03-7.1,9.39-8.27,10.95-1.26-.31-2.18-.8-2.93-1.06,3.96-6.27,8.29-11.76,12.73-17.27h.68Z"/>
        <path d="M288.46,169c3.34-3.26,5.26-7.13,6.77-11.45,6.64-2.99,12.11-7.58,16.31-13.59,5.43-7.8,8.02-16.93,7.8-26.48-.15-6.22-.89-12.09-2.67-17.99-1.59-5.26-4.95-13.05-9.94-15.72-2.47-1.32-3.25-4.28-1.92-6.51,1.53-2.57,4.6-2.81,7.06-1.17,9.95,6.62,14.38,20.09,15.84,31.45.18,1.4.65,2.82.65,4.19.02,4.3.38,8.47-.12,12.69-1.32,11.1-5.51,21.26-12.9,29.56-7.15,8.03-16.6,13.36-26.87,15.02Z"/>
        <path d="M198.06,19.11c-3.1,1.16-5.73,3.08-8.69,5.32.38-4.91,1.34-9.56,2.13-14.71l6.56,9.39Z"/>
        <path d="M261.73,24.38c-2.76-1.92-5.33-3.86-8.56-5.31,1.88-3.3,4.16-6.11,6.31-9.29l2.25,14.6Z"/>
      </g>
    </g>
  </g>
</svg>