<?xml version="1.0" encoding="UTF-8"?>
<svg id="Calque_2" data-name="Calque 2" xmlns="http://www.w3.org/2000/svg" viewBox="0 0 257.17 274.29">
  <g id="Calque_1-2" data-name="Calque 1">
    <g>
      <path d="M0,213.42v-22.6c.9-1.87.46-3.82.72-5.84,1.67-13,3.55-25.49,6.5-38.38,6.21-27.19,14.41-53.49,25.08-79.2,8.85-21.33,23.5-37.27,46.83-41.8,8.46-1.64,16.67-1.76,25.31-1.77,8.68,0,16.91.08,25.42,1.64,14.55,2.67,27.14,10.19,36.09,21.94,4.53,5.94,8.16,12.01,11.08,19.04,11.64,27.98,20.56,56.74,26.82,86.45,5.1,24.19,10.3,62.76-.43,85.31-2.3,4.84-5.22,9.16-9.56,12.41-13.61,10.21-29.1,16.9-45.85,20.22-7.63,1.51-14.93,2.68-22.79,3.02-13.54.59-27.02.55-40.56.01-7.86-.31-15.17-1.54-22.79-3.01-15.74-3.04-30.18-9.22-43.33-18.22-12.46-8.52-15.09-20.19-17.76-33.98-.36-1.87.12-3.72-.77-5.23ZM138.48,85.66c-.8-1.5-2.24-2.48-3.66-2.41-7.22.39-7.16,22.02,0,22.34,4.93.22,8.05-11.66,3.65-19.93ZM78.18,86.71c-.78-1.41-2.27-2.41-3.54-2.33-7.57.46-7.05,23.08.4,22.35,4.7-.46,7.5-12.13,3.14-20.02ZM76.27,126.24c.13-.32.18-.94-.32-1.38-9.61-8.57-22.64-14.06-35.77-12.69-.81.08-1.32.58-1.33,1.08-.02.59.51,1.22,1.33,1.14,23.01-2.15,34.75,15.07,36.1,11.85ZM169.78,114.47c.8.08,1.21-.84,1.11-1.26-.09-.4-.51-.89-1.19-.97-13.15-1.5-26.1,4.08-35.83,12.56-.69.6-.56,1.54-.09,1.88.5.36,1.09.22,1.64-.25,9.56-8.25,21.62-13.25,34.37-11.96ZM104.82,144.83c3.19,6.71,9.16,11.29,16.6,11.35.9,0,1.36-.64,1.24-1.27-.07-.39-.47-.93-1.18-.95-8.44-.23-15.27-6.71-15.57-15.21,5.22-1.04,9.01-4.63,11.05-9.35,1.58-3.66.64-7.44-2.54-9.97-5.49-4.12-13.12-4.23-18.84-.36-2.43,1.88-4.26,4.63-3.66,7.79,1.15,6,5.83,10.64,11.73,11.93-.37,8.42-6.96,14.8-15.29,15.15-.77.03-1.41.44-1.49.98-.07.43.34,1.28,1.12,1.27,7.38-.03,13.58-4.23,16.82-11.36ZM75.18,134.03c.62.16,1.22-.67,1.14-1.06-.06-.3-.28-.98-.91-1.16-13.51-3.76-27.85-3.47-40.73,2.09-.94.41-1.12,1.28-.67,1.9.22.3.8.46,1.43.19,12.86-5.55,26.45-5.46,39.75-1.96ZM174.37,136.06c.74.32,1.43-.27,1.52-.73.12-.65-.36-1.18-1.13-1.5-12.85-5.51-27.17-5.75-40.66-1.98-.71.2-.85,1.07-.71,1.43.12.31.46.92,1.06.75,13.41-3.68,26.99-3.51,39.93,2.04ZM75.55,140.93c.54-.12.72-.81.77-1.09s-.55-1.06-1.07-.98c-11.65,1.9-24.82,7.93-31.25,18.24-.46.74-.33,1.17-.03,1.46.44.43,1.28.64,1.66.05,6.79-10.48,18.24-15.09,29.92-17.68ZM164.03,158.55c.49.76,1.59.3,1.73-.1.09-.25.28-.75-.02-1.23-6.54-10.49-19.27-16.23-31.14-18.4-.76-.14-1.24.62-1.25,1.03,0,.44.33,1,1.03,1.15,11.35,2.31,22.98,7.33,29.65,17.55Z"/>
      <path d="M51.72,0c.05.86.73,1.39,1.39,2.14,6.42,7.32,11.91,15.08,17.2,23.31-1.5.87-2.78,1.44-4.35,1.48-3.52-5.4-7.05-10.49-11.01-15.54-.39-.5-1.1-.59-1.4-.39-1.45.96-4.29,24.1-4.86,27.64-1.78,1.8-3.24,3.2-5.13,5.6,1.37-14.66,3.96-29.5,7.16-44.25h1Z"/>
      <path d="M159.17,0c-.4,1.23.23,2.41.57,3.85,3.17,13.48,4.83,26.92,6.65,40.6l-5.12-5.76-4.38-26.65c-.11-.66-.53-1.11-.99-1.12-1.69-.04-10.5,13.89-12.23,16.2-1.86-.46-3.22-1.18-4.33-1.57,5.85-9.27,12.26-17.4,18.83-25.54h1Z"/>
      <path d="M197.96,249.96c4.95-4.82,7.78-10.55,10.01-16.94,9.82-4.43,17.92-11.21,24.12-20.09,8.03-11.54,11.86-25.03,11.53-39.16-.22-9.2-1.31-17.88-3.95-26.61-2.35-7.78-7.32-19.3-14.7-23.25-3.65-1.95-4.81-6.33-2.84-9.63,2.26-3.8,6.8-4.15,10.44-1.73,14.72,9.78,21.27,29.71,23.43,46.51.27,2.07.96,4.16.97,6.2.03,6.37.56,12.53-.18,18.77-1.95,16.41-8.14,31.44-19.08,43.72-10.57,11.87-24.55,19.77-39.74,22.21Z"/>
      <path d="M64.25,28.26c-4.59,1.72-8.48,4.55-12.86,7.87.56-7.26,1.98-14.14,3.15-21.76l9.71,13.89Z"/>
      <path d="M158.42,36.06c-4.08-2.85-7.88-5.72-12.67-7.86,2.78-4.89,6.16-9.04,9.34-13.74l3.33,21.6Z"/>
    </g>
  </g>
</svg>