<?xml version="1.0" encoding="UTF-8"?>
<svg id="Calque_2" data-name="Calque 2" xmlns="http://www.w3.org/2000/svg" viewBox="0 0 220.07 253.55">
  <defs>
    <style>
      .cls-1 {
        opacity: .79;
      }
    </style>
  </defs>
  <g id="Calque_1-2" data-name="Calque 1">
    <g class="cls-1">
      <g>
        <path d="M20.97,217.89c-.14.53-.27,1.06-.48,1.86-4.54-.63-9.02,1.19-13.69.18-3.4-.73-5.13-3-6.46-5.73-.72-1.5-.19-3.19.63-4.61,1.88-3.24,6.4-7.21,12.6-6.4l.02-.07c.14.17.29.34.43.5h-.09c.17-.15.34-.29.51-.44v.07c1.98-.13,3.85.19,5.57,1.2-.15.14-.29.27-.44.41l-.12-.04.13-.04c.14.08.28.17.42.25-.03-.2-.05-.39-.08-.59,4.31,1.33,7.93,3.98,11.8,6.16.68.38,1.38.72,2.08,1.08.13-.17.27-.33.4-.5-.6-.77-1.3-1.48-1.79-2.32-2.24-3.85-4.57-7.66-6.58-11.62-1.68-3.32-2.78-6.87-1.99-10.7,1.06-5.11,6.49-7.15,10.74-4.1,3.83,2.74,6.64,6.14,7.78,10.83.3,1.22,1.09,2.32,1.65,3.48-.14-.1-.27-.19-.19-.13-.11-.03.05.01.2.05,2.87.18,4.15,2.29,5.2,4.29,2.82.84,5.42,1.62,8.67,2.59,6.57-.8,12.07-4.65,16.74-10.45-.32-.83-.67-1.76-1-2.63-1.98-.41-3.71,1.27-5.44.11-.99-.67-1.89-1.48-2.7-2.13.28-3.95,2.28-5.55,7.35-5.93.37-2.41.75-4.89,1.17-7.56-2.27-.31-4.01.2-5.4,1.85-1.64,1.95-3.26,3.93-4.96,5.83-3.12,3.48-7.24,5-11.72,5.74,0,0,0,.09,0,.09.78-.82,1.56-1.64,1.93-2.02,1.47-.23,2.45-.29,3.37-.55,3.63-1.03,6.07-3.67,8.43-6.4,2.22-2.57,4.44-5.14,6.71-7.76.69.16,1.23.28,1.9.43.07-1.72.14-3.28.21-5.1l-1.63-1.9c-1.53-.14-3.48-.32-5.43-.52-1.03-.1-2.05-.25-3.08-.37,0,0,0,.08,0,.08.27-.27.55-.54.82-.81l.16.05s-.16.03-.16.03c-.68-.27-1.35-.61-2.05-.79-3.21-.82-6.44-1.53-9.63-2.39-6.13-1.66-10.66-5.5-14.24-10.62-1.1-1.58-1.3-3.15-.21-4.73.68-.98.99-1.97.98-3.16-.02-1.98,1.01-3.3,2.75-4.27,2.14-1.19,4.37-1.7,6.8-1.53,2.67.19,5.28.51,7.49,2.2v-.08c-.14.14-.28.29-.43.43l.07.03c-.16-.08-.32-.16-.48-.25,0,.22,0,.45,0,.67l-.02-.07c1.07,1.59,1.74,3.28,2.25,5.17.56,2.05,1.71,4.05,3.85,5.23,1.01.56,1.75,1.6,2.61,2.43,0,0,.03-.06.03-.06-.3.28-.61.56-.91.83-.64-.54-1.28-1.08-1.41-1.19-1.89-.46-3.29-.53-4.4-1.14-1.8-.99-3.5-2.22-5.08-3.55-2.11-1.78-4.18-3.58-6.99-4.14-1.06-.21-2.14-.31-2.43,1.16v-.08c-1.5.71-3.02,1.42-4.42,2.08.21.87.36,1.5.51,2.13,0,0-.19-.05-.19-.05l.2-.03c.61.4,1.21.79,1.82,1.19,1.02,1.2,1.81,2.63,3.66,3.23,1.57.51,3.02,1.42,4.52,2.15,0-.02.02-.04.02-.07,4.86,2.19,9.72,4.37,14.88,6.69.03-.02.39-.28.74-.53.65.32,1.31.64,1.73.84,2-.33,2.56-2.61,4.93-2.55-.66,1.5-1.22,2.8-1.86,4.26,1.29.07,2.3.32,3.11-.75-.46-.32-.82-.57-1.27-.88.29-.86.59-1.73.92-2.72-.52-.38-1.03-.74-1.29-.93-1.43.45-2.57.8-3.7,1.16,0,0,0,.09,0,.09.08-.7.15-1.39.23-2.1.66-.2,1.34-.41,2.02-.62h-.07c1.76.05,3.53.1,5.29.15.64.02,1.29.02,2.09.03,1.07-1-.78-1.86-.37-3.22.77-.87,1.98-1.14,3.51-1.03.26.98.51,1.93.88,3.29.67-.51,1.45-.8,1.5-1.19.22-1.61,1.38-2.46,2.48-3.27,1.96-1.45,3.02-3.53,4.47-5.56-.61-.48-1.08-.86-1.67-1.33-.85.62-1.59,1.16-2.55,1.86-.7-.17-1.57-.37-2.22-.52-.21-4.64-.41-8.92-.59-13.01-1.01-1.65-1.93-3.15-2.98-4.87-.43.42-.78.77-1.27,1.26-.46-.25-1.01-.54-1.63-.87-.14.2-.41.41-.41.62,0,1.6.07,3.2.12,4.8,0,0,0-.08,0-.08-.42,1.87-.83,3.75-1.25,5.62l.02-.07-.07.89v-.09c.14.17.29.33.43.5h-.07c1.05,1.93.08,3.38-1.12,4.77l-.13-.05.13-.03c.3,1.53.43,3.04.22,4.61-.13.95.26,1.96.43,3.05-.75.11-1.57.22-2.55.36-.76-8.58-1.5-16.98,2.99-24.8-1.74-2.46-5.33-3.57-4.88-7.52,1.82-1.73,3.79-3.44,6.79-2.9-.67.54-1.89.37-2.1,1.71,1.03.58,1.94.5,2.61.1-.24-.74-.42-1.28-.59-1.83,2.06-.63,3.92.15,5.7.98,1.96.91,3.88,1.93,5.71,3.07.85.52,1.44,1.44,2.5,2.55,2.41.48,5.25,1.05,8.08,1.62,0,0-.07-.02-.07-.02.31.74.62,1.48,1.06,2.53-2.46-.49-4.55-.91-6.92-1.38.13.86.15,1.4.29,1.91,1.76,6.03,1.17,11.83-1.96,17.25-1.41,2.44-3.22,4.66-5,6.86-1.07,1.32-2.11,2.6-2.68,4.79,2.8-.53,5.38-.67,7.35-1.81,1.27,0,2.21.18,3.07-.01,2.19-.5,4.31-1.37,6.52-1.71,2.41-.37,4.93-.48,7.27.47.8.32,1.81,1.09,1.98,1.82.64,2.68,1.61,5.37,1,8.07-.9.98-1.69,1.86-2.49,2.73.11.14.21.28.32.41,1.78-1.1,3.56-2.2,5.41-3.34.57,1.41,1.14,2.7,1.61,4.02.5,1.39.91,2.8,1.47,4.56,1.45,1.13,3.21,2.46,5.51,1.62.03-1.95-.27-3.63.16-5.1.62-2.1,2.69-1.56,4.22-1.52,2.66-4.61,4.53-9.54,8.71-12.92.14-.11.21-.31.29-.48,1.59-3.14,2.86-6.38,2.99-9.91-1.44-1.38-1.42-1.38-1.22-3.53.03-.32-.3-.66-.46-1-.19-.47-.38-.94-.58-1.41-.12.08-.23.15-.35.23l1.01,1.18c-1.72,2.06-3.44,4.12-5.18,6.19-.32,2.53-1.37,4.7-2.83,5.74-.99-.48-.84-1.39-.66-2.18.23-1,.65-1.96.97-2.94,1.36-4.08,2.23-8.41,5.78-11.39.36-.3.4-.98.65-1.63-1.46-.85-2.8-1.64-4.43-2.59-.57.33-1.53.58-1.91,1.19-.92,1.49-1.57,3.15-2.57,5.25-1.02,1.26-3.41,1.77-4.67,3.72-1.11,1.71-2,3.59-4.02,4.59-.61.3-.82,1.42-1.21,2.16-.04.21-.09.41-.13.62.16-.08.31-.15.47-.23-.22,2.05-1.41,3.62-2.4,5.52-.85-.99-1.58-1.7-2.12-2.54-.31-.48-.31-1.16-.45-1.74.07,0,.17.01.21-.03.09-.1.15-.22.22-.34.65.29,1.3.58,2.15.96,1.54-4.6,4.35-8.07,8.01-10.92.55-.43.87-1.16,1.45-1.97-.89-.76-1.64-1.41-2.3-1.97-2.89.52-5.46,1.71-8.21.96-.62-1.77.2-2.83,1.4-3.87.82.02,1.67.09,2.51.03.84-.06,1.85,0,2.46-.44,1.88-1.34,4.1-1.94,6.17-3.06-.77-1.67-2.12-2.03-3.7-2.14-4.44-.31-8.67-1.38-12.76-3.62-1.09.21-2.36.45-3.31.63-1.53-1.05-2.74-1.88-4.08-2.79-.26.67-.38.99-.56,1.45-.85-.22-1.75-.45-2.49-.64-.44,1.29-.71,2.09-.98,2.88l.08-.02c-.49-.89-.89-1.84-1.48-2.66-1.34-1.88-1.68-3.94-.58-5.51,1.2-1.72,2.96-2.21,4.98-1.76.18.04.36.14.54.16.16.01.32-.07.71-.16-1.01-1.52-1.97-2.99-2.95-4.44-.84-1.25-1.81-2.42-2.56-3.73-1.66-2.89-4.19-4.5-7.31-5.35-.64-.17-1.3-.33-1.87-.64-2.58-1.37-4.34-3.3-4.2-6.8.6-.29,1.3-.67,2.03-.96,1.03-.41,2.09-.75,3.14-1.11,0,0-.08,0-.08,0,.95.47,1.91.94,2.86,1.42,0,0-.1,0-.1,0l-.51,1.17c-.5-.46-.97-1.06-1.8-.43q.97.85,1.79.33c1.48.55,2.95,1.09,4.43,1.64h-.09c2.47,1.8,3.75,4.39,4.73,7.17-.03.27-.06.54-.09.8l-.04.12-.04-.12.09-.8c.87-.17,1.73-.34,2.79-.55-.66-1.43-1.3-2.82-2.04-4.42.76-.18,1.18-.27,1.52-.35,1.86,3.2,3.65,6.27,5.43,9.33.18-.05.36-.11.54-.16-.17-1.58-.06-3.26-.57-4.72-1.49-4.24-.32-8.24.69-12.28.28-1.1.58-2.19.79-3.3.23-1.21.94-2.02,1.69-2.52,1.16.26,2.08.47,3.39.76-.03.93-.06,2.12-.1,3.46,1.89-.38,3.51-2.37,6.05-1.65l1.77,2.08c1.75-.03,3.3-.06,5.11-.09,0-.41.08-1.03,0-1.62-.27-1.88-.62-3.74-.91-5.61-.57-3.67-2.53-6.25-5.95-7.72-.87-.37-1.71-.81-3.05-1.46,1.09-.1,1.74-.15,2.64-.23-.26-.53-.38-1.07-.71-1.41-2.77-2.86-5.56-5.69-8.37-8.52-1.99-2-4.25-3.5-7.37-3.54.11-.65.2-1.18.34-1.98-.58-.58-1.29-1.3-1.97-2-1.07.19-1.96.36-3.31.6.63-.74.96-1.12,1.31-1.53-.19-.06-.39-.19-.49-.14-2.68,1.35-5.06.1-7.22-1.15-1.96-1.12-2.33-3.39-2.3-5.52,0-.63.62-1.37,1.14-1.85,1.92-1.74,4.45-1.8,6.84-.33,1.1.67,2.25,1.24,3.79,2.08,1.18,1.62,1.89,4.19,4.16,5.78.72-1.28-.17-2.16-.59-2.97-1.09-2.1-2.37-4.1-3.6-6.12-.24-.39-.57-.8-.96-.99-1.3-.65-1.92-1.63-2.22-3.07-.18-.84-.93-1.61-1.55-2.31-3.72-4.15-3.76-8.99-2.3-13.91,1.02-3.44,3.19-3.96,6.08-1.87,2.42,1.75,3.87,4.17,4.22,7.11.31,2.63.42,5.3-.43,7.89-.12.36-.3.7-.45,1.05.19.05.37.1.56.15,1.07-1.05,2.14-2.09,3.1-3.03,3.22,1.34,4.76,4.97,3.64,7.88-.2.53-.47,1.05-.79,1.51-2.47,3.44-2.34,7.17-.81,10.81.97,2.32,2.34,4.57,3.94,6.51,2.95,3.58,6.14,6.96,9.35,10.31,1.09,1.14,2.47,2.06,3.85,2.86,1.26.73,2.77.61,3.62-.6,1.95-2.78,3.69-5.7,5.48-8.58.11-.17-.07-.52-.16-1.04-2.54,1.24-4.8-.21-7.12-.67-1.99-.4-2.74-2.48-3.43-4.26-.59-1.52.09-2.75,1.04-3.91.35-.43.61-.93.95-1.44-1.3-2.7-3.42-5.31-.63-8.48,3.93.71,5.65,3.68,7.33,6.97q3.21,2.23,3.89,3.7c-.44,2.2-.85,4.22-1.27,6.32,2.69-.65,4.41-2.71,4.6-5.32.13-1.87.25-3.73.37-5.6h-.07c.97.56,1.99,1.06,2.91,1.7.92.64,1.73,1.42,2.79,2.3-.82.37-1.67.52-2.13,1.03-.54.59-.65,1.54-1.11,2.23-1.42,2.11-2.87,4.2-4.38,6.23-2.31,3.1-4.21,6.43-5.74,9.97-.29.67-.8,1.3-1.34,1.81-1.35,1.28-1.81,2.89-1.7,4.63.16,2.54.48,5.07.73,7.46,3.59,3.08,7.07,6.02,7.83,10.9-.14.11-.28.23-.42.34l-.04.12-.04-.12c.17-.14.33-.27.5-.41,1.28,4.16.64,8.39.42,12.6-.04.73-.08,1.47-.14,2.43,1.27-.38,1.11-1.35,1.27-2.05.69-3.17,1.8-6.11,3.92-8.66,1.61-1.93,3.59-3.25,5.86-4.21h-.08c3.35-1.91,6.75-2.3,10.2-.32.71.41,1.53.94,1.87,1.63.95,1.93,1.91,3.91,2.41,5.98.36,1.49.05,3.16-.08,4.74-.07.82-.38,1.62-.58,2.44.98.91,2.07.43,3.04.49,2.46.15,3.81,1.47,3.7,3.97-.06,1.5-.35,2.99-.54,4.48v-.07c.09.27.17.53.39,1.22.36-.87.65-1.38.79-1.94.56-2.19.94-4.44,1.63-6.59,1.53-4.79,5.28-7.43,9.56-9.5.76-.37,1.54-.7,2.31-1.05v.08c-1.05-3.06-.22-6.67,1.95-8.51,1.9-1.61,3.75-1.25,4.82.99.62,1.31.93,2.63.18,4.06-.52.99-.83,2.1-1.23,3.16-.15-.11-.29-.22-.17-.13-.17-.04,0,0,.18.04,1.11.08,1.64-.72,2.3-1.42,1.03-1.11,2.14-2.13,3.24-3.18.19-.18.47-.28.72-.42,1.14.27,1.15,1.09,1.08,2.15-2.06.55-3.59,1.85-4.78,3.9.69.94,1.39,1.9,2.15,2.93,2.48-.71,4.88-1.01,6.28-3.53.48-.87,1.79-1.29,2.76-1.86,1.21-.71,2.57-1.23,3.66-2.09,1.04-.83,2.13-1.3,3.38-1.18,2.56.25,5.42-.15,7.15,2.72-.16,2.92-2.26,4.39-4.59,5.52-1.16.56-2.54.7-3.84.9-1.58.25-3.19.37-4.78.52-.56.05-1.2.17-1.67-.05-3.03-1.36-5.73-.2-8.76,1.1-.93,3.92-3.46,6.98-6.94,9.49,1.61-.31,3.21-.62,5.11-.99-.26.54-.37.75-.48.97l.07.02c-.09,0-.21-.01-.25.03-.1.12-.17.27-.26.4v-.07c-3.97,1.67-7.93,3.34-12.35,5.21,1.58.14,2.54.22,3.92.34.33-.19,1.05-.61,1.79-1.04.31.47.56.85.87,1.34,2.26-.05,3.55-1.84,5.17-3.03h-.08c1.85,0,3.41-1,5.11-1.48,2.24-.63,4.61-.83,6.92-1.21l-.07-.02c.09-.01.2,0,.25-.05.1-.11.17-.26.26-.4,0,0,.02.08.02.08,1.35.2,2.58,1.31,4.48.22-1.76,1.84-.16,3.34-.45,4.74,2.85,3.37,2.75,5.57-.23,7.46l.04-.13.04.14c-.68.77-1.36,1.54-2.37,2.69.21-.88.3-1.26.47-1.96-.76.27-1.32.47-2.03.73-1.61-2.11-4.57-1.23-6.71-2.87-1.66-1.28-4.03-1.97-6.45-1.02-1.75.68-3.64.76-5.54-.53.06.91.1,1.49.16,2.39-1.03-.69-1.78-1.2-2.68-1.81-.29.59-.49,1.03-.76,1.58-1.14-.84-2.21-1.63-3.36-2.48-.21.23-.46.48-.67.7.1.27.11.52.23.61,1.38,1.02,2.35,2.79,4.54,2.39.27-.05.68.75,1.35,1.53-1.17-.15-1.88-.25-2.58-.34l-.17-.06.17-.02c1.57,1.84,1.46,3.74.09,5.64l1.63,1.9c-.22-1.12-.31-1.63-.45-2.36.69.12,1.29.22,1.89.32l.17.05-.17.03c-.18-.68-.36-1.36-.72-2.69,2.1,1.58,3.75,1.21,5.6.37-.76-.58-1.45-1.1-2.14-1.62v.1c1.24.31,2.47.62,3.7.94-.02.14-.04.28-.06.41.63-.09,1.27-.18,1.79-.26.72.67,1.38,1.28,2.14,1.98-.12.32-.28.73-.45,1.18l1.57,1.84c2.06.71,4.19,1.09,6.25,2.47-.7.7-1.19,1.19-1.57,1.56-1.88-.73-3.53-1.37-5.16-2-3.06,1.75-6.05,3.03-9.46.68-.17.68-.28,1.1-.39,1.53l.07.02c-.8-.28-1.5-.34-1.75.72v-.09c.58,3.27,2.56,5.49,5.18,5.97,1,1.17,1.88,2.26,2.84,3.28.21.22.69.19,1.16.3.16.56.29,1.19.53,1.78.66,1.61.15,2.93-.91,4.15-.8.91-1.58,1.83-2.58,2.99-.85.44-1.99.7-3.16-.07v.07c.8-.22,1.61-.44,2.42-.65.17-.02.34-.03.16-.01.15-.09,0,0-.16.1-.53-2.55.15-5.24-.76-7.93-.89.18-1.59.32-2.38.48-2.09-1.88-3.44-4.83-6.9-5.28-1.02,1.91.73,4.18-.5,6.24-1.42-.35-2.78-.69-4.51-1.12-2.07-3.81-3.31-8.35-3.61-13.12-.1-1.61-.41-2.96-1.81-3.98.35-.34.61-.59.77-.74-.13-.61-.25-1.14-.37-1.68l.19.06-.19.02c-1.3-.1-1.46,1.15-2.14,1.79h.08c-.44-.14-.88-.29-1.42-.47-.84.51-1.71,1.03-2.64,1.59-.22.69-.48,1.46-.73,2.22-.45-1.04-.91-2.08-1.35-3.13-.39-.93-1.37-1.66-1.15-3.12,1.04.99,1.84,1.75,2.75,2.62,1.48-1.55,3.44-2.53,3.62-5.15-2.93-1.07-5.13.87-7.85,1.6-.8-.7-1.69-1.48-2.58-2.26.51-.49,1.02-.97,1.68-1.6-.53-.12-.85-.3-1.03-.21-.48.26-.9.64-1.34.97-1.09-.41-2.19-.81-3.38-1.25q2.3-1.89,1.41-3.84c-1.07,1.12-2.05,2.14-3.02,3.15-.38-.35-.79-.73-1.2-1.1v.09c1.85-1.63,3.94-3.1,4.44-6.21-3.91.16-6.86,1.98-10.18,3.04.25.73.4,1.16.55,1.6v-.08c-.03.58-.06,1.16-.1,1.7,1.48.38,2.64.68,3.8.99.27.76.49,1.37.71,2,.7.6,2.15.52,1.98,2-.14-.1-.28-.19-.2-.13-.11-.03.05.01.21.05.78.49,1.52,1.31,2.34,1.41,2.17.26,3.31,1.53,4.06,3.38.35.86.65,1.74,1.05,2.57.79,1.61,1.66,3.16,3.88,2.95.33-.77.62-1.45.91-2.13,1.2,1.5.85,2.95-.07,4.44-.53.85-1.1,1.75-1.33,2.71-.43,1.81-1.45,2.99-3.1,3.76-1.7.8-3.37,1.67-5.05,2.5l.07.02c-.15-.14-.3-.27-.45-.41l.05-.14.04.15c-.19.39-.38.79-.56,1.18v-.08c.15.17.29.33.44.5h-.09c.56.48,1.12.97,1.66,1.45-.14.46-.27.87-.48,1.54,1.55.35,2.96.68,4.47,1.02,0,.21.03.58.04.95v-.09c-.42.15-.83.3-1.49.53,3.59,4.67,7.18,9.02,11.15,13.06.66.67,1.22,1.46,1.94,2.05,1,.82,2.02,1.7,3.18,2.22,2.32,1.04,4.5.67,6.63-.88,3.7-2.69,7.91-2.81,12.21-1.88.73.16,1.68.34,2.06.85,1.45,2,3.72,2.83,5.6,4.19l-.05.13-.03-.13c.43-.13.86-.27,1.01-.32,1.32,1.1,2.46,1.99,3.53,2.96.19.17.07.67.1,1.02v-.08c.11.43.21.86.31,1.29l-.14-.04.15-.03c.18.53.36,1.07.58,1.74.85.18,1.75.37,3.16.68-.02.53-.04,1.04-.06,1.7-2.96-.28-5.37-1.76-7.65.08v-.07c.22.18.44.5.65.5,2.25,0,4.06,1.23,6.01,2.06l-.03.15-.06-.15c.67.19,1.35.38,2.02.57l.02-.09c-.2.37-.67.88-.56,1.07.46.85,1.08,1.6,1.78,2.57l1.51-1.29h-.08c.74.89,1.49,1.78,2.23,2.66-.13-.1-.27-.19-.18-.13-.11-.03.04.01.19.06.19.78.38,1.56.55,2.25-2.87,1.67-6.39,1.38-8.91-.85-2.11-1.88-4.05-3.97-5.93-6.08-1.03-1.15-1.97-2.3-3.84-2.76-1.55,1.33-3.25,2.78-5.11,4.37.05.93.11,2.12.19,3.56.94.1,1.85.2,2.76.29,5.86.62,11.06,2.67,14.92,7.29,1.72,2.06,2.88,4.44,2.69,7.38l-2.21,1.89c-.11.55-.25,1.19-.37,1.84-.44,2.36-1.33,3.33-3.62,3.73-1.02.18-2.08.13-3.12.2-.74.04-1.48.09-2.39.15.07,1.16.12,2.17.18,3.17-.15-.09-.3-.19-.18-.11-.15-.02.02,0,.19.03.65,2.76.6,3.22-.64,5.5-3.1.76-5.95.09-8.26-2.22-1.87-1.87-3.56-3.92-5.27-5.94-.48-.56-.81-1.28-1.11-1.96-.87-1.98-1.71-3.98-2.52-5.99-.17-.42-.2-.9-.31-1.42.68-.58,1.31-1.12,2.01-1.71,2.74.4,5.49.85,8.26,1.19,1.34.16,1.35.07,2.35-1.7-3.82-1.8-7.42-4.04-12.11-3.28-.09.16-.26.48-.44.8l.08.03c-.29-.29-.57-.58-.86-.87-.01-.16-.03-.31-.02-.18-.07-.12.02.03.1.18-.61-.15-1.22-.3-1.9-.47.3-.62.52-1.09.73-1.52-1.76-2-1.99-2.11-4.53-2.01,1.47,2.02,3.01,3.92,2.55,6.52h.08c-.59-1.38-1.15-2.78-1.79-4.14-.17-.35-.58-.59-.99-.98-1.11,1.49.58,2.15.58,3.51-2.1-.11-4.19-.23-6.5-.35l-2.4,2.05c.16-1.06.26-1.75.29-2-.53-1.41-.92-2.43-1.3-3.45l-.02.07c-.15-.17-.29-.34-.44-.51h.07c-.27-.39-.54-.77-.82-1.16-2.4.7-4.69,1.57-7.07,2.02-3.59.67-7.18.14-10.62-.93-5.07-1.57-9.8-3.91-14.4-6.74-.87-.04-1.87-.08-2.71-.11-1.49.9-2.91,1.75-4.46,2.68,1.44,1.68,3.22.48,4.65.98.7-.8,1.24-1.41,1.84-2.1,1.28.9,2.08,2.02,2.62,3.36.09.33.17.66.26.99.09-.04.18-.08.28-.13-.21-.29-.41-.57-.62-.86.56.47,1.29.83,1.66,1.42,1.56,2.47,3.01,5.01,4.54,7.58-.79,1.39-1.59,2.64-2.25,3.95-1.88,3.72-1.05,7.43.49,10.94.54,1.24,2.08,2.05,3.17,3.07,0,.16.07.43-.02.52-5.59,5.44-12.9,5.62-16.9-1.76-2.72-5.01-3.72-10.46-2.88-16.18.13-.91.01-1.85,0-2.77l.04-.12.03.13c-.54.87-1.17,1.7-1.61,2.62-1.94,4.03-4.69,7.31-8.56,9.62-1.14.68-2.21,1.47-3.31,2.21-3.54,2.38-4.44,2.27-7.53-1.37-.57.06-1.6.18-2.45.28-2.57-2.06-3.51-4.42-2.86-7.44,1.4-6.53,4.71-11.76,10.43-15.29,2.65-1.63,5.34-3.24,8.5-3.83.85-.16,1.6-.85,2.99-1.63-2.22-.55-3.81-.92-5.39-1.34-1.55-.42-3.09-.88-4.1-1.18-2.3.69-4.07,1.29-5.88,1.74-.45.11-1.02-.28-1.81-.53.14-1.27.28-2.46.43-3.76-1.82-1.53-3.68-3.1-5.1-4.29-1.66-3.36-3.08-6.22-4.56-9.19.48-.68,1.03-1.45,1.54-2.16.07-1.42.13-2.79.19-4.13-5.35-1.56-10.74-3.13-16.13-4.68-.09-.02-.26.25-.39.38.51,1.52,1.01,3.04,1.55,4.64,2.82,1.1,4.41,3.22,5.48,6.06.95,2.52,2.51,4.82,3.99,7.56-.57,2.02.92,4.55-.23,7.28-1.57-1.44-1.96-3.25-2.59-4.84-1.64-4.15-3.81-8.01-6.21-11.74-.69-1.08-1.82-1.53-3.55-2.06.09,1.04.15,1.69.21,2.34,0,0-.14-.06-.14-.06l.14-.02c.09,1.41.25,2.82.25,4.23,0,3.79.71,7.33,3.65,10.07-.2.83-.36,1.54-.54,2.3,2.28,1.63,4.54,3.25,6.47,4.63,3.01-.23,4.86-1.58,6.57-3.26.66-.65,1.45-1.2,2.27-1.62.93-.48,1.4-1.21,1.63-2.16h-.08c.98,4.23-.24,6.27-4.76,7.98-2.12,3.66-3.82,4.37-7.47,3.15.18-.16.36-.31.54-.47.27.04.54.08.81.13.07,0,.17,0,.2-.03.08-.1.14-.22.21-.34h.08c-.16.16-.33.3-.49.44-.27-.04-.54-.07-.8-.11-.08,0-.19-.01-.23.03-.1.1-.16.24-.24.36-1.31-.64-2.62-1.28-3.93-1.92l.07-.15v.16c-1.35-.98-2.7-1.95-4.11-2.97-.36.16-.78.23-1.02.48-3.42,3.46-6.53,7.1-7.94,11.92-.5,1.71-1.44,3.29-2.2,4.92-1.17,2.49-2.17,5.01-1.96,7.74-1.03,1.03-1.82.14-2.74-.16-.35.41-.71.82-1.06,1.25-1.4,1.71-3.21,2.28-5.34,1.85-2.13-.44-4.25-.95-6.38-1.42-.62-.14-1.25-.23-2.11-.39.08,1.48,1.11,2.13,1.74,2.97,2.11,2.84,4.09,5.74,4.41,9.38.6,6.75-.75,12.85-6.3,17.36-1.99,1.62-4.52,1.9-6.94,1.86-2.23-.04-3.16-1.28-3.75-3.95-.66-2.94-1.32-5.87-1.99-8.87-1.15-.07-1.43.87-1.94,1.46-3.04,3.55-6.72,6.16-11.27,7.26-1.59.38-3.35.08-5.03.08-.09,0-.18-.06-.27-.09-2.84-1.04-3.66-4.08-5.74-5.89-.44-.38-.27-1.64-.15-2.46.85-6.18,3.61-11.3,8.6-15.14.75-.58,1.47-1.19,2.2-1.79.07-.06.1-.16.25-.4-.1-.57-.21-1.28-.39-2.36,1.22.83,2.17,1.47,2.95,2,.95-1.62,1.87-3.19,2.79-4.77l-.08-.02c-.16.5-.43,1-.45,1.5-.02.57.2,1.14.31,1.71.12.15.25.3.37.45.25.28.51.56.76.83l-.05.12-.03-.13c1.8-.31,3.5-1.35,5.42-.77-1.37.48-2.74.96-4.11,1.44.05.22.1.44.15.66,2.11-1.53,4.73.87,7.08-1.43-1.26-.26-2.22-.46-3.19-.66,0-.57,0-1.13,0-1.89-1.03.2-1.77.26-2.45.49-1.22.41-2.4.93-3.6,1.4-.14-.17-.29-.35-.43-.52,1.35-1.54,2.69-3.08,4.07-4.66-.16-.58-.3-1.12-.43-1.62-1.98-.17-3.71.03-4.72,2.46-.5-1.14-.86-1.94-1.28-2.9-.5.22-.88.39-1.38.61.46,1.38.87,2.61,1.28,3.83-.09.06-.17.11-.26.17-.47-.6-.93-1.21-1.4-1.81l.05-.14.02.15ZM120.96,101.66s-.08,0-.08,0c.16-.12.33-.25.49-.37v.1c-.16-.17-.31-.35-.45-.52l.07-.16.02.16c-.01.27-.03.53-.04.8ZM119.88,99.56l-.02.12-.06-.13h.08ZM121.04,95.62l-.06.13-.02-.14c.16-.13.32-.26.47-.39.07,0,.18.03.21,0,.08-.1.13-.22.19-.34.03-.19.07-.37.1-.56-.14.06-.29.12-.43.18-.28-.03-.55-.05-.83-.08.3-.53.61-1.07.91-1.6l.15.05s-.16.03-.16.03c.41-.9.81-1.81,1.47-3.27-1.32.39-2.36.4-2.91.92-1.04.99-1.81,2.27-2.69,3.43-1.99,1.15-3.99,2.3-5.14,4.4-.99,1.79-.61,4.06.95,5.57.81-3.33,2.03-6.4,4.17-9.03.16.31.32.62.62,1.19.98-.64,1.81-1.19,2.64-1.74.13.15.27.31.4.46-.02.26-.03.53-.05.79ZM51.55,137v.08s-.14-.03-.14-.03l.14-.06ZM139.54,111.98v.07s-.14-.04-.14-.04l.14-.03ZM92.79,141.45l.12.05-.12.03-.14-.05.15-.03ZM148.08,172.82c.27.03.53.05.8.08-.99,3.58-2.65,6.77-5.05,9.67-2.38,2.88-5.32,5.07-8.15,7.41-.38.31-.68.71-1.02,1.06l.3.51c3.35-1.04,6.71-2.08,9.84-3.76.23-.12.35-.44.52-.66.11.26.15.61.35.76,1.83,1.48,2.39,3.3,1.53,5.42.49,1.13.91,2.11,1.34,3.1,1.02-.67,1.84-1.21,2.3-1.52,2.34,1.82,4.3,3.35,6.14,4.78,2.43.17,4.67.42,6.81-1.36-4.09-3.94-8.06-7.76-12.32-11.86-1.44-.22-3.45-.24-4.78-1.98l.06-.17.03.18c-.45.37-.9.75-1.35,1.12.2-1.29.4-2.57,1.84-3.13.16-.02.32-.03.18-.02.13-.07-.03.01-.18.1-.42-.88.03-1.42.75-1.82,1.79-.98,3.62-1.89,5.37-2.93,1.83-1.09,3.51-.99,5.18.27.1,1.45,1.12,1.74,2.3,1.8.31.35.68.66.93,1.05,1.5,2.35,2.96,4.73,4.44,7.09v-.1c-.65,4.15.71,7.43,4.1,9.72.33-1.28.75-2.57.97-3.9.31-1.86-1.75-10.83-2.77-12.46-.25-.4-.52-.79-.83-1.15-5.62-6.63-11.23-13.27-16.87-19.88-.38-.44-.92-.74-1.73-1.36-.19,1.9-.76,3.48-.39,4.8.87,3.12.61,6.16.17,9.26l-.8-.06v-.08ZM103.21,116.84l-.05.14-.03-.14c.17-.14.33-.28.5-.42.48.58.95,1.06,1.81.57.23-.13.65.06.99.11l-.06.17-.02-.18c.85-.19,1.7-.37,2.55-.56h-.08c2.26-.44,4.25.15,5.99,1.61h-.08c.33-.23.66-.46.99-.69h-.08c.17.2.34.4.66.77.24-.75.43-1.34.62-1.93.28.02.57.04.85.06.46,1.07.91,2.14,1.37,3.2.63-.12,1.05-.2,1.53-.29.15.34.3.67.44,1l-.06.14s-.02-.15-.02-.15c.55.34,1.09.7,1.65,1.01.89.49,1.79.94,2.68,1.4,0,0-.08,0-.08,0,.34.16.69.32,1.08.51.24-1.34.38-2.14.51-2.92,2.42-.38,2.78,2.74,5.19,2.49.92-.67,2.03-1.48,3.16-2.3-.13-.78-.26-1.5-.39-2.26-.96-.15-1.78-.28-2.91-.46-.13.66-.24,1.22-.34,1.78,0,0,0-.09,0-.09-.32.34-.64.68-1.18,1.26-2.24-2.62-4.44-5.19-6.47-7.57q-5.6-.41-10.41-4c-.71.24-1.55.53-2.64.9.79,1.59,1.46,2.91,2.1,4.25.09.19.03.46.05.77-.76-.23-1.38-.43-1.91-.59-2.3-3.69-4.01-4.6-7.32-3.75,1.23,1.44,2.37,2.77,3.51,4.11v-.09c-1.24.6-2.48,1.2-3.72,1.8-.07,0-.16-.01-.2.03-.09.09-.14.2-.21.31ZM39.32,250.83l.04-.12.03.13c.22.27.44.54.66.8l.12.03-.13.04c-.24-.3-.49-.59-.73-.89ZM194.3,160.28h-.08c.09-.15.18-.29.11-.19.03-.14,0,.02-.04.19ZM31.41,213.42c.17.12.34.24.15.11.23.04.03,0-.16-.03-.13-.09-.27-.19-.18-.13-.11-.03.04.01.2.05ZM131.25,232.89c.15.09.29.18.18.11.14.03-.02,0-.19-.04l-.13-.05.13-.03ZM148.28,165.17l-.05.13-.04-.13c-.03-.16-.06-.31-.07-.39.03.08.09.24.15.39ZM190.64,200.86c-.15,0-.3.02-.17.01-.12.06.03-.01.18-.09l.12.05-.12.03ZM126.29,203.46c.15.09.29.18.18.11.15.02-.02,0-.19-.03-.18-.13-.36-.25-.21-.15-.18-.05.02,0,.22.06ZM176.38,156.14c-.13-.09-.26-.18-.17-.12-.12-.03.03,0,.18.04v.08ZM140.47,105.21l-.04.14-.04-.15c-.05-.15-.09-.29-.14-.44.07.15.15.3.22.45ZM208.52,220.02c-.28.24-.56.48-.84.72.11.22.22.44.04.08.3.23.09.07-.12-.09.31-.26.62-.53.93-.79l.17.05s-.17.03-.17.03ZM156.24,124.66l.05-.16.04.17c-.11.23-.21.46-.05.11.11.4.04.14-.03-.11ZM182.29,127.8c.29.09.59.18.88.27,0-.13,0-.26,0-.39l-.88.21c-.15.02-.3.04-.19.02-.1.06.04-.02.19-.11ZM105.04,169.95c-.39-.02-.78-.04-1.17-.06.04.19.08.38.12.56l1.05-.59.13.06-.14.02ZM139.82,210.56c.1.32.2.63.3.95.08-.04.16-.08.24-.13-.21-.27-.42-.55-.63-.82-.47-.84-.95-1.69-1.42-2.53q-.5-1.22-2.12-1.49c1.03.7,1.61,1.09,2.2,1.49.47.84.95,1.69,1.42,2.53ZM24.82,225.04c.37.5.75.97,1.58.49-.48-.8-.96-.92-1.6-.43-.12-.25-.23-.5-.35-.76-.11.1-.21.19-.32.29.23.13.46.27.69.4ZM136.04,129.98l-2.91-2.41c.28.97.75,1.7,1.4,2.2.34.26,1,.1,1.51.13l.15.05-.16.04ZM33.79,218.85c-.01.52-.02,1.04-.03,1.47.93.52,1.63.72,2.29-.28-.89-.45-1.62-.82-2.35-1.19.65-.13,1.3-.27,2.22-.46-1.1-.98-1.97-1.06-3.28-.54.53.46.84.73,1.15,1ZM111.7,172.49c-1.06-1.2-2.38-1.69-4.54-1.89,1.71,1.36,2.89,2.24,4.54,1.8l.14.05-.14.03ZM185.88,201.24c-1.45-.4-2.7-.25-3.75,1.35,1.15.23,2.04.4,3.11.62.53-.62,1.03-1.21,1.82-2.13-.76.09-1.01.13-1.26.16h.08ZM134,125.74c-.13.4-.25.81-.4,1.29,1.49.45,2.79.84,4.22,1.27.24-.68.44-1.25.65-1.84-.95-.38-1.72-.69-2.48-.99,1.05-.23,2.1-.45,3.34-.72-.24-.56-.44-1.02-.7-1.64-1.6.53-3.05,1.01-4.59,1.52,0,.41-.01.76-.02,1.12ZM173.59,207.17c.43,0,.86,0,1.53-.01-.15-.93-.27-1.62-.42-2.55-1.1-.05-2.07-.09-3.33-.14.19,1.3.33,2.26.51,3.51.84-.38,1.32-.59,1.8-.8h-.09ZM74.88,158.21c.76,1.17,1.52,2.34,2.36,3.62,1.37.19,2.34,1.94,4.13,1.37q-.96-2.18-3.21-2.12c.15-.42.3-.84.45-1.28-1.11-.83-2.17-1.64-3.3-2.49-.21.5-.32.75-.43,1.01-.28-.18-.56-.35-1.08-.68-.09,1.42-.02,2.46,1.07,3.48,0-1.16,0-2.03,0-2.89ZM62.22,211.78c-.84,2.28-1.29,4.61-.69,7.11,1.23-3.15,2.45-6.31,3.73-9.6-.6-.24-1-.39-1.29-.51-.65,1.13-1.2,2.1-1.76,3.07-.14-.09-.28-.18-.17-.11-.13-.03.02,0,.18.04ZM202.56,219.15c-.02-.36-.05-.72-.05-.8-1.55-.61-2.9-1.13-4.28-1.67-.24.61-.48,1.25-.75,1.94-.8-.41-1.42-.72-2.44-1.24,1.28,3.6,4.09,3.21,6.47,3.7.4-.48.69-.85.98-1.21q1.37.21,1.24-1.45c-.44.27-.81.49-1.17.72ZM124.03,200.89l.91,1.07c.52-2.3.95-4.15,1.4-6.14-.64-.66-1.33-1.36-2.23-2.29-.15.89-.23,1.38-.34,2.04-.31-.3-.5-.47-.69-.65-.18-.17-.37-.35-.48-.45-.36,2.19-.71,4.35-1.12,6.83.88-.14,1.75-.28,2.62-.41h-.08ZM130.16,55.6c.15.53.3,1.06.48,1.7,1.49-.25,2.86-.47,4.12-.68,1.31-2.04-1.05-2.87-.92-4.36-3.84-.12-4.47.4-4.39,3.51.28-.05.54-.11.8-.16h-.08ZM158.33,124.39c.9,3.8,3.96,5.62,8.12,4.71.7-3.9-2.93-3.86-4.93-5.53-1.08.3-2.14.6-3.21.9-.14-.1-.29-.2-.18-.13-.14-.03.03,0,.19.05ZM157.73,153.35c-.17-.52-.25-1.34-.66-1.92-1.51-2.16-2.89-4.37-4.03-6.77-.97-2.03-2.42-3.83-3.54-5.79-1.87-3.28-4.71-5.17-8.55-6.44-.03,1.2-.4,2.28-.03,2.97,1.59,2.98,1.92,6.3,2.75,9.48.3,1.14.22,2.37.32,3.78.69.91,1.8,1.92,2.33,3.18,1.08,2.53,3.01,3.2,5.47,3.16,1.22-.02,2.45-.04,3.67,0,1.08.04,1.83-.34,2.25-1.64ZM106.54,159.68c-1.66-.11-2.75-.14-3.82-.27-2.11-.26-4.05-.07-6.07.84-2.04.92-4.34,1.26-6.53,1.84-.73.2-1.49.32-2.2.58-1.1.4-1.4,1.15-.73,2.47,1.76.2,3.59.41,5.78.66.14.12.62.53,1.24,1.06.59-.78,1.08-1.41,1.57-2.07.93.16,1.76.31,2.72.48.98-.83,1.97-1.68,2.93-2.5,1.03.05,1.95.09,3.01.14.62-.94,1.21-1.85,2.11-3.24ZM42.86,240.12c.12-.02.24-.05.36-.07-.33-3.17-.66-6.33-.97-9.32-1.08-.81-1.87-1.4-2.76-2.07-1.4,2.89-.25,5.46.05,8.39-1.96,2.11-1.08,4.3.51,6.05.25,2.47.46,4.59.7,6.95l2.23-1.9c.34-2.34.62-4.26.95-6.53-.2-.29-.63-.89-1.06-1.49ZM146.34,160.1c-1.62-5.16-3.86-8.61-6.56-10.13-.9,2.81-1.77,5.55-2.7,8.44,1.02.68,1.85,1.23,2.73,1.82,2.06-1.85,4.12-1.35,6.53-.13ZM46.32,203.91c-1.87-.42-3.02-.68-4.41-.99-.58,2.61-1.12,5.01-1.66,7.42.2.1.4.2.61.29,1.7-2.09,3.41-4.19,5.46-6.72ZM104.36,42.43c.71,2.85,2.03,5.03,4.13,7.59.12-1.68.2-2.74.28-3.8-.14.03-.28.06-.42.09-.84-1.87-1.68-3.74-2.59-5.76-.48.64-.91,1.22-1.4,1.87ZM119.79,102.92c0-.09.07-.46.02-.82-.04-.26-.22-.49-.34-.72-3.8.2-5.42,1.72-4.63,4.16,1.49-.79,3-1.59,4.94-2.62ZM121.97,181.41c1.8-1.15,3.44-2.01,3.68-4.26-1.77-.49-2.64.61-3.59,1.45-.47.41-.79.98-1.2,1.51l1.12,1.31ZM125.07,187.1c.26-.05.53-.09.79-.14,0-1.97.18-3.95-.42-6.44-1.05,1.13-1.78,1.92-2.57,2.76.81,1.42,1.5,2.62,2.2,3.82ZM114.09,107.02c-.03.28-.06.55-.09.83,1.46,1.07,3.25.59,5.02.86.47-.66.9-1.26,1.67-2.33-2.61.26-4.61.45-6.6.64ZM63.6,206.51c.85-1.01,2.18-1.46,1.91-3.36-1.7.77-3.63.49-5.01,2.34,1.11.36,1.98.65,3.11,1.02ZM180.55,140.11c1.2,1.34,1.52,3.13,3.4,4.4-.65-2.54-1.78-4.16-3.14-5.77-1.02.29-1.9.6-2.63,1.93,1-.24,1.59-.38,2.36-.56ZM175.93,133.02c.32.79.45,1.66,1.63,1.46-.09-.71-.16-1.27-.27-2.07.87.7,1.47,1.18,2.25,1.81.51-1.35-.1-1.89-.86-2.28-1.11-.57-2-.28-2.76,1.08ZM176.71,142.23c.16-.12.33-.24.49-.37l-3.14-3.68c-.25,2.47,1.78,2.84,2.65,4.04ZM102.13,51.57c.23.02.46.04.69.05.67-1.03.68-2-.71-3.23,0,1.31,0,2.25.01,3.18ZM77.1,164.69c-.34-.9-.27-2.24-1.91-2.09-.08,1.43.87,1.8,1.91,2.09ZM104.53,105.67l.17-.71c-.7-.19-1.4-.39-2.11-.58.39,1.15.98,1.71,1.94,1.29ZM129.25,205.93c.17-.06.35-.12.52-.18-.1-.64-.12-1.3-.34-1.89-.09-.23-.63-.28-1.47-.6.59,1.23.94,1.95,1.29,2.67ZM30.22,214.85c-.03.24-.06.49-.1.73.82.13,1.64.27,2.46.4-.61-1.19-1.39-1.52-2.36-1.13ZM172.67,130.05c.64.08,1.28.16,2.22.27-.7-1.36-1.38-1.35-2.22-.27ZM130.26,196.13c-.39-.71-.55-1.3-.75-1.31-.41-.02-.84.26-1.26.42.02.15.04.3.06.44.5.11.99.23,1.95.45ZM174.64,185.48c-1.46-.15-1.6.52-1.41,1.41.04.21.29.37.64.77.28-.81.49-1.41.77-2.19ZM117.42,200.58l.46-.5c-.42-.35-.84-.69-1.26-1.04-.09.1-.18.2-.27.29l1.07,1.25ZM60.68,210.24q.06-1.53-1.17-2.38c.49.99.83,1.69,1.17,2.38ZM130.56,128.88l.17-.39c-.47-.33-.93-.65-1.78-1.24.24.77.25,1.23.47,1.38.29.21.75.18,1.14.25ZM119.62,198.4c.53.42.89.7,1.69,1.34-.18-1.01-.26-1.46-.37-2.1-.52.3-.8.46-1.33.76ZM170.67,200.58c-.16.16-.31.31-.47.47.33.24.66.48.99.71.09-.11.19-.22.28-.33-.27-.28-.53-.57-.8-.85ZM185.28,122.45q1.73.05,2.35-1.19c-.8.41-1.38.7-2.35,1.19ZM177.78,139.34c-.01-.71.07-1.03-.05-1.17-.12-.14-.45-.09-.69-.12-.02.29-.13.62-.03.87.07.18.42.25.77.43ZM136.87,208.26c-.05.05-.11.09-.16.14l1.12,1.32c.05-.05.11-.09.16-.14l-1.12-1.32ZM78.37,158.6c.16-.16.32-.32.47-.47-.28-.19-.56-.38-.83-.56-.1.12-.19.25-.29.37.22.22.43.44.65.66ZM20.16,225.52c-.1-.11-.21-.21-.31-.32-.16.21-.33.41-.48.62,0,0,.15.16.17.14.21-.14.41-.3.61-.45ZM122.59,203.98c-.04.19-.07.37-.11.56.34.01.67.02,1.01.03.01-.13.02-.26.04-.39-.31-.07-.62-.13-.94-.2ZM187.38,143.23c.15-.23.3-.46.45-.68l-1.21-.56c-.09.16-.18.32-.28.48.35.26.69.51,1.04.77ZM126.7,126.35c0-.37.09-.7-.03-.85-.11-.13-.57-.18-.68-.07-.14.14-.18.54-.07.71.09.14.44.13.79.21ZM175.63,135.77l-.29.34c.21.13.42.26.64.37.02,0,.16-.16.15-.16-.16-.19-.33-.37-.5-.55ZM137.48,121.35l-.3.31c.17.22.34.45.51.67.16-.16.32-.32.48-.48-.23-.17-.46-.33-.69-.5ZM185.11,145.23c.03.19.06.38.08.57.28-.09.55-.17.83-.26-.06-.15-.12-.42-.19-.42-.24-.01-.48.06-.73.11ZM47.13,225.08c-.08.1-.16.19-.25.29l.81.71.14-.17-.71-.82ZM123.71,206.76c.1.17.19.34.29.51.22-.16.44-.32.66-.49-.06-.1-.11-.2-.17-.31-.26.09-.52.19-.78.28ZM152.66,156.92c.06-.23.13-.45.19-.68l-1.19-.12c-.02.15-.05.29-.07.44.36.12.71.24,1.07.36ZM126.98,194.52c.38.01.67.11.84,0,.13-.08.12-.41.17-.63-.24-.04-.52-.16-.7-.08-.15.06-.18.39-.3.71ZM88.16,150.39s-.07-.09-.11-.13l-.64.55s.07.09.11.13l.64-.55ZM193.61,139.09h-.22c.03.11.06.22.09.34.06-.04.16-.07.18-.12.02-.06-.03-.14-.05-.22ZM134.4,202.21c.07-.08.13-.17.2-.25-.19-.14-.38-.28-.57-.42-.04.04-.07.08-.11.12l.48.56ZM129.14,125.51c.13-.08.25-.16.38-.24l-.45-.59c-.08.05-.15.11-.23.16.1.22.2.44.3.67ZM171.18,136.87c.03-.07.1-.16.09-.22-.01-.06-.12-.1-.18-.14-.04.12-.09.24-.13.35.07,0,.15,0,.22,0ZM30.72,225.2c.07.03.15.1.2.08.06-.01.09-.11.14-.17-.11-.04-.22-.08-.33-.12v.21ZM132.22,125.95c-.04-.14-.08-.28-.14-.4-.02-.03-.2-.02-.21,0-.04.13-.05.26-.07.4.14,0,.28,0,.43,0ZM120.32,196.66c.07.03.16.11.21.09.06-.02.09-.13.13-.2-.11-.04-.22-.09-.33-.13,0,.08,0,.16,0,.23ZM202.58,221.85c.07.03.15.1.22.09.05,0,.09-.11.13-.17-.07-.03-.15-.1-.22-.09-.05.01-.09.11-.14.18ZM117.67,135.61c-.07-.02-.15-.07-.21-.05-.07.02-.13.11-.19.16.11.04.22.08.33.13.03-.08.05-.16.08-.24ZM156.62,120.4l.18-.15c-.1-.03-.19-.07-.29-.1-.03.07-.05.14-.08.21.06.02.13.03.19.05ZM105.01,53.99c.08-.07.15-.13.23-.2l-.55-.64c-.08.07-.15.13-.23.2l.55.64ZM119.43,175.65c-.86.11-1.07.13-1.28.16l.11.45c.19-.1.39-.2,1.17-.61ZM118.93,199.86l.18.08-.05-.19-.13.11ZM121.72,203.01l-.02-.22-.17.11.2.11ZM175.48,184.44c.08-.04.15-.09.23-.13-.1-.08-.2-.17-.3-.25-.04.07-.11.16-.1.22.01.06.11.11.17.16ZM187.88,140.26l.13-.09-.17-.1.03.19ZM50.35,230.78l.02.19.14-.08-.16-.11Z"/>
        <path d="M179.31,222.5c.16.49.27,1.01.5,1.47.21.42.56.77.85,1.15v-.08c-.72,1.32.21,2.29.67,3.38.38.92.59,1.9.87,2.86l.03-.08c-.17.42-.35.85-.52,1.27v-.07c-.35,1.36.01,2.32,1.51,2.61l-.05-.02c-.97,1.61-2.6,1.65-4.2,1.73-.04,1.16-.07,2.26-.1,2.98-1.73,1.48-3.08,2.63-4.29,3.67-1.3-.05-2.53-.11-3.77-.16v.09c-.37-.47-.74-.94-1.11-1.4v.09c1.93-1.24,3.44-2.6,2.85-5.3-.16-.75.59-1.71,1.1-3.04-.27-1.68-.62-3.85-.96-6.01-.22,0-.43-.02-.65-.03.49-1.69.84-3.44,1.51-5.06,1.09-2.63.38-5.3.44-7.95.02-.72-.1-1.45-.16-2.34-.35.23-.58.35-.77.51-.2.17-.36.39-.63.69l-1.45-1.7c2-1.48,4.92-1.64,6.9-.46.48.28.98.52,1.47.79h-.08c.03.27.03.55.09.82.06.26.19.51.37.94-.63-.36-1.13-.64-1.87-1.06-.12.62-.22,1.1-.32,1.59l-.13-.04.13-.04c.35.33.75.62,1.04.99.4.51.71,1.09,1.05,1.65h.09c-.51-.71-1.14-.98-1.95-.52l-.18-.06.19-.03c.25.46.83,1.08.7,1.34-.98,1.89-.25,3.42.83,4.92l-.15-.05.16-.03ZM177.03,211.73l.16.08-.04-.17-.12.1ZM175.73,212.34l.09.13.1-.17-.19.03Z"/>
        <path d="M164.58,17.03c-.17,1.22-.34,2.44-.51,3.67l-.15-.04.15-.02c.07.64.14,1.28.23,2.02,1.48.25,1.77-.75,2.06-1.75.28-.97.54-1.94.86-3.13,1.55,3.25,1.2,4.36-1.6,5.81-1.49.77-1.59,1.12-.99,3.76-.68,1.11-1.45,2.35-2.29,3.72-.76-.49-1.27-.82-1.8-1.17-1.03,1.77-2,3.44-3.09,5.29-.8-1.9-.7-5.33.08-8.16l-.1.03c1.63-.27.87-1.23.6-2.05l.02.09c-.11-.44-.21-.89-.32-1.33,0,0,0,.09,0,.09-.27-.31-.53-.62-.8-.94h.09c-.03-.83-.05-1.66-.08-2.44,1.86-1.26,1.95-1.28,4.3-1.15-.31,1.4-.63,2.8-.98,4.4.99.3,1.78.54,2.58.78.08-.18.16-.36.25-.54-.52-.42-1.04-.84-1.82-1.47,1.14-1.83,2.27-3.63,3.4-5.43l-.09-.04ZM167.34,20.07h-.08s.08,0,.08,0ZM161.88,27.24c.41-.07.67-.07.89-.17.08-.04.12-.42.06-.45-.21-.11-.51-.26-.68-.18-.14.06-.15.42-.27.8Z"/>
        <path d="M190.56,23.53c-.46-1.09-1.34-1.1-2.36-1.05-1.21.07-2.48.07-3.65-.19-1.73-.38-1.93-1.02-1.41-3.16q2.01-.47,3.14-1.49c-.05-.98-.63-1.22-1.53-1.16-1.28.08-2.57.06-4.47.1.41-1.13.67-1.83.92-2.51-1.03-.34-1.74-.57-2.44-.8v.07c.52-.21,1.02-.47,1.55-.62,3.97-1.15,4.36-1.02,6.97,2.25.81-.11,1.7-.23,2.56-.35,1.55.89,1.52,2.28,1.41,3.7l.07.02c-.21-.02-.43-.05-.64-.07.05.16.1.33.15.49v-.09c-.03.3-.05.6-.07.89v-.09c-.02.3-.04.59-.07.89l.02-.09c-.22.28-.44.56-1,1.29.8-.46,1.11-.64,1.42-.81h-.08c-.19.93-.38,1.84-.57,2.76l.08.02Z"/>
        <path d="M152.03,217.18c-1.19-1.39-2.17-2.54-3.24-3.79l1.18-1.01c1.21.41,2.32.79,2.96,1.01,2.79-1.28,5.05-2.41,7.39-3.37,1.41-.58,1.96-.2,3.18,1.82-.61.47-1.18,1.17-1.91,1.41-3.36,1.11-5.99,4.1-9.56,3.94Z"/>
        <path d="M171.06,49.04c-4.03-1.35-8-2.81-11.46-5.67-.47.6-.81,1.03-1.14,1.45h.07c-.05-1.46-.11-2.93-.17-4.52,2.13-1.9,2.71-2.04,6.39-1.44-.12.34-.2.65-.34.93-.16.33-.39.63-.6.96.29,1.01.46,2.04.87,2.97.48,1.08.96,2.37,2.63,1.85h-.07c.58.68,1.11,1.44,1.77,2.06.61.57,1.35,1,2.03,1.49v-.08Z"/>
        <path d="M164.05,225c.15.15.29.31.44.46v-.08c.15.17.29.33.44.5h-.09c.17.71.54,1.44.47,2.13-.34,3.09.16,6.17.1,9.25-.02,1.12-.07,2.27,1.22,3.43-1.09-.17-1.62-.26-2.15-.34h.08c-2.16-5.06-3.15-10.15-.41-15.34h-.08Z"/>
        <path d="M139.14,44.95c-1.64-.88-1.86-2.53-2.15-4.09-.21-1.11-.56-2.01-1.8-2.24v.08c.16-.07.34-.22.51-.21,2.78.18,5.56.38,8.38.57.06.61.15,1.52.23,2.33-1.82,1.24-3.52,2.4-5.22,3.55h.06Z"/>
        <path d="M187.75,47.61c0-1.17.3-2.25.52-3.35.23.02.46.04.69.06.5,1.56,1.01,3.12,1.57,4.85.98-.24,1.92-.47,3.08-.75q-1.4,1.43-8.1,2.56l-.03.09c.02-.31.05-.62.07-.92v.1c.03-.3.06-.6.08-.9v.08c.72-.63,1.42-1.27,2.12-1.9.3.05.61.1.91.15-.01-.14-.03-.27-.04-.41-.29.11-.58.23-.88.34ZM187.09,49.2c0,.11.01.22.02.33.24-.01.47-.02.71-.03l-.02-.34-.71.04Z"/>
        <path d="M167.03,153.73c.38-1.86.77-3.73,1.15-5.59,0,0,0,.08,0,.08-.52-.86-1.05-1.72-1.61-2.64,1.3-1.11,2.64-2.25,4.33-3.71-.86,2.87-1.58,5.42-2.4,7.94-.43,1.33-1.02,2.61-1.55,3.91h.08Z"/>
        <path d="M168.81,216.47c1.27,1.23.53,2.81.84,4.47l-3.62,3.09c-.26-.52-.39-.75-.51-.99v.1c-.15-.17-.29-.34-.44-.51h.09c.31-.5.61-1,.92-1.51l-.07-.02.89,1.04c.01-.94.02-1.38.03-1.82v.09c.07-.16.15-.31.23-.47-.22,0-.44-.01-.65-.02h.08c.33-.77.65-1.54.98-2.31,0,0-.07-.01-.07-.01.17-.14.33-.28.5-.43l-.03.08.92-.79h-.09Z"/>
        <path d="M189.05,41.99c1.21.51,2.45.93,3.61,1.54,1.83.95,1.9,1.28,1.27,3.78-.93.07-1.93.14-3.08.22-.17-.88-.3-1.58-.42-2.21.44-.3.73-.5,1.16-.79-.88-.91-1.7-1.76-2.53-2.61v.08Z"/>
        <path d="M152.25,1.16c-.88.46-1.79.94-2.81,1.47-.89.02-1.9.04-3.33.07.61-1.25.95-1.97,1.25-2.58q2.34-.25,4.89,1.03Z"/>
        <path d="M144.96,22.02c2.67,1.53,3.82,4.13,5,6.7-.16.11-.32.22-.48.33-1.48-2.34-2.96-4.69-4.44-7.03h-.08Z"/>
        <path d="M157.54,27.01c-.54.05-1.08.1-1.43.13-1.4-2.09-.26-3.16.93-4.23h-.09c.27.3.53.62.8.93,0,0,0-.09,0-.09-.14.15-.27.31-.41.46v-.08c.25.32.49.63.73.95l-.02-.09c-.2.68-.4,1.37-.6,2.05,0,0,.1-.03.1-.03Z"/>
        <path d="M155.05,5.56c.41.24.66.3.71.44.5,1.17.97,2.34,1.53,3.7q-2.2-.97-2.24-4.14Z"/>
        <path d="M120.1,24.53c.23.16.57.27.67.49.91,1.91,1.77,3.83,2.47,5.83-1.56-1.85-2.86-3.81-3.06-6.32h-.09Z"/>
        <path d="M150.71,56.8c.29-.56,1.51-.57.95-1.63v.08c1.46.25,2.92.5,4.38.75h-.08c.26.3.51.61.77.92v-.08c-2-.03-4.01-.06-6.01-.1,0,0,0,.06,0,.06Z"/>
        <path d="M64.89,151.85c.53.46,1.08.91,1.6,1.39.61.56,1.2,1.14,1.79,1.71l.03-.06c-.51-.01-1.02-.04-1.53-.04-.66,0-1.33.04-2.04.06-.09-.46-.24-1.16-.39-1.87.19-.41.38-.83.56-1.24l-.03.06Z"/>
        <path d="M143.28,4.53c.26-.74.38-1.08.67-1.9-.99.68-1.63,1.13-2.71,1.88.82-1.86,1.66-2.78,3.32-2.82.64,1.28-.02,1.95-1.29,2.84Z"/>
        <path d="M51.6,187.15c-.66.64-.04.94.35,1.3v-.09c-1.57.71-3.17,1.14-4.86.41v.07c.69-.37,1.38-.73,2.08-1.1.13.16.25.31.38.47l.13.02-.15.06c-.15-.18-.3-.36-.45-.54.84-.17,1.68-.34,2.52-.51v-.08Z"/>
        <path d="M155.7,40.06c-.73,1.29-1.03,2.37-2.38,2.66q.03-2.19,2.38-2.66Z"/>
        <path d="M156.72,56.92c.89-.78,1.77-1.56,2.66-2.35v.08c.17-.7.35-1.4.53-2.1l.29.02c-.05.86-.09,1.72-.13,2.42-.96,1.19-1.8,2.19-3.34,1.85v.08Z"/>
        <path d="M164.46,240.36c1.43,1.41,2.86,2.82,4.36,4.3-2.47-.4-3.73-1.98-4.29-4.31h-.08Z"/>
        <path d="M156.32,36.97c.31.19.62.38.93.57-.03.12-.06.24-.09.37-.94-.12-1.89-.24-2.99-.38.26-1.23,1.06-1.54,2.19-1.94-.02.63-.03,1.05-.04,1.47l-.14-.06.15-.03Z"/>
        <path d="M173.88,49.75c1.99.27,3.97.53,5.96.8v-.07c-2.13.9-4.08.29-5.95-.8v.08Z"/>
        <path d="M164.93,157.65c-.24,1.72-1.44,2.76-2.68,3.78,0,0,.07.03.07.03-.14-.16-.28-.32-.41-.48v.08c.53-.52,1.05-1.05,1.63-1.63-.2-.56-.39-1.07-.57-1.59v.1c.68-.09,1.37-.18,2.05-.27h-.09Z"/>
        <path d="M183.17,209.52c-.78.76-1.57,1.53-2.59,2.52,0-.87,0-1.54,0-2.31,1-.07,1.83-.12,2.67-.18,0,0-.08-.03-.08-.03Z"/>
        <path d="M188.85,136.39c-.39.53-.79,1.06-1.48,1.98-.3-1.34-.48-2.12-.73-3.23.9.54,1.56.94,2.22,1.34v-.1Z"/>
        <path d="M93,93.48c-.55-1.14-1.1-2.29-1.77-3.66q1.96,1.16,1.67,3.66h.1Z"/>
        <path d="M96.82,96.19c-.76-.89-1.53-1.77-2.29-2.66v.08c2.14,0,2.26.14,2.2,2.58h.09Z"/>
        <path d="M119.98,21.65c.07-1.51.98-2.52,2.02-3.46-.45,1.3-.89,2.61-2.1,3.45h.08Z"/>
        <path d="M160.54,224.06l-2.92,2.5-.14-.17c.99-.84,1.97-1.68,2.96-2.53.04.07.07.13.11.2Z"/>
        <path d="M181.04,51.16c.77-.9,1.75-1.18,2.89-1.05v-.1c-.01.3-.04.61-.06.91v-.08c-.95.08-1.88.15-2.82.23v.09Z"/>
        <path d="M92.25,187.64c.13.5.26,1,.39,1.51-.2.05-.39.1-.59.15-.13-.5-.26-1-.39-1.51.2-.05.39-.1.59-.15Z"/>
        <path d="M163.28,36.96c-.49-.01-.98-.02-1.47-.03,0-.16-.02-.33-.02-.49.5-.06.99-.13,1.49-.19v.71Z"/>
        <path d="M164.67,17.06c0-.55.01-1.1.02-2.36.65,1.06.94,1.54,1.39,2.28-.67.02-1.09.03-1.5.04,0,0,.09.04.09.04Z"/>
        <path d="M168.55,214.45c.12.67,1.11,1.23.26,2.02h.09c-.45.1-.89.21-1.34.31h.08c.33-.78.65-1.55.98-2.32h-.07Z"/>
        <path d="M181.94,213.03l1.76-1.51c.04.05.09.11.13.16l-1.76,1.51c-.04-.05-.09-.11-.13-.16Z"/>
        <path d="M158.99,12.97c.32-.3.63-.6,1.09-1.03.18.51.29.83.52,1.48-.71-.23-1.16-.38-1.62-.53v.08Z"/>
        <path d="M161.56,16.01c-.43.37-.87.74-1.3,1.11h.09c-.24-.56-.48-1.13-.72-1.7v.08c.64.2,1.29.39,1.93.59,0,0,0-.07,0-.07Z"/>
        <path d="M187.22,146.81c-.05.54-.11,1.08-.2,1.96-.62-.55-1.04-.93-1.47-1.31v.09c.57-.24,1.16-.48,1.74-.72l-.07-.02Z"/>
        <path d="M178.76,13.26c-.79.84-1.76,1.15-2.89,1.01v.08c.96-.34,1.92-.68,2.89-1.02v-.07Z"/>
        <path d="M179.62,216.92c.37.23.73.46,1.35.85-.51.25-.77.38-1.31.65.02-.68.04-1.09.05-1.51h-.09Z"/>
        <path d="M131.65,37.22c.77.29,1.55.58,2.32.87v-.08c-.76-.29-1.53-.58-2.3-.88v.08Z"/>
        <path d="M183.93,163.12c-.2-.38-.4-.76-.82-1.57.72.26,1.01.37,1.3.47v-.08c-.18.39-.37.79-.56,1.18h.08Z"/>
        <path d="M47.11,167.02l-1.47,1.26c-.08-.12-.16-.23-.24-.35.57-.27,1.13-.55,1.7-.82v-.08Z"/>
        <path d="M183.93,50.11c.15-.13.31-.25.46-.38l-.07-.02c.3.02.6.05.9.07l-.09-.02c.14.16.29.32.43.49v-.1c-.03.31-.06.62-.08.92l.03-.09c-.55-.04-1.09-.09-1.64-.13v.08c.03-.3.06-.61.08-.91v.1Z"/>
        <path d="M162.54,157.47c.14.15.27.31.41.46v-.1c-.33.42-.66.85-1,1.28-.64-.92.34-1.14.67-1.63h-.08Z"/>
        <path d="M145.04,22.02l-1.22-1.7.34-.18c.27.63.54,1.25.81,1.88h.08Z"/>
        <path d="M70.4,153.99c.15-.29.3-.58.6-1.15.27.53.4.79.69,1.37-.65-.16-.97-.23-1.28-.3,0,0-.01.09-.01.09Z"/>
        <path d="M150.84,34.94l-1.26-1.47c.09-.06.18-.13.28-.19.3.55.6,1.11.9,1.66h.08Z"/>
        <path d="M25.3,218.61c.26-.45.51-.9.85-1.49.44,1.19-.32,1.27-.93,1.47l.08.02Z"/>
        <path d="M189.08,24.65c.02.42.03.85.05,1.27-.15-.02-.31-.05-.46-.07.17-.39.34-.79.51-1.18h-.09Z"/>
        <path d="M161.73,14.43c.31.15.61.29,1.24.59-.48.3-.72.46-.96.61l.07.02c-.12-.44-.23-.87-.35-1.31v.09Z"/>
        <path d="M184.19,165.27c.44-.12.88-.25,1.32-.37,0,0-.08,0-.08,0,.23.3.46.59.69.89v-.08c-.63-.18-1.28-.35-1.92-.53v.08Z"/>
        <path d="M151,37.84c.46.23.92.46,1.37.69l-.24.32-1.13-1.1v.08Z"/>
        <path d="M151,37.75c-.4.13-.81.26-1.21.38-.02-.12-.04-.24-.06-.36.42.02.85.04,1.27.06v-.08Z"/>
        <path d="M163.69,219.33c-.23.42-.46.84-.68,1.26-.09-.06-.18-.13-.27-.19.34-.35.69-.7,1.03-1.06h-.08Z"/>
        <path d="M181.49,163.19c.18.15.36.3.54.45l-.15.17c-.16-.17-.33-.34-.49-.51.04-.04.07-.08.11-.11Z"/>
        <path d="M74.98,154.23c.25.06.49.11.73.18.02,0,0,.22,0,.22-.26.02-.51.02-.77.02.01-.14.03-.28.04-.42Z"/>
        <path d="M69.46,151.36l-.61.52c.14-.2.19-.3.26-.37.05-.05.13-.06.35-.15Z"/>
        <path d="M173.89,49.67l-1.97-.58s0,.07,0,.07c.65.19,1.31.39,1.96.58,0,0,.01-.08.01-.08Z"/>
        <path d="M68.27,154.94c.52.32,1.03.64,1.55.96l.02-.09c-.81.17-1.41,0-1.54-.94l-.03.06Z"/>
        <path d="M46.22,188.71c-.52-.03-1.04-.05-1.56-.08,0,0-.01.08-.01.08.52.02,1.05.05,1.57.07,0,0,0-.07,0-.07Z"/>
        <path d="M42.44,185.25c.07.28.14.56.21.85-.15,0-.29-.02-.44-.03.1-.27.21-.54.31-.81h-.08Z"/>
        <path d="M44.66,188.63c-.44-.25-.87-.5-1.31-.75.06-.09.13-.19.19-.28.37.37.73.74,1.1,1.11v-.08Z"/>
        <path d="M140.51,48.61c.14.19.29.38.43.57-.03.03-.06.05-.1.08l-.47-.55s.09-.06.14-.1Z"/>
        <path d="M168.62,214.46c.05-.43.1-.86.15-1.29.11.03.22.06.33.1-.19.39-.37.79-.56,1.18h.07Z"/>
        <path d="M169.32,19.84c-.08-.3-.15-.61-.23-.91h.42c-.09.31-.19.61-.28.91h.09Z"/>
        <path d="M147.31,215.43c-.05.07-.09.18-.14.19-.07.01-.15-.07-.22-.11.05-.07.09-.18.14-.19.06-.01.14.07.22.11Z"/>
        <path d="M172.88,15.91c-.05-.05-.1-.11-.14-.17.12,0,.23,0,.35-.01-.07.06-.14.12-.21.18Z"/>
        <path d="M189.18,24.66c.05-.33.11-.66.16-.98.23.09.45.19.68.28v-.08c-.31.25-.62.51-.93.76h.09Z"/>
        <path d="M203.51,137.72l.35-.3c-.03.08-.05.18-.11.23-.06.05-.17.05-.24.06Z"/>
        <path d="M127.23,34.25c.22.19.11.1,0,0,.13.06.25.12,0,0Z"/>
        <path d="M189.62,151.17c-.07.02-.15.08-.2.05-.05-.02-.07-.12-.1-.18.11-.03.21-.06.32-.09,0,.07,0,.14-.01.21Z"/>
        <path d="M193.3,153.51c-.06.01-.14.05-.18.03-.06-.03-.1-.11-.15-.17.09-.03.18-.05.28-.08.02.07.04.15.05.22Z"/>
        <path d="M131.67,37.13c-.32-.14-.64-.28-.95-.42.06-.09.12-.18.18-.26l.76.77v-.08Z"/>
        <path d="M160.65,17.61c.23-.08.46-.16.16-.06.3.08.07.02-.15-.04,0,0-.01.1-.01.1Z"/>
        <path d="M152.38,33.68c.08.12.16.25.24.37-.08-.12-.16-.25-.24-.37Z"/>
        <path d="M153.98,2.41c.09.1.18.21.26.31-.07-.03-.15-.05-.2-.1-.04-.05-.05-.14-.07-.21Z"/>
        <path d="M158.98,12.89c-.16.24-.31.47-.47.71-.09-.11-.18-.22-.27-.34.25-.1.5-.19.75-.29v-.08Z"/>
        <path d="M140.36,7.94c-.05.51-.09,1.03-.14,1.54h.08c.05-.51.09-1.02.14-1.54h-.08Z"/>
        <path d="M124.56,18.98c-.04-.06-.08-.11-.12-.16.1,0,.21,0,.31,0l-.19.16Z"/>
        <path d="M47.11,167.1c.3-.18.59-.36.89-.53.02.06.05.12.07.18-.32.09-.64.18-.96.27v.08Z"/>
        <path d="M41.08,171.98l-.12-.14c.1,0,.21-.02.31-.03l-.19.16Z"/>
        <path d="M163.78,219.34c.11-.31.21-.62.32-.93.08.04.16.09.24.13-.21.26-.43.52-.64.78h.08Z"/>
        <path d="M178.03,48.44c.31.09.61.18.92.27l-.16.3c-.25-.21-.5-.43-.76-.64v.08Z"/>
        <path d="M181.09,239.68c-.28.5-.56,1-.84,1.49h.08c.28-.49.56-.99.84-1.48,0,0-.09,0-.09,0Z"/>
        <path d="M119.83,23.26c.05-.54.1-1.07.15-1.61h-.08c-.04.53-.09,1.07-.13,1.61h.06Z"/>
        <path d="M181.05,215.41c-.06-.05-.15-.09-.17-.16-.01-.05.07-.12.11-.18l.28.25c-.07.03-.14.06-.22.08Z"/>
        <path d="M156.84,5.72l-.26-.3.26.3Z"/>
        <path d="M176.44,244.78l-.33.28c.03-.08.05-.17.11-.22.06-.05.16-.04.22-.06Z"/>
        <path d="M145.67,210.59c-.11.07-.21.13-.32.2.11-.07.21-.13.32-.2Z"/>
        <path d="M183.05,231.34c.3-.24.6-.48.91-.72,0,0-.08,0-.08,0-.04.51-.08,1.02-.11,1.53h.07c-.26-.3-.52-.59-.78-.89v.09Z"/>
        <path d="M183.07,225.29c.09.39.18.78.28,1.18h.09c-.09-.39-.19-.78-.28-1.17h-.08Z"/>
        <path d="M183.78,227.7c-.12-.41-.23-.82-.35-1.23h-.09c.12.4.24.81.35,1.22h.08Z"/>
        <path d="M184.03,229.74c-.11-.39-.23-.78-.34-1.17h-.07c.11.38.22.77.34,1.16h.08Z"/>
        <path d="M166.52,154.91c.17-.39.34-.78.51-1.18h-.08c-.17.38-.34.77-.52,1.16h.09Z"/>
        <path d="M154.53,156.79c-.17.41-.35.81-.52,1.22h.09c-.14-.16-.29-.33-.43-.49v.08c.31-.26.62-.52.93-.78l-.07-.02Z"/>
        <path d="M182.55,231.69c-.28.24-.57.48-.85.71,0,0,.01.07.01.07.31-.26.63-.52.94-.78,0,0-.1,0-.1,0Z"/>
        <path d="M181.05,51.08c-.4-.2-.8-.4-1.2-.6v.07c.39.2.79.41,1.19.61v-.09Z"/>
        <path d="M140.93,5.96c-.17.37-.34.74-.51,1.11h.08c.17-.36.34-.73.51-1.1h-.08Z"/>
        <path d="M140.46,12.32c-.1-.39-.2-.77-.3-1.16h-.08c.1.38.21.77.31,1.15h.07Z"/>
        <path d="M181.77,238.47c0-.16,0-.31,0-.21.03-.09-.02.06-.08.2h.08Z"/>
        <path d="M168.95,45.74c.15.02.3.04.22.03.06.03-.08-.04-.21-.12,0,0,0,.1,0,.1Z"/>
        <path d="M166.09,221.12l.5-1.19h-.08c.14.16.28.32.41.49v-.09c-.29.26-.6.52-.9.78l.07.02Z"/>
        <path d="M166.44,154.89c-.07.19-.15.38-.07.17-.15.15,0,0,.16-.16,0,0-.09-.01-.09-.01Z"/>
        <path d="M181.18,239.69c.2-.41.4-.81.59-1.22h-.08c-.2.4-.4.8-.6,1.21,0,0,.09,0,.09,0Z"/>
        <path d="M168.79,140.13c-.04.17-.09.33-.05.19-.08.1.03-.04.13-.18h-.08Z"/>
        <path d="M168.55,46.01c-.25-.31-.51-.62-.76-.94v.08c.39.19.77.38,1.16.58v-.1c-.16.12-.32.24-.48.37h.08Z"/>
        <path d="M141.44,15.24c-.09-.39-.17-.79-.26-1.18h-.08c.09.39.17.79.26,1.18h.08Z"/>
        <path d="M141.36,15.24c.09.14.19.29.11.16.02.14,0-.01-.03-.17h-.08Z"/>
        <path d="M165.52,223.04c-.3.25-.6.51-.9.76h.07c.16-.38.32-.78.48-1.18h-.09c.15.17.29.34.44.51v-.1Z"/>
        <path d="M180.25,241.17c-.06.15-.11.31-.08.2-.06.07.05-.06.16-.19h-.08Z"/>
        <path d="M164.13,225.01c.19-.4.38-.8.57-1.2h-.07c-.19.39-.38.79-.57,1.19h.08Z"/>
        <path d="M164.49,225.46c.21-.08.43-.17.83-.32-.23.35-.35.55-.48.74h.09c-.14-.16-.29-.32-.43-.49v.08Z"/>
        <path d="M165.01,157.66c.04-.2.07-.41.04-.24.09-.15-.02.04-.13.23h.09Z"/>
        <path d="M133.01,19.41c-.16-.03-.33-.06-.19-.03-.11-.07.04.02.18.12v-.08Z"/>
        <path d="M129.19,17.55c.14.05.29.1.18.07.07.06-.05-.05-.17-.15v.08Z"/>
        <path d="M173.82,246.05c.14-.1.27-.2.16-.11.14-.03,0,0-.15.03v.09Z"/>
        <path d="M185.51,164.9c-.27-.29-.54-.58-.81-.87v.08c.23.26.48.53.73.79h.08Z"/>
        <path d="M124.3,17.09c-.14.1-.28.2-.15.11-.15.03,0,0,.15-.03v-.08Z"/>
        <path d="M173.83,245.97c-.16-.06-.32-.12-.22-.08-.07-.06.07.06.21.17v-.09Z"/>
        <path d="M183.85,163.12c.28.33.56.66.84.99v-.08c-.24-.3-.5-.61-.76-.91h-.08Z"/>
        <path d="M168.85,242.69c.28-.24.57-.47.85-.71,0,0,0-.09,0-.09-.31.26-.62.53-.93.79,0,0,.08,0,.08,0Z"/>
        <path d="M135.19,38.62l-1.21-.6v.08c.39.2.8.41,1.2.61v-.08Z"/>
        <path d="M210.49,195.08c.17.06.34.12.17.06.11.11-.02-.02-.16-.15l-.02.09Z"/>
        <path d="M212.79,196.8c-.16-.02-.32-.04-.2-.02-.1-.05.04.02.19.1v-.07Z"/>
        <path d="M120.19,24.53c-.12-.42-.24-.85-.36-1.27h-.06c.11.42.22.85.33,1.27h.09Z"/>
        <polygon points="139.63 46.91 139.46 46.8 139.61 46.71 139.63 46.91"/>
        <path d="M142.69,51.71c-.09-.15-.18-.31-.09-.16-.02-.18,0,0,.02.16h.07Z"/>
        <path d="M184.21,165.18c-.17-.04-.34-.09-.18-.05-.12-.09.02.02.16.13v-.08Z"/>
        <path d="M193.09,123.9c.04-.17.08-.34.04-.18.08-.12-.02.03-.12.17h.08Z"/>
        <path d="M72.76,154.9c.16-.07.32-.14.18-.08.16,0,0,0-.17,0,0,0,0,.08,0,.08Z"/>
        <polygon points="68.55 149.4 68.58 149.6 68.4 149.5 68.55 149.4"/>
        <path d="M57.05,138.3c.16.05.32.09.2.06.09.07-.05-.03-.18-.14v.08Z"/>
        <path d="M70.41,153.9c-.17-.05-.35-.1-.21-.06-.1-.08.05.04.2.15v-.09Z"/>
        <path d="M69.82,155.9c.22-.01.44-.03.66-.04-.11.14-.21.29-.32.43,0,0,.07,0,.07,0-.13-.16-.26-.32-.39-.48,0,0-.02.09-.02.09Z"/>
        <path d="M96.78,187.47l.33,1.17h.08c-.11-.39-.21-.78-.32-1.17h-.08Z"/>
        <path d="M63.49,164.16c-.39.12-.78.24-1.17.36,0,0,0,.07,0,.07.39-.12.78-.24,1.17-.35,0,0,0-.08,0-.08Z"/>
        <path d="M61.44,164.43c-.13.08-.26.16-.16.09-.12.01.02,0,.15-.02,0,0,0-.08,0-.08Z"/>
        <path d="M52.91,164.98c-.38.1-.77.2-1.15.29v.07c.37-.1.76-.19,1.15-.29,0,0,0-.07,0-.07Z"/>
        <path d="M51.59,187.24c.15-.09.29-.18.17-.1.14-.02-.01,0-.17.02,0,0,0,.08,0,.08Z"/>
        <path d="M37.47,177.52c.04-.15.08-.29.05-.19.05-.07-.04.06-.13.18h.08Z"/>
        <path d="M169.24,19.83c.1.15.2.3.11.17.02.15,0,0-.03-.17h-.09Z"/>
        <path d="M160.95,162.56c-.41.11-.82.21-1.23.32,0,0,0,.09,0,.09.41-.11.82-.22,1.24-.32v-.09Z"/>
        <path d="M184.28,40.78c.14.05.29.11.2.07.06.05-.07-.05-.19-.16v.08Z"/>
        <path d="M160.66,17.52c-.21.08-.42.17-.85.34.27-.36.4-.54.54-.72h-.09c.13.16.26.32.39.48v-.1Z"/>
        <polygon points="94.53 93.54 94.33 93.56 94.52 93.62 94.53 93.54"/>
        <polygon points="90.28 91.18 90.26 91.02 90.2 91.18 90.28 91.18"/>
        <path d="M90.2,91.18c-.02.3-.04.59-.07.89h.08c.02-.29.04-.59.07-.88h-.08Z"/>
        <path d="M140.23,9.48c-.02.27-.04.53-.06.8,0,0,.08,0,.08,0,.02-.27.05-.53.07-.8h-.08Z"/>
        <path d="M191.25,18.31c-.02.27-.05.54-.07.81l.08.02c-.14-.16-.29-.32-.43-.49v.09c.17-.14.33-.28.5-.42,0,0-.07-.02-.07-.02Z"/>
        <path d="M191.18,19.13c-.02.27-.04.53-.06.8l.07.02c-.14-.16-.28-.32-.43-.48v.09c.16-.14.32-.27.49-.41l-.08-.02Z"/>
        <path d="M191.12,19.93c-.02.28-.05.56-.07.84h.08c-.14-.17-.28-.33-.41-.49l-.02.09c.17-.14.33-.27.5-.41l-.07-.02Z"/>
        <path d="M190.02,23.96c.18-.14.36-.29.54-.43l-.08-.02c-.07.13-.13.28-.23.39-.03.04-.16-.01-.24-.02,0,0,0,.08,0,.08Z"/>
        <polygon points="175.87 14.27 175.73 14.3 175.86 14.35 175.87 14.27"/>
        <polygon points="189.06 41.92 188.91 41.97 189.05 41.99 189.06 41.92"/>
        <path d="M186.28,41.34h-.08s.08,0,.08,0Z"/>
        <polygon points="186.2 41.34 186.22 41.48 186.28 41.34 186.2 41.34"/>
        <path d="M179.33,212.08c.02-.29.05-.58.07-.87,0,0-.08,0-.08,0-.02.29-.04.58-.07.87,0,0,.08,0,.08,0Z"/>
        <polygon points="161.73 14.35 161.54 14.42 161.73 14.43 161.73 14.35"/>
        <path d="M184.29,40.69c-.15.16-.3.31-.44.47h.08c.06-.09.11-.2.19-.29.04-.05.12-.06.18-.09v-.08Z"/>
        <path d="M161.56,16.09c.17-.14.35-.29.52-.43l-.07-.02c-.07.13-.12.27-.21.39-.03.04-.15,0-.24-.01v.07Z"/>
        <path d="M182.32,40.26v-.07s0,.07,0,.07Z"/>
        <path d="M183.43,41.58c.16-.14.33-.27.49-.41h-.08c-.14.1-.27.22-.41.33v.08Z"/>
        <polygon points="182.33 40.19 182.18 40.23 182.32 40.26 182.33 40.19"/>
        <polygon points="183.43 41.51 183.31 41.54 183.43 41.58 183.43 41.51"/>
        <path d="M182.93,42.77v-.08s0,.08,0,.08Z"/>
        <polygon points="159.63 15.42 159.48 15.46 159.62 15.5 159.63 15.42"/>
        <path d="M99.68,125.9c.03-.28.05-.56.08-.85,0,0-.08.02-.08.02-.02.27-.04.54-.06.81,0,0,.07.02.07.02Z"/>
        <path d="M182.13,42.7c.27.02.53.05.8.07v-.08c-.26-.02-.53-.05-.8-.07v.08Z"/>
        <polygon points="182.13 42.62 182.01 42.65 182.13 42.7 182.13 42.62"/>
        <path d="M167.3,205.83c-.13-.15-.26-.3-.38-.45h-.07c.15.18.29.35.44.52l.02-.07Z"/>
        <path d="M183.15,225.3h-.08s.08,0,.08,0Z"/>
        <path d="M180.66,225.12v-.08s0,.08,0,.08Z"/>
        <path d="M183.69,228.57c.03-.29.06-.58.09-.87h-.08c-.03.28-.06.57-.08.86h.07Z"/>
        <path d="M184.82,49.36c.27.02.54.05.82.07v-.08c-.18.14-.34.28-.51.42l.09.02-.41-.5v.07Z"/>
        <path d="M184.39,49.74c.07-.12.13-.25.22-.35.04-.04.14-.02.21-.03v-.07c-.18.14-.34.29-.5.43l.07.02Z"/>
        <path d="M183.96,230.62c.02-.29.05-.59.07-.88,0,0-.08,0-.08,0-.02.29-.05.59-.07.88h.08Z"/>
        <path d="M172.5,36.71v-.08s0,.08,0,.08Z"/>
        <path d="M171.69,36.64c.27.02.54.04.81.07,0,0,0-.08,0-.08l-.81-.07s0,.08,0,.08Z"/>
        <path d="M182.2,231.28l.85.06v-.09c-.17.15-.34.29-.51.44h.1c-.14-.16-.28-.32-.42-.49l-.03.08Z"/>
        <polygon points="183.76 232.14 183.76 232.28 183.84 232.14 183.76 232.14"/>
        <path d="M170.9,36.57c.26.02.53.05.79.07v-.08c-.26-.02-.52-.04-.79-.06v.07Z"/>
        <polygon points="170.9 36.49 170.77 36.53 170.9 36.57 170.9 36.49"/>
        <polygon points="141.01 5.97 140.97 5.84 140.93 5.96 141.01 5.97"/>
        <polygon points="178.04 48.36 177.83 48.38 178.03 48.44 178.04 48.36"/>
        <path d="M140.44,7.94c.02-.29.04-.58.05-.86h-.08c-.02.28-.03.57-.05.86h.08Z"/>
        <polygon points="183.21 235.01 183.18 234.82 183.16 234.99 183.21 235.01"/>
        <path d="M167.57,217.61c.02-.28.05-.57.07-.85h-.08c.14.17.28.33.42.49l.03-.08c-.17.14-.33.28-.5.43,0,0,.07.01.07.01Z"/>
        <path d="M140.16,10.28c-.03.29-.05.58-.08.87h.08c.03-.28.05-.58.08-.87,0,0-.08,0-.08,0Z"/>
        <polygon points="140.39 12.31 140.44 12.45 140.46 12.32 140.39 12.31"/>
        <polygon points="141.18 14.06 141.14 13.91 141.1 14.05 141.18 14.06"/>
        <path d="M171.92,49.1c-.29-.02-.58-.04-.86-.06,0,0-.01.08-.01.08.29.01.58.03.87.04,0,0,0-.07,0-.07Z"/>
        <path d="M167.79,45.08l-.54.48s.07.01.07.01c.15-.14.31-.27.46-.41,0,0,0-.08,0-.08Z"/>
        <path d="M168.47,46.01h.08s-.08,0-.08,0Z"/>
        <polygon points="150.76 34.94 150.78 35.08 150.84 34.94 150.76 34.94"/>
        <polygon points="158.46 44.82 158.49 44.95 158.53 44.83 158.46 44.82"/>
        <path d="M153.83,207.67v-.08s0,.08,0,.08Z"/>
        <path d="M155.28,209.34h-.09s.09,0,.09,0Z"/>
        <polygon points="155.65 209.87 155.78 209.83 155.67 209.79 155.65 209.87"/>
        <path d="M153.02,207.55c.27.04.54.08.81.12v-.08c-.26-.03-.52-.07-.79-.1l-.02.06Z"/>
        <path d="M155.67,209.79c-.13-.15-.26-.3-.38-.45h-.09c.15.18.31.36.46.53v-.08Z"/>
        <path d="M133,19.49v-.08s0,.08,0,.08Z"/>
        <polygon points="153.04 207.49 152.87 207.55 153.02 207.55 153.04 207.49"/>
        <path d="M129.19,17.46c-.27-.02-.54-.03-.8-.05v.07c.26.02.53.05.79.07v-.08Z"/>
        <polygon points="128.39 17.41 128.23 17.45 128.38 17.48 128.39 17.41"/>
        <path d="M159.39,54.58v.08s0-.08,0-.08Z"/>
        <polygon points="125.96 17.34 126.14 17.3 125.97 17.26 125.96 17.34"/>
        <path d="M125.16,17.24c.27.03.54.06.8.09v-.08c-.26-.03-.53-.06-.79-.1,0,0-.01.08-.01.08Z"/>
        <path d="M124.3,17.17l.86.07s.01-.08.01-.08c-.29-.03-.58-.05-.87-.08v.08Z"/>
        <polygon points="156.04 56.01 156.03 55.87 155.96 56 156.04 56.01"/>
        <polygon points="151.66 55.17 151.53 55.22 151.66 55.26 151.66 55.17"/>
        <path d="M149.93,56.77c.26,0,.52.02.78.03,0,0,0-.06,0-.06-.26-.02-.52-.03-.78-.05,0,0,0,.08,0,.08Z"/>
        <path d="M205.03,121.2c.06-.12.11-.26.2-.36.04-.04.16-.01.25-.02,0,0-.02-.08-.02-.08-.17.15-.34.3-.5.44l.07.02Z"/>
        <polygon points="149.93 56.7 149.81 56.7 149.93 56.77 149.93 56.7"/>
        <polygon points="139.08 44.95 139.1 45.11 139.14 44.95 139.08 44.95"/>
        <polygon points="76.81 133.43 76.94 133.4 76.82 133.34 76.81 133.43"/>
        <path d="M170.39,243.62c.14-.11.28-.21.42-.32,0,0,0-.09,0-.09-.16.13-.33.27-.49.4,0,0,.08,0,.08,0Z"/>
        <polygon points="170.32 243.61 170.34 243.74 170.39 243.62 170.32 243.61"/>
        <path d="M194.11,120.69c-.07.12-.13.25-.22.36-.04.04-.15.02-.22.03v.07c.18-.15.35-.29.52-.44l-.07-.02Z"/>
        <path d="M168.77,242.69h.08s-.08,0-.08,0Z"/>
        <path d="M75.56,138.97c.12.13.25.26.37.39l.07.02c-.14-.16-.28-.32-.43-.48l-.02.07Z"/>
        <path d="M75.94,139.36c-.02.28-.04.56-.06.85h.07c-.14-.17-.29-.34-.43-.51v.09c.16-.14.33-.27.49-.41l-.07-.02Z"/>
        <path d="M150.83,230.45v-.08s0,.08,0,.08Z"/>
        <path d="M150.83,230.37v.08s0-.08,0-.08Z"/>
        <path d="M148.79,230.72v-.08s0,.08,0,.08Z"/>
        <path d="M147.98,230.63c.27.03.54.06.81.08v-.08c-.26-.03-.53-.06-.8-.09v.08Z"/>
        <path d="M147.99,230.55c-.27-.02-.53-.04-.8-.07v.08c.26.02.52.05.79.07v-.08Z"/>
        <path d="M147.2,230.48c-.27-.01-.54-.03-.81-.04,0,0,0,.08,0,.08.27.01.54.03.81.04v-.08Z"/>
        <path d="M145.58,230.46c.27.02.53.04.8.06v-.08c-.26-.02-.53-.03-.8-.05v.07Z"/>
        <polygon points="145.59 230.39 145.44 230.4 145.58 230.46 145.59 230.39"/>
        <path d="M184.4,162.02v-.08s0,.08,0,.08Z"/>
        <path d="M187.44,165.42h-.1s.1,0,.1,0Z"/>
        <path d="M188.6,165.88c-.27,0-.54-.01-.82-.02v.08c.26,0,.53,0,.81.01v-.07Z"/>
        <path d="M187.34,165.42c.14.18.29.35.43.53v-.08c-.25-.03-.51-.06-.77-.1v.08c.14-.14.29-.28.44-.42,0,0-.1,0-.1,0Z"/>
        <polygon points="72.76 154.81 72.61 154.87 72.76 154.9 72.76 154.81"/>
        <path d="M186.12,165.79c.29.02.58.04.87.06v-.08c-.28-.02-.57-.04-.86-.06v.08Z"/>
        <path d="M56.61,138.65c-.07.12-.13.24-.22.34-.04.04-.14.02-.21.03l.02.07.49-.42-.07-.03Z"/>
        <path d="M213.23,197.34c-.15-.18-.3-.36-.45-.54v.07c.11.16.24.31.37.47h.08Z"/>
        <polygon points="96.86 187.47 96.84 187.33 96.78 187.47 96.86 187.47"/>
        <path d="M97.1,188.64c-.03.29-.05.58-.08.87h.08c.03-.28.05-.57.08-.86h-.08Z"/>
        <path d="M64.35,164.26c-.29-.03-.58-.07-.87-.1v.08c.28.03.57.07.86.1,0,0,0-.08,0-.08Z"/>
        <polygon points="168.18 148.14 168.02 148.17 168.18 148.22 168.18 148.14"/>
        <path d="M65.34,167.18h-.08s.08,0,.08,0Z"/>
        <path d="M65.26,167.18h.08s-.08,0-.08,0Z"/>
        <path d="M62.31,164.52c-.29-.03-.58-.06-.87-.09,0,0,0,.08,0,.08l.87.08s0-.07,0-.07Z"/>
        <polygon points="52.91 165.05 53.06 165.04 52.91 164.98 52.91 165.05"/>
        <polygon points="51.76 165.27 51.61 165.33 51.75 165.34 51.76 165.27"/>
        <path d="M37.41,178.32c.02-.27.04-.54.06-.8h-.08c-.02.26-.04.53-.05.79h.08Z"/>
        <polygon points="42.58 184.39 42.56 184.24 42.51 184.38 42.58 184.39"/>
        <path d="M47.08,188.77c-.29-.02-.57-.04-.86-.06,0,0,0,.07,0,.07.29.02.58.04.86.06,0,0,0-.07,0-.07Z"/>
        <path d="M37.34,179.12c.03-.27.05-.53.08-.8,0,0-.08,0-.08,0l-.06.8s.07,0,.07,0Z"/>
        <path d="M42.51,184.38c-.02.29-.04.58-.07.86h.08c.02-.28.04-.57.06-.86h-.07Z"/>
        <polygon points="37.27 179.12 37.3 179.27 37.34 179.12 37.27 179.12"/>
        <path d="M162.62,157.47h-.08s.08,0,.08,0Z"/>
        <path d="M161.12,161l.79.05s-.01-.08-.01-.08c-.16.14-.32.27-.49.41l.08-.02c-.12-.15-.24-.3-.36-.45v.08Z"/>
        <path d="M162.25,161.43c-.14.11-.27.23-.41.34v.1c.15-.14.31-.28.47-.41l-.07-.03Z"/>
        <path d="M161.13,160.92v.08s0-.08,0-.08Z"/>
        <path d="M161.84,161.77l-.43.4h.08c0-.26,0-.53,0-.8,0,0-.08.02-.08.02.14.16.28.32.41.48v-.1Z"/>
        <polygon points="159.14 160.43 159.31 160.41 159.15 160.35 159.14 160.43"/>
        <path d="M161.41,162.17c-.15.13-.31.26-.46.39v.09c.18-.15.36-.31.54-.46h-.08Z"/>
        <path d="M13.58,203.18l.87.07s0-.07,0-.07l-.51.43h.09c-.14-.16-.29-.33-.43-.5,0,0-.02.07-.02.07Z"/>
        <polygon points="159.15 160.35 159.01 160.39 159.14 160.43 159.15 160.35"/>
        <path d="M123.46,161.62c-1.51.78-2.7-.35-4.05-.77-.95.42-1.89.84-3.01,1.34.34-1.88,1.22-3.22,2.59-4.31,1.31-.22,2.43-.09,2.73,1.64-.36.18-.68.34-1.13.56,1,.56,1.93,1.08,2.86,1.61v-.07ZM118.42,159.45c-.04.25-.02.13,0,0-.06.12-.12.24,0,0Z"/>
        <path d="M107.57,148.23c-.3.26-.59.52-.89.78l.07.02c-.3-.02-.6-.05-.9-.07h.07c-.66-.19-1.32-.38-1.97-.56v.08c1.2-.06,2.4-.12,3.61-.18v-.07Z"/>
        <path d="M113.98,149.6c-.16.14-.32.27-.48.41-.82-.09-1.63-.18-2.45-.27h.08c-.25-.28-.5-.57-.76-.86v.08c1.25-.11,2.54-.36,3.61.64Z"/>
        <path d="M110.37,148.89c-1.05.26-2.03.23-2.8-.66v.07c.92.22,1.86.44,2.79.67v-.08Z"/>
        <path d="M88.86,154.19c.15-.16.3-.32.45-.47.03.03.06.07.1.1l-.48.41s-.04-.03-.06-.04Z"/>
        <path d="M93.2,151.59c.43-.27.86-.54,1.29-.8.04.1.09.21.13.31-.47.14-.94.27-1.42.41v.08Z"/>
        <path d="M93.2,151.51l-1.2,1.03-.17-.26c.46-.23.91-.46,1.37-.69v-.08Z"/>
        <path d="M112.16,136.21c.47.02.93.04,1.4.06-.03.14-.06.27-.09.41-.43-.18-.86-.37-1.29-.55v.08Z"/>
        <path d="M112.18,136.13c-.4-.05-.8-.11-1.2-.16.05-.15.09-.3.14-.44.35.23.7.46,1.05.69,0,0,.01-.08.01-.08Z"/>
        <path d="M103.95,148.4c-.54-.07-1.07-.14-1.61-.21v.08c.53.07,1.07.14,1.6.2v-.08Z"/>
        <path d="M96.47,150.07c.21-.18.1-.09,0,0,.07-.11.15-.22,0,0Z"/>
        <path d="M128.82,160.86c.27-.19.55-.38.82-.58.04.1.08.21.12.31-.31.06-.63.12-.94.18v.08Z"/>
        <path d="M123.27,160.2c-.07-.04-.14-.07-.2-.11.06-.08.13-.16.19-.24.05.06.13.12.14.19,0,.05-.08.11-.13.16Z"/>
        <path d="M128.83,160.78l-1.24.35v.08c.41-.12.82-.23,1.23-.35v-.08Z"/>
        <path d="M102.34,148.2c-.41.12-.82.25-1.22.37,0,0,0,.08,0,.08.41-.12.82-.24,1.23-.36,0,0,0-.08,0-.08Z"/>
        <path d="M99.07,148.81c.39-.08.78-.17,1.18-.25v-.08c-.39.08-.78.16-1.17.25,0,0,0,.09,0,.09Z"/>
        <path d="M99.08,148.72c-.15.11-.29.22-.16.13-.16.04,0,0,.16-.04,0,0,0-.09,0-.09Z"/>
        <path d="M118.44,148.79c-.14-.16-.28-.32-.42-.49.22-.07.43-.14.8-.26-.17.34-.28.54-.38.74Z"/>
        <path d="M103.07,128.94h-.08s.08,0,.08,0Z"/>
        <path d="M102.99,128.93h.08s-.08,0-.08,0Z"/>
        <polygon points="127.59 161.13 127.45 161.15 127.58 161.21 127.59 161.13"/>
        <polygon points="124.31 161.77 124.52 161.72 124.32 161.7 124.31 161.77"/>
        <path d="M123.46,161.69c.29.03.57.05.86.08v-.08c-.28-.03-.56-.05-.85-.08v.07Z"/>
        <polygon points="111.05 149.75 111.08 149.88 111.13 149.75 111.05 149.75"/>
        <path d="M106.68,149c-.06.11-.11.24-.19.34-.03.04-.13.03-.2.05,0,0-.03.07-.03.07.16-.14.33-.29.49-.43l-.07-.02Z"/>
        <path d="M106.3,149.39l-.37-.44h-.07c.14.18.27.35.41.51l.03-.07Z"/>
        <path d="M100.25,148.56l.86.09v-.08c-.28-.03-.57-.06-.86-.09v.08Z"/>
        <path d="M160.84,179.96c-.39-.46-.78-.91-1.17-1.37.75.15,1.18.57,1.17,1.37Z"/>
        <path d="M166.69,187.67c.14.3.29.6.66,1.37-.62-.62-.87-.86-1.11-1.1v.1c.17-.12.35-.24.54-.36h-.08Z"/>
        <path d="M168.4,191.38l-.55-.79c.08-.03.17-.07.25-.1.07.29.14.59.21.88h.08Z"/>
        <path d="M159.75,178.63c-.42-.18-.85-.35-1.27-.53.42.18.85.35,1.27.53Z"/>
        <path d="M166.77,187.67c-.08-.13-.17-.27-.11-.18-.02-.1,0,.04.03.18h.08Z"/>
        <path d="M168.32,191.37c.06.15.13.29.09.2,0,.1,0-.05,0-.2h-.08Z"/>
        <path d="M145.43,185.53c-.02.3-.05.6-.07.91.02-.3.05-.6.07-.91Z"/>
        <path d="M145.37,186.33c-.02.3-.05.6-.07.91.02-.3.05-.6.07-.91Z"/>
        <path d="M68,158.92c-.82.09-1.65.18-2.55.28,0-.72-.01-1.32-.02-2.39,1.02.87,1.79,1.53,2.56,2.2,0,0,0-.09,0-.09Z"/>
        <path d="M64.01,152.52c.15.17.29.34.44.51-.15-.17-.29-.34-.44-.51Z"/>
        <path d="M64.1,157.82h-.08s.08,0,.08,0Z"/>
        <path d="M63.61,158.24c.16-.14.33-.28.49-.42h-.08c-.07.1-.12.22-.21.32-.03.04-.13.01-.2.02v.08Z"/>
        <path d="M63.62,158.16v.08s0-.08,0-.08Z"/>
        <polygon points="43.69 143.77 43.85 143.74 43.7 143.68 43.69 143.77"/>
        <path d="M131.61,119.5c.43-.07.87-.14,1.36-.22-.45,1.06-.91.3-1.35.12v.09Z"/>
        <path d="M115.73,117.45c-.26-.31-.52-.62-.78-.93v.08c.23.28.47.56.71.85h.08Z"/>
        <path d="M109.02,114.93c.15-.07.3-.13.18-.08.14,0-.02,0-.17,0v.08Z"/>
        <path d="M116.58,115.8c-.37-.16-.75-.31-1.12-.47v.08c.36.16.74.32,1.11.48l.02-.08Z"/>
        <path d="M117.76,116.43c-.14-.17-.28-.33-.42-.5.14.17.28.33.42.5Z"/>
        <path d="M117.43,115.94l-.48.43c-.12-.19-.24-.38-.37-.57l-.02.08c.29.02.58.04.87.06Z"/>
        <polygon points="115.45 115.33 115.3 115.38 115.44 115.4 115.45 115.33"/>
        <path d="M114.95,116.53c-.27-.02-.54-.04-.81-.07v.08c.26.02.53.04.8.06,0,0,0-.08,0-.08Z"/>
        <polygon points="114.13 116.46 113.97 116.49 114.13 116.54 114.13 116.46"/>
        <path d="M109.02,114.85c-.27-.02-.54-.04-.82-.06v.08c.27.02.54.04.81.06v-.08Z"/>
        <path d="M107.35,114.79c.28.03.57.06.85.09v-.08c-.28-.03-.56-.06-.85-.1,0,0,0,.09,0,.09Z"/>
        <polygon points="108.9 116.53 108.87 116.38 108.82 116.52 108.9 116.53"/>
        <polygon points="125.38 122.66 125.35 122.49 125.3 122.65 125.38 122.66"/>
        <path d="M150.62,130.15c-.29.13-.58.25-.87.38-.02-.09-.05-.18-.07-.28.31,0,.62-.01.93-.02v-.09Z"/>
        <path d="M156.82,133.12c.26.31.53.62.79.92-.78.13-1.44.17-.79-.92Z"/>
        <path d="M147.79,129.59c-.16-.02-.33-.04-.49-.06.16.05.32.1.49.14,0,0,0-.08,0-.08Z"/>
        <polygon points="147.78 129.67 147.95 129.65 147.79 129.59 147.78 129.67"/>
        <polygon points="145.43 128.67 145.56 128.66 145.43 128.59 145.43 128.67"/>
        <path d="M130.24,55.61h-.08s.08,0,.08,0Z"/>
        <polygon points="124.86 196.76 124.96 196.61 125.03 196.74 124.86 196.76"/>
        <path d="M123.3,199.99c.28-.23.56-.46.83-.68v-.08c-.3.26-.61.51-.92.77,0,0,.09,0,.09,0Z"/>
        <polygon points="124.13 199.31 124.26 199.27 124.14 199.22 124.13 199.31"/>
        <path d="M124.11,200.88c-.15-.15-.29-.3-.44-.45v.07c.11.13.23.26.35.39h.08Z"/>
        <path d="M123.21,199.99c.15.17.3.34.45.5v-.07c-.11-.15-.24-.29-.37-.44h-.09Z"/>
        <path d="M117.47,94.21c-.02.26-.04.53-.06.79.02-.26.04-.53.06-.79Z"/>
        <path d="M202.57,219.06c-.02.3-.05.61-.07.91.02-.3.05-.61.07-.91Z"/>
        <path d="M173.67,207.17c-.34-.5-.68-.99-1.27-1.86,1.53.38,1.76.92,1.18,1.86h.09Z"/>
        <path d="M133.93,125.72c.71-.08,1.42-.17,2.13-.25-.71.08-1.42.17-2.13.25Z"/>
        <path d="M184.95,202.02c.31-.26.62-.52.93-.79,0,0-.08-.01-.08-.01l-.84.72v.08Z"/>
        <polygon points="184.96 201.94 184.8 201.97 184.95 202.02 184.96 201.94"/>
        <path d="M121.42,95.32c-.14-.16-.27-.32-.41-.48.16-.14.32-.28.48-.41.14.16.28.32.41.48-.16.14-.32.27-.49.41Z"/>
      </g>
    </g>
  </g>
</svg>